<svg width="442" height="124" viewBox="0 0 442 124" fill="none" xmlns="http://www.w3.org/2000/svg">
<path d="M183.425 0.359639H186.096V123.791H183.425V0.359639Z" fill="#B6862C"/>
<path d="M2.53799 4.70332H59.9512V37.6502H41.7715V30.0019H26.5273V51.9825H43.9791V75.6899H26.5273V94.6538H31.6665V119.415H2.53799V94.6538H8.00855V30.0019H2.53799V4.70332V4.70332ZM0 34.047L5.44471 34.035V90.5849L0 90.6133V123.399H34.1633V90.6446H29.1198V79.8051L46.5917 79.8559V47.9912L29.1198 47.9344V33.9709H38.9759V41.6519H62.5849V0.747843H0V34.047V34.047ZM67.8898 4.70332H97.0173V30.0019H91.7708V94.6538H97.0173V119.415H68.0095V94.6538H73.2569V30.0019H67.8898V4.70332V4.70332ZM65.3547 33.9709H70.7141V90.6297H65.3547V123.372H99.5189V90.6297H94.3261V33.9709H99.561V0.747843H65.3547V33.9709V33.9709ZM167.277 30.0019H162.034L162.022 97.7436L148.729 119.415H123.264L109.984 97.7436V30.0019H104.733V4.70332H131.583V30.0019H128.503V92.2044L128.507 92.191L130.024 94.6538H141.982H141.99L143.515 92.1835V30.0019H140.435V4.70332H167.277V30.0019V30.0019ZM137.297 0.747843V33.9843L140.964 33.9709L140.956 90.6566H131.103V33.9768H134.377V0.747843H102.219V33.9709H107.404V99.7556L121.862 123.408H150.217L164.564 99.7556V33.9709H169.857V0.747843H137.297V0.747843Z" fill="#B6862C"/>
<path d="M140.126 30.0034H143.516V92.1865L141.99 94.6553H141.983H130.025L128.507 92.1939L128.504 92.2059V30.0034H131.584V4.70478H104.734V30.0034H109.985V97.745L123.265 119.417H148.73L162.023 97.745L162.035 30.0034H167.278V4.70478H140.126V30.0034V30.0034Z" fill="#081E3F"/>
<path d="M97.0183 4.70326H67.8898V30.0019H73.2569V94.6538H68.0095V119.415H97.0183V94.6538H91.7718V30.0019H97.0183V4.70326V4.70326Z" fill="#081E3F"/>
<path d="M2.53799 30.0034H8.00856V94.6553H2.53799V119.417H31.6665V94.6553H26.5273V75.6914H43.9791V51.9839H26.5273V30.0034H41.7715V37.6517H59.9511V4.70478H2.53799V30.0034V30.0034Z" fill="#081E3F"/>
<path d="M209.771 0.762695C211.732 0.762695 213.448 0.71493 214.092 0.619401C214.092 1.67021 214.092 5.25254 214.153 7.49745C214.031 7.87957 213.479 7.97509 213.173 7.68851C212.866 4.91818 212.376 3.53302 211.211 3.05538C210.385 2.72103 209.617 2.67327 208.637 2.67327H207.075C205.788 2.67327 205.788 2.76879 205.788 5.44359V13.9934C205.788 15.1875 205.817 15.283 206.522 15.283H208.33C210.997 15.283 211.456 15.1875 211.763 13.1799L212.008 11.5559C212.192 11.2231 212.774 11.2231 212.927 11.6052C212.897 12.847 212.835 14.6128 212.835 16.3801C212.835 18.1474 212.897 19.8669 212.927 21.3476C212.774 21.7297 212.192 21.7297 212.008 21.3954L211.763 19.5325C211.487 17.5265 210.997 17.4309 208.33 17.4309H206.522C205.817 17.4309 205.788 17.5265 205.788 18.7206V25.4076C205.788 30.4706 206.063 30.5183 207.504 30.8049L208.791 31.0437C209.005 31.3781 208.974 32.2363 208.729 32.4289C206.767 32.3334 205.389 32.2856 204.041 32.2856C202.691 32.2856 201.313 32.3334 199.903 32.4289C199.658 32.2363 199.627 31.3781 199.842 31.0437L200.516 30.9004C201.957 30.6139 202.232 30.4706 202.232 25.4076V7.64075C202.232 2.57774 201.957 2.43444 200.516 2.10009L200.118 2.00457C199.903 1.67022 199.934 0.810458 200.179 0.619401C201.251 0.71493 202.631 0.762695 203.979 0.762695H209.771V0.762695Z" fill="#081E3F"/>
<path d="M222.117 24.406C222.117 26.7942 222.18 28.5138 222.638 29.3257C223.006 29.9944 223.496 30.3766 225.948 30.3766C229.35 30.3766 229.84 30.1377 231.249 25.218C231.556 24.9792 232.046 25.1225 232.199 25.5046C231.955 27.5107 231.28 31.1408 230.913 32.4304C229.626 32.3349 226.99 32.2871 223.558 32.2871H220.371C218.807 32.2871 217.275 32.3349 215.989 32.4304C215.744 32.2379 215.652 31.2841 215.927 31.0453L216.846 30.8064C218.286 30.4243 218.562 30.3766 218.562 25.4091V7.64227C218.562 2.67479 218.286 2.5315 216.846 2.19715L215.989 2.00609C215.774 1.76727 215.774 0.811984 216.05 0.620927C217.582 0.716456 218.961 0.764221 220.371 0.764221C221.719 0.764221 223.098 0.716456 224.446 0.620927C224.722 0.811984 224.753 1.76727 224.508 2.00609L223.834 2.19715C222.393 2.57926 222.117 2.67479 222.117 7.64227V24.406V24.406Z" fill="#081E3F"/>
<path d="M236.991 15.5697C236.991 22.1612 238.799 31.1394 244.039 31.1394C247.533 31.1394 250.351 27.0794 250.351 17.4803C250.351 10.2679 248.267 1.91063 243.395 1.91063C240.33 1.91063 236.991 5.39742 236.991 15.5697V15.5697ZM254.519 16.6205C254.519 26.0286 249.923 33.0499 243.732 33.0499C236.807 33.0499 232.822 25.4569 232.822 16.9549C232.822 7.21097 237.359 6.0103e-05 243.794 6.0103e-05C250.872 6.0103e-05 254.519 7.92743 254.519 16.6205" fill="#081E3F"/>
<path d="M261.509 14.8083C261.509 16.3368 261.509 16.4323 262.98 16.4323C265.983 16.4323 267.361 14.1396 267.361 9.60202C267.361 5.82865 265.798 2.53292 263.133 2.53292C261.539 2.53292 261.509 2.6777 261.509 4.87336V14.8083V14.8083ZM257.954 7.93027C257.954 3.34491 257.924 2.77323 256.483 2.53292L255.687 2.38963C255.471 2.05677 255.471 1.29105 255.716 1.05372C257.648 0.765641 260.252 0.623838 262.765 0.623838C265.156 0.623838 267.239 1.09999 268.588 2.24782C270.15 3.53597 271.284 5.78088 271.284 9.21991C271.284 13.6142 269.108 15.8114 267.608 16.7667C267.424 16.91 267.484 17.2921 267.608 17.5772C270.059 24.0253 271.591 28.0853 273.031 29.9481C273.889 31.0944 274.778 31.381 275.146 31.4288C275.299 31.6198 275.299 32.1452 275.207 32.3841C274.839 32.5274 274.257 32.6707 273.184 32.6707C270.242 32.6707 268.65 30.8078 266.78 26.3658C265.953 24.3597 265.094 21.7341 264.358 19.8713C263.807 18.4384 263.47 18.2473 262.459 18.2473C261.539 18.2473 261.509 18.2951 261.509 19.2967V25.4105C261.509 30.4735 261.785 30.6168 263.225 30.9034L263.899 31.0467C264.114 31.381 264.083 32.2408 263.838 32.4318C262.489 32.3363 261.11 32.2885 259.763 32.2885C258.413 32.2885 257.034 32.3363 255.624 32.4318C255.379 32.2408 255.288 31.381 255.564 31.0467L256.237 30.9034C257.678 30.6168 257.954 30.4735 257.954 25.4105V7.93027V7.93027Z" fill="#081E3F"/>
<path d="M281.612 25.4061C281.612 30.4691 281.887 30.6124 283.328 30.899L284.002 31.0423C284.217 31.3766 284.186 32.2364 283.941 32.4274C282.592 32.3319 281.213 32.2841 279.866 32.2841C278.517 32.2841 277.077 32.3319 275.728 32.4274C275.483 32.2364 275.451 31.3766 275.667 31.0423L276.34 30.899C277.781 30.6124 278.056 30.4691 278.056 25.4061V7.63928C278.056 2.57776 277.781 2.43298 276.34 2.14639L275.667 2.0031C275.451 1.66875 275.483 0.808994 275.728 0.617937C277.077 0.713465 278.455 0.76123 279.866 0.76123C281.213 0.76123 282.592 0.713465 283.941 0.617937C284.186 0.808994 284.217 1.66875 284.002 2.0031L283.328 2.14639C281.887 2.43298 281.612 2.57776 281.612 7.63928V25.4061V25.4061Z" fill="#081E3F"/>
<path d="M292.463 23.5402C292.463 28.1733 292.677 30.6571 295.925 30.6571C301.38 30.6571 303.832 24.6388 303.832 16.5666C303.832 7.11081 300.307 2.52544 295.19 2.52544C293.903 2.52544 292.921 2.90756 292.708 3.19414C292.492 3.48073 292.463 4.48378 292.463 6.7287V23.5402V23.5402ZM288.908 7.9228C288.908 3.33743 288.877 2.66873 287.436 2.47768L286.793 2.38215C286.579 2.14333 286.579 1.28357 286.824 1.04475C289.03 0.758166 291.482 0.614873 294.484 0.614873C297.396 0.614873 299.48 0.996986 301.717 2.23886C305.395 4.34048 308 9.40349 308 16.5189C308 21.8207 306.314 27.2658 302.514 30.275C300.338 31.9945 297.703 32.5662 294.914 32.5662C293.044 32.5662 291.604 32.2796 290.471 32.2796C289.306 32.2796 287.927 32.3288 286.579 32.4244C286.334 32.2318 286.303 31.3735 286.517 31.0377L287.191 30.8959C288.632 30.6078 288.908 30.466 288.908 25.403V7.9228V7.9228Z" fill="#081E3F"/>
<path d="M317.804 18.4355C318.662 18.4355 318.785 18.34 318.54 17.1936L317.254 11.4619C316.702 8.93041 316.548 8.02289 316.394 7.68854H316.334C316.212 8.02289 315.936 9.217 315.415 11.4619L314.127 17.0503C313.821 18.4355 313.881 18.4355 314.618 18.4355H317.804V18.4355ZM314.127 20.5849C313.331 20.5849 313.36 20.5849 313.085 21.8745L311.829 27.6062C311.216 30.4228 311.339 30.5184 312.473 30.8064L313.36 31.0438C313.576 31.3781 313.545 32.2379 313.3 32.4304C312.318 32.3349 311.308 32.3349 310.051 32.2856C309.04 32.2856 308.09 32.3349 307.017 32.4304C306.804 32.1901 306.772 31.4736 306.987 31.0438L307.906 30.8064C308.795 30.5661 309.132 30.1855 309.592 28.6078C309.959 27.3659 310.45 25.3613 311.093 22.782L315.292 5.77947C315.66 4.25101 315.965 3.10467 315.873 2.29268C316.946 1.95833 317.957 -8.36199e-06 318.02 -8.36199e-06C318.264 -8.36199e-06 318.418 0.143285 318.54 0.382106C319.03 2.5315 319.429 4.77642 319.919 6.92581L324.331 26.9375C325.037 30.1362 325.19 30.4228 326.753 30.902L327.212 31.0438C327.458 31.3781 327.458 32.1901 327.243 32.4304C325.987 32.3349 324.852 32.2856 323.259 32.2856C321.942 32.2856 320.593 32.3812 319.52 32.4304C319.275 32.1901 319.245 31.3303 319.429 31.0438L320.103 30.902C321.206 30.6617 321.359 30.3766 320.9 28.369L319.459 21.8745C319.183 20.5849 319.061 20.5849 318.203 20.5849H314.127V20.5849Z" fill="#081E3F"/>
<path d="M205.787 70.7821C205.787 75.8451 206.062 75.9869 207.503 76.2765L208.176 76.4183C208.392 76.7527 208.361 77.6109 208.116 77.8035C206.766 77.7079 205.388 77.6602 204.04 77.6602C202.691 77.6602 201.251 77.7079 199.902 77.8035C199.658 77.6109 199.626 76.7527 199.841 76.4183L200.515 76.2765C201.956 75.9869 202.231 75.8451 202.231 70.7821V53.0153C202.231 47.9538 201.956 47.809 200.515 47.5239L199.841 47.3791C199.626 47.0448 199.658 46.1865 199.902 45.9955C201.251 46.091 202.63 46.1373 204.04 46.1373C205.388 46.1373 206.766 46.091 208.116 45.9955C208.361 46.1865 208.392 47.0448 208.176 47.3791L207.503 47.5239C206.062 47.809 205.787 47.9538 205.787 53.0153V70.7821V70.7821Z" fill="#081E3F"/>
<path d="M229.932 69.5433C229.932 70.9747 229.932 76.8497 230.025 77.9483C229.78 78.4737 229.351 78.6663 228.983 78.617C228.492 77.614 227.603 75.99 225.397 72.0748L218.226 59.3218C216.265 55.7887 215.254 54.0199 214.733 53.305C214.64 53.305 214.64 53.8304 214.64 56.3604V65.6744C214.64 69.2567 214.671 73.6495 215.192 75.0825C215.468 75.8004 215.989 76.1333 216.755 76.2781L217.429 76.4214C217.705 76.7542 217.674 77.6632 217.369 77.8065C216.234 77.7095 215.039 77.6632 213.874 77.6632C212.588 77.6632 211.759 77.7095 210.688 77.8065C210.442 77.5662 210.381 76.7542 210.626 76.4214L211.301 76.1825C211.883 75.99 212.434 75.8467 212.649 75.0825C213.048 73.6018 213.048 69.4478 213.048 65.6744V54.3558C213.048 50.6302 213.077 49.8659 212.036 48.4808C211.699 48.0509 210.84 47.6688 210.412 47.5255L209.952 47.3822C209.738 47.0956 209.768 46.1403 210.075 45.997C211.239 46.1881 212.925 46.1403 213.691 46.1403C214.335 46.1403 215.07 46.0926 215.806 45.997C216.327 48.0509 219.666 54.0692 220.739 55.8842L223.804 61.0413C225.09 63.2384 227.941 68.3014 228.247 68.588C228.34 68.4447 228.34 68.2059 228.34 67.4417V58.1277C228.34 54.5468 228.309 50.1525 227.757 48.7196C227.481 48.0031 226.991 47.6688 226.225 47.5255L225.52 47.3822C225.243 47.0478 225.275 46.1403 225.581 45.997C226.777 46.0926 227.911 46.1403 229.106 46.1403C230.424 46.1403 231.22 46.0926 232.323 45.997C232.568 46.2359 232.629 47.0478 232.385 47.3822L231.679 47.621C231.098 47.8121 230.577 47.9554 230.361 48.7196C229.932 50.2003 229.932 54.3558 229.932 58.1277V69.5433V69.5433Z" fill="#081E3F"/>
<path d="M241.492 50.154C241.492 48.1479 241.461 48.0524 240.665 48.0524H238.948C236.129 48.0524 235.301 48.5778 234.167 52.4467C233.953 52.7332 233.309 52.59 233.187 52.1123C233.708 49.533 234.167 46.5717 234.382 44.8999C234.444 44.7566 234.567 44.7089 234.72 44.7089C234.843 44.7089 234.965 44.7566 235.026 44.8999C235.179 46.094 235.608 46.1418 237.692 46.1418H250.195C251.697 46.1418 252.156 45.9985 252.524 44.8999C252.646 44.8059 252.768 44.7089 252.892 44.7089C253.076 44.7089 253.229 44.8059 253.289 44.9477C252.984 46.906 252.739 51.0137 252.831 52.5422C252.677 52.9243 252.156 53.0198 251.881 52.6855C251.482 48.9599 250.9 48.0524 247.621 48.0524H245.874C245.077 48.0524 245.047 48.1479 245.047 50.154V70.7866C245.047 75.8482 245.322 75.9914 246.763 76.2303L247.866 76.4228C248.08 76.7572 248.051 77.6154 247.805 77.808C246.027 77.711 244.649 77.6647 243.3 77.6647C241.951 77.6647 240.511 77.711 238.55 77.808C238.305 77.6154 238.274 76.6616 238.489 76.4228L239.776 76.184C241.216 75.8974 241.492 75.8482 241.492 70.7866V50.154V50.154Z" fill="#081E3F"/>
<path d="M256.663 53.0198C256.663 47.9568 256.387 47.7657 254.946 47.4791L254.456 47.3836C254.241 47.0492 254.272 46.1895 254.517 45.9984C255.682 46.094 257.121 46.1417 258.471 46.1417H264.324C266.285 46.1417 268.063 46.094 268.461 45.9984C268.584 46.8104 268.767 50.5838 268.951 52.6377C268.829 53.0198 268.217 53.1153 267.971 52.8287C267.48 50.0584 267.02 48.9121 266.04 48.4822C265.336 48.1956 264.416 48.0523 263.588 48.0523H261.536C260.218 48.0523 260.218 48.1478 260.218 50.8704V58.9425C260.218 60.1844 260.247 60.2322 260.952 60.2322H262.424C265.09 60.2322 265.549 60.1844 265.825 58.1305L266.04 56.5066C266.285 56.1722 266.867 56.1722 267.02 56.5543C266.99 57.844 266.929 59.5635 266.929 61.3293C266.929 63.1458 266.99 64.816 267.02 66.3445C266.867 66.6789 266.285 66.6789 266.04 66.3923L265.825 64.4817C265.611 62.4756 265.09 62.3816 262.424 62.3816H260.952C260.247 62.3816 260.218 62.4756 260.218 63.6697V69.7358C260.218 72.1732 260.278 73.8913 260.739 74.7032C261.106 75.3719 261.628 75.7063 264.201 75.7541C268.093 75.8018 268.767 74.4644 269.84 70.5955C270.116 70.2612 270.637 70.4045 270.821 70.8821C270.637 72.8882 269.963 76.5183 269.534 77.8079C268.185 77.7109 265.549 77.6646 261.964 77.6646H258.471C257.121 77.6646 255.253 77.7109 253.874 77.8079C253.629 77.6154 253.598 76.7571 253.812 76.4228L254.946 76.2302C256.387 75.9914 256.663 75.8481 256.663 70.7866V53.0198V53.0198Z" fill="#081E3F"/>
<path d="M277.378 60.1844C277.378 61.7129 277.378 61.8084 278.849 61.8084C281.853 61.8084 283.231 59.5157 283.231 54.9781C283.231 51.2047 281.668 47.909 279.003 47.909C277.409 47.909 277.378 48.0523 277.378 50.2495V60.1844V60.1844ZM273.823 53.3064C273.823 48.721 273.794 48.1478 272.353 47.909L271.556 47.7657C271.341 47.4329 271.341 46.6671 271.586 46.4298C273.518 46.1417 276.122 45.9999 278.635 45.9999C281.025 45.9999 283.108 46.4761 284.458 47.6224C286.02 48.9121 287.154 51.157 287.154 54.596C287.154 58.9903 284.979 61.1875 283.477 62.1413C283.293 62.286 283.354 62.6682 283.477 62.9533C285.929 69.4014 287.46 73.4614 288.901 75.3242C289.759 76.4705 290.648 76.7571 291.015 76.8049C291.169 76.9959 291.169 77.5213 291.077 77.7602C290.709 77.905 290.127 78.0468 289.054 78.0468C286.112 78.0468 284.519 76.1839 282.65 71.7419C281.822 69.7358 280.964 67.1102 280.229 65.2474C279.677 63.8145 279.34 63.6234 278.328 63.6234C277.409 63.6234 277.378 63.6697 277.378 64.6728V70.7866C277.378 75.8496 277.654 75.9914 279.095 76.281L279.769 76.4228C279.983 76.7571 279.952 77.6154 279.708 77.8079C278.359 77.7124 276.98 77.6646 275.632 77.6646C274.284 77.6646 272.904 77.7124 271.494 77.8079C271.25 77.6154 271.158 76.7571 271.434 76.4228L272.107 76.281C273.547 75.9914 273.823 75.8496 273.823 70.7866V53.3064V53.3064Z" fill="#081E3F"/>
<path d="M310.784 69.5433C310.784 70.9747 310.784 76.8497 310.876 77.9483C310.631 78.4737 310.202 78.6663 309.834 78.617C309.344 77.614 308.455 75.99 306.249 72.0748L299.077 59.3218C297.116 55.7887 296.105 54.0199 295.584 53.305C295.492 53.305 295.492 53.8304 295.492 56.3604V65.6744C295.492 69.2567 295.523 73.6495 296.044 75.0825C296.319 75.8004 296.84 76.1333 297.607 76.2781L298.281 76.4214C298.556 76.7542 298.526 77.6632 298.22 77.8065C297.086 77.7095 295.89 77.6632 294.726 77.6632C293.44 77.6632 292.611 77.7095 291.538 77.8065C291.293 77.5662 291.232 76.7542 291.478 76.4214L292.151 76.1825C292.734 75.99 293.286 75.8467 293.5 75.0825C293.898 73.6018 293.898 69.4478 293.898 65.6744V54.3558C293.898 50.6302 293.929 49.8659 292.887 48.4808C292.55 48.0509 291.692 47.6688 291.263 47.5255L290.804 47.3822C290.588 47.0956 290.619 46.1403 290.926 45.997C292.09 46.1881 293.776 46.1403 294.542 46.1403C295.185 46.1403 295.921 46.0926 296.657 45.997C297.178 48.0509 300.517 54.0692 301.59 55.8842L304.656 61.0413C305.942 63.2384 308.792 68.3014 309.098 68.588C309.19 68.4447 309.19 68.2059 309.19 67.4417V58.1277C309.19 54.5468 309.16 50.1525 308.609 48.7196C308.332 48.0031 307.842 47.6688 307.076 47.5255L306.372 47.3822C306.095 47.0478 306.127 46.1403 306.432 45.997C307.627 46.0926 308.761 46.1403 309.957 46.1403C311.274 46.1403 312.071 46.0926 313.175 45.997C313.42 46.2359 313.48 47.0478 313.236 47.3822L312.531 47.621C311.949 47.8121 311.428 47.9554 311.213 48.7196C310.784 50.2003 310.784 54.3558 310.784 58.1277V69.5433V69.5433Z" fill="#081E3F"/>
<path d="M323.599 63.8115C324.457 63.8115 324.579 63.716 324.335 62.5696L323.048 56.8379C322.496 54.3064 322.342 53.3989 322.189 53.0645H322.128C322.006 53.3989 321.73 54.593 321.209 56.8379L319.922 62.4263C319.615 63.8115 319.676 63.8115 320.412 63.8115H323.599V63.8115ZM319.922 65.9609C319.125 65.9609 319.155 65.9609 318.879 67.2505L317.623 72.9807C317.01 75.8003 317.133 75.8944 318.267 76.1824L319.155 76.4213C319.37 76.7541 319.339 77.6139 319.094 77.8049C318.114 77.7094 317.102 77.7094 315.846 77.6631C314.834 77.6631 313.884 77.7094 312.812 77.8049C312.598 77.5661 312.566 76.8496 312.781 76.4213L313.7 76.1824C314.589 75.9436 314.926 75.5615 315.386 73.9838C315.754 72.7419 316.244 70.7358 316.888 68.158L321.086 51.1555C321.454 49.627 321.76 48.4792 321.668 47.6687C322.74 47.3343 323.752 45.376 323.814 45.376C324.058 45.376 324.212 45.5193 324.335 45.7581C324.824 47.9075 325.223 50.1524 325.713 52.3018L330.125 72.3135C330.831 75.5122 330.985 75.8003 332.548 76.278L333.006 76.4213C333.252 76.7541 333.252 77.5661 333.037 77.8049C331.781 77.7094 330.646 77.6631 329.054 77.6631C327.736 77.6631 326.387 77.7572 325.315 77.8049C325.07 77.5661 325.039 76.7064 325.223 76.4213L325.897 76.278C327 76.0391 327.154 75.7511 326.694 73.745L325.254 67.2505C324.978 65.9609 324.855 65.9609 323.997 65.9609H319.922V65.9609Z" fill="#081E3F"/>
<path d="M338.376 50.154C338.376 48.1479 338.346 48.0524 337.549 48.0524H335.833C333.013 48.0524 332.186 48.5778 331.052 52.4467C330.837 52.7332 330.193 52.59 330.071 52.1123C330.592 49.533 331.052 46.5717 331.266 44.8999C331.328 44.7566 331.45 44.7089 331.604 44.7089C331.727 44.7089 331.848 44.7566 331.91 44.8999C332.063 46.094 332.492 46.1418 334.576 46.1418H347.079C348.581 46.1418 349.041 45.9985 349.408 44.8999C349.531 44.8059 349.654 44.7089 349.776 44.7089C349.96 44.7089 350.113 44.8059 350.175 44.9477C349.868 46.906 349.623 51.0137 349.715 52.5422C349.562 52.9243 349.041 53.0198 348.766 52.6855C348.367 48.9599 347.784 48.0524 344.505 48.0524H342.758C341.962 48.0524 341.931 48.1479 341.931 50.154V70.7866C341.931 75.8482 342.207 75.9914 343.648 76.2303L344.75 76.4228C344.966 76.7572 344.935 77.6154 344.69 77.808C342.911 77.711 341.533 77.6647 340.185 77.6647C338.835 77.6647 337.395 77.711 335.434 77.808C335.189 77.6154 335.159 76.6616 335.373 76.4228L336.66 76.184C338.101 75.8974 338.376 75.8482 338.376 70.7866V50.154V50.154Z" fill="#081E3F"/>
<path d="M357.071 70.7821C357.071 75.8451 357.347 75.9869 358.787 76.2765L359.462 76.4183C359.676 76.7527 359.646 77.6109 359.4 77.8035C358.051 77.7079 356.673 77.6602 355.324 77.6602C353.977 77.6602 352.536 77.7079 351.187 77.8035C350.943 77.6109 350.911 76.7527 351.126 76.4183L351.8 76.2765C353.24 75.9869 353.516 75.8451 353.516 70.7821V53.0153C353.516 47.9538 353.24 47.809 351.8 47.5239L351.126 47.3791C350.911 47.0448 350.943 46.1865 351.187 45.9955C352.536 46.091 353.915 46.1373 355.324 46.1373C356.673 46.1373 358.051 46.091 359.4 45.9955C359.646 46.1865 359.676 47.0448 359.462 47.3791L358.787 47.5239C357.347 47.809 357.071 47.9538 357.071 53.0153V70.7821V70.7821Z" fill="#081E3F"/>
<path d="M365.528 60.9456C365.528 67.5356 367.336 76.5153 372.576 76.5153C376.071 76.5153 378.889 72.4553 378.889 62.8562C378.889 55.6438 376.805 47.2865 371.932 47.2865C368.869 47.2865 365.528 50.7733 365.528 60.9456ZM383.057 61.9964C383.057 71.4045 378.46 78.4258 372.27 78.4258C365.345 78.4258 361.36 70.8313 361.36 62.3308C361.36 52.5869 365.896 45.376 372.332 45.376C379.41 45.376 383.057 53.3033 383.057 61.9964" fill="#081E3F"/>
<path d="M403.014 69.5433C403.014 70.9747 403.014 76.8497 403.106 77.9483C402.86 78.4737 402.432 78.6663 402.064 78.617C401.573 77.614 400.684 75.99 398.479 72.0748L391.307 59.3218C389.346 55.7887 388.335 54.0199 387.814 53.305C387.722 53.305 387.722 53.8304 387.722 56.3604V65.6744C387.722 69.2567 387.752 73.6495 388.273 75.0825C388.549 75.8004 389.07 76.1333 389.836 76.2781L390.51 76.4214C390.786 76.7542 390.756 77.6632 390.449 77.8065C389.315 77.7095 388.12 77.6632 386.955 77.6632C385.669 77.6632 384.841 77.7095 383.768 77.8065C383.523 77.5662 383.463 76.7542 383.708 76.4214L384.382 76.1825C384.963 75.99 385.515 75.8467 385.73 75.0825C386.128 73.6018 386.128 69.4478 386.128 65.6744V54.3558C386.128 50.6302 386.159 49.8659 385.117 48.4808C384.78 48.0509 383.921 47.6688 383.492 47.5255L383.033 47.3822C382.819 47.0956 382.849 46.1403 383.156 45.997C384.32 46.1881 386.005 46.1403 386.772 46.1403C387.415 46.1403 388.151 46.0926 388.886 45.997C389.407 48.0509 392.748 54.0692 393.82 55.8842L396.885 61.0413C398.171 63.2384 401.022 68.3014 401.328 68.588C401.42 68.4447 401.42 68.2059 401.42 67.4417V58.1277C401.42 54.5468 401.39 50.1525 400.838 48.7196C400.562 48.0031 400.072 47.6688 399.306 47.5255L398.601 47.3822C398.325 47.0478 398.356 46.1403 398.662 45.997C399.857 46.0926 400.992 46.1403 402.187 46.1403C403.504 46.1403 404.301 46.0926 405.404 45.997C405.649 46.2359 405.711 47.0478 405.465 47.3822L404.761 47.621C404.178 47.8121 403.657 47.9554 403.443 48.7196C403.014 50.2003 403.014 54.3558 403.014 58.1277V69.5433V69.5433Z" fill="#081E3F"/>
<path d="M415.55 63.8115C416.408 63.8115 416.531 63.716 416.287 62.5696L414.999 56.8379C414.448 54.3064 414.295 53.3989 414.141 53.0645H414.079C413.957 53.3989 413.681 54.593 413.16 56.8379L411.873 62.4263C411.567 63.8115 411.627 63.8115 412.364 63.8115H415.55V63.8115ZM411.873 65.9609C411.076 65.9609 411.106 65.9609 410.831 67.2505L409.575 72.9807C408.962 75.8003 409.085 75.8944 410.219 76.1824L411.106 76.4213C411.321 76.7541 411.291 77.6139 411.046 77.8049C410.065 77.7094 409.054 77.7094 407.797 77.6631C406.786 77.6631 405.836 77.7094 404.763 77.8049C404.549 77.5661 404.519 76.8496 404.733 76.4213L405.652 76.1824C406.541 75.9436 406.877 75.5615 407.338 73.9838C407.706 72.7419 408.195 70.7358 408.839 68.158L413.037 51.1555C413.406 49.627 413.711 48.4792 413.62 47.6687C414.692 47.3343 415.704 45.376 415.765 45.376C416.011 45.376 416.163 45.5193 416.287 45.7581C416.776 47.9075 417.175 50.1524 417.665 52.3018L422.077 72.3135C422.783 75.5122 422.936 75.8003 424.499 76.278L424.958 76.4213C425.203 76.7541 425.203 77.5661 424.99 77.8049C423.733 77.7094 422.598 77.6631 421.005 77.6631C419.687 77.6631 418.339 77.7572 417.267 77.8049C417.021 77.5661 416.991 76.7064 417.175 76.4213L417.849 76.278C418.952 76.0391 419.105 75.7511 418.646 73.745L417.205 67.2505C416.929 65.9609 416.807 65.9609 415.949 65.9609H411.873V65.9609Z" fill="#081E3F"/>
<path d="M431.918 69.7821C431.918 72.1718 431.979 73.8898 432.439 74.7018C432.807 75.3705 433.296 75.7526 435.749 75.7526C439.151 75.7526 439.641 75.5138 441.05 70.5941C441.356 70.3552 441.847 70.4985 442 70.8806C441.756 72.8867 441.081 76.5168 440.714 77.8065C439.426 77.7109 436.791 77.6632 433.358 77.6632H430.171C428.608 77.6632 427.076 77.7109 425.789 77.8065C425.544 77.6139 425.451 76.6601 425.727 76.4213L426.647 76.1825C428.087 75.8004 428.363 75.7526 428.363 70.7851V53.0183C428.363 48.0508 428.087 47.9075 426.647 47.5732L425.789 47.3821C425.574 47.1448 425.574 46.188 425.85 45.9985C427.383 46.0925 428.761 46.1403 430.171 46.1403C431.52 46.1403 432.898 46.0925 434.247 45.9985C434.523 46.188 434.554 47.1448 434.308 47.3821L433.634 47.5732C432.194 47.9568 431.918 48.0508 431.918 53.0183V69.7821V69.7821Z" fill="#081E3F"/>
<path d="M202.043 98.3958C202.043 93.3343 201.767 93.2388 200.327 92.8567L199.806 92.7134C199.591 92.379 199.623 91.567 199.867 91.376C201.094 91.4715 202.472 91.5193 203.821 91.5193C205.2 91.5193 206.579 91.4715 207.927 91.376C208.172 91.567 208.203 92.379 207.989 92.7134L207.315 92.8567C205.874 93.1432 205.598 93.3343 205.598 98.3958V109.334C205.598 115.925 206.885 121.464 211.145 121.464C215.159 121.464 216.814 116.736 216.814 109.477V103.507C216.814 99.9243 216.785 95.4837 216.232 94.0985C215.956 93.3821 215.467 93.0462 214.7 92.8567L214.087 92.7134C213.811 92.379 213.841 91.5193 214.149 91.376C215.19 91.4715 216.355 91.5193 217.55 91.5193C218.837 91.5193 219.664 91.4715 220.798 91.376C221.044 91.6148 221.104 92.379 220.859 92.7134L220.185 92.9522C219.603 93.1432 219.052 93.3343 218.837 94.0985C218.408 95.53 218.408 99.7347 218.408 103.507V109.191C218.408 113.537 217.979 117.549 216.386 120.223C214.792 122.897 212.493 123.806 210.379 123.806C207.498 123.806 205.476 122.85 204.066 120.749C202.687 118.696 202.043 115.351 202.043 110.528V98.3958V98.3958Z" fill="#081E3F"/>
<path d="M241.885 114.919C241.885 116.351 241.885 122.226 241.977 123.324C241.732 123.848 241.303 124.041 240.935 123.993C240.444 122.988 239.556 121.364 237.35 117.449L230.177 104.698C228.217 101.163 227.206 99.3959 226.685 98.6794C226.593 98.6794 226.593 99.2063 226.593 101.736V111.05C226.593 114.633 226.623 119.025 227.144 120.458C227.42 121.175 227.941 121.509 228.707 121.654L229.382 121.796C229.656 122.13 229.627 123.038 229.32 123.181C228.186 123.085 226.991 123.038 225.827 123.038C224.54 123.038 223.712 123.085 222.639 123.181C222.394 122.942 222.333 122.13 222.579 121.796L223.252 121.557C223.834 121.364 224.387 121.223 224.601 120.458C224.999 118.978 224.999 114.822 224.999 111.05V99.7302C224.999 96.0046 225.03 95.2404 223.988 93.8567C223.651 93.4268 222.792 93.0432 222.363 92.8999L221.905 92.7566C221.689 92.4716 221.72 91.5148 222.027 91.373C223.191 91.5625 224.876 91.5148 225.643 91.5148C226.286 91.5148 227.022 91.4685 227.757 91.373C228.278 93.4268 231.618 99.4451 232.691 101.259L235.755 106.417C237.043 108.613 239.893 113.677 240.199 113.962C240.291 113.821 240.291 113.58 240.291 112.818V103.504C240.291 99.9213 240.26 95.527 239.71 94.0955C239.433 93.3776 238.943 93.0432 238.176 92.8999L237.473 92.7566C237.197 92.4223 237.227 91.5148 237.533 91.373C238.728 91.4685 239.862 91.5148 241.057 91.5148C242.375 91.5148 243.172 91.4685 244.275 91.373C244.52 91.6118 244.581 92.4223 244.337 92.7566L243.632 92.9955C243.049 93.1865 242.528 93.3313 242.314 94.0955C241.885 95.5762 241.885 99.7302 241.885 103.504V114.919V114.919Z" fill="#081E3F"/>
<path d="M252.497 116.158C252.497 121.221 252.772 121.363 254.213 121.653L254.886 121.794C255.102 122.129 255.071 122.987 254.826 123.18C253.476 123.084 252.098 123.036 250.75 123.036C249.401 123.036 247.961 123.084 246.612 123.18C246.367 122.987 246.336 122.129 246.551 121.794L247.225 121.653C248.666 121.363 248.941 121.221 248.941 116.158V98.3914C248.941 93.3298 248.666 93.1851 247.225 92.8985L246.551 92.7552C246.336 92.4208 246.367 91.5611 246.612 91.3715C247.961 91.467 249.34 91.5133 250.75 91.5133C252.098 91.5133 253.476 91.467 254.826 91.3715C255.071 91.5611 255.102 92.4208 254.886 92.7552L254.213 92.8985C252.772 93.1851 252.497 93.3298 252.497 98.3914V116.158V116.158Z" fill="#081E3F"/>
<path d="M269.898 111.203C268.643 115.549 267.232 121.136 266.711 123.572C266.65 123.715 266.406 123.811 266.19 123.811C265.976 123.811 265.762 123.715 265.609 123.572C265.241 121.663 264.75 119.321 264.199 117.316L258.836 97.2092C257.978 94.0075 257.702 93.3403 256.476 92.9566L255.74 92.7193C255.526 92.385 255.526 91.5237 255.833 91.3819C257.028 91.4774 258.345 91.5237 259.541 91.5237C260.92 91.5237 261.962 91.4774 263.585 91.3819C263.861 91.667 263.893 92.4312 263.617 92.7656L262.851 93.0522C262.176 93.291 261.931 93.5298 261.931 93.9119C261.931 94.3433 262.176 95.3926 263.432 100.265L265.639 108.765C266.19 110.916 267.018 113.733 267.324 114.833C268.979 108.814 270.818 102.223 272.442 95.7285C272.933 93.8179 272.841 93.4358 271.921 93.1014L271.032 92.7656C270.818 92.385 270.849 91.6207 271.094 91.3819C272.35 91.4774 273.392 91.5237 274.373 91.5237C275.475 91.5237 276.488 91.4774 277.345 91.3819C277.59 91.6207 277.559 92.385 277.407 92.7656L276.64 93.0059C275.936 93.2447 275.262 93.5776 274.741 94.9642C273.883 97.2554 273.025 100.457 271.615 105.278L269.898 111.203V111.203Z" fill="#081E3F"/>
<path d="M280.328 98.3959C280.328 93.3344 280.052 93.1433 278.612 92.8567L278.122 92.7612C277.908 92.4253 277.939 91.5671 278.184 91.376C279.347 91.4716 280.788 91.5193 282.137 91.5193H287.99C289.951 91.5193 291.728 91.4716 292.126 91.376C292.249 92.188 292.434 95.9614 292.617 98.0138C292.494 98.3959 291.881 98.4929 291.637 98.2063C291.147 95.436 290.686 94.2882 289.706 93.8598C289.001 93.5732 288.082 93.4299 287.254 93.4299H285.201C283.883 93.4299 283.883 93.5239 283.883 96.248V104.32C283.883 105.562 283.914 105.608 284.619 105.608H286.09C288.756 105.608 289.215 105.562 289.491 103.507L289.706 101.883C289.951 101.548 290.533 101.548 290.686 101.93C290.655 103.22 290.595 104.941 290.595 106.707C290.595 108.522 290.655 110.194 290.686 111.722C290.533 112.056 289.951 112.056 289.706 111.77L289.491 109.859C289.277 107.853 288.756 107.758 286.09 107.758H284.619C283.914 107.758 283.883 107.853 283.883 109.047V115.112C283.883 117.549 283.945 119.267 284.404 120.079C284.772 120.75 285.293 121.082 287.867 121.132C291.759 121.179 292.434 119.841 293.507 115.972C293.781 115.639 294.302 115.782 294.486 116.26C294.302 118.266 293.629 121.894 293.199 123.184C291.851 123.088 289.215 123.042 285.63 123.042H282.137C280.788 123.042 278.918 123.088 277.54 123.184C277.295 122.993 277.264 122.133 277.478 121.8L278.612 121.608C280.052 121.369 280.328 121.226 280.328 116.163V98.3959V98.3959Z" fill="#081E3F"/>
<path d="M302.27 105.56C302.27 107.087 302.27 107.184 303.741 107.184C306.744 107.184 308.123 104.89 308.123 100.354C308.123 96.5807 306.56 93.2835 303.894 93.2835C302.3 93.2835 302.27 93.4283 302.27 95.6254V105.56V105.56ZM298.715 98.6823C298.715 94.097 298.685 93.5238 297.245 93.2835L296.448 93.1417C296.232 92.8074 296.232 92.0416 296.477 91.8043C298.409 91.5177 301.013 91.3744 303.526 91.3744C305.917 91.3744 308 91.8521 309.349 92.9984C310.911 94.2865 312.045 96.5315 312.045 99.972C312.045 104.365 309.87 106.563 308.369 107.517C308.185 107.661 308.245 108.043 308.369 108.329C310.82 114.777 312.352 118.837 313.792 120.7C314.65 121.845 315.539 122.133 315.907 122.181C316.06 122.372 316.06 122.896 315.968 123.135C315.6 123.279 315.018 123.423 313.946 123.423C311.003 123.423 309.411 121.56 307.541 117.116C306.714 115.11 305.856 112.485 305.119 110.622C304.568 109.19 304.231 108.998 303.22 108.998C302.3 108.998 302.27 109.046 302.27 110.049V116.163C302.27 121.224 302.546 121.367 303.986 121.655L304.66 121.799C304.875 122.133 304.843 122.991 304.599 123.184C303.251 123.087 301.871 123.041 300.524 123.041C299.174 123.041 297.795 123.087 296.386 123.184C296.14 122.991 296.049 122.133 296.325 121.799L296.998 121.655C298.439 121.367 298.715 121.224 298.715 116.163V98.6823V98.6823Z" fill="#081E3F"/>
<path d="M317.23 121.8C316.678 120.797 316.28 117.5 316.31 114.54C316.494 114.062 317.015 114.015 317.26 114.349C317.812 116.785 319.467 121.896 322.47 121.896C324.799 121.896 326.116 119.699 326.116 116.785C326.116 114.062 325.289 111.865 322.991 109.859L321.673 108.713C319.375 106.708 317.352 103.793 317.352 99.4959C317.352 94.7672 319.62 90.755 324.095 90.755C325.687 90.755 326.852 91.3282 328.292 91.7581C328.629 92.8089 328.937 95.9613 328.937 98.2063C328.784 98.6346 328.231 98.6839 327.955 98.3496C327.496 95.8658 326.424 92.6641 323.819 92.6641C321.366 92.6641 320.356 95.1493 320.356 97.6809C320.356 99.6869 321.243 101.836 323.267 103.507L325.166 105.084C327.158 106.708 329.365 109.668 329.365 114.491C329.365 119.937 326.7 123.806 322.256 123.806C319.436 123.806 317.843 122.373 317.23 121.8" fill="#081E3F"/>
<path d="M337.821 116.158C337.821 121.221 338.097 121.363 339.537 121.653L340.211 121.794C340.427 122.129 340.395 122.987 340.151 123.18C338.802 123.084 337.422 123.036 336.075 123.036C334.726 123.036 333.286 123.084 331.937 123.18C331.692 122.987 331.661 122.129 331.876 121.794L332.549 121.653C333.991 121.363 334.267 121.221 334.267 116.158V98.3914C334.267 93.3298 333.991 93.1851 332.549 92.8985L331.876 92.7552C331.661 92.4208 331.692 91.5611 331.937 91.3715C333.286 91.467 334.665 91.5133 336.075 91.5133C337.422 91.5133 338.802 91.467 340.151 91.3715C340.395 91.5611 340.427 92.4208 340.211 92.7552L339.537 92.8985C338.097 93.1851 337.821 93.3298 337.821 98.3914V116.158V116.158Z" fill="#081E3F"/>
<path d="M350.233 95.53C350.233 93.5239 350.202 93.4299 349.406 93.4299H347.689C344.87 93.4299 344.042 93.9538 342.909 97.8227C342.695 98.1108 342.051 97.9675 341.928 97.4884C342.45 94.9091 342.909 91.9492 343.123 90.276C343.185 90.1342 343.308 90.0864 343.461 90.0864C343.584 90.0864 343.706 90.1342 343.766 90.276C343.92 91.4716 344.35 91.5178 346.433 91.5178H358.936C360.438 91.5178 360.897 91.376 361.266 90.276C361.389 90.1819 361.51 90.0864 361.633 90.0864C361.817 90.0864 361.97 90.1819 362.031 90.3252C361.725 92.2821 361.48 96.3898 361.572 97.9197C361.418 98.3003 360.897 98.3959 360.623 98.0615C360.224 94.3374 359.641 93.4299 356.362 93.4299H354.615C353.819 93.4299 353.788 93.5239 353.788 95.53V116.163C353.788 121.226 354.064 121.369 355.504 121.608L356.607 121.8C356.822 122.133 356.792 122.991 356.546 123.184C354.768 123.088 353.39 123.042 352.041 123.042C350.692 123.042 349.252 123.088 347.291 123.184C347.046 122.991 347.016 122.039 347.23 121.8L348.517 121.562C349.957 121.273 350.233 121.226 350.233 116.163V95.53Z" fill="#081E3F"/>
<path d="M370.125 113.352C370.125 110.677 369.972 109.962 369.144 107.429L365.467 96.1106C364.792 94.0568 364.547 93.5314 363.168 93.0522L362.371 92.7671C362.187 92.4313 362.249 91.5253 362.494 91.382C363.812 91.479 365.099 91.5253 366.355 91.5253C367.704 91.5253 369.573 91.479 370.277 91.382C370.523 91.573 370.584 92.4313 370.34 92.7671L369.42 93.006C368.93 93.1493 368.777 93.2448 368.777 93.6269C368.777 94.009 368.869 94.5344 369.328 96.1106C370.523 100.218 371.657 104.087 372.882 107.574C374.139 103.942 375.273 100.6 376.468 97.0182C376.989 95.3942 377.296 94.3449 377.296 93.818C377.296 93.3418 377.02 93.197 376.591 93.103L375.671 92.7671C375.457 92.4313 375.457 91.6208 375.763 91.382C377.112 91.479 378.062 91.5253 378.981 91.5253C379.931 91.5253 380.912 91.479 381.893 91.382C382.168 91.6208 382.168 92.385 381.954 92.7671L381.065 93.0522C379.685 93.4836 379.318 94.3449 377.725 98.5451C376.683 101.268 375.763 103.895 374.814 106.571C373.894 109.053 373.679 110.056 373.679 113.306V116.17C373.679 121.232 373.955 121.375 375.457 121.614L376.621 121.806C376.836 122.141 376.805 122.999 376.56 123.191C374.66 123.094 373.281 123.048 371.933 123.048C370.523 123.048 369.144 123.094 367.489 123.191C367.244 122.999 367.214 122.141 367.428 121.806L368.409 121.614C369.849 121.329 370.125 121.232 370.125 116.17V113.352V113.352Z" fill="#081E3F"/>
</svg>
