<svg width="315" height="92" viewBox="0 0 315 92" fill="none" xmlns="http://www.w3.org/2000/svg">
<path d="M4.37621 2.95721V4.68904L6.87484 3.83891V3.80626L4.37621 2.95721ZM8.76169 4.41659L6.64774 5.16864C5.26162 5.65873 3.85197 6.13794 2.71591 6.55198C1.70519 6.92251 1.62475 7.07471 1.55798 7.70654H1.2395V4.84125H1.55798L1.6034 5.14661C1.67181 5.5612 1.78509 5.5827 2.21739 5.45157C2.55558 5.34289 3.26151 5.08105 3.85197 4.85226V2.83657C3.50995 2.6943 2.87627 2.49909 2.39907 2.34688C1.79493 2.15007 1.64664 2.2378 1.58973 2.7174L1.55798 3.02224H1.2395V0.603638H1.55798C1.64664 1.27845 1.69314 1.39909 2.71591 1.78008L8.62323 3.98158L8.76169 4.41659Z" fill="#A20641"/>
<path d="M2.96655 10.3168C1.92025 10.3168 1.70519 10.4265 1.70519 11.2656C1.70519 13.0729 3.03275 14.0107 4.92124 14.0107C7.35367 14.0107 8.19148 12.8342 8.19148 11.0908C8.19148 10.7308 8.1477 10.448 8.09133 10.383C8.03277 10.3168 7.82921 10.3168 7.53206 10.3168H2.96655ZM8.62323 11.4388C8.62323 12.6594 8.3529 13.7709 7.62564 14.4899C7.10194 14.9915 6.26085 15.4056 5.26162 15.4056C2.46748 15.4056 1.2395 13.3353 1.2395 10.7855V8.11591H1.55798C1.62475 9.01064 1.71668 9.09661 2.94302 9.09661H6.91807C8.1477 9.09661 8.23963 9.01064 8.30639 8.20243H8.62323V11.4388Z" fill="#A20641"/>
<path d="M5.00991 21.0555C4.30728 21.0555 3.73871 20.5217 3.73871 19.8679C3.73871 19.2139 4.30728 18.6693 5.00991 18.6693C5.7038 18.6693 6.28441 19.2139 6.28441 19.8679C6.28441 20.5217 5.7038 21.0555 5.00991 21.0555Z" fill="#A20641"/>
<path d="M8.62323 25.773L3.20459 28.1807L8.62323 30.4572V32.5164H8.30639C8.21446 31.6349 8.17122 31.5907 6.91807 31.6123L2.94302 31.7213C1.67181 31.754 1.64664 31.787 1.55798 32.6697H1.2395V29.6291H1.55798C1.64664 30.4798 1.67181 30.5122 2.94302 30.5008L7.30551 30.4572V30.4142L1.37631 27.9399V27.6144L7.0784 25.2279V25.1841L4.13708 25.1076C3.11321 25.0866 2.48937 25.0971 2.14844 25.1412C1.71668 25.1841 1.62475 25.4126 1.55798 26.1325H1.2395V23.55H1.55798C1.6034 24.0947 1.71668 24.3126 2.14844 24.3886C2.48937 24.4438 3.15808 24.5308 4.2509 24.5848L6.58974 24.7045C8.10281 24.7811 8.21446 24.7045 8.30639 23.7683H8.62323V25.773Z" fill="#A20641"/>
<path d="M4.37229 35.5833L4.39583 37.3151L6.88297 36.434V36.4014L4.37229 35.5833ZM8.78021 36.9871L6.67283 37.7659C5.29656 38.2744 3.89348 38.7724 2.76455 39.2C1.75819 39.5826 1.68157 39.737 1.62138 40.3697L1.3029 40.3741L1.26295 37.5093L1.58144 37.504L1.63177 37.8095C1.70511 38.2219 1.81839 38.2424 2.24851 38.1059C2.58725 37.9931 3.28825 37.7222 3.87705 37.4851L3.8486 35.47C3.50494 35.3334 2.86632 35.1446 2.3875 34.9976C1.78172 34.8103 1.63507 34.9001 1.58472 35.3792L1.55463 35.6841L1.23778 35.6893L1.20276 33.2701L1.52288 33.2663C1.62302 33.9402 1.66845 34.0605 2.69723 34.4288L8.63628 36.5525L8.78021 36.9871Z" fill="#A20641"/>
<path d="M7.31204 40.3563C8.48312 40.0058 8.54167 39.8961 8.32606 39.0139L8.62978 38.9232L9.58414 41.8577L9.28042 41.9489C8.97671 41.2279 8.86343 41.1713 7.69073 41.5229L4.18737 42.5703C3.00154 42.9241 2.02857 43.1135 1.02441 42.4087C0.65722 42.1537 0.293861 41.8057 0 41.345L0.262669 41.1304C0.825765 41.7259 1.40308 41.8514 2.01873 41.8036C2.57416 41.7512 3.21113 41.5833 3.94715 41.3633L7.31204 40.3563Z" fill="#A20641"/>
<path d="M6.47481 44.7388C4.74776 45.8105 3.90558 47.369 4.7795 48.6689C5.42193 49.6203 6.74295 49.8397 8.53839 48.7272C10.5249 47.4981 11.129 46.046 10.3032 44.82C9.64926 43.8498 8.16629 43.6946 6.47481 44.7388ZM9.6925 49.6974C7.66065 50.9574 5.41538 50.4153 4.24431 48.6762C3.02946 46.8742 3.6336 44.8148 5.36831 43.7391C6.93502 42.7698 9.4271 42.7162 10.8773 44.8679C11.9416 46.4506 11.5542 48.5461 9.6925 49.6974Z" fill="#A20641"/>
<path d="M11.9564 51.3353L12.2847 51.5997C12.6339 51.8799 12.9206 52.0238 13.2943 52.039C13.8749 52.0505 14.345 51.7461 14.6957 51.3463C15.4499 50.475 15.086 49.6737 14.5289 49.2272C14.1103 48.8918 14.0648 48.9123 13.8317 49.1784L11.9564 51.3353ZM15.0241 49.0834C15.6583 49.5919 16.0518 50.0222 16.2122 50.5192C16.3638 51.0089 16.2938 51.5478 15.8635 52.04C15.2546 52.7421 14.3719 52.8723 13.4476 52.559C13.3808 52.9043 13.2145 53.7613 13.1657 54.3601C13.0957 55.0848 13.0606 55.5666 13.0826 55.8667C13.1176 56.2346 13.1454 56.4713 13.3474 56.7331L13.1241 56.9225L12.7739 56.6114C11.8814 55.7844 11.7879 55.3142 11.8546 54.5737C11.9115 53.966 12.0899 53.2014 12.2146 52.5638C12.2781 52.2201 12.2486 52.0511 11.9849 51.8421L11.7063 51.6197L10.7317 52.7396C9.94804 53.6421 9.95954 53.7645 10.5768 54.3449L10.3732 54.5783L7.914 52.6115L8.1192 52.3765C8.8618 52.886 8.98876 52.8739 9.77401 51.9718L12.3202 49.0466C13.1039 48.145 13.0924 48.0228 12.4751 47.4429L12.677 47.2084L15.0241 49.0834Z" fill="#A20641"/>
<path d="M22.109 53.7434C22.0373 53.9066 21.6619 54.6282 21.3735 55.248L21.0665 55.1047C21.2367 54.5978 21.275 54.2678 21.2115 54.0442C21.1398 53.7923 20.8564 53.563 20.244 53.2285L19.7489 52.9593C19.3751 52.7558 19.3547 52.7448 19.1518 53.0854L17.9637 55.0937L18.8113 55.5576C19.6619 56.0194 19.7139 55.9738 20.2457 55.2988L20.5625 55.4705L19.3718 57.4799L19.0545 57.3067C19.4001 56.5038 19.4035 56.4544 18.5527 55.9921L17.7033 55.5287L16.7806 57.0831C16.4573 57.6321 16.3391 57.919 16.4442 58.139C16.5541 58.3495 16.9044 58.5525 17.318 58.7793C17.8132 59.0485 18.2905 59.2583 18.6397 59.134C18.9109 59.0463 19.2701 58.8154 19.7099 58.4529L19.972 58.6701C19.7422 58.9718 18.9509 59.8183 18.7163 60.0413L13.8946 57.4143L14.0517 57.1482C14.9321 57.5534 15.0591 57.5223 15.6648 56.4985L17.63 53.1829C18.2375 52.1601 18.2024 52.0415 17.485 51.5751L17.6415 51.3095L22.109 53.7434Z" fill="#A20641"/>
<path d="M24.7954 54.9246L25.1106 60.6438L29.329 56.6648L31.3232 57.432L31.2045 57.7144C30.3169 57.4656 30.2572 57.4919 29.8151 58.6119L28.4405 62.1924C27.9999 63.3359 28.0212 63.3679 28.8422 63.7761L28.7255 64.0617L25.7843 62.9313L25.9029 62.6474C26.7566 62.882 26.7988 62.8745 27.259 61.7379L28.8405 57.8394L28.7956 57.8225L24.2011 62.1808L23.8842 62.0602L23.6955 56.0971L23.6522 56.0797L22.4827 58.67C22.0827 59.5732 21.8606 60.1326 21.7757 60.4522C21.6586 60.8531 21.8457 61.0196 22.5162 61.3475L22.3979 61.6314L19.8988 60.6711L20.0175 60.3876C20.5625 60.5498 20.8148 60.5288 21.0479 60.173C21.2285 59.8901 21.5618 59.3271 22.0193 58.3757L23.0065 56.338C23.6424 55.0207 23.6123 54.8911 22.7367 54.4629L22.855 54.1779L24.7954 54.9246Z" fill="#A20641"/>
<path d="M36.638 62.5875C36.4181 63.2304 35.7104 63.5826 35.0631 63.3767C34.418 63.1737 34.0541 62.4852 34.274 61.8433C34.4896 61.2115 35.2103 60.8537 35.8576 61.0588C36.5061 61.2635 36.8547 61.9568 36.638 62.5875Z" fill="#A20641"/>
<path d="M43.069 62.4039C43.4777 63.3264 43.6649 63.4755 44.4721 63.148C46.2085 62.4401 46.5892 60.9021 45.8533 59.2363C44.9027 57.0904 43.4443 56.8071 41.7694 57.4888C41.4257 57.6283 41.1707 57.779 41.1308 57.8562C41.0903 57.9311 41.1707 58.1112 41.2856 58.3724L43.069 62.4039ZM42.0583 56.9577C43.2442 56.5128 44.4218 56.3506 45.3849 56.7384C46.0618 57.0233 46.771 57.6236 47.1343 58.5158C48.1522 61.0133 46.5892 62.8625 44.1137 63.7919L41.521 64.7623L41.4043 64.4799C42.2481 64.0927 42.2986 63.9798 41.8531 62.884L40.4035 59.3324C39.958 58.2366 39.8393 58.1873 39.0321 58.4198L38.915 58.1359L42.0583 56.9577Z" fill="#A20641"/>
<path d="M50.3372 53.3309C50.4413 53.4758 50.8648 54.1722 51.2468 54.7437L50.955 54.9116C50.6027 54.497 50.3372 54.2844 50.109 54.213C49.8491 54.1328 49.4935 54.2341 48.8679 54.5422L48.3623 54.7897C47.9771 54.9788 47.9551 54.9892 48.144 55.3378L49.24 57.3932L50.1106 56.9661C50.9796 56.54 50.9699 56.4712 50.6711 55.6745L50.9966 55.5171L52.0928 57.5716L51.7705 57.7302C51.2566 57.0133 51.2167 56.986 50.3492 57.4138L49.4802 57.8399L50.3279 59.4294C50.6279 59.993 50.8145 60.2433 51.0634 60.2811C51.3086 60.3094 51.6774 60.1379 52.1009 59.9289C52.6066 59.6822 53.052 59.413 53.1352 59.0678C53.2084 58.7991 53.2053 58.3845 53.1269 57.8341L53.4608 57.7433C53.5971 58.0933 53.904 59.1917 53.966 59.5024L49.0333 61.9267L48.8883 61.6561C49.7255 61.1701 49.7671 61.0532 49.2049 60.0051L47.3947 56.6113C46.8344 55.5649 46.7123 55.5266 45.9117 55.8457L45.7701 55.5743L50.3372 53.3309Z" fill="#A20641"/>
<path d="M53.9062 51.2522L54.0724 51.5114C53.3737 52.0031 53.3436 52.124 53.9909 53.1252L56.0847 56.3679C56.7321 57.3686 56.8567 57.3984 57.6278 57.0175L57.7948 57.2767L55.0685 58.8941L54.9037 58.6364C55.6189 58.1327 55.6491 58.0136 55.0017 57.0116L52.9086 53.7675C52.2628 52.7668 52.1375 52.7374 51.3485 53.131L51.1799 52.8707L53.9062 51.2522Z" fill="#A20641"/>
<path d="M59.9067 51.0749C60.3455 51.6039 60.264 52.3622 59.7298 52.7693C59.198 53.1756 58.3984 53.0889 57.9596 52.5595C57.5278 52.04 57.6127 51.2664 58.1452 50.8608C58.6786 50.4525 59.476 50.5554 59.9067 51.0749Z" fill="#A20641"/>
<path d="M67.6198 44.195C68.0099 44.3167 68.3569 44.4238 68.6042 44.4343C68.5823 45.1359 68.5588 46.0444 68.2917 46.8331C67.5097 49.1432 65.5479 50.2388 63.3891 49.5662C60.9266 48.7984 60.2776 46.513 60.9665 44.4821C61.2687 43.5904 61.7091 42.9266 61.9226 42.5803C62.2979 42.6742 62.8801 42.7866 63.7278 42.9592L63.6595 43.305C62.2066 43.1502 61.631 43.9337 61.3436 44.7822C60.8582 46.2117 61.6621 47.5395 63.6294 48.1513C65.2924 48.6713 67.2427 48.5223 67.882 46.6357C67.9951 46.304 68.017 46.0943 67.9985 45.9053C67.9782 45.6822 67.8217 45.5421 67.3894 45.4077L66.4837 45.1239C65.7476 44.8956 65.6695 44.9166 65.2108 45.9877L64.8869 45.8859L65.8631 43.0063L66.1866 43.1071C66.0897 43.6728 66.1182 43.7281 66.8755 43.9631L67.6198 44.195Z" fill="#A20641"/>
<path d="M62.4248 38.4413L62.74 38.4843C62.6783 39.3556 62.7555 39.4541 63.9714 39.6196L67.8868 40.1532C68.5385 40.2423 68.8625 40.2203 69.0261 40.0556C69.1858 39.8908 69.2614 39.5381 69.3128 39.1912C69.3879 38.6959 69.54 37.3807 69.2915 37.1157C69.1043 36.9032 68.7475 36.6791 68.2337 36.433L68.3519 36.0977C68.7021 36.2109 69.8152 36.6041 70.1386 36.7359L69.2714 42.5871L68.9545 42.5441C69.0211 41.6289 68.9441 41.5296 67.7298 41.3649L63.7924 40.8286C62.5781 40.6632 62.4747 40.7373 62.2783 41.5916L61.9641 41.5481L62.4248 38.4413Z" fill="#A20641"/>
<path d="M66.1001 34.4487C68.15 34.5836 69.7998 33.8185 69.9087 32.2752C69.9887 31.1438 69.0643 30.2096 66.934 30.0705C64.5749 29.9157 63.1855 30.7312 63.0821 32.1874C63.0001 33.3393 64.0912 34.3186 66.1001 34.4487ZM66.6156 28.6289C69.0294 28.788 70.4905 30.5103 70.3422 32.5758C70.1906 34.7159 68.4236 36.0215 66.3599 35.8866C64.5 35.7654 62.4715 34.3753 62.653 31.8213C62.7867 29.9409 64.4047 28.4847 66.6156 28.6289Z" fill="#A20641"/>
<path d="M66.5871 26.1912V25.7771C66.5871 25.341 66.5204 25.0362 66.2917 24.7533C65.9282 24.3172 65.3827 24.1645 64.8371 24.1645C63.6563 24.1645 63.2474 24.9491 63.2474 25.6465C63.2474 26.1697 63.2923 26.1912 63.6563 26.1912H66.5871ZM62.8152 25.3732C62.8152 24.5781 62.907 24.0118 63.2019 23.5758C63.4975 23.1508 63.9747 22.8574 64.6434 22.8574C65.5995 22.8574 66.2703 23.4236 66.61 24.3068C66.9292 24.1314 67.7249 23.7069 68.2354 23.358C68.8592 22.9444 69.2697 22.6605 69.4945 22.4543C69.7687 22.193 69.94 22.0182 70.0188 21.7017L70.3154 21.7454L70.2924 22.2029C70.2004 23.3911 69.882 23.7615 69.2462 24.1861C68.7225 24.535 67.9985 24.8945 67.4058 25.2111C67.0873 25.3852 66.974 25.5164 66.974 25.8418V26.1912H68.4969C69.7233 26.1912 69.8152 26.1042 69.882 25.2755H70.2004V28.3487H69.882C69.8152 27.477 69.7233 27.3904 68.4969 27.3904H64.5203C63.2923 27.3904 63.2019 27.477 63.1342 28.3045H62.8152V25.3732Z" fill="#A20641"/>
<path d="M62.8152 17.8862H63.1342C63.2019 18.7133 63.2923 18.802 64.5203 18.802H68.4969C69.7233 18.802 69.8152 18.7133 69.882 17.8862H70.2004V20.9588H69.882C69.8152 20.1093 69.7233 20.0222 68.4969 20.0222H64.5203C63.2923 20.0222 63.2019 20.1093 63.1342 20.9588H62.8152V17.8862Z" fill="#A20641"/>
<path d="M67.0659 14.9742V13.2424L64.5652 14.0926V14.1241L67.0659 14.9742ZM62.6783 13.5137L64.7922 12.7627C66.1783 12.2721 67.588 11.793 68.7225 11.379C69.7347 11.0079 69.8152 10.8557 69.882 10.2239H70.2004V13.0897H69.882L69.835 12.7844C69.7687 12.3707 69.6532 12.3492 69.2232 12.4794C68.8844 12.5886 68.1785 12.8499 67.588 13.0787V15.0944C67.9284 15.2361 68.5643 15.4319 69.0432 15.5851C69.6434 15.7797 69.7917 15.6937 69.8502 15.2145L69.882 14.9097H70.2004V17.3279H69.882C69.7917 16.652 69.7468 16.5328 68.7225 16.1513L62.8152 13.9504L62.6783 13.5137Z" fill="#A20641"/>
<path d="M62.8152 7.3475L68.2354 4.94033L62.8152 2.66225V0.603566H63.1342C63.2239 1.4862 63.2704 1.52973 64.5203 1.50769L68.4969 1.39901C69.7687 1.36542 69.7917 1.33292 69.882 0.451355H70.2004V3.49142H69.882C69.7917 2.64076 69.7687 2.6077 68.4969 2.61966L64.1328 2.66225V2.70631L70.0637 5.18012V5.50658L64.3599 7.89266V7.93579L67.3046 8.0129C68.3251 8.03333 68.9511 8.02338 69.2916 7.97932C69.7233 7.93579 69.8152 7.7074 69.882 6.98907H70.2004V9.57048H69.882C69.835 9.02572 69.7233 8.80795 69.2916 8.73178C68.9511 8.67777 68.2802 8.58964 67.189 8.5351L64.8486 8.41593C63.3372 8.33989 63.2239 8.41593 63.1342 9.35272H62.8152V7.3475Z" fill="#A20641"/>
<path d="M20.0723 14.1545C20.4845 14.1545 20.8149 13.827 20.8149 13.424C20.8149 13.0204 20.4845 12.6931 20.0723 12.6931C19.6603 12.6931 19.327 13.0204 19.327 13.424C19.327 13.827 19.6603 14.1545 20.0723 14.1545Z" fill="#A20641"/>
<path d="M20.0723 15.5379C19.6236 15.5379 19.2635 15.8993 19.2635 16.3459C19.2635 16.7847 19.6236 17.1357 20.0723 17.1357C20.5194 17.1357 20.8783 16.7847 20.8783 16.3459C20.8783 15.8993 20.5194 15.5379 20.0723 15.5379Z" fill="#A20641"/>
<path d="M31.8917 13.044C31.0124 13.044 30.8045 14.3806 30.8045 14.9903C30.8045 15.6006 31.0124 16.9531 31.8917 16.9531C32.7727 16.9531 32.9829 15.6006 32.9829 14.9903C32.9829 14.3806 32.7727 13.044 31.8917 13.044Z" fill="#A20641"/>
<path d="M26.9389 22.6014H28.2566L27.9853 22.1653L26.9389 22.6014Z" fill="#A20641"/>
<path d="M42.8053 22.0492C43.2337 21.683 43.1857 21.6363 43.8094 21.5445C44.4316 21.4526 45.3909 22.2796 45.2925 22.0036C45.1989 21.7287 45.1019 20.9012 45.0072 20.0745C44.9219 19.3319 47.449 22.785 47.449 22.785C50.7056 28.7099 49.7983 32.7066 49.7983 32.7066C51.9522 33.6705 51.9522 35.9061 51.9522 35.3247C51.9522 31.9928 50.8074 32.228 50.8544 30.1241C50.8993 28.0223 53.2463 28.2039 53.2463 28.2039C54.1673 28.2166 54.4443 28.7564 54.4443 28.7564C54.4443 28.7564 53.9807 28.6625 53.7935 28.9018C53.7935 28.9018 53.0965 29.3872 54.3473 32.2474C54.5996 32.823 55.7122 34.8336 54.3693 36.2866C53.4182 37.314 51.9034 36.9326 51.9034 36.9326C51.8081 37.4836 51.7601 37.7576 51.7601 37.7576H52.8611C53.869 37.8053 53.9156 38.8617 53.9156 38.8617V43.3182L53.1484 44.0518H50.6108C50.5639 42.9492 52.0484 42.4901 52.0484 42.4901V40.5603H49.6999C48.4554 40.4697 47.786 38.1721 47.786 38.1721L46.8754 38.2651C46.8274 38.4025 48.1686 40.7446 48.1686 40.7446L45.4375 43.2252V43.9599H42.4697C42.3264 43.2698 43.7607 42.6731 43.7607 42.6731L45.6295 40.7446C45.868 40.4959 45.7012 40.2429 45.3778 40.1405C45.022 40.0287 44.737 39.9506 44.338 39.8043C43.9326 39.6562 42.228 38.6323 42.9486 36.6561C43.654 34.7149 46.013 35.5083 46.013 35.2779C46.013 35.0502 44.7686 32.2935 44.7686 32.2935L45.7745 30.8682L44.5751 31.6039L41.4153 31.0519C41.0798 33.6254 39.8338 32.9814 39.8338 32.9814V31.0519C39.8338 31.0519 39.8809 29.783 41.0798 29.3988C42.5163 28.9406 43.5221 29.2146 43.9528 29.1228C44.3845 29.0309 44.2599 28.6648 44.2599 28.6648L42.373 28.7099L40.6962 27.3775L39.7857 27.2856C38.1089 27.0111 38.7327 25.7706 38.7327 25.7706C38.7327 25.7706 40.2174 25.7706 41.1285 25.7706C42.0359 25.7706 44.3845 27.4235 44.3845 27.4235C44.3845 27.4235 44.7201 25.5864 42.9486 24.9434C41.1751 24.3011 41.5586 23.7962 41.5586 23.7962L43.2337 24.3468C43.2337 24.3468 43.4274 24.1626 43.1401 23.7491C42.9853 23.5265 41.6522 23.0606 41.6522 23.0606C40.5994 22.6931 40.9348 21.8666 40.9348 21.8666L42.8053 22.0492ZM40.7746 35.9838V39.4374C40.7746 39.4374 40.834 41.2374 39.2511 42.7566C37.6055 44.3335 35.7641 44.1656 35.7362 44.163C35.7083 44.1656 33.8685 44.3335 32.2213 42.7566C30.6365 41.2374 30.6962 39.4374 30.6962 39.4374V35.9838C30.6962 35.9838 30.2497 35.871 30.2277 35.4491C30.1977 34.9148 30.7848 34.9998 30.7848 34.9998H31.9575C31.899 36.1822 32.6635 36.0404 32.6635 36.0404C33.4827 36.0677 33.3076 34.9998 33.3076 34.9998H35.7313H35.7411H38.1653C38.1653 34.9998 37.9863 36.0677 38.8094 36.0404C38.8094 36.0404 39.5718 36.1822 39.5147 34.9998H40.6876C40.6876 34.9998 41.273 34.9148 41.2429 35.4491C41.2215 35.871 40.7746 35.9838 40.7746 35.9838ZM26.6987 32.2935C26.6987 32.2935 25.4542 35.0502 25.4542 35.2779C25.4542 35.5083 27.8128 34.7149 28.5187 36.6561C29.2378 38.6323 27.5327 39.6562 27.131 39.8043C26.7288 39.9506 26.4438 40.0287 26.0896 40.1405C25.768 40.2429 25.5992 40.4959 25.8379 40.7446L27.7046 42.6731C27.7046 42.6731 29.1425 43.2698 28.9975 43.9599H26.0283V43.2252L23.2972 40.7446C23.2972 40.7446 24.6384 38.4025 24.5918 38.2651L23.683 38.1721C23.683 38.1721 23.0104 40.4697 21.766 40.5603H19.4183V42.4901C19.4183 42.4901 20.9036 42.9492 20.8531 44.0518H18.3174L17.5501 43.3182V38.8617C17.5501 38.8617 17.5983 37.8053 18.6047 37.7576H19.704C19.704 37.7576 19.6569 37.4836 19.5618 36.9326C19.5618 36.9326 18.047 37.314 17.0965 36.2866C15.7536 34.8336 16.8662 32.823 17.1194 32.2474C18.3693 29.3872 17.6738 28.9018 17.6738 28.9018C17.4867 28.6625 17.0232 28.7564 17.0232 28.7564C17.0232 28.7564 17.2979 28.2166 18.2189 28.2039C18.2189 28.2039 20.5665 28.0223 20.613 30.1241C20.6596 32.228 19.5136 31.9928 19.5136 35.3247C19.5136 35.9061 19.5136 33.6705 21.6708 32.7066C21.6708 32.7066 20.7613 28.7099 24.0178 22.785C24.0178 22.785 26.5448 19.3319 26.4585 20.0745C26.3633 20.9012 26.2664 21.7287 26.1733 22.0036C26.0766 22.2796 27.0342 21.4526 27.6564 21.5445C28.2785 21.6363 28.232 21.683 28.6637 22.0492L30.531 21.8666C30.531 21.8666 30.8659 22.6931 29.8135 23.0606C29.8135 23.0606 28.4805 23.5265 28.3267 23.7491C28.0416 24.1626 28.232 24.3468 28.232 24.3468L29.9082 23.7962C29.9082 23.7962 30.2907 24.3011 28.5187 24.9434C26.7452 25.5864 27.0823 27.4235 27.0823 27.4235C27.0823 27.4235 29.4294 25.7706 30.3388 25.7706C31.2494 25.7706 32.7346 25.7706 32.7346 25.7706C32.7346 25.7706 33.3568 27.0111 31.6817 27.2856L30.7696 27.3775L29.0945 28.7099L27.2059 28.6648C27.2059 28.6648 27.0823 29.0309 27.5114 29.1228C27.9431 29.2146 28.9494 28.9406 30.3853 29.3988C31.5866 29.783 31.632 31.0519 31.632 31.0519V32.9814C31.632 32.9814 30.3853 33.6254 30.0522 31.0519L26.8907 31.6039L25.6913 30.8682L26.6987 32.2935ZM16.3304 18.3275H14.6225V13.2361H13.9067L14.1902 11.7908H16.3304V18.3275ZM17.7685 13.3721C17.7685 12.1346 18.9144 11.5238 20.0723 11.5238C21.227 11.5238 22.3745 12.1346 22.3745 13.3721C22.3745 14.0601 21.9273 14.6441 21.3085 14.8425V14.8593C22.1156 15.1174 22.653 15.7094 22.653 16.5595C22.653 17.9014 21.2368 18.5196 20.0723 18.5196C18.9045 18.5196 17.4883 17.9014 17.4883 16.5595C17.4883 15.7094 18.0274 15.1174 18.8345 14.8593V14.8425C18.2172 14.6441 17.7685 14.0601 17.7685 13.3721ZM23.5504 13.4156V11.8501H29.1908L25.4172 18.3275H23.3004L26.2933 13.4156H23.5504ZM31.8918 11.5998C33.8439 11.5998 34.6778 13.362 34.6778 14.9994C34.6778 16.6367 33.8521 18.3984 31.8918 18.3984C29.9334 18.3984 29.106 16.6367 29.106 14.9994C29.106 13.362 29.9415 11.5998 31.8918 11.5998ZM35.7055 21.2359C35.717 21.2359 35.7242 21.247 35.7356 21.2475C35.7471 21.247 35.7537 21.2359 35.7658 21.2359C36.0224 21.2359 36.2325 21.4364 36.2325 21.6835C36.2325 21.8493 36.1373 21.9931 36.0004 22.0713L35.9988 22.0786L35.9955 31.0015L39.0705 33.9948V34.9462H38.6081L38.6047 34.188L35.7356 31.3809L32.8659 34.188L32.8627 34.9462H32.4008V33.9948L35.4751 31.0015L35.4718 22.0786L35.4701 22.0713C35.3334 21.9931 35.2388 21.8493 35.2388 21.6835C35.2388 21.4364 35.4483 21.2359 35.7055 21.2359ZM58.8023 1.01917L39.088 18.3354H35.7772L55.6393 1.01917H52.3297L35.7767 15.4486V12.5622L49.019 1.01917H45.7077L35.7778 9.67763V6.79071L42.397 1.01917H39.0874L35.7767 3.90447V1.01917H12.6421V36.2792C12.6421 49.2255 35.7236 54.6551 35.7236 54.6551C35.7236 54.6551 58.8023 49.2255 58.8023 36.2792V18.3343H55.6393L58.8023 15.4495V12.5633L52.3297 18.3343H49.019L58.8023 9.67656V6.79179L45.7077 18.3343H42.397L58.8023 3.905V1.01917Z" fill="#A20641"/>
<path d="M44.5284 22.6014H43.2101L43.4822 22.1653L44.5284 22.6014Z" fill="#A20641"/>
<path d="M86.6058 38.3893V36.4619C92.5438 36.1233 92.9739 35.7062 92.9739 29.4198V9.89213C92.9739 3.60377 92.4557 3.27261 87.0305 2.93406V1.00757H105.941V2.93406C100.097 3.27261 99.5783 3.60377 99.5783 9.89213V29.6732C99.5783 32.9411 100.003 34.6167 101.199 35.2039C102.379 35.7907 104.165 35.8751 107.297 35.8751C110.605 35.8751 113.323 35.2884 114.673 33.7792C115.699 32.7741 116.713 30.8445 117.568 28.1613L119.768 28.4181C119.343 30.3423 118.07 36.7951 117.568 38.3893H86.6058Z" fill="#231F20"/>
<path d="M141.396 36.8796C147.923 36.8796 153.095 32.6898 153.095 20.9551C153.095 11.4016 148.342 2.51425 139.863 2.51425C132.999 2.51425 128.082 8.30058 128.082 18.5232C128.082 29.4199 132.999 36.8796 141.396 36.8796ZM120.445 20.5373C120.445 6.45537 131.632 0 140.63 0C152.836 0 160.729 8.46474 160.729 19.2794C160.729 32.4383 150.634 39.3938 140.712 39.3938C127.569 39.3938 120.445 29.5893 120.445 20.5373Z" fill="#231F20"/>
<path d="M169.05 38.3893V36.4619C175.157 36.042 175.582 35.6237 175.582 29.5043V24.3919C175.582 22.7982 175.411 22.2953 174.303 20.4534C172.522 17.3493 170.146 13.4954 166.249 7.12653C164.048 3.43677 163.448 3.35497 159.632 2.93406V1.00757H176.598V2.93406L173.967 3.27262C172.016 3.52129 171.927 4.0236 172.782 5.70236C173.201 6.53986 178.632 15.7581 180.666 19.028C183.296 14.5842 185.919 8.96961 187.276 6.20453C188.385 3.8566 188.213 3.52129 185.919 3.27262L183.461 2.93406V1.00757H198.39V2.93406C193.809 3.35497 193.472 3.94164 191.185 7.21157C188.891 10.4788 186.349 14.5024 183.549 19.364C182.275 21.6268 182.187 22.211 182.187 23.4693V29.5043C182.187 35.6237 182.705 36.042 188.979 36.4619V38.3893H169.05Z" fill="#231F20"/>
<path d="M217.153 36.8796C223.685 36.8796 228.85 32.6898 228.85 20.9551C228.85 11.4016 224.104 2.51425 215.624 2.51425C208.756 2.51425 203.839 8.30058 203.839 18.5232C203.839 29.4199 208.756 36.8796 217.153 36.8796ZM196.202 20.5373C196.202 6.45537 207.394 0 216.385 0C228.59 0 236.486 8.46474 236.486 19.2794C236.486 32.4383 226.391 39.3938 216.469 39.3938C203.324 39.3938 196.202 29.5893 196.202 20.5373Z" fill="#231F20"/>
<path d="M239.452 38.3893V36.4619C245.384 36.1233 245.809 35.7062 245.809 29.4198V9.89213C245.809 3.60377 245.302 3.27261 239.87 2.93406V1.00757H258.787V2.93406C252.932 3.27261 252.424 3.60377 252.424 9.89213V29.6732C252.424 32.9411 252.848 34.6167 254.04 35.2039C255.225 35.7907 257.005 35.8751 260.148 35.8751C263.451 35.8751 266.162 35.2884 267.519 33.7792C268.539 32.7741 269.56 30.8445 270.403 28.1613L272.608 28.4181C272.184 30.3423 270.916 36.7951 270.403 38.3893H239.452Z" fill="#231F20"/>
<path d="M286.848 21.7959H296.685L291.772 9.05411H291.6L286.848 21.7959ZM297.539 36.4619L299.148 36.2929C301.524 36.042 302.285 35.3729 300.593 31.434L297.71 24.6427H285.922C285.321 25.9856 283.883 29.9246 283.039 32.4383C282.019 35.2884 282.784 36.1234 285.238 36.2929L287.191 36.4619V38.3893H272.349V36.4619C276.081 36.042 277.531 35.7062 279.984 29.9246L292.538 0.504864L294.65 0L307.292 30.9318C309.326 35.8751 310.941 36.2109 314.668 36.4619V38.3893H297.539V36.4619Z" fill="#231F20"/>
<path d="M86.6058 45.9965H89.3572V53.6411C89.3572 54.4938 89.4613 55.1203 89.672 55.5108C89.9986 56.2099 90.7143 56.5562 91.8127 56.5562C92.9088 56.5562 93.6169 56.2099 93.9436 55.5108C94.1543 55.1203 94.2583 54.4938 94.2583 53.6411V45.9965H97.0129V53.6458C97.0129 54.9698 96.8001 56.002 96.3754 56.7351C95.5754 58.0838 94.0562 58.7629 91.8127 58.7629C89.5678 58.7629 88.0444 58.0838 87.2428 56.7351C86.8137 56.002 86.6058 54.9698 86.6058 53.6458V45.9965Z" fill="#231F20"/>
<path d="M101.885 45.9965H104.73L109.878 54.6748V45.9965H112.406V58.4412H109.694L104.412 49.6133V58.4412H101.885V45.9965Z" fill="#231F20"/>
<path d="M119.95 58.4412H117.253V45.9965H119.95V58.4412Z" fill="#231F20"/>
<path d="M132.365 45.9965H135.183L130.759 58.4412H128.193L123.81 45.9965H126.703L129.52 55.4451L132.365 45.9965Z" fill="#231F20"/>
<path d="M147.985 48.2033H141.122V50.8433H147.419V53.0044H141.122V56.2056H148.302V58.4412H138.47V45.9965H147.985V48.2033Z" fill="#231F20"/>
<path d="M155.171 48.1607V51.5041H158.085C158.662 51.5041 159.098 51.4328 159.389 51.2973C159.901 51.0638 160.161 50.5983 160.161 49.9009C160.161 49.1464 159.91 48.6362 159.416 48.38C159.136 48.2347 158.716 48.1607 158.161 48.1607H155.171ZM160.773 46.3167C161.25 46.5176 161.653 46.8078 161.985 47.1898C162.261 47.5058 162.477 47.8532 162.637 48.2347C162.799 48.6178 162.879 49.0575 162.879 49.5435C162.879 50.1314 162.72 50.7148 162.412 51.2874C162.098 51.8572 161.587 52.263 160.872 52.4981C161.469 52.7285 161.897 53.0559 162.143 53.4815C162.394 53.9092 162.518 54.5568 162.518 55.4294V56.2613C162.518 56.8323 162.543 57.2164 162.589 57.4215C162.661 57.7432 162.83 57.9752 163.089 58.1263V58.4412H160.098C160.014 58.1647 159.956 57.9459 159.922 57.7747C159.849 57.4247 159.811 57.0684 159.805 56.7037L159.792 55.5475C159.775 54.7503 159.636 54.2236 159.357 53.9602C159.084 53.694 158.571 53.5629 157.817 53.5629H155.171V58.4412H152.519V45.9965H158.724C159.61 46.0165 160.292 46.122 160.773 46.3167Z" fill="#231F20"/>
<path d="M168.801 54.5992C168.881 55.1693 169.045 55.5933 169.296 55.8755C169.743 56.3867 170.513 56.6438 171.602 56.6438C172.257 56.6438 172.786 56.5731 173.198 56.4393C173.971 56.1827 174.353 55.7014 174.353 54.9981C174.353 54.5883 174.16 54.2692 173.785 54.0415C173.408 53.8221 172.807 53.6285 171.986 53.4631L170.578 53.1672C169.2 52.8739 168.251 52.5521 167.734 52.2132C166.857 51.6406 166.422 50.7406 166.422 49.5178C166.422 48.4059 166.853 47.4801 167.706 46.7423C168.562 46.005 169.818 45.635 171.476 45.635C172.857 45.635 174.039 45.985 175.016 46.6773C175.992 47.3747 176.508 48.3828 176.555 49.7042H173.947C173.903 48.9579 173.552 48.4258 172.904 48.1094C172.469 47.9016 171.934 47.7967 171.289 47.7967C170.571 47.7967 169.999 47.933 169.574 48.2033C169.143 48.4714 168.935 48.8499 168.935 49.3342C168.935 49.7782 169.143 50.1114 169.562 50.3281C169.832 50.4761 170.408 50.6498 171.289 50.8434L173.564 51.3588C174.563 51.584 175.311 51.8867 175.809 52.2631C176.581 52.8481 176.967 53.694 176.967 54.8019C176.967 55.938 176.509 56.8822 175.596 57.6384C174.677 58.3856 173.383 58.763 171.711 58.763C169.999 58.763 168.659 58.3898 167.679 57.652C166.701 56.912 166.212 55.895 166.212 54.5992H168.801Z" fill="#231F20"/>
<path d="M183.804 58.4412H181.111V45.9965H183.804V58.4412Z" fill="#231F20"/>
<path d="M198.457 45.9965V48.2033H194.576V58.4412H191.849V48.2033H187.948V45.9965H198.457Z" fill="#231F20"/>
<path d="M208.676 45.9965H211.744L207.408 53.7764V58.4412H204.694V53.7764L200.207 45.9965H203.402L206.095 51.417L208.676 45.9965Z" fill="#231F20"/>
<path d="M223.188 47.2992C224.235 46.2726 225.56 45.7647 227.178 45.7647C229.337 45.7647 230.918 46.4495 231.915 47.825C232.467 48.5937 232.761 49.3667 232.804 50.1456H230.089C229.92 49.5479 229.7 49.0975 229.427 48.7932C228.942 48.2547 228.227 47.9845 227.279 47.9845C226.315 47.9845 225.555 48.3602 224.996 49.1264C224.438 49.8894 224.155 50.969 224.155 52.3655C224.155 53.7597 224.453 54.8019 225.041 55.4994C225.632 56.1957 226.378 56.5415 227.282 56.5415C228.212 56.5415 228.921 56.2424 229.412 55.6474C229.682 55.3257 229.902 54.8445 230.082 54.2053H232.776C232.544 55.5592 231.95 56.6644 230.994 57.513C230.042 58.36 228.815 58.7887 227.321 58.7887C225.476 58.7887 224.025 58.2136 222.97 57.0658C221.916 55.9123 221.389 54.3317 221.389 52.3212C221.389 50.1513 221.988 48.4756 223.188 47.2992Z" fill="#231F20"/>
<path d="M236.622 58.4412V45.9965H239.315V50.7437H244.361V45.9965H247.053V58.4412H244.361V52.8863H239.315V58.4412H236.622Z" fill="#231F20"/>
<path d="M254.786 58.4412H252.092V45.9965H254.786V58.4412Z" fill="#231F20"/>
<path d="M260.795 47.2992C261.841 46.2726 263.168 45.7647 264.78 45.7647C266.944 45.7647 268.524 46.4495 269.519 47.825C270.069 48.5937 270.365 49.3667 270.407 50.1456H267.696C267.527 49.5479 267.305 49.0975 267.035 48.7932C266.553 48.2547 265.835 47.9845 264.884 47.9845C263.921 47.9845 263.16 48.3602 262.598 49.1264C262.043 49.8894 261.762 50.969 261.762 52.3655C261.762 53.7597 262.056 54.8019 262.645 55.4994C263.236 56.1957 263.981 56.5415 264.887 56.5415C265.82 56.5415 266.53 56.2424 267.016 55.6474C267.289 55.3257 267.512 54.8445 267.69 54.2053H270.381C270.147 55.5592 269.558 56.6644 268.604 57.513C267.646 58.36 266.422 58.7887 264.931 58.7887C263.085 58.7887 261.632 58.2136 260.576 57.0658C259.521 55.9123 258.993 54.3317 258.993 52.3212C258.993 50.1513 259.593 48.4756 260.795 47.2992Z" fill="#231F20"/>
<path d="M276.648 53.7407H279.972L278.332 48.8441L276.648 53.7407ZM276.827 45.9965H279.895L284.485 58.4412H281.543L280.687 55.8823H275.911L275.033 58.4412H272.195L276.827 45.9965Z" fill="#231F20"/>
<path d="M295.936 49.8795C295.732 49.0319 295.23 48.44 294.434 48.0994C293.986 47.9147 293.493 47.8249 292.946 47.8249C291.902 47.8249 291.042 48.1991 290.374 48.9579C289.701 49.7099 289.361 50.8492 289.361 52.3654C289.361 53.8903 289.725 54.9724 290.457 55.6074C291.183 56.2397 292.011 56.5562 292.934 56.5562C293.846 56.5562 294.592 56.308 295.17 55.8083C295.753 55.3056 296.115 54.6507 296.245 53.8389H293.244V51.7661H298.651V58.4412H296.854L296.581 56.8888C296.058 57.4756 295.589 57.8903 295.17 58.1306C294.458 58.5519 293.579 58.7629 292.53 58.7629C290.811 58.7629 289.403 58.1904 288.309 57.05C287.165 55.9038 286.592 54.3374 286.592 52.3412C286.592 50.3281 287.168 48.716 288.322 47.5001C289.481 46.2867 291.008 45.6775 292.907 45.6775C294.559 45.6775 295.883 46.079 296.884 46.8793C297.882 47.6822 298.46 48.6845 298.606 49.8795H295.936Z" fill="#231F20"/>
<path d="M311.344 55.4452C311.974 54.6849 312.287 53.6027 312.287 52.2047C312.287 50.8062 311.974 49.7298 311.344 48.9636C310.711 48.2033 309.861 47.825 308.786 47.825C307.712 47.825 306.856 48.2033 306.212 48.9626C305.574 49.7199 305.256 50.8021 305.256 52.2047C305.256 53.6027 305.574 54.6849 306.212 55.4452C306.856 56.2056 307.712 56.5846 308.786 56.5846C309.861 56.5846 310.711 56.2056 311.344 55.4452ZM313.033 57.3361C312.056 58.3033 310.64 58.7886 308.786 58.7886C306.928 58.7886 305.514 58.3033 304.531 57.3361C303.22 56.1491 302.562 54.4387 302.562 52.2047C302.562 49.9261 303.22 48.2091 304.531 47.0702C305.514 46.1047 306.928 45.6208 308.786 45.6208C310.64 45.6208 312.056 46.1047 313.033 47.0702C314.345 48.2091 315 49.9261 315 52.2047C315 54.4387 314.345 56.1491 313.033 57.3361Z" fill="#231F20"/>
<path d="M6.02594 82.6918C6.18245 82.7098 6.38548 82.716 6.6361 82.716C7.50291 82.716 8.17983 82.6037 8.67124 82.3712C9.58567 81.9446 10.0371 81.1333 10.0371 79.9389C10.0371 79.2289 9.83301 78.7287 9.42367 78.4391C9.01217 78.1483 8.46658 78.0008 7.78091 78.0008C7.50785 78.0008 7.30154 78.027 7.16144 78.0758C7.02354 78.1253 6.92285 78.2511 6.85993 78.4542L5.62702 82.6362C5.73756 82.6556 5.86889 82.6751 6.02594 82.6918ZM1.1994 88.233C1.61037 88.2037 1.89658 88.1317 2.04816 88.0205C2.29058 87.8537 2.48648 87.512 2.64026 86.9835L4.80454 79.5107L4.96652 78.8694C4.98402 78.7912 4.99935 78.7225 5.00592 78.6569C5.01577 78.5949 5.01796 78.5408 5.01796 78.4899C5.01796 78.2265 4.92602 78.045 4.7345 77.9452C4.54899 77.8471 4.22283 77.7867 3.7659 77.7558V77.4839H8.11527C9.01217 77.4839 9.73724 77.5952 10.2845 77.8077C11.3214 78.2055 11.8403 78.958 11.8403 80.0554C11.8403 80.7255 11.6339 81.318 11.2208 81.8365C10.4278 82.8393 8.99849 83.3431 6.93653 83.3431C6.68591 83.3431 6.43528 83.3326 6.18793 83.3153C5.94059 83.2954 5.70144 83.2623 5.47325 83.2182L4.52327 86.4834C4.46526 86.6745 4.42421 86.8329 4.39685 86.9625C4.34432 87.1829 4.3186 87.3514 4.3186 87.4742C4.3186 87.7508 4.4056 87.9402 4.58127 88.0436C4.75474 88.1496 5.06885 88.2121 5.51921 88.233V88.5049H1.1994V88.233Z" fill="#231F20"/>
<path d="M15.6539 81.0513C15.6774 81.0808 15.6863 81.118 15.6863 81.1542C15.6814 81.213 15.6726 81.2571 15.6643 81.2833L14.7855 84.4892L14.9764 84.1145C15.3896 83.3378 15.8707 82.6325 16.4195 81.9918C16.9706 81.3521 17.496 81.033 17.9923 81.033C18.2615 81.033 18.4661 81.118 18.6145 81.287C18.7595 81.4586 18.8312 81.6533 18.8312 81.8737C18.8312 82.1209 18.7595 82.3265 18.6145 82.4871C18.4716 82.6509 18.2703 82.7307 18.0158 82.7307C17.8402 82.7307 17.7088 82.6986 17.6191 82.6314C17.5265 82.5622 17.4581 82.4871 17.4051 82.3975L17.3049 82.2138C17.2808 82.1812 17.2558 82.1555 17.2245 82.1371C17.1923 82.1145 17.1533 82.1062 17.1091 82.1062C16.8819 82.1062 16.5591 82.4074 16.135 83.004C15.7131 83.6044 15.3349 84.252 15.0023 84.9521C14.8008 85.3756 14.5759 85.9371 14.327 86.635C14.1715 87.0754 13.9636 87.6982 13.7058 88.5048H12.3826L13.8251 83.5194C13.9056 83.2366 13.9723 82.9847 14.0199 82.7585C14.0681 82.538 14.0933 82.3565 14.0933 82.2138C14.0933 82.0506 14.0489 81.9261 13.9619 81.8381C13.8766 81.753 13.7299 81.7105 13.5165 81.7105C13.447 81.7105 13.3616 81.7152 13.2593 81.7252C13.157 81.7367 13.0344 81.7498 12.8904 81.7661V81.4927L13.2353 81.4308C13.6839 81.3426 14.1749 81.2492 14.7057 81.1526C15.2376 81.0529 15.5193 81.0052 15.5462 81.0052C15.5993 81.0052 15.6353 81.0183 15.6539 81.0513Z" fill="#231F20"/>
<path d="M23.1977 83.8774C23.8833 83.2923 24.2265 82.7113 24.2265 82.1372C24.2265 81.9278 24.1749 81.7609 24.0744 81.6402C23.9702 81.5143 23.8172 81.4534 23.6173 81.4534C23.2491 81.4534 22.8842 81.6077 22.5257 81.9116C22.1711 82.2138 21.8487 82.5575 21.562 82.9417C21.2599 83.3935 21.0213 83.8239 20.8423 84.2343C20.745 84.4552 20.6427 84.7034 20.5316 84.9831C21.6248 84.833 22.5119 84.4598 23.1977 83.8774ZM20.4155 82.7685C21.5499 81.6303 22.722 81.0593 23.9277 81.0593C24.3741 81.0593 24.7293 81.1574 24.9936 81.3558C25.2563 81.55 25.3877 81.8465 25.3877 82.2353C25.3877 83.0252 24.9066 83.701 23.9412 84.2637C22.9792 84.8262 21.9647 85.1699 20.902 85.2974L20.4128 85.3514C20.3379 85.5788 20.2865 85.7582 20.2575 85.8946C20.2316 86.0284 20.2147 86.1985 20.2147 86.401C20.2147 86.8854 20.3783 87.2617 20.7073 87.5315C21.035 87.8012 21.4241 87.9355 21.876 87.9355C22.3023 87.9355 22.7561 87.7981 23.2353 87.5215C23.5117 87.3614 23.9058 87.0733 24.4255 86.6582L24.6506 86.8492C24.3934 87.162 24.0245 87.4842 23.5441 87.8112C22.6947 88.4052 21.8383 88.6996 20.9818 88.6996C20.3735 88.6996 19.8432 88.4902 19.3856 88.0778C18.9287 87.6658 18.7 87.0785 18.7 86.3098C18.7 85.0928 19.2696 83.912 20.4155 82.7685Z" fill="#231F20"/>
<path d="M32.4862 82.4075C32.3193 82.0065 32.0052 81.8087 31.5482 81.8087C31.1526 81.8087 30.7226 81.9965 30.2584 82.3728C29.7933 82.7522 29.4043 83.3736 29.09 84.2426C28.8394 84.9275 28.6058 85.6459 28.3859 86.3963C28.1658 87.1489 28.0564 87.5886 28.0564 87.7183C28.0564 87.9271 28.1472 88.0809 28.3246 88.1811C28.5018 88.2808 28.7153 88.3297 28.9643 88.3297C29.9602 88.3297 30.8386 87.7183 31.5976 86.4992C32.2777 85.4087 32.6176 84.3239 32.6176 83.2514C32.6176 82.8976 32.5732 82.6132 32.4862 82.4075ZM24.5738 91.7123C24.9203 91.7123 25.178 91.6499 25.3536 91.5271C25.5255 91.4033 25.6568 91.1918 25.7356 90.8943L28.1045 82.8688C28.161 82.6688 28.1948 82.5229 28.2102 82.4353C28.2254 82.3466 28.2305 82.2747 28.2305 82.227C28.2305 82.0443 28.161 81.9084 28.0224 81.8187C27.8829 81.73 27.6777 81.6875 27.4106 81.6875C27.3526 81.6875 27.2979 81.6875 27.2465 81.6927C27.1973 81.6959 27.1409 81.699 27.0863 81.7122L27.0676 81.4387L29.8579 81.053C29.8918 81.0483 29.9175 81.0692 29.936 81.1181C29.9125 81.213 29.8901 81.2834 29.8749 81.3343L29.4043 82.852C29.7796 82.3712 30.1238 82.0034 30.4378 81.7531C31.0038 81.2886 31.5942 81.0593 32.2044 81.0593C32.8294 81.0593 33.3153 81.2408 33.6714 81.6077C34.0261 81.9703 34.205 82.5266 34.205 83.2807C34.205 84.568 33.6392 85.7929 32.5087 86.9626C31.3912 88.1187 30.2277 88.6995 29.0222 88.6995C28.7869 88.6995 28.5839 88.6733 28.4186 88.6308C28.2545 88.5847 28.0536 88.5096 27.8145 88.4015L27.6678 88.909C27.5163 89.4668 27.4106 89.8672 27.3559 90.1091C27.2038 90.7472 27.1288 91.102 27.1288 91.1854C27.1288 91.4111 27.2038 91.5565 27.3559 91.6158C27.5042 91.6777 27.7976 91.7187 28.2414 91.7433V91.9853H24.5738V91.7123Z" fill="#231F20"/>
<path d="M40.9304 81.6812C40.7394 81.4928 40.5073 81.3978 40.2365 81.3978C39.2909 81.3978 38.4164 82.0868 37.6058 83.4639C36.895 84.674 36.5404 85.7162 36.5404 86.5911C36.5404 87.0329 36.6373 87.3514 36.8349 87.5514C37.033 87.7556 37.2754 87.8537 37.5687 87.8537C38.43 87.8537 39.2624 87.1867 40.0635 85.8485C40.8334 84.6315 41.2187 83.5342 41.2187 82.556C41.2187 82.1571 41.1196 81.8675 40.9304 81.6812ZM41.2083 81.3669C41.3397 81.4912 41.442 81.6481 41.5202 81.8465L41.5646 81.9593L41.7556 81.3406C41.7812 81.2688 41.8037 81.223 41.819 81.1984C41.8361 81.1721 41.8786 81.1574 41.9417 81.1528L42.9376 81.0462C42.9884 81.0462 43.0196 81.0546 43.03 81.074C43.0382 81.0924 43.0366 81.1265 43.0229 81.1774C42.9994 81.2493 42.9818 81.3033 42.9704 81.3474C42.9583 81.3867 42.9398 81.4487 42.9141 81.5243L42.0626 84.4714C41.8748 85.1159 41.7215 85.6706 41.5886 86.1361C41.379 86.9788 41.2712 87.458 41.2712 87.5792C41.2712 87.6558 41.2953 87.713 41.338 87.7477C41.379 87.7818 41.4316 87.7996 41.4967 87.7996C41.5459 87.7996 41.6055 87.7849 41.6669 87.7508C41.732 87.7183 41.8071 87.6705 41.8972 87.6018L42.051 87.4889C42.0987 87.4495 42.1534 87.407 42.2164 87.353C42.2744 87.3026 42.3476 87.2376 42.4314 87.162L42.9956 86.6372L43.2025 86.8067C42.5862 87.5367 42.0971 88.0321 41.7249 88.2924C41.3533 88.5538 40.9981 88.6849 40.666 88.6849C40.446 88.6849 40.2791 88.6109 40.161 88.4718C40.0454 88.3264 39.9874 88.1496 39.9874 87.9355C39.9874 87.7377 40.0247 87.4564 40.103 87.0849C40.1796 86.717 40.2551 86.4063 40.3278 86.1544C40.2261 86.3197 40.052 86.5585 39.8079 86.8754C39.5671 87.1898 39.269 87.4958 38.9122 87.7917C38.4946 88.1481 38.0941 88.4015 37.7121 88.5474C37.4117 88.6487 37.1233 88.6996 36.8508 88.6996C36.3883 88.6996 35.967 88.5144 35.5905 88.1496C35.2119 87.7849 35.0241 87.2654 35.0241 86.5957C35.0241 85.4412 35.5681 84.239 36.6564 82.9848C37.78 81.6823 38.9433 81.0331 40.1495 81.0331C40.6042 81.0331 40.9594 81.1443 41.2083 81.3669Z" fill="#231F20"/>
<path d="M47.2612 81.0513C47.2837 81.0808 47.2942 81.118 47.2942 81.1542C47.287 81.213 47.2804 81.2571 47.2717 81.2833L46.3966 84.4892L46.5828 84.1145C46.9954 83.3378 47.4763 82.6325 48.0268 81.9918C48.5795 81.3521 49.1016 81.033 49.5979 81.033C49.8655 81.033 50.0724 81.118 50.2206 81.287C50.3656 81.4586 50.4391 81.6533 50.4391 81.8737C50.4391 82.1209 50.3668 82.3265 50.2206 82.4871C50.0773 82.6509 49.8798 82.7307 49.6238 82.7307C49.4495 82.7307 49.3166 82.6986 49.2264 82.6314C49.1355 82.5622 49.0644 82.4871 49.0129 82.3975L48.9107 82.2138C48.8904 82.1812 48.8614 82.1555 48.8307 82.1371C48.7996 82.1145 48.7606 82.1062 48.7147 82.1062C48.4892 82.1062 48.1652 82.4074 47.744 83.004C47.3209 83.6044 46.9405 84.252 46.6101 84.9521C46.4071 85.3756 46.1838 85.9371 45.9343 86.635C45.7793 87.0754 45.5732 87.6982 45.3137 88.5048H43.9921L45.433 83.5194C45.5135 83.2366 45.578 82.9847 45.6272 82.7585C45.6737 82.538 45.6989 82.3565 45.6989 82.2138C45.6989 82.0506 45.6562 81.9261 45.5715 81.8381C45.486 81.753 45.3378 81.7105 45.126 81.7105C45.0559 81.7105 44.9706 81.7152 44.8667 81.7252C44.7643 81.7367 44.6417 81.7498 44.4983 81.7661V81.4927L44.8415 81.4308C45.2913 81.3426 45.7827 81.2492 46.3145 81.1526C46.8449 81.0529 47.1266 81.0052 47.1556 81.0052C47.2072 81.0052 47.2426 81.0183 47.2612 81.0513Z" fill="#231F20"/>
<path d="M53.5808 78.9744C53.4172 78.7991 53.3333 78.5866 53.3333 78.3393C53.3333 78.0859 53.4172 77.8718 53.5808 77.6965C53.7476 77.5202 53.949 77.4316 54.1843 77.4316C54.4196 77.4316 54.6209 77.5202 54.7934 77.6965C54.9625 77.8718 55.0472 78.0859 55.0472 78.3393C55.0472 78.5913 54.9625 78.8059 54.7934 78.977C54.6209 79.1507 54.4196 79.2394 54.1843 79.2394C53.949 79.2394 53.7476 79.1507 53.5808 78.9744ZM54.3923 81.0352C54.4234 81.053 54.4372 81.0761 54.4317 81.1055L52.6986 86.9935C52.6187 87.3058 52.5777 87.4937 52.5777 87.5529C52.5777 87.638 52.5947 87.7099 52.6292 87.7686C52.6596 87.8359 52.7314 87.8684 52.8453 87.8684C53.0385 87.8684 53.2957 87.7052 53.6164 87.3808C53.8039 87.1898 54.0376 86.9117 54.3124 86.5538L54.5373 86.7354L54.4503 86.8513C54.0207 87.4302 53.6661 87.8473 53.3842 88.1008C52.9444 88.4981 52.5147 88.6996 52.0989 88.6996C51.8515 88.6996 51.6446 88.5963 51.4849 88.4C51.319 88.2037 51.2391 87.9649 51.2391 87.6952C51.2391 87.5367 51.249 87.3977 51.2714 87.278C51.2949 87.1589 51.3382 86.9835 51.4028 86.7532L52.6292 82.5088C52.6478 82.4432 52.6613 82.3823 52.6734 82.3287C52.6817 82.2731 52.6903 82.2191 52.6903 82.1619C52.6903 81.9656 52.6154 81.8428 52.4633 81.7951C52.3117 81.75 52.0129 81.7253 51.568 81.7253V81.4534C52.037 81.3978 52.3763 81.3589 52.5826 81.328C52.7894 81.2981 52.9974 81.2655 53.2085 81.2346C53.48 81.1906 53.7355 81.1412 53.9813 81.0871C54.2238 81.0331 54.3616 81.0152 54.3923 81.0352Z" fill="#231F20"/>
<path d="M55.5983 88.5049L57.0681 83.4229C57.1946 82.9947 57.2678 82.7328 57.2886 82.641C57.3072 82.5528 57.3176 82.4531 57.3176 82.3465C57.3176 82.186 57.2711 82.0606 57.1774 81.9703C57.0839 81.8785 56.8995 81.8334 56.6248 81.8334C56.5565 81.8334 56.4885 81.8381 56.4218 81.8465C56.3556 81.8543 56.2839 81.8638 56.2035 81.8738V81.6041C56.5756 81.5484 56.8366 81.5059 56.9931 81.4796C57.1501 81.4518 57.321 81.4178 57.5031 81.3815L59.0316 81.0593C59.0655 81.0808 59.0874 81.107 59.0983 81.1348L57.9705 84.6756C58.6731 83.6485 59.2613 82.8829 59.7358 82.3844C60.5648 81.5012 61.3052 81.0593 61.9637 81.0593C62.2158 81.0593 62.4342 81.107 62.6186 81.1999C62.9682 81.3815 63.1439 81.7053 63.1439 82.1797C63.1439 82.3125 63.1304 82.45 63.1023 82.5922C63.0724 82.736 63.0362 82.8897 62.9902 83.053L61.8575 86.9951C61.8355 87.0785 61.8115 87.1783 61.7792 87.2974C61.7519 87.4155 61.7381 87.4973 61.7381 87.5446C61.7381 87.628 61.759 87.703 61.7995 87.7686C61.8389 87.8358 61.9017 87.8684 61.991 87.8684C62.1337 87.8684 62.2958 87.7849 62.485 87.618C62.6728 87.4511 62.9749 87.0969 63.3995 86.5501L63.6469 86.7694C63.1894 87.373 62.8249 87.8033 62.5534 88.0499C62.0911 88.4803 61.6511 88.6996 61.2297 88.6996C61.0388 88.6996 60.8565 88.6356 60.6777 88.5127C60.502 88.3868 60.4127 88.1612 60.4127 87.839C60.4127 87.7424 60.4198 87.6443 60.4319 87.5398C60.4457 87.4333 60.4658 87.3452 60.4877 87.2665L61.5969 83.2676C61.6511 83.0482 61.6922 82.8688 61.7108 82.7281C61.7315 82.5891 61.7415 82.4888 61.7415 82.4285C61.7415 82.2962 61.7074 82.1834 61.6413 82.0868C61.5762 81.9919 61.4602 81.9446 61.2917 81.9446C60.8565 81.9446 60.3071 82.3125 59.6439 83.0598C59.2586 83.5032 58.863 84.0296 58.4603 84.643C58.1581 85.119 57.9195 85.5855 57.7439 86.0353C57.5715 86.4882 57.2968 87.3105 56.9198 88.5049H55.5983Z" fill="#231F20"/>
<path d="M67.3084 85.119C67.4927 85.4559 67.8222 85.6259 68.2961 85.6259C68.8095 85.6259 69.2685 85.3105 69.6724 84.6808C70.0768 84.0479 70.2764 83.3526 70.2764 82.5901C70.2764 82.2269 70.1944 81.9446 70.0292 81.7368C69.8616 81.5305 69.6144 81.4277 69.2823 81.4277C68.6424 81.4277 68.1237 81.7546 67.7352 82.4085C67.3428 83.0634 67.147 83.6958 67.147 84.3046C67.147 84.643 67.2011 84.918 67.3084 85.119ZM69.147 91.1887C69.5989 90.8732 69.8245 90.5022 69.8245 90.0651C69.8245 89.736 69.7031 89.4579 69.4677 89.2312C69.3434 89.1099 69.1387 88.9809 68.8554 88.8434C68.62 88.7337 68.2211 88.5737 67.6597 88.369C67.0971 88.1612 66.7732 88.0583 66.6877 88.0583C66.5379 88.0583 66.2494 88.2494 65.8215 88.6339C65.3898 89.015 65.1746 89.4469 65.1746 89.9313C65.1746 90.6654 65.5058 91.1692 66.1673 91.4458C66.5137 91.5896 66.9401 91.6614 67.4436 91.6614C68.1291 91.6614 68.6949 91.5009 69.147 91.1887ZM64.7194 88.9661C65.0506 88.5963 65.5688 88.2268 66.2833 87.862C66.1405 87.7718 66.0223 87.6805 65.9304 87.5855C65.8417 87.4889 65.7941 87.3635 65.7941 87.2014C65.7941 86.9788 65.9577 86.7185 66.2833 86.4278C66.4695 86.2641 66.7716 86.0479 67.1874 85.7782C66.8207 85.6459 66.504 85.4591 66.2391 85.2188C65.9184 84.8934 65.758 84.4714 65.758 83.9561C65.758 83.1254 66.0963 82.4353 66.7716 81.8838C67.4467 81.3343 68.283 81.0593 69.2823 81.0593C69.8021 81.0593 70.2443 81.1381 70.6054 81.2949C70.9633 81.4503 71.1789 81.5799 71.2412 81.6822H72.4013V82.3434H71.5215C71.5553 82.4641 71.5828 82.5744 71.5981 82.6735C71.6167 82.7706 71.6238 82.9123 71.6238 83.0939C71.6238 83.9855 71.2659 84.6872 70.5491 85.1993C69.8311 85.7093 69.0584 85.9665 68.2276 85.9665C68.1429 85.9665 68.0624 85.9597 67.9875 85.9534C67.9124 85.945 67.8222 85.9319 67.7128 85.9093C67.6273 85.9093 67.5114 85.9875 67.3614 86.1465C67.2059 86.3081 67.1294 86.4488 67.1294 86.5764C67.1294 86.7616 67.7593 87.0817 69.0196 87.5298C70.2749 87.9864 70.9025 88.6519 70.9025 89.5267C70.9025 90.1858 70.5851 90.762 69.9569 91.2558C69.3243 91.7512 68.3728 92 67.1003 92C66.2155 92 65.5162 91.8184 65.0007 91.4568C64.4841 91.0958 64.2247 90.6523 64.2247 90.1354C64.2247 89.7251 64.3905 89.334 64.7194 88.9661Z" fill="#231F20"/>
<path d="M83.8117 82.4075C83.6447 82.0065 83.3324 81.8087 82.8722 81.8087C82.4758 81.8087 82.0485 81.9965 81.5828 82.3728C81.1188 82.7522 80.7313 83.3736 80.4161 84.2426C80.1649 84.9275 79.9296 85.6459 79.7096 86.3963C79.4913 87.1489 79.3808 87.5886 79.3808 87.7183C79.3808 87.9271 79.4693 88.0809 79.6467 88.1811C79.8273 88.2808 80.0391 88.3297 80.288 88.3297C81.2856 88.3297 82.1623 87.7183 82.9213 86.4992C83.602 85.4087 83.9413 84.3239 83.9413 83.2514C83.9413 82.8976 83.897 82.6132 83.8117 82.4075ZM75.9016 91.7123C76.2458 91.7123 76.5051 91.6499 76.6758 91.5271C76.8547 91.4033 76.9789 91.1918 77.0611 90.8943L79.4251 82.8688C79.4831 82.6688 79.5203 82.5229 79.5356 82.4353C79.5482 82.3466 79.5564 82.2747 79.5564 82.227C79.5564 82.0443 79.4865 81.9084 79.3463 81.8187C79.2051 81.73 79.0021 81.6875 78.7329 81.6875C78.6775 81.6875 78.625 81.6875 78.5725 81.6927C78.5211 81.6959 78.4663 81.699 78.4083 81.7122L78.3913 81.4387L81.1816 81.053C81.2178 81.0483 81.243 81.0692 81.2605 81.1181C81.2365 81.213 81.214 81.2834 81.1986 81.3343L80.7313 82.852C81.105 82.3712 81.4476 82.0034 81.7618 81.7531C82.3293 81.2886 82.9181 81.0593 83.5287 81.0593C84.1508 81.0593 84.6423 81.2408 84.9954 81.6077C85.3505 81.9703 85.5278 82.5266 85.5278 83.2807C85.5278 84.568 84.9647 85.7929 83.8342 86.9626C82.715 88.1187 81.5538 88.6995 80.3494 88.6995C80.1108 88.6995 79.9077 88.6733 79.7441 88.6308C79.5783 88.5847 79.3769 88.5096 79.1416 88.4015L78.9939 88.909C78.8401 89.4668 78.7339 89.8672 78.6798 90.1091C78.5293 90.7472 78.4565 91.102 78.4565 91.1854C78.4565 91.4111 78.5293 91.5565 78.6798 91.6158C78.828 91.6777 79.123 91.7187 79.5629 91.7433V91.9853H75.9016V91.7123Z" fill="#231F20"/>
<path d="M91.1318 83.8774C91.8144 83.2923 92.1586 82.7113 92.1586 82.1372C92.1586 81.9278 92.1043 81.7609 92.0019 81.6402C91.9029 81.5143 91.753 81.4534 91.5517 81.4534C91.1768 81.4534 90.8145 81.6077 90.4566 81.9116C90.1014 82.2138 89.7813 82.5575 89.4913 82.9417C89.1915 83.3935 88.9523 83.8239 88.775 84.2343C88.6759 84.4552 88.5737 84.7034 88.4647 84.9831C89.5558 84.833 90.4463 84.4598 91.1318 83.8774ZM88.3487 82.7685C89.4848 81.6303 90.6541 81.0593 91.8586 81.0593C92.309 81.0593 92.6604 81.1574 92.923 81.3558C93.189 81.55 93.3186 81.8465 93.3186 82.2353C93.3186 83.0252 92.8376 83.701 91.8724 84.2637C90.9103 84.8262 89.8968 85.1699 88.833 85.2974L88.3449 85.3514C88.2699 85.5788 88.219 85.7582 88.1916 85.8946C88.161 86.0284 88.1473 86.1985 88.1473 86.401C88.1473 86.8854 88.3141 87.2617 88.6388 87.5315C88.966 87.8012 89.355 87.9355 89.8055 87.9355C90.2312 87.9355 90.6886 87.7981 91.1659 87.5215C91.4388 87.3614 91.8379 87.0733 92.3566 86.6582L92.5821 86.8492C92.3259 87.162 91.9577 87.4842 91.4766 87.8112C90.6236 88.4052 89.771 88.6996 88.9112 88.6996C88.3076 88.6996 87.7752 88.4902 87.3183 88.0778C86.8581 87.6658 86.6293 87.0785 86.6293 86.3098C86.6293 85.0928 87.2056 83.912 88.3487 82.7685Z" fill="#231F20"/>
<path d="M96.1871 87.8799C96.4263 88.1812 96.7705 88.3297 97.2345 88.3297C98.1653 88.3297 98.9943 87.6527 99.7146 86.2967C100.329 85.1353 100.635 84.0674 100.635 83.0913C100.635 82.6772 100.581 82.3434 100.479 82.0915C100.277 81.6124 99.9121 81.3721 99.377 81.3721C98.5037 81.3721 97.685 82.0034 96.9139 83.2645C96.1905 84.4405 95.8293 85.6034 95.8293 86.7432C95.8293 87.1993 95.9485 87.5792 96.1871 87.8799ZM101.512 81.7709C101.911 82.2631 102.105 82.8457 102.105 83.5142C102.105 84.6808 101.574 85.8274 100.503 86.9474C99.3939 88.1139 98.2168 88.6996 96.9615 88.6996C96.1735 88.6996 95.5458 88.4771 95.0681 88.0368C94.5909 87.5971 94.3518 86.9788 94.3518 86.1791C94.3518 84.9752 94.8881 83.8239 95.9519 82.7229C97.0365 81.5962 98.2135 81.0331 99.4787 81.0331C100.441 81.0331 101.12 81.2787 101.512 81.7709Z" fill="#231F20"/>
<path d="M109.215 82.4075C109.048 82.0065 108.733 81.8087 108.276 81.8087C107.881 81.8087 107.451 81.9965 106.987 82.3728C106.523 82.7522 106.131 83.3736 105.818 84.2426C105.568 84.9275 105.332 85.6459 105.114 86.3963C104.896 87.1489 104.784 87.5886 104.784 87.7183C104.784 87.9271 104.876 88.0809 105.057 88.1811C105.234 88.2808 105.445 88.3297 105.694 88.3297C106.687 88.3297 107.567 87.7183 108.328 86.4992C109.006 85.4087 109.347 84.3239 109.347 83.2514C109.347 82.8976 109.3 82.6132 109.215 82.4075ZM101.304 91.7123C101.649 91.7123 101.908 91.6499 102.081 91.5271C102.255 91.4033 102.385 91.1918 102.467 90.8943L104.834 82.8688C104.892 82.6688 104.926 82.5229 104.94 82.4353C104.954 82.3466 104.96 82.2747 104.96 82.227C104.96 82.0443 104.892 81.9084 104.749 81.8187C104.613 81.73 104.405 81.6875 104.138 81.6875C104.08 81.6875 104.03 81.6875 103.979 81.6927C103.924 81.6959 103.872 81.699 103.814 81.7122L103.798 81.4387L106.588 81.053C106.622 81.0483 106.649 81.0692 106.666 81.1181C106.639 81.213 106.615 81.2834 106.602 81.3343L106.131 82.852C106.509 82.3712 106.851 82.0034 107.165 81.7531C107.73 81.2886 108.32 81.0593 108.934 81.0593C109.552 81.0593 110.047 81.2408 110.402 81.6077C110.756 81.9703 110.934 82.5266 110.934 83.2807C110.934 84.568 110.367 85.7929 109.235 86.9626C108.12 88.1187 106.96 88.6995 105.753 88.6995C105.513 88.6995 105.316 88.6733 105.148 88.6308C104.984 88.5847 104.784 88.5096 104.541 88.4015L104.398 88.909C104.245 89.4668 104.142 89.8672 104.08 90.1091C103.938 90.7472 103.856 91.102 103.856 91.1854C103.856 91.4111 103.938 91.5565 104.08 91.6158C104.234 91.6777 104.528 91.7187 104.971 91.7433V91.9853H101.304V91.7123Z" fill="#231F20"/>
<path d="M114.825 78.5031C114.849 78.4308 114.867 78.361 114.87 78.289C114.874 78.2188 114.881 78.1595 114.881 78.1153C114.881 77.9275 114.798 77.813 114.641 77.7706C114.488 77.7296 114.174 77.7097 113.703 77.7166V77.4467C113.963 77.4105 114.259 77.3728 114.594 77.3318C114.931 77.2878 115.15 77.2568 115.255 77.2406C115.58 77.185 115.965 77.1046 116.425 76.9965C116.466 76.9965 116.504 77.0243 116.548 77.0815L113.679 86.9936C113.615 87.2307 113.577 87.373 113.568 87.4218C113.557 87.4712 113.55 87.5215 113.55 87.5693C113.55 87.6737 113.568 87.7623 113.612 87.8406C113.649 87.9125 113.724 87.9486 113.837 87.9486C114.041 87.9486 114.307 87.7734 114.645 87.4218C114.972 87.0691 115.255 86.7317 115.484 86.3964L115.719 86.5539C115.228 87.2549 114.843 87.7409 114.57 88.009C114.096 88.4688 113.618 88.6997 113.138 88.6997C112.929 88.6997 112.748 88.6472 112.588 88.5475C112.343 88.4 112.216 88.1465 112.216 87.7886C112.216 87.6475 112.241 87.4628 112.285 87.2324C112.315 87.0949 112.359 86.9364 112.411 86.7548L114.825 78.5031Z" fill="#231F20"/>
<path d="M121.422 83.8774C122.108 83.2923 122.45 82.7113 122.45 82.1372C122.45 81.9278 122.398 81.7609 122.292 81.6402C122.194 81.5143 122.043 81.4534 121.846 81.4534C121.471 81.4534 121.106 81.6077 120.751 81.9116C120.388 82.2138 120.072 82.5575 119.785 82.9417C119.485 83.3935 119.243 83.8239 119.069 84.2343C118.967 84.4552 118.864 84.7034 118.759 84.9831C119.847 84.833 120.74 84.4598 121.422 83.8774ZM118.639 82.7685C119.779 81.6303 120.945 81.0593 122.157 81.0593C122.599 81.0593 122.954 81.1574 123.217 81.3558C123.48 81.55 123.613 81.8465 123.613 82.2353C123.613 83.0252 123.132 83.701 122.17 84.2637C121.204 84.8262 120.191 85.1699 119.127 85.2974L118.636 85.3514C118.565 85.5788 118.513 85.7582 118.483 85.8946C118.455 86.0284 118.442 86.1985 118.442 86.401C118.442 86.8854 118.605 87.2617 118.932 87.5315C119.26 87.8012 119.649 87.9355 120.1 87.9355C120.526 87.9355 120.983 87.7981 121.46 87.5215C121.733 87.3614 122.129 87.0733 122.651 86.6582L122.88 86.8492C122.623 87.162 122.251 87.4842 121.77 87.8112C120.918 88.4052 120.062 88.6996 119.205 88.6996C118.601 88.6996 118.066 88.4902 117.608 88.0778C117.152 87.6658 116.927 87.0785 116.927 86.3098C116.927 85.0928 117.497 83.912 118.639 82.7685Z" fill="#231F20"/>
<path d="M129.245 87.8259C129.251 87.7655 129.265 87.7099 129.281 87.6475L130.95 81.8874H129.644C129.644 81.74 129.65 81.6466 129.678 81.6077C129.702 81.5668 129.761 81.5306 129.852 81.4912C130.435 81.2524 130.892 81.0236 131.213 80.8028C131.534 80.5818 131.973 80.1583 132.529 79.5238L132.666 79.3664C132.684 79.3454 132.703 79.3276 132.731 79.3124C132.751 79.2998 132.782 79.2929 132.81 79.2929C132.867 79.3045 132.904 79.3145 132.928 79.3276C132.946 79.3654 132.956 79.3994 132.959 79.4288C132.959 79.4583 132.959 79.4913 132.952 79.5217L132.444 81.3165H133.867L133.76 81.8874H132.271L130.667 87.4333C130.636 87.533 130.646 87.6265 130.69 87.7183C130.739 87.8096 130.813 87.8537 130.926 87.8537C131.073 87.8537 131.285 87.7131 131.554 87.4255C131.707 87.2696 131.97 86.9657 132.339 86.5076L132.561 86.632L132.444 86.8041C131.946 87.512 131.513 88.0043 131.141 88.284C130.763 88.559 130.408 88.6997 130.074 88.6997C129.779 88.6997 129.565 88.6241 129.439 88.4756C129.306 88.3265 129.237 88.1612 129.237 87.9765C129.237 87.9324 129.237 87.8799 129.245 87.8259Z" fill="#231F20"/>
<path d="M135.77 87.8799C136.003 88.1812 136.354 88.3297 136.811 88.3297C137.741 88.3297 138.575 87.6527 139.298 86.2967C139.908 85.1353 140.215 84.0674 140.215 83.0913C140.215 82.6772 140.16 82.3434 140.061 82.0915C139.856 81.6124 139.492 81.3721 138.956 81.3721C138.083 81.3721 137.257 82.0034 136.493 83.2645C135.77 84.4405 135.408 85.6034 135.408 86.7432C135.408 87.1993 135.531 87.5792 135.77 87.8799ZM141.094 81.7709C141.491 82.2631 141.685 82.8457 141.685 83.5142C141.685 84.6808 141.153 85.8274 140.081 86.9474C138.976 88.1139 137.799 88.6996 136.544 88.6996C135.754 88.6996 135.122 88.4771 134.648 88.0368C134.17 87.5971 133.935 86.9788 133.935 86.1791C133.935 84.9752 134.467 83.8239 135.535 82.7229C136.619 81.5962 137.796 81.0331 139.062 81.0331C140.024 81.0331 140.699 81.2787 141.094 81.7709Z" fill="#231F20"/>
<path d="M150.004 78.5031C150.028 78.4308 150.042 78.361 150.049 78.289C150.057 78.2188 150.057 78.1595 150.057 78.1153C150.057 77.9275 149.978 77.813 149.821 77.7706C149.667 77.7296 149.353 77.7097 148.886 77.7166V77.4467C149.141 77.4105 149.443 77.3728 149.776 77.3318C150.113 77.2878 150.332 77.2568 150.435 77.2406C150.759 77.185 151.147 77.1046 151.608 76.9965C151.646 76.9965 151.689 77.0243 151.723 77.0815L148.859 86.9936C148.797 87.2307 148.76 87.373 148.746 87.4218C148.737 87.4712 148.73 87.5215 148.73 87.5693C148.73 87.6737 148.754 87.7623 148.789 87.8406C148.827 87.9125 148.903 87.9486 149.015 87.9486C149.22 87.9486 149.493 87.7734 149.823 87.4218C150.154 87.0691 150.441 86.7317 150.67 86.3964L150.898 86.5539C150.407 87.2549 150.028 87.7409 149.75 88.009C149.275 88.4688 148.797 88.6997 148.317 88.6997C148.109 88.6997 147.927 88.6472 147.767 88.5475C147.522 88.4 147.398 88.1465 147.398 87.7886C147.398 87.6475 147.422 87.4628 147.468 87.2324C147.498 87.0949 147.539 86.9364 147.59 86.7548L150.004 78.5031Z" fill="#231F20"/>
<path d="M156.605 83.8774C157.29 83.2923 157.635 82.7113 157.635 82.1372C157.635 81.9278 157.585 81.7609 157.479 81.6402C157.376 81.5143 157.219 81.4534 157.021 81.4534C156.651 81.4534 156.289 81.6077 155.93 81.9116C155.576 82.2138 155.255 82.5575 154.967 82.9417C154.664 83.3935 154.425 83.8239 154.248 84.2343C154.152 84.4552 154.047 84.7034 153.941 84.9831C155.033 84.833 155.916 84.4598 156.605 83.8774ZM153.822 82.7685C154.954 81.6303 156.127 81.0593 157.336 81.0593C157.782 81.0593 158.134 81.1574 158.396 81.3558C158.662 81.55 158.792 81.8465 158.792 82.2353C158.792 83.0252 158.311 83.701 157.349 84.2637C156.387 84.8262 155.374 85.1699 154.31 85.2974L153.822 85.3514C153.747 85.5788 153.692 85.7582 153.665 85.8946C153.634 86.0284 153.62 86.1985 153.62 86.401C153.62 86.8854 153.784 87.2617 154.112 87.5315C154.44 87.8012 154.828 87.9355 155.282 87.9355C155.709 87.9355 156.161 87.7981 156.643 87.5215C156.916 87.3614 157.311 87.0733 157.829 86.6582L158.058 86.8492C157.799 87.162 157.43 87.4842 156.95 87.8112C156.101 88.4052 155.248 88.6996 154.387 88.6996C153.777 88.6996 153.248 88.4902 152.795 88.0778C152.339 87.6658 152.105 87.0785 152.105 86.3098C152.105 85.0928 152.679 83.912 153.822 82.7685Z" fill="#231F20"/>
<path d="M165.536 81.6812C165.348 81.4928 165.116 81.3978 164.847 81.3978C163.901 81.3978 163.026 82.0868 162.216 83.4639C161.503 84.674 161.148 85.7162 161.148 86.5911C161.148 87.0329 161.244 87.3514 161.443 87.5514C161.64 87.7556 161.883 87.8537 162.175 87.8537C163.039 87.8537 163.871 87.1867 164.673 85.8485C165.439 84.6315 165.826 83.5342 165.826 82.556C165.826 82.1571 165.729 81.8675 165.536 81.6812ZM165.815 81.3669C165.948 81.4912 166.054 81.6481 166.129 81.8465L166.171 81.9593L166.364 81.3406C166.388 81.2688 166.411 81.223 166.43 81.1984C166.447 81.1721 166.485 81.1574 166.552 81.1528L167.545 81.0462C167.595 81.0462 167.63 81.0546 167.637 81.074C167.645 81.0924 167.645 81.1265 167.633 81.1774C167.609 81.2493 167.588 81.3033 167.575 81.3474C167.565 81.3867 167.548 81.4487 167.524 81.5243L166.671 84.4714C166.485 85.1159 166.327 85.6706 166.201 86.1361C165.986 86.9788 165.881 87.458 165.881 87.5792C165.881 87.6558 165.901 87.713 165.948 87.7477C165.986 87.7818 166.04 87.7996 166.104 87.7996C166.153 87.7996 166.212 87.7849 166.276 87.7508C166.34 87.7183 166.415 87.6705 166.508 87.6018L166.661 87.4889C166.709 87.4495 166.763 87.407 166.825 87.353C166.886 87.3026 166.956 87.2376 167.044 87.162L167.607 86.6372L167.807 86.8067C167.193 87.5367 166.705 88.0321 166.335 88.2924C165.962 88.5538 165.608 88.6849 165.272 88.6849C165.052 88.6849 164.888 88.6109 164.771 88.4718C164.652 88.3264 164.595 88.1496 164.595 87.9355C164.595 87.7377 164.631 87.4564 164.709 87.0849C164.788 86.717 164.864 86.4063 164.938 86.1544C164.835 86.3197 164.659 86.5585 164.417 86.8754C164.174 87.1898 163.877 87.4958 163.52 87.7917C163.103 88.1481 162.705 88.4015 162.318 88.5474C162.023 88.6487 161.733 88.6996 161.459 88.6996C160.996 88.6996 160.576 88.5144 160.2 88.1496C159.821 87.7849 159.631 87.2654 159.631 86.5957C159.631 85.4412 160.177 84.239 161.265 82.9848C162.387 81.6823 163.551 81.0331 164.759 81.0331C165.211 81.0331 165.57 81.1443 165.815 81.3669Z" fill="#231F20"/>
<path d="M170.185 87.4643C170.348 87.7147 170.621 87.8406 171.007 87.8406C171.829 87.8406 172.618 87.2077 173.381 85.9451C174.109 84.7591 174.47 83.6355 174.47 82.5744C174.47 82.2391 174.415 81.962 174.299 81.7432C174.182 81.5207 173.947 81.4131 173.597 81.4131C172.715 81.4131 171.866 82.0901 171.045 83.4408C170.311 84.6499 169.946 85.7 169.946 86.5879C169.946 86.9232 170.025 87.2161 170.185 87.4643ZM174.476 81.3444C174.586 81.4635 174.674 81.665 174.739 81.9573L175.739 78.6013C175.769 78.5063 175.786 78.4244 175.796 78.3494C175.803 78.2744 175.806 78.2088 175.806 78.1563C175.806 77.9421 175.765 77.8078 175.685 77.7506C175.602 77.6965 175.48 77.6687 175.325 77.6687C175.226 77.6687 175.135 77.6724 175.052 77.6772C174.971 77.6803 174.858 77.6918 174.718 77.7034V77.4316C175.37 77.348 176.271 77.2027 177.427 76.9965L177.501 77.0815L177.481 77.1687L175.79 83.0782L174.634 87.0004C174.61 87.0902 174.592 87.1699 174.579 87.2471C174.56 87.3221 174.555 87.3909 174.555 87.4533C174.555 87.6018 174.592 87.7 174.672 87.7477C174.748 87.7918 174.817 87.8112 174.876 87.8112C175.046 87.8112 175.281 87.6722 175.589 87.3877C175.773 87.2177 176.018 86.9474 176.332 86.5879L176.526 86.7695L176.41 86.9427C176.195 87.2418 175.922 87.5515 175.585 87.8652C174.995 88.4184 174.463 88.6997 173.992 88.6997C173.835 88.6997 173.699 88.665 173.568 88.5978C173.333 88.4688 173.214 88.2316 173.214 87.893C173.214 87.7787 173.231 87.5971 173.265 87.3452C173.303 87.0949 173.354 86.8189 173.426 86.514C172.989 87.1489 172.512 87.6706 171.99 88.0746C171.467 88.4803 170.898 88.685 170.284 88.685C169.786 88.685 169.349 88.5144 168.974 88.1727C168.603 87.8312 168.415 87.3106 168.415 86.601C168.415 85.4087 168.991 84.1771 170.147 82.9176C171.297 81.6597 172.416 81.0331 173.508 81.0331C173.964 81.0331 174.285 81.1349 174.476 81.3444Z" fill="#231F20"/>
<path d="M186.408 83.8774C187.095 83.2923 187.435 82.7113 187.435 82.1372C187.435 81.9278 187.385 81.7609 187.281 81.6402C187.179 81.5143 187.026 81.4534 186.824 81.4534C186.456 81.4534 186.092 81.6077 185.735 81.9116C185.378 82.2138 185.058 82.5575 184.771 82.9417C184.47 83.3935 184.229 83.8239 184.052 84.2343C183.956 84.4552 183.853 84.7034 183.741 84.9831C184.832 84.833 185.719 84.4598 186.408 83.8774ZM183.629 82.7685C184.758 81.6303 185.931 81.0593 187.138 81.0593C187.585 81.0593 187.937 81.1574 188.202 81.3558C188.465 81.55 188.597 81.8465 188.597 82.2353C188.597 83.0252 188.117 83.701 187.155 84.2637C186.187 84.8262 185.181 85.1699 184.109 85.2974L183.621 85.3514C183.546 85.5788 183.495 85.7582 183.468 85.8946C183.441 86.0284 183.423 86.1985 183.423 86.401C183.423 86.8854 183.587 87.2617 183.919 87.5315C184.245 87.8012 184.634 87.9355 185.084 87.9355C185.515 87.9355 185.961 87.7981 186.446 87.5215C186.715 87.3614 187.114 87.0733 187.637 86.6582L187.858 86.8492C187.601 87.162 187.238 87.4842 186.752 87.8112C185.903 88.4052 185.048 88.6996 184.192 88.6996C183.584 88.6996 183.056 88.4902 182.595 88.0778C182.138 87.6658 181.906 87.0785 181.906 86.3098C181.906 85.0928 182.478 83.912 183.629 82.7685Z" fill="#231F20"/>
<path d="M188.875 87.502C189.014 87.4107 189.154 87.3645 189.301 87.3645C189.366 87.3645 189.434 87.3729 189.503 87.3938C189.575 87.4154 189.646 87.4447 189.727 87.4889L190.031 87.6442C190.064 87.6657 190.109 87.682 190.144 87.6883C190.185 87.6966 190.222 87.6999 190.27 87.6999C190.413 87.6999 190.522 87.6657 190.601 87.5986C190.676 87.5298 190.873 87.2879 191.198 86.8806C191.409 86.6093 191.89 85.9518 192.644 84.9096C192.644 84.8702 192.575 84.5742 192.443 84.0232C192.313 83.4716 192.19 83.0041 192.081 82.6199C191.968 82.229 191.874 81.9724 191.787 81.848C191.702 81.7252 191.543 81.6611 191.307 81.6611C191.224 81.6611 191.068 81.6927 190.832 81.7462C190.682 81.7777 190.522 81.8165 190.349 81.8595L190.27 81.5893L191.228 81.277C191.474 81.1951 191.702 81.1264 191.913 81.0791C192.123 81.0299 192.299 81.0052 192.449 81.0052C192.691 81.0052 192.872 81.0739 192.993 81.213C193.176 81.4324 193.33 81.8706 193.459 82.5213L193.637 83.4669C194.156 82.7097 194.557 82.1765 194.845 81.8659C195.103 81.5845 195.346 81.3783 195.574 81.2376C195.807 81.1002 196.024 81.033 196.229 81.033C196.423 81.033 196.585 81.0592 196.704 81.1164C196.922 81.2129 197.031 81.3999 197.031 81.6774C197.031 81.8595 196.977 82.0065 196.863 82.1114C196.758 82.2174 196.618 82.2683 196.444 82.2683C196.383 82.2683 196.321 82.2615 196.266 82.2484C196.209 82.2337 196.148 82.2138 196.083 82.186L195.858 82.0946C195.796 82.0668 195.734 82.0442 195.677 82.0259C195.622 82.0065 195.577 81.9965 195.547 81.9965C195.287 81.9965 194.933 82.3155 194.472 82.9584C194.013 83.5976 193.784 83.9692 193.784 84.0704C193.784 84.1507 193.838 84.4189 193.943 84.8718C194.053 85.3252 194.165 85.8059 194.295 86.3097C194.408 86.7872 194.502 87.1179 194.585 87.3009C194.721 87.597 194.868 87.7439 195.039 87.7439C195.192 87.7439 195.349 87.6626 195.513 87.4972C195.674 87.3304 195.914 87.0328 196.236 86.6009L196.478 86.74C196.229 87.1666 195.976 87.5345 195.711 87.8405C195.208 88.4099 194.736 88.6996 194.279 88.6996C193.992 88.6996 193.763 88.5652 193.599 88.3018C193.504 88.1464 193.404 87.8929 193.313 87.5445L192.781 85.5115L191.017 87.7261C190.673 88.1086 190.409 88.3674 190.219 88.4981C190.034 88.6308 189.806 88.6996 189.534 88.6996C189.161 88.6996 188.916 88.5882 188.778 88.3689C188.707 88.2529 188.671 88.1155 188.671 87.9585C188.671 87.7424 188.735 87.5922 188.875 87.502Z" fill="#231F20"/>
<path d="M197.641 87.8259C197.648 87.7655 197.658 87.7099 197.675 87.6475L199.343 81.8874H198.037C198.037 81.74 198.051 81.6466 198.07 81.6077C198.099 81.5668 198.153 81.5306 198.245 81.4912C198.831 81.2524 199.285 81.0236 199.606 80.8028C199.93 80.5818 200.367 80.1583 200.923 79.5238L201.058 79.3664C201.075 79.3454 201.1 79.3276 201.125 79.3124C201.149 79.2998 201.178 79.2929 201.205 79.2929C201.264 79.3045 201.301 79.3145 201.322 79.3276C201.342 79.3654 201.353 79.3994 201.356 79.4288C201.36 79.4583 201.356 79.4913 201.348 79.5217L200.838 81.3165H202.256L202.157 81.8874H200.666L199.064 87.4333C199.033 87.533 199.043 87.6265 199.087 87.7183C199.136 87.8096 199.213 87.8537 199.318 87.8537C199.47 87.8537 199.68 87.7131 199.948 87.4255C200.103 87.2696 200.367 86.9657 200.735 86.5076L200.956 86.632L200.838 86.8041C200.343 87.512 199.913 88.0043 199.535 88.284C199.159 88.559 198.805 88.6997 198.467 88.6997C198.177 88.6997 197.961 88.6241 197.829 88.4756C197.703 88.3265 197.635 88.1612 197.635 87.9765C197.635 87.9324 197.637 87.8799 197.641 87.8259Z" fill="#231F20"/>
<path d="M206.308 81.0513C206.328 81.0808 206.339 81.118 206.339 81.1542C206.328 81.213 206.32 81.2571 206.315 81.2833L205.438 84.4892L205.629 84.1145C206.039 83.3378 206.522 82.6325 207.071 81.9918C207.625 81.3521 208.146 81.033 208.644 81.033C208.911 81.033 209.118 81.118 209.261 81.287C209.408 81.4586 209.484 81.6533 209.484 81.8737C209.484 82.1209 209.408 82.3265 209.268 82.4871C209.126 82.6509 208.925 82.7307 208.668 82.7307C208.495 82.7307 208.357 82.6986 208.269 82.6314C208.177 82.5622 208.11 82.4871 208.058 82.3975L207.955 82.2138C207.934 82.1812 207.905 82.1555 207.877 82.1371C207.846 82.1145 207.806 82.1062 207.758 82.1062C207.535 82.1062 207.211 82.4074 206.789 83.004C206.365 83.6044 205.987 84.252 205.652 84.9521C205.452 85.3756 205.23 85.9371 204.977 86.635C204.824 87.0754 204.618 87.6982 204.36 88.5048H203.037L204.475 83.5194C204.558 83.2366 204.622 82.9847 204.671 82.7585C204.718 82.538 204.742 82.3565 204.742 82.2138C204.742 82.0506 204.701 81.9261 204.616 81.8381C204.53 81.753 204.381 81.7105 204.168 81.7105C204.1 81.7105 204.016 81.7152 203.914 81.7252C203.811 81.7367 203.684 81.7498 203.541 81.7661V81.4927L203.889 81.4308C204.337 81.3426 204.824 81.2492 205.36 81.1526C205.892 81.0529 206.168 81.0052 206.198 81.0052C206.249 81.0052 206.287 81.0183 206.308 81.0513Z" fill="#231F20"/>
<path d="M214.887 81.6812C214.694 81.4928 214.465 81.3978 214.192 81.3978C213.25 81.3978 212.371 82.0868 211.563 83.4639C210.853 84.674 210.494 85.7162 210.494 86.5911C210.494 87.0329 210.596 87.3514 210.791 87.5514C210.993 87.7556 211.235 87.8537 211.525 87.8537C212.388 87.8537 213.22 87.1867 214.022 85.8485C214.784 84.6315 215.171 83.5342 215.171 82.556C215.171 82.1571 215.077 81.8675 214.887 81.6812ZM215.165 81.3669C215.297 81.4912 215.402 81.6481 215.474 81.8465L215.523 81.9593L215.713 81.3406C215.741 81.2688 215.758 81.223 215.775 81.1984C215.792 81.1721 215.835 81.1574 215.901 81.1528L216.893 81.0462C216.948 81.0462 216.976 81.0546 216.986 81.074C216.993 81.0924 216.993 81.1265 216.982 81.1774C216.959 81.2493 216.94 81.3033 216.928 81.3474C216.91 81.3867 216.897 81.4487 216.869 81.5243L216.02 84.4714C215.835 85.1159 215.675 85.6706 215.547 86.1361C215.335 86.9788 215.229 87.458 215.229 87.5792C215.229 87.6558 215.25 87.713 215.293 87.7477C215.335 87.7818 215.39 87.7996 215.455 87.7996C215.505 87.7996 215.56 87.7849 215.625 87.7508C215.686 87.7183 215.764 87.6705 215.856 87.6018L216.011 87.4889C216.058 87.4495 216.108 87.407 216.175 87.353C216.232 87.3026 216.308 87.2376 216.389 87.162L216.952 86.6372L217.157 86.8067C216.545 87.5367 216.052 88.0321 215.683 88.2924C215.31 88.5538 214.96 88.6849 214.623 88.6849C214.404 88.6849 214.233 88.6109 214.116 88.4718C214.005 88.3264 213.943 88.1496 213.943 87.9355C213.943 87.7377 213.981 87.4564 214.056 87.0849C214.133 86.717 214.213 86.4063 214.284 86.1544C214.182 86.3197 214.011 86.5585 213.77 86.8754C213.527 87.1898 213.223 87.4958 212.868 87.7917C212.452 88.1481 212.051 88.4015 211.668 88.5474C211.371 88.6487 211.085 88.6996 210.808 88.6996C210.341 88.6996 209.925 88.5144 209.546 88.1496C209.172 87.7849 208.979 87.2654 208.979 86.5957C208.979 85.4412 209.526 84.239 210.614 82.9848C211.736 81.6823 212.904 81.0331 214.107 81.0331C214.564 81.0331 214.915 81.1443 215.165 81.3669Z" fill="#231F20"/>
<path d="M219.807 87.8799C220.042 88.1812 220.39 88.3297 220.851 88.3297C221.785 88.3297 222.61 87.6527 223.335 86.2967C223.948 85.1353 224.255 84.0674 224.255 83.0913C224.255 82.6772 224.2 82.3434 224.098 82.0915C223.9 81.6124 223.532 81.3721 223 81.3721C222.122 81.3721 221.301 82.0034 220.529 83.2645C219.814 84.4405 219.448 85.6034 219.448 86.7432C219.448 87.1993 219.567 87.5792 219.807 87.8799ZM225.135 81.7709C225.531 82.2631 225.728 82.8457 225.728 83.5142C225.728 84.6808 225.193 85.8274 224.122 86.9474C223.016 88.1139 221.84 88.6996 220.584 88.6996C219.796 88.6996 219.162 88.4771 218.688 88.0368C218.214 87.5971 217.974 86.9788 217.974 86.1791C217.974 84.9752 218.511 83.8239 219.574 82.7229C220.663 81.5962 221.832 81.0331 223.097 81.0331C224.064 81.0331 224.739 81.2787 225.135 81.7709Z" fill="#231F20"/>
<path d="M230.017 81.0513C230.036 81.0808 230.048 81.118 230.048 81.1542C230.04 81.213 230.034 81.2571 230.027 81.2833L229.149 84.4892L229.337 84.1145C229.746 83.3378 230.231 82.6325 230.783 81.9918C231.334 81.3521 231.855 81.033 232.352 81.033C232.623 81.033 232.827 81.118 232.974 81.287C233.121 81.4586 233.192 81.6533 233.192 81.8737C233.192 82.1209 233.121 82.3265 232.977 82.4871C232.831 82.6509 232.632 82.7307 232.377 82.7307C232.204 82.7307 232.07 82.6986 231.981 82.6314C231.888 82.5622 231.821 82.4871 231.766 82.3975L231.667 82.2138C231.643 82.1812 231.616 82.1555 231.586 82.1371C231.551 82.1145 231.517 82.1062 231.469 82.1062C231.241 82.1062 230.921 82.4074 230.497 83.004C230.074 83.6044 229.696 84.252 229.361 84.9521C229.161 85.3756 228.938 85.9371 228.689 86.635C228.531 87.0754 228.324 87.6982 228.068 88.5048H226.745L228.189 83.5194C228.27 83.2366 228.332 82.9847 228.379 82.7585C228.429 82.538 228.454 82.3565 228.454 82.2138C228.454 82.0506 228.413 81.9261 228.324 81.8381C228.239 81.753 228.089 81.7105 227.878 81.7105C227.809 81.7105 227.723 81.7152 227.622 81.7252C227.516 81.7367 227.397 81.7498 227.253 81.7661V81.4927L227.597 81.4308C228.044 81.3426 228.536 81.2492 229.068 81.1526C229.603 81.0529 229.879 81.0052 229.908 81.0052C229.962 81.0052 229.998 81.0183 230.017 81.0513Z" fill="#231F20"/>
<path d="M234.536 87.4643C234.696 87.7147 234.969 87.8406 235.355 87.8406C236.18 87.8406 236.971 87.2077 237.729 85.9451C238.452 84.7591 238.82 83.6355 238.82 82.5744C238.82 82.2391 238.763 81.962 238.646 81.7432C238.528 81.5207 238.294 81.4131 237.943 81.4131C237.067 81.4131 236.217 82.0901 235.395 83.4408C234.659 84.6499 234.293 85.7 234.293 86.5879C234.293 86.9232 234.375 87.2161 234.536 87.4643ZM238.827 81.3444C238.936 81.4635 239.025 81.665 239.087 81.9573L240.089 78.6013C240.117 78.5063 240.137 78.4244 240.147 78.3494C240.154 78.2744 240.158 78.2088 240.158 78.1563C240.158 77.9421 240.113 77.8078 240.028 77.7506C239.946 77.6965 239.83 77.6687 239.673 77.6687C239.578 77.6687 239.483 77.6724 239.4 77.6772C239.319 77.6803 239.206 77.6918 239.067 77.7034V77.4316C239.718 77.348 240.622 77.2027 241.774 76.9965L241.853 77.0815L241.836 77.1687L240.139 83.0782L238.982 87.0004C238.961 87.0902 238.944 87.1699 238.927 87.2471C238.91 87.3221 238.906 87.3909 238.906 87.4533C238.906 87.6018 238.944 87.7 239.021 87.7477C239.1 87.7918 239.164 87.8112 239.222 87.8112C239.39 87.8112 239.633 87.6722 239.94 87.3877C240.117 87.2177 240.362 86.9474 240.684 86.5879L240.878 86.7695L240.755 86.9427C240.546 87.2418 240.268 87.5515 239.936 87.8652C239.345 88.4184 238.814 88.6997 238.34 88.6997C238.185 88.6997 238.042 88.665 237.919 88.5978C237.684 88.4688 237.565 88.2316 237.565 87.893C237.565 87.7787 237.579 87.5971 237.617 87.3452C237.65 87.0949 237.702 86.8189 237.773 86.514C237.336 87.1489 236.856 87.6706 236.34 88.0746C235.815 88.4803 235.252 88.685 234.636 88.685C234.137 88.685 233.697 88.5144 233.326 88.1727C232.953 87.8312 232.766 87.3106 232.766 86.601C232.766 85.4087 233.343 84.1771 234.495 82.9176C235.645 81.6597 236.767 81.0331 237.859 81.0331C238.311 81.0331 238.637 81.1349 238.827 81.3444Z" fill="#231F20"/>
<path d="M244.489 78.9744C244.319 78.7991 244.237 78.5866 244.237 78.3393C244.237 78.0859 244.319 77.8718 244.489 77.6965C244.656 77.5202 244.855 77.4316 245.093 77.4316C245.329 77.4316 245.534 77.5202 245.7 77.6965C245.871 77.8718 245.954 78.0859 245.954 78.3393C245.954 78.5913 245.871 78.8059 245.7 78.977C245.534 79.1507 245.329 79.2394 245.093 79.2394C244.855 79.2394 244.656 79.1507 244.489 78.9744ZM245.302 81.0352C245.333 81.053 245.342 81.0761 245.338 81.1055L243.606 86.9935C243.525 87.3058 243.487 87.4937 243.487 87.5529C243.487 87.638 243.504 87.7099 243.538 87.7686C243.565 87.8359 243.636 87.8684 243.753 87.8684C243.947 87.8684 244.203 87.7052 244.523 87.3808C244.711 87.1898 244.941 86.9117 245.216 86.5538L245.445 86.7354L245.359 86.8513C244.926 87.4302 244.575 87.8473 244.292 88.1008C243.855 88.4981 243.422 88.6996 243.006 88.6996C242.761 88.6996 242.552 88.5963 242.388 88.4C242.228 88.2037 242.146 87.9649 242.146 87.6952C242.146 87.5367 242.157 87.3977 242.181 87.278C242.205 87.1589 242.245 86.9835 242.307 86.7532L243.538 82.5088C243.555 82.4432 243.569 82.3823 243.579 82.3287C243.593 82.2731 243.596 82.2191 243.596 82.1619C243.596 81.9656 243.521 81.8428 243.367 81.7951C243.22 81.75 242.92 81.7253 242.474 81.7253V81.4534C242.945 81.3978 243.282 81.3589 243.491 81.328C243.698 81.2981 243.907 81.2655 244.114 81.2346C244.387 81.1906 244.647 81.1412 244.888 81.0871C245.134 81.0331 245.267 81.0152 245.302 81.0352Z" fill="#231F20"/>
<path d="M246.505 88.5049L247.976 83.4229C248.102 82.9947 248.174 82.7328 248.195 82.641C248.215 82.5528 248.228 82.4531 248.228 82.3465C248.228 82.186 248.177 82.0606 248.086 81.9703C247.989 81.8785 247.805 81.8334 247.53 81.8334C247.464 81.8334 247.392 81.8381 247.328 81.8465C247.266 81.8543 247.191 81.8638 247.114 81.8738V81.6041C247.481 81.5484 247.748 81.5059 247.905 81.4796C248.057 81.4518 248.228 81.4178 248.409 81.3815L249.938 81.0593C249.972 81.0808 249.993 81.107 250.006 81.1348L248.88 84.6756C249.583 83.6485 250.169 82.8829 250.64 82.3844C251.473 81.5012 252.208 81.0593 252.867 81.0593C253.124 81.0593 253.342 81.107 253.525 81.1999C253.877 81.3815 254.05 81.7053 254.05 82.1797C254.05 82.3125 254.038 82.45 254.01 82.5922C253.979 82.736 253.941 82.8897 253.894 83.053L252.764 86.9951C252.745 87.0785 252.721 87.1783 252.686 87.2974C252.659 87.4155 252.646 87.4973 252.646 87.5446C252.646 87.628 252.667 87.703 252.703 87.7686C252.745 87.8358 252.809 87.8684 252.902 87.8684C253.042 87.8684 253.209 87.7849 253.393 87.618C253.58 87.4511 253.881 87.0969 254.307 86.5501L254.557 86.7694C254.095 87.373 253.727 87.8033 253.461 88.0499C253 88.4803 252.56 88.6996 252.137 88.6996C251.949 88.6996 251.759 88.6356 251.585 88.5127C251.407 88.3868 251.322 88.1612 251.322 87.839C251.322 87.7424 251.326 87.6443 251.34 87.5398C251.352 87.4333 251.373 87.3452 251.397 87.2665L252.503 83.2676C252.56 83.0482 252.598 82.8688 252.619 82.7281C252.642 82.5891 252.65 82.4888 252.65 82.4285C252.65 82.2962 252.615 82.1834 252.548 82.0868C252.486 81.9919 252.365 81.9446 252.199 81.9446C251.759 81.9446 251.217 82.3125 250.556 83.0598C250.163 83.5032 249.771 84.0296 249.367 84.643C249.064 85.119 248.825 85.5855 248.652 86.0353C248.477 86.4882 248.202 87.3105 247.829 88.5049H246.505Z" fill="#231F20"/>
<path d="M261.17 81.6812C260.98 81.4928 260.747 81.3978 260.471 81.3978C259.533 81.3978 258.652 82.0868 257.844 83.4639C257.131 84.674 256.777 85.7162 256.777 86.5911C256.777 87.0329 256.877 87.3514 257.074 87.5514C257.272 87.7556 257.517 87.8537 257.806 87.8537C258.673 87.8537 259.499 87.1867 260.3 85.8485C261.068 84.6315 261.458 83.5342 261.458 82.556C261.458 82.1571 261.361 81.8675 261.17 81.6812ZM261.446 81.3669C261.576 81.4912 261.686 81.6481 261.76 81.8465L261.802 81.9593L262 81.3406C262.019 81.2688 262.04 81.223 262.056 81.1984C262.073 81.1721 262.115 81.1574 262.18 81.1528L263.179 81.0462C263.227 81.0462 263.262 81.0546 263.269 81.074C263.274 81.0924 263.274 81.1265 263.265 81.1774C263.237 81.2493 263.221 81.3033 263.207 81.3474C263.195 81.3867 263.179 81.4487 263.152 81.5243L262.303 84.4714C262.115 85.1159 261.958 85.6706 261.828 86.1361C261.622 86.9788 261.512 87.458 261.512 87.5792C261.512 87.6558 261.531 87.713 261.572 87.7477C261.621 87.7818 261.672 87.7996 261.733 87.7996C261.783 87.7996 261.842 87.7849 261.907 87.7508C261.968 87.7183 262.043 87.6705 262.139 87.6018L262.29 87.4889C262.34 87.4495 262.395 87.407 262.449 87.353C262.514 87.3026 262.586 87.2376 262.668 87.162L263.231 86.6372L263.438 86.8067C262.825 87.5367 262.334 88.0321 261.962 88.2924C261.593 88.5538 261.239 88.6849 260.904 88.6849C260.685 88.6849 260.514 88.6109 260.403 88.4718C260.283 88.3264 260.222 88.1496 260.222 87.9355C260.222 87.7377 260.262 87.4564 260.341 87.0849C260.416 86.717 260.495 86.4063 260.567 86.1544C260.464 86.3197 260.29 86.5585 260.048 86.8754C259.806 87.1898 259.505 87.4958 259.155 87.7917C258.735 88.1481 258.329 88.4015 257.95 88.5474C257.654 88.6487 257.364 88.6996 257.091 88.6996C256.627 88.6996 256.206 88.5144 255.828 88.1496C255.45 87.7849 255.263 87.2654 255.263 86.5957C255.263 85.4412 255.807 84.239 256.893 82.9848C258.016 81.6823 259.182 81.0331 260.386 81.0331C260.842 81.0331 261.198 81.1443 261.446 81.3669Z" fill="#231F20"/>
<path d="M267.501 81.0513C267.518 81.0808 267.531 81.118 267.531 81.1542C267.528 81.213 267.515 81.2571 267.507 81.2833L266.631 84.4892L266.825 84.1145C267.232 83.3378 267.716 82.6325 268.268 81.9918C268.817 81.3521 269.335 81.033 269.838 81.033C270.104 81.033 270.313 81.118 270.458 81.287C270.603 81.4586 270.676 81.6533 270.676 81.8737C270.676 82.1209 270.605 82.3265 270.462 82.4871C270.319 82.6509 270.115 82.7307 269.861 82.7307C269.687 82.7307 269.554 82.6986 269.464 82.6314C269.371 82.5622 269.302 82.4871 269.25 82.3975L269.148 82.2138C269.128 82.1812 269.098 82.1555 269.066 82.1371C269.04 82.1145 268.998 82.1062 268.955 82.1062C268.729 82.1062 268.409 82.4074 267.978 83.004C267.56 83.6044 267.179 84.252 266.846 84.9521C266.642 85.3756 266.423 85.9371 266.171 86.635C266.022 87.0754 265.809 87.6982 265.553 88.5048H264.229L265.673 83.5194C265.751 83.2366 265.816 82.9847 265.864 82.7585C265.912 82.538 265.935 82.3565 265.935 82.2138C265.935 82.0506 265.896 81.9261 265.809 81.8381C265.724 81.753 265.574 81.7105 265.363 81.7105C265.295 81.7105 265.206 81.7152 265.103 81.7252C265.005 81.7367 264.878 81.7498 264.736 81.7661V81.4927L265.082 81.4308C265.53 81.3426 266.022 81.2492 266.549 81.1526C267.085 81.0529 267.364 81.0052 267.392 81.0052C267.446 81.0052 267.481 81.0183 267.501 81.0513Z" fill="#231F20"/>
<path d="M270.353 90.7766C270.469 90.6507 270.636 90.5851 270.855 90.5851C270.995 90.5851 271.124 90.6129 271.23 90.6638C271.339 90.7174 271.456 90.7945 271.578 90.8926L271.693 90.9791C271.731 91.006 271.765 91.0249 271.813 91.0401C271.853 91.0563 271.901 91.0616 271.95 91.0616C272.233 91.0616 272.685 90.7048 273.307 89.9947C273.924 89.2831 274.235 88.7662 274.235 88.4424C274.235 88.1349 274.129 87.5314 273.914 86.6319C273.702 85.7293 273.491 84.9274 273.29 84.2274C273.011 83.2428 272.754 82.5706 272.523 82.2206C272.29 81.8706 271.945 81.6958 271.496 81.6958C271.458 81.6958 271.403 81.6989 271.315 81.7053C271.233 81.7153 271.092 81.73 270.893 81.753V81.4796L273.239 81.0482L273.419 81.033C273.562 81.0152 273.836 81.6355 274.244 82.8881C274.61 84.0137 274.841 84.8329 274.931 85.3383L275.278 87.3042C275.882 86.3375 276.323 85.5966 276.602 85.0833C277.155 84.0705 277.434 83.3573 277.434 82.9484C277.434 82.8566 277.413 82.7654 277.38 82.6735C277.346 82.5853 277.264 82.5056 277.142 82.4415L276.995 82.3665C276.903 82.325 276.797 82.239 276.673 82.1178C276.547 81.9966 276.491 81.8365 276.491 81.6355C276.491 81.4634 276.543 81.318 276.664 81.2036C276.776 81.0886 276.95 81.033 277.176 81.033C277.458 81.033 277.689 81.1117 277.867 81.2755C278.041 81.4339 278.131 81.7121 278.131 82.1026C278.131 82.6872 277.796 83.6292 277.127 84.9274C276.609 85.9188 276.037 86.8822 275.398 87.8111C274.604 88.9777 273.919 89.8767 273.344 90.5069C272.433 91.5009 271.68 91.9999 271.075 91.9999C270.84 91.9999 270.636 91.9296 270.456 91.7942C270.272 91.6551 270.182 91.4683 270.182 91.2295C270.182 91.0527 270.241 90.9026 270.353 90.7766Z" fill="#231F20"/>
<path d="M286.187 78.5031C286.208 78.4308 286.225 78.361 286.228 78.289C286.239 78.2188 286.239 78.1595 286.239 78.1153C286.239 77.9275 286.159 77.813 286.003 77.7706C285.847 77.7296 285.536 77.7097 285.068 77.7166V77.4467C285.325 77.4105 285.621 77.3728 285.959 77.3318C286.297 77.2878 286.511 77.2568 286.617 77.2406C286.941 77.185 287.33 77.1046 287.787 76.9965C287.827 76.9965 287.865 77.0243 287.91 77.0815L285.041 86.9936C284.98 87.2307 284.939 87.373 284.93 87.4218C284.915 87.4712 284.911 87.5215 284.911 87.5693C284.911 87.6737 284.932 87.7623 284.973 87.8406C285.011 87.9125 285.086 87.9486 285.195 87.9486C285.4 87.9486 285.671 87.7734 286.003 87.4218C286.338 87.0691 286.62 86.7317 286.848 86.3964L287.084 86.5539C286.587 87.2549 286.204 87.7409 285.931 88.009C285.457 88.4688 284.98 88.6997 284.499 88.6997C284.291 88.6997 284.11 88.6472 283.95 88.5475C283.703 88.4 283.577 88.1465 283.577 87.7886C283.577 87.6475 283.606 87.4628 283.646 87.2324C283.679 87.0949 283.721 86.9364 283.772 86.7548L286.187 78.5031Z" fill="#231F20"/>
<path d="M290.915 78.9744C290.751 78.7991 290.666 78.5866 290.666 78.3393C290.666 78.0859 290.751 77.8718 290.915 77.6965C291.082 77.5202 291.286 77.4316 291.519 77.4316C291.757 77.4316 291.957 77.5202 292.126 77.6965C292.294 77.8718 292.378 78.0859 292.378 78.3393C292.378 78.5913 292.294 78.8059 292.126 78.977C291.957 79.1507 291.757 79.2394 291.519 79.2394C291.286 79.2394 291.082 79.1507 290.915 78.9744ZM291.726 81.0352C291.757 81.053 291.772 81.0761 291.768 81.1055L290.036 86.9935C289.953 87.3058 289.912 87.4937 289.912 87.5529C289.912 87.638 289.933 87.7099 289.964 87.7686C289.991 87.8359 290.062 87.8684 290.181 87.8684C290.373 87.8684 290.628 87.7052 290.946 87.3808C291.137 87.1898 291.372 86.9117 291.642 86.5538L291.87 86.7354L291.785 86.8513C291.358 87.4302 291 87.8473 290.725 88.1008C290.278 88.4981 289.848 88.6996 289.432 88.6996C289.185 88.6996 288.985 88.5963 288.817 88.4C288.654 88.2037 288.571 87.9649 288.571 87.6952C288.571 87.5367 288.582 87.3977 288.605 87.278C288.63 87.1589 288.674 86.9835 288.735 86.7532L289.964 82.5088C289.981 82.4432 289.994 82.3823 290.004 82.3287C290.017 82.2731 290.024 82.2191 290.024 82.1619C290.024 81.9656 289.95 81.8428 289.796 81.7951C289.646 81.75 289.347 81.7253 288.902 81.7253V81.4534C289.37 81.3978 289.71 81.3589 289.915 81.328C290.124 81.2981 290.335 81.2655 290.54 81.2346C290.816 81.1906 291.072 81.1412 291.315 81.0871C291.557 81.0331 291.697 81.0152 291.726 81.0352Z" fill="#231F20"/>
<path d="M299.859 81.3884C300.032 81.6109 300.118 81.8596 300.118 82.141C300.118 82.8829 299.359 84.1849 297.83 86.0448C296.376 87.8112 295.504 88.6997 295.214 88.6997C295.128 88.6997 295.067 88.5847 295.043 88.3575C295.026 88.2316 295.016 88.0175 295.016 87.7131C295.016 87.3452 294.978 86.7186 294.903 85.8391C294.828 84.9591 294.757 84.3061 294.688 83.8843C294.546 82.9523 294.405 82.3519 294.268 82.0837C294.132 81.8119 293.87 81.6797 293.483 81.6797C293.421 81.6797 293.348 81.6812 293.266 81.6875C293.184 81.6944 293.085 81.699 292.976 81.7122V81.4929C293.15 81.4618 293.514 81.3868 294.067 81.2755C294.619 81.1612 294.909 81.0971 294.947 81.0871L295.231 81.0053C295.316 80.9827 295.373 81.0236 295.425 81.1349C295.466 81.2394 295.527 81.4372 295.596 81.7301C295.813 82.6873 295.981 83.6308 296.09 84.5613C296.157 85.139 296.227 85.9928 296.295 87.1274L296.578 86.8398C297.168 86.2395 297.752 85.5263 298.342 84.7019C298.925 83.8759 299.219 83.2923 299.219 82.9485C299.219 82.7786 299.089 82.5744 298.837 82.3356C298.577 82.0947 298.447 81.8775 298.447 81.6797C298.447 81.4965 298.513 81.3475 298.639 81.2346C298.771 81.1182 298.929 81.0593 299.119 81.0593C299.443 81.0593 299.69 81.169 299.859 81.3884Z" fill="#231F20"/>
<path d="M305.485 83.8774C306.17 83.2923 306.511 82.7113 306.511 82.1372C306.511 81.9278 306.457 81.7609 306.357 81.6402C306.255 81.5143 306.105 81.4534 305.901 81.4534C305.532 81.4534 305.167 81.6077 304.808 81.9116C304.453 82.2138 304.13 82.5575 303.847 82.9417C303.54 83.3935 303.301 83.8239 303.127 84.2343C303.028 84.4552 302.93 84.7034 302.816 84.9831C303.909 84.833 304.796 84.4598 305.485 83.8774ZM302.701 82.7685C303.833 81.6303 305.007 81.0593 306.214 81.0593C306.662 81.0593 307.013 81.1574 307.278 81.3558C307.541 81.55 307.675 81.8465 307.675 82.2353C307.675 83.0252 307.192 83.701 306.229 84.2637C305.262 84.8262 304.25 85.1699 303.188 85.2974L302.701 85.3514C302.625 85.5788 302.571 85.7582 302.544 85.8946C302.514 86.0284 302.499 86.1985 302.499 86.401C302.499 86.8854 302.663 87.2617 302.991 87.5315C303.322 87.8012 303.707 87.9355 304.161 87.9355C304.591 87.9355 305.041 87.7981 305.519 87.5215C305.794 87.3614 306.191 87.0733 306.709 86.6582L306.933 86.8492C306.679 87.162 306.306 87.4842 305.83 87.8112C304.977 88.4052 304.123 88.6996 303.267 88.6996C302.657 88.6996 302.128 88.4902 301.67 88.0778C301.213 87.6658 300.985 87.0785 300.985 86.3098C300.985 85.0928 301.556 83.912 302.701 82.7685Z" fill="#231F20"/>
<path d="M308.865 86.0337H309.148C309.274 86.7007 309.424 87.1929 309.595 87.502C309.908 88.073 310.379 88.3575 311.003 88.3575C311.352 88.3575 311.644 88.2383 311.884 88.0027C312.119 87.7686 312.239 87.4564 312.239 87.067C312.239 86.825 312.207 86.6288 312.146 86.4735C312.089 86.3229 312.013 86.1807 311.921 86.0579L311.211 85.0456C310.782 84.432 310.513 84.0201 310.403 83.8123C310.239 83.4995 310.154 83.1858 310.154 82.8698C310.154 82.3943 310.332 81.9724 310.693 81.6077C311.047 81.2409 311.559 81.0593 312.222 81.0593C312.5 81.0593 312.821 81.1118 313.18 81.2099C313.542 81.3128 313.787 81.3636 313.917 81.3636C314.063 81.3636 314.169 81.3375 314.233 81.2818C314.304 81.2262 314.366 81.1543 314.428 81.0593H314.673L314.321 83.3988H314.036C313.96 82.8688 313.853 82.4694 313.701 82.1991C313.429 81.7022 312.995 81.4534 312.399 81.4534C312.146 81.4534 311.92 81.5306 311.727 81.6796C311.525 81.8297 311.43 82.049 311.43 82.3419C311.43 82.5644 311.474 82.7654 311.563 82.9339C311.648 83.1022 311.849 83.4035 312.163 83.8386L312.774 84.6756C313.088 85.1075 313.313 85.4612 313.442 85.7356C313.572 86.0101 313.64 86.3066 313.64 86.6225C313.64 87.2124 313.382 87.713 312.852 88.1155C312.324 88.5212 311.697 88.7222 310.97 88.7222C310.739 88.7222 310.403 88.6765 309.969 88.5847C309.533 88.4902 309.281 88.444 309.213 88.444C309.101 88.444 309.015 88.4687 308.961 88.5143C308.902 88.5605 308.851 88.6308 308.81 88.7222H308.524L308.865 86.0337Z" fill="#231F20"/>
</svg>
