<svg width="257" height="84" viewBox="0 0 257 84" fill="none" xmlns="http://www.w3.org/2000/svg">
<path d="M106.652 1.08458H108.205V83.8601H106.652V1.08458Z" fill="#B6862C"/>
<path d="M1.47571 3.9975H34.8585V26.0923H24.2879V20.9632H15.4242V35.7037H25.5715V51.6024H15.4242V64.3199H18.4124V80.9253H1.47571V64.3199H4.65656V20.9632H1.47571V3.9975V3.9975ZM0 23.6759L3.16581 23.6679V61.5912L0 61.6102V83.5969H19.8642V61.6313H16.9317V54.3621L27.0907 54.3961V33.0271L16.9317 32.9891V23.6248H22.6624V28.7759H36.3899V1.34489H0V23.6759V23.6759ZM39.4744 3.9975H56.4105V20.9632H53.36V64.3199H56.4105V80.9253H39.544V64.3199H42.5951V20.9632H39.4744V3.9975V3.9975ZM38.0003 23.6248H41.1166V61.6213H38.0003V83.5789H57.8651V61.6213H54.8457V23.6248H57.8896V1.34489H38.0003V23.6248V23.6248ZM97.2626 20.9632H94.2143L94.2076 66.392L86.4782 80.9253H71.6716L63.95 66.392V20.9632H60.8967V3.9975H76.5086V20.9632H74.7177V62.6773L74.7199 62.6683L75.602 64.3199H82.5551H82.5595L83.4466 62.6633V20.9632H81.6557V3.9975H97.2626V20.9632V20.9632ZM79.8308 1.34489V23.6338L81.9631 23.6248L81.9586 61.6393H76.2296V23.6288H78.1335V1.34489H59.4349V23.6248H62.4498V67.7413L70.8563 83.6029H87.3436L95.6855 67.7413V23.6248H98.7628V1.34489H79.8308V1.34489Z" fill="#B6862C"/>
<path d="M81.4758 20.9642H83.4472V62.6653L82.5601 64.3209H82.5556H75.6031L74.7204 62.6703L74.7182 62.6783V20.9642H76.5091V3.99854H60.8972V20.9642H63.9505V66.393L71.6721 80.9263H86.4788L94.2081 66.393L94.2148 20.9642H97.2637V3.99854H81.4758V20.9642V20.9642Z" fill="#081E3F"/>
<path d="M56.4111 3.99744H39.4744V20.9631H42.5951V64.3199H39.544V80.9252H56.4111V64.3199H53.3605V20.9631H56.4111V3.99744V3.99744Z" fill="#081E3F"/>
<path d="M1.47571 20.9642H4.65656V64.3209H1.47571V80.9263H18.4124V64.3209H15.4242V51.6034H25.5715V35.7048H15.4242V20.9642H24.2879V26.0933H34.8585V3.99854H1.47571V20.9642V20.9642Z" fill="#081E3F"/>
<path d="M121.971 1.3549C123.112 1.3549 124.109 1.32287 124.484 1.25881C124.484 1.9635 124.484 4.36587 124.519 5.87135C124.448 6.1276 124.127 6.19167 123.949 5.99948C123.771 4.14165 123.486 3.21273 122.809 2.89242C122.328 2.6682 121.882 2.63617 121.312 2.63617H120.403C119.655 2.63617 119.655 2.70023 119.655 4.49399V10.2276C119.655 11.0284 119.672 11.0925 120.082 11.0925H121.134C122.684 11.0925 122.951 11.0284 123.129 9.68211L123.272 8.59303C123.379 8.36981 123.717 8.36981 123.806 8.62606C123.789 9.45889 123.753 10.6431 123.753 11.8282C123.753 13.0134 123.789 14.1665 123.806 15.1595C123.717 15.4158 123.379 15.4158 123.272 15.1915L123.129 13.9423C122.969 12.597 122.684 12.5329 121.134 12.5329H120.082C119.672 12.5329 119.655 12.597 119.655 13.3978V17.8822C119.655 21.2775 119.815 21.3096 120.653 21.5017L121.401 21.6619C121.526 21.8861 121.508 22.4617 121.365 22.5908C120.225 22.5268 119.423 22.4947 118.639 22.4947C117.855 22.4947 117.053 22.5268 116.234 22.5908C116.091 22.4617 116.073 21.8861 116.198 21.6619L116.59 21.5658C117.428 21.3736 117.588 21.2775 117.588 17.8822V5.96745C117.588 2.5721 117.428 2.47601 116.59 2.25179L116.358 2.18772C116.234 1.9635 116.251 1.38693 116.394 1.25881C117.017 1.32287 117.82 1.3549 118.604 1.3549H121.971V1.3549Z" fill="#081E3F"/>
<path d="M129.15 17.2105C129.15 18.8121 129.186 19.9652 129.453 20.5097C129.666 20.9582 129.952 21.2144 131.377 21.2144C133.355 21.2144 133.64 21.0543 134.459 17.755C134.638 17.5949 134.923 17.691 135.012 17.9472C134.87 19.2925 134.477 21.7269 134.264 22.5918C133.516 22.5277 131.983 22.4957 129.987 22.4957H128.134C127.225 22.4957 126.334 22.5277 125.586 22.5918C125.444 22.4627 125.39 21.823 125.551 21.6629L126.085 21.5027C126.922 21.2465 127.083 21.2144 127.083 17.8832V5.96842C127.083 2.63714 126.922 2.54105 126.085 2.31683L125.586 2.1887C125.461 2.02854 125.461 1.38791 125.622 1.25978C126.513 1.32385 127.314 1.35588 128.134 1.35588C128.918 1.35588 129.72 1.32385 130.504 1.25978C130.664 1.38791 130.682 2.02854 130.54 2.1887L130.148 2.31683C129.31 2.57308 129.15 2.63714 129.15 5.96842V17.2105V17.2105Z" fill="#081E3F"/>
<path d="M137.798 11.2847C137.798 15.705 138.849 21.7259 141.896 21.7259C143.927 21.7259 145.566 19.0033 145.566 12.5659C145.566 7.72915 144.354 2.12464 141.522 2.12464C139.74 2.12464 137.798 4.46294 137.798 11.2847V11.2847ZM147.99 11.9894C147.99 18.2986 145.317 23.0072 141.718 23.0072C137.691 23.0072 135.374 17.9152 135.374 12.2136C135.374 5.67914 138.012 0.843373 141.753 0.843373C145.869 0.843373 147.99 6.15961 147.99 11.9894" fill="#081E3F"/>
<path d="M152.054 10.7742C152.054 11.7992 152.054 11.8632 152.909 11.8632C154.655 11.8632 155.457 10.3257 155.457 7.28272C155.457 4.75223 154.548 2.54205 152.998 2.54205C152.072 2.54205 152.054 2.63915 152.054 4.1116V10.7742V10.7742ZM149.987 6.16162C149.987 3.08659 149.969 2.70321 149.132 2.54205L148.669 2.44596C148.543 2.22274 148.543 1.70923 148.686 1.55008C149.809 1.35689 151.323 1.26179 152.784 1.26179C154.174 1.26179 155.385 1.58111 156.17 2.35086C157.078 3.21471 157.738 4.7202 157.738 7.02647C157.738 9.97337 156.472 11.4468 155.6 12.0875C155.493 12.1835 155.528 12.4398 155.6 12.631C157.025 16.9553 157.916 19.6779 158.753 20.9272C159.252 21.6959 159.769 21.8881 159.983 21.9201C160.072 22.0483 160.072 22.4006 160.019 22.5608C159.805 22.6569 159.466 22.753 158.843 22.753C157.132 22.753 156.206 21.5037 155.119 18.5248C154.638 17.1795 154.139 15.4187 153.71 14.1695C153.39 13.2086 153.194 13.0804 152.606 13.0804C152.072 13.0804 152.054 13.1125 152.054 13.7841V17.8842C152.054 21.2795 152.214 21.3756 153.052 21.5678L153.444 21.6639C153.568 21.8881 153.551 22.4647 153.408 22.5928C152.624 22.5287 151.822 22.4967 151.039 22.4967C150.254 22.4967 149.452 22.5287 148.632 22.5928C148.49 22.4647 148.437 21.8881 148.597 21.6639L148.989 21.5678C149.826 21.3756 149.987 21.2795 149.987 17.8842V6.16162V6.16162Z" fill="#081E3F"/>
<path d="M163.742 17.8812C163.742 21.2765 163.903 21.3726 164.74 21.5648L165.132 21.6609C165.257 21.8851 165.239 22.4617 165.097 22.5898C164.313 22.5258 163.511 22.4937 162.727 22.4937C161.943 22.4937 161.106 22.5258 160.322 22.5898C160.179 22.4617 160.161 21.8851 160.286 21.6609L160.677 21.5648C161.515 21.3726 161.675 21.2765 161.675 17.8812V5.96644C161.675 2.5721 161.515 2.475 160.677 2.28281L160.286 2.18672C160.161 1.9625 160.179 1.38593 160.322 1.2578C161.106 1.32186 161.907 1.3539 162.727 1.3539C163.511 1.3539 164.313 1.32186 165.097 1.2578C165.239 1.38593 165.257 1.9625 165.132 2.18672L164.74 2.28281C163.903 2.475 163.742 2.5721 163.742 5.96644V17.8812V17.8812Z" fill="#081E3F"/>
<path d="M170.052 16.6299C170.052 19.737 170.177 21.4026 172.065 21.4026C175.237 21.4026 176.662 17.3666 176.662 11.9533C176.662 5.61205 174.613 2.53702 171.638 2.53702C170.889 2.53702 170.319 2.79327 170.194 2.98546C170.069 3.17765 170.052 3.85031 170.052 5.3558V16.6299V16.6299ZM167.985 6.15658C167.985 3.08156 167.967 2.63311 167.129 2.50499L166.755 2.44093C166.631 2.28077 166.631 1.7042 166.773 1.54404C168.056 1.35185 169.482 1.25576 171.227 1.25576C172.92 1.25576 174.132 1.51201 175.433 2.34483C177.571 3.75422 179.086 7.14956 179.086 11.9213C179.086 15.4768 178.106 19.1284 175.896 21.1463C174.631 22.2995 173.099 22.6829 171.477 22.6829C170.39 22.6829 169.552 22.4907 168.894 22.4907C168.216 22.4907 167.414 22.5237 166.631 22.5878C166.488 22.4586 166.47 21.8831 166.595 21.6579L166.987 21.5628C167.824 21.3696 167.985 21.2745 167.985 17.8791V6.15658V6.15658Z" fill="#081E3F"/>
<path d="M184.787 13.2066C185.286 13.2066 185.357 13.1425 185.214 12.3737L184.466 8.52995C184.146 6.83227 184.056 6.22367 183.967 5.99945H183.932C183.861 6.22367 183.7 7.02446 183.397 8.52995L182.649 12.2776C182.471 13.2066 182.506 13.2066 182.934 13.2066H184.787V13.2066ZM182.649 14.648C182.185 14.648 182.203 14.648 182.042 15.5128L181.312 19.3566C180.956 21.2455 181.027 21.3095 181.686 21.5027L182.203 21.6619C182.328 21.8861 182.31 22.4627 182.168 22.5918C181.597 22.5277 181.009 22.5277 180.279 22.4947C179.691 22.4947 179.138 22.5277 178.515 22.5918C178.39 22.4306 178.372 21.9502 178.497 21.6619L179.031 21.5027C179.548 21.3416 179.744 21.0863 180.011 20.0283C180.225 19.1955 180.51 17.8511 180.885 16.1214L183.326 4.71919C183.54 3.69418 183.717 2.92543 183.664 2.38089C184.288 2.15667 184.876 0.843373 184.912 0.843373C185.054 0.843373 185.144 0.939468 185.214 1.09963C185.499 2.54105 185.731 4.04653 186.016 5.48795L188.582 18.9082C188.992 21.0533 189.081 21.2455 189.99 21.5668L190.257 21.6619C190.4 21.8861 190.4 22.4306 190.275 22.5918C189.545 22.5277 188.885 22.4947 187.959 22.4947C187.192 22.4947 186.408 22.5588 185.785 22.5918C185.642 22.4306 185.624 21.8541 185.731 21.6619L186.123 21.5668C186.765 21.4056 186.854 21.2144 186.586 19.8681L185.749 15.5128C185.588 14.648 185.517 14.648 185.018 14.648H182.649V14.648Z" fill="#081E3F"/>
<path d="M119.654 48.3111C119.654 51.7065 119.815 51.8016 120.652 51.9958L121.044 52.0909C121.169 52.3151 121.151 52.8906 121.009 53.0198C120.224 52.9557 119.423 52.9237 118.639 52.9237C117.855 52.9237 117.017 52.9557 116.233 53.0198C116.091 52.8906 116.073 52.3151 116.197 52.0909L116.589 51.9958C117.427 51.8016 117.587 51.7065 117.587 48.3111V36.3964C117.587 33.0021 117.427 32.905 116.589 32.7138L116.197 32.6167C116.073 32.3925 116.091 31.8169 116.233 31.6888C117.017 31.7528 117.819 31.7839 118.639 31.7839C119.423 31.7839 120.224 31.7528 121.009 31.6888C121.151 31.8169 121.169 32.3925 121.044 32.6167L120.652 32.7138C119.815 32.905 119.654 33.0021 119.654 36.3964V48.3111V48.3111Z" fill="#081E3F"/>
<path d="M133.694 47.4803C133.694 48.4403 133.694 52.3802 133.748 53.1169C133.605 53.4692 133.356 53.5984 133.142 53.5653C132.856 52.8927 132.339 51.8036 131.057 49.178L126.887 40.6256C125.747 38.2563 125.159 37.0701 124.856 36.5906C124.802 36.5906 124.802 36.943 124.802 38.6396V44.8858C124.802 47.2881 124.82 50.234 125.123 51.195C125.283 51.6765 125.586 51.8997 126.032 51.9968L126.424 52.0929C126.584 52.3161 126.566 52.9257 126.389 53.0218C125.729 52.9567 125.034 52.9257 124.357 52.9257C123.609 52.9257 123.127 52.9567 122.504 53.0218C122.361 52.8606 122.326 52.3161 122.468 52.0929L122.86 51.9327C123.199 51.8036 123.519 51.7075 123.644 51.195C123.876 50.202 123.876 47.4163 123.876 44.8858V37.2953C123.876 34.7968 123.893 34.2843 123.288 33.3554C123.092 33.0671 122.592 32.8109 122.344 32.7148L122.076 32.6187C121.952 32.4265 121.969 31.7859 122.148 31.6898C122.825 31.8179 123.805 31.7859 124.25 31.7859C124.624 31.7859 125.052 31.7538 125.48 31.6898C125.783 33.0671 127.725 37.1031 128.348 38.3203L130.13 41.7787C130.878 43.2522 132.536 46.6475 132.714 46.8397C132.768 46.7436 132.768 46.5835 132.768 46.0709V39.8248C132.768 37.4234 132.75 34.4765 132.429 33.5156C132.268 33.0351 131.984 32.8109 131.538 32.7148L131.128 32.6187C130.967 32.3945 130.986 31.7859 131.164 31.6898C131.859 31.7538 132.518 31.7859 133.213 31.7859C133.979 31.7859 134.443 31.7538 135.084 31.6898C135.226 31.8499 135.262 32.3945 135.12 32.6187L134.709 32.7789C134.371 32.907 134.068 33.0031 133.943 33.5156C133.694 34.5086 133.694 37.2953 133.694 39.8248V47.4803V47.4803Z" fill="#081E3F"/>
<path d="M140.415 34.4775C140.415 33.1322 140.397 33.0681 139.934 33.0681H138.936C137.297 33.0681 136.815 33.4205 136.156 36.015C136.031 36.2072 135.657 36.1111 135.586 35.7908C135.889 34.0611 136.156 32.0751 136.281 30.954C136.317 30.8579 136.388 30.8259 136.477 30.8259C136.549 30.8259 136.62 30.8579 136.655 30.954C136.744 31.7548 136.994 31.7869 138.205 31.7869H145.475C146.349 31.7869 146.616 31.6908 146.83 30.954C146.9 30.891 146.972 30.8259 147.044 30.8259C147.15 30.8259 147.24 30.891 147.275 30.9861C147.097 32.2994 146.954 35.0541 147.008 36.0791C146.919 36.3353 146.616 36.3994 146.455 36.1752C146.224 33.6767 145.885 33.0681 143.979 33.0681H142.963C142.499 33.0681 142.482 33.1322 142.482 34.4775V48.3141C142.482 51.7085 142.642 51.8046 143.48 51.9647L144.121 52.0939C144.246 52.3181 144.229 52.8936 144.085 53.0228C143.052 52.9577 142.251 52.9267 141.466 52.9267C140.682 52.9267 139.845 52.9577 138.704 53.0228C138.562 52.8936 138.544 52.254 138.669 52.0939L139.417 51.9337C140.255 51.7415 140.415 51.7085 140.415 48.3141V34.4775V34.4775Z" fill="#081E3F"/>
<path d="M149.236 36.3994C149.236 33.004 149.076 32.8759 148.238 32.6837L147.953 32.6196C147.828 32.3954 147.846 31.8188 147.989 31.6907C148.666 31.7548 149.503 31.7868 150.287 31.7868H153.69C154.831 31.7868 155.864 31.7548 156.096 31.6907C156.167 32.2353 156.274 34.7658 156.381 36.1431C156.31 36.3994 155.954 36.4634 155.811 36.2712C155.526 34.4134 155.258 33.6446 154.688 33.3564C154.279 33.1642 153.744 33.0681 153.263 33.0681H152.069C151.303 33.0681 151.303 33.1321 151.303 34.9579V40.3713C151.303 41.2041 151.32 41.2361 151.73 41.2361H152.586C154.136 41.2361 154.403 41.2041 154.564 39.8267L154.688 38.7377C154.831 38.5134 155.169 38.5134 155.258 38.7697C155.241 39.6345 155.205 40.7877 155.205 41.9718C155.205 43.19 155.241 44.3102 155.258 45.3352C155.169 45.5594 154.831 45.5594 154.688 45.3672L154.564 44.0859C154.439 42.7406 154.136 42.6775 152.586 42.6775H151.73C151.32 42.6775 151.303 42.7406 151.303 43.5414V47.6094C151.303 49.244 151.338 50.3961 151.606 50.9407C151.82 51.3891 152.123 51.6133 153.619 51.6454C155.882 51.6774 156.274 50.7805 156.898 48.186C157.058 47.9617 157.361 48.0578 157.468 48.3782C157.361 49.7235 156.969 52.1579 156.72 53.0227C155.936 52.9577 154.403 52.9266 152.318 52.9266H150.287C149.503 52.9266 148.416 52.9577 147.614 53.0227C147.472 52.8936 147.454 52.318 147.579 52.0938L148.238 51.9647C149.076 51.8045 149.236 51.7084 149.236 48.3141V36.3994V36.3994Z" fill="#081E3F"/>
<path d="M161.281 41.2042C161.281 42.2292 161.281 42.2932 162.136 42.2932C163.883 42.2932 164.684 40.7557 164.684 37.7127C164.684 35.1822 163.775 32.972 162.226 32.972C161.299 32.972 161.281 33.0681 161.281 34.5416V41.2042V41.2042ZM159.214 36.5916C159.214 33.5166 159.197 33.1322 158.359 32.972L157.896 32.876C157.771 32.6527 157.771 32.1392 157.913 31.9801C159.036 31.7869 160.55 31.6918 162.012 31.6918C163.402 31.6918 164.613 32.0111 165.397 32.7799C166.306 33.6447 166.965 35.1502 166.965 37.4565C166.965 40.4034 165.7 41.8768 164.827 42.5164C164.72 42.6135 164.755 42.8698 164.827 43.061C166.253 47.3852 167.143 50.1079 167.981 51.3572C168.48 52.1259 168.997 52.3181 169.21 52.3501C169.299 52.4783 169.299 52.8306 169.246 52.9908C169.032 53.0879 168.694 53.183 168.07 53.183C166.359 53.183 165.433 51.9337 164.346 48.9548C163.865 47.6095 163.366 45.8487 162.938 44.5995C162.618 43.6386 162.422 43.5104 161.833 43.5104C161.299 43.5104 161.281 43.5415 161.281 44.2141V48.3142C161.281 51.7095 161.441 51.8046 162.279 51.9988L162.671 52.0939C162.796 52.3181 162.777 52.8937 162.635 53.0228C161.851 52.9587 161.049 52.9267 160.266 52.9267C159.482 52.9267 158.679 52.9587 157.86 53.0228C157.718 52.8937 157.664 52.3181 157.825 52.0939L158.216 51.9988C159.054 51.8046 159.214 51.7095 159.214 48.3142V36.5916V36.5916Z" fill="#081E3F"/>
<path d="M180.705 47.4803C180.705 48.4403 180.705 52.3802 180.758 53.1169C180.616 53.4692 180.366 53.5984 180.152 53.5653C179.867 52.8927 179.35 51.8036 178.068 49.178L173.898 40.6256C172.758 38.2563 172.17 37.0701 171.867 36.5906C171.813 36.5906 171.813 36.943 171.813 38.6396V44.8858C171.813 47.2881 171.831 50.234 172.134 51.195C172.294 51.6765 172.597 51.8997 173.043 51.9968L173.435 52.0929C173.595 52.3161 173.577 52.9257 173.399 53.0218C172.74 52.9567 172.045 52.9257 171.368 52.9257C170.62 52.9257 170.138 52.9567 169.514 53.0218C169.372 52.8606 169.336 52.3161 169.479 52.0929L169.871 51.9327C170.209 51.8036 170.531 51.7075 170.655 51.195C170.887 50.202 170.887 47.4163 170.887 44.8858V37.2953C170.887 34.7968 170.904 34.2843 170.298 33.3554C170.102 33.0671 169.604 32.8109 169.354 32.7148L169.087 32.6187C168.962 32.4265 168.98 31.7859 169.159 31.6898C169.835 31.8179 170.815 31.7859 171.261 31.7859C171.635 31.7859 172.063 31.7538 172.49 31.6898C172.793 33.0671 174.735 37.1031 175.359 38.3203L177.141 41.7787C177.889 43.2522 179.546 46.6475 179.725 46.8397C179.778 46.7436 179.778 46.5835 179.778 46.0709V39.8248C179.778 37.4234 179.76 34.4765 179.44 33.5156C179.279 33.0351 178.994 32.8109 178.549 32.7148L178.139 32.6187C177.978 32.3945 177.997 31.7859 178.174 31.6898C178.869 31.7538 179.529 31.7859 180.224 31.7859C180.99 31.7859 181.453 31.7538 182.095 31.6898C182.237 31.8499 182.272 32.3945 182.13 32.6187L181.72 32.7789C181.382 32.907 181.079 33.0031 180.954 33.5156C180.705 34.5086 180.705 37.2953 180.705 39.8248V47.4803V47.4803Z" fill="#081E3F"/>
<path d="M188.156 43.6366C188.655 43.6366 188.726 43.5725 188.584 42.8038L187.836 38.96C187.515 37.2623 187.425 36.6537 187.336 36.4295H187.301C187.23 36.6537 187.069 37.4545 186.766 38.96L186.018 42.7077C185.84 43.6366 185.875 43.6366 186.303 43.6366H188.156V43.6366ZM186.018 45.078C185.555 45.078 185.572 45.078 185.411 45.9428L184.681 49.7856C184.325 51.6765 184.396 51.7396 185.056 51.9327L185.572 52.0929C185.697 52.3161 185.679 52.8927 185.537 53.0208C184.967 52.9567 184.378 52.9567 183.648 52.9257C183.06 52.9257 182.507 52.9567 181.884 53.0208C181.76 52.8607 181.741 52.3802 181.866 52.0929L182.4 51.9327C182.917 51.7726 183.113 51.5163 183.381 50.4583C183.594 49.6255 183.88 48.2801 184.254 46.5514L186.695 35.1492C186.909 34.1242 187.087 33.3544 187.033 32.8109C187.657 32.5867 188.245 31.2734 188.281 31.2734C188.423 31.2734 188.513 31.3695 188.584 31.5296C188.869 32.9711 189.1 34.4765 189.385 35.918L191.951 49.3382C192.361 51.4833 192.45 51.6765 193.359 51.9968L193.626 52.0929C193.769 52.3161 193.769 52.8607 193.644 53.0208C192.914 52.9567 192.254 52.9257 191.328 52.9257C190.561 52.9257 189.777 52.9888 189.154 53.0208C189.011 52.8607 188.993 52.2841 189.1 52.0929L189.492 51.9968C190.134 51.8366 190.223 51.6435 189.956 50.2981L189.119 45.9428C188.958 45.078 188.886 45.078 188.387 45.078H186.018V45.078Z" fill="#081E3F"/>
<path d="M196.748 34.4775C196.748 33.1322 196.73 33.0681 196.267 33.0681H195.269C193.63 33.0681 193.149 33.4205 192.489 36.015C192.365 36.2072 191.99 36.1111 191.919 35.7908C192.222 34.0611 192.489 32.0751 192.614 30.954C192.65 30.8579 192.721 30.8259 192.811 30.8259C192.882 30.8259 192.953 30.8579 192.988 30.954C193.077 31.7548 193.327 31.7869 194.539 31.7869H201.809C202.682 31.7869 202.949 31.6908 203.163 30.954C203.234 30.891 203.305 30.8259 203.377 30.8259C203.484 30.8259 203.573 30.891 203.608 30.9861C203.43 32.2994 203.288 35.0541 203.341 36.0791C203.252 36.3353 202.949 36.3994 202.789 36.1752C202.558 33.6767 202.218 33.0681 200.312 33.0681H199.296C198.833 33.0681 198.815 33.1322 198.815 34.4775V48.3141C198.815 51.7085 198.976 51.8046 199.813 51.9647L200.454 52.0939C200.58 52.3181 200.562 52.8936 200.419 53.0228C199.385 52.9577 198.584 52.9267 197.8 52.9267C197.015 52.9267 196.177 52.9577 195.038 53.0228C194.895 52.8936 194.878 52.254 195.002 52.0939L195.75 51.9337C196.588 51.7415 196.748 51.7085 196.748 48.3141V34.4775V34.4775Z" fill="#081E3F"/>
<path d="M207.618 48.3111C207.618 51.7065 207.779 51.8016 208.616 51.9958L209.008 52.0909C209.133 52.3151 209.115 52.8906 208.973 53.0198C208.188 52.9557 207.387 52.9237 206.603 52.9237C205.819 52.9237 204.982 52.9557 204.197 53.0198C204.055 52.8906 204.037 52.3151 204.161 52.0909L204.553 51.9958C205.391 51.8016 205.551 51.7065 205.551 48.3111V36.3964C205.551 33.0021 205.391 32.905 204.553 32.7138L204.161 32.6167C204.037 32.3925 204.055 31.8169 204.197 31.6888C204.982 31.7528 205.783 31.7839 206.603 31.7839C207.387 31.7839 208.188 31.7528 208.973 31.6888C209.115 31.8169 209.133 32.3925 209.008 32.6167L208.616 32.7138C207.779 32.905 207.618 33.0021 207.618 36.3964V48.3111V48.3111Z" fill="#081E3F"/>
<path d="M212.536 41.7146C212.536 46.134 213.587 52.1559 216.634 52.1559C218.666 52.1559 220.304 49.4332 220.304 42.9959C220.304 38.1591 219.093 32.5546 216.259 32.5546C214.478 32.5546 212.536 34.8929 212.536 41.7146ZM222.728 42.4193C222.728 48.7285 220.055 53.4372 216.456 53.4372C212.429 53.4372 210.112 48.3441 210.112 42.6435C210.112 36.1091 212.749 31.2733 216.492 31.2733C220.607 31.2733 222.728 36.5896 222.728 42.4193" fill="#081E3F"/>
<path d="M234.331 47.4803C234.331 48.4403 234.331 52.3802 234.385 53.1169C234.242 53.4692 233.993 53.5984 233.779 53.5653C233.494 52.8927 232.977 51.8036 231.695 49.178L227.525 40.6256C226.384 38.2563 225.796 37.0701 225.493 36.5906C225.44 36.5906 225.44 36.943 225.44 38.6396V44.8858C225.44 47.2881 225.458 50.234 225.761 51.195C225.921 51.6765 226.224 51.8997 226.669 51.9968L227.062 52.0929C227.222 52.3161 227.204 52.9257 227.026 53.0218C226.367 52.9567 225.672 52.9257 224.994 52.9257C224.247 52.9257 223.765 52.9567 223.141 53.0218C222.999 52.8606 222.964 52.3161 223.106 52.0929L223.498 51.9327C223.836 51.8036 224.157 51.7075 224.282 51.195C224.513 50.202 224.513 47.4163 224.513 44.8858V37.2953C224.513 34.7968 224.531 34.2843 223.925 33.3554C223.73 33.0671 223.23 32.8109 222.981 32.7148L222.714 32.6187C222.589 32.4265 222.607 31.7859 222.785 31.6898C223.462 31.8179 224.442 31.7859 224.887 31.7859C225.262 31.7859 225.689 31.7538 226.117 31.6898C226.42 33.0671 228.362 37.1031 228.986 38.3203L230.768 41.7787C231.516 43.2522 233.173 46.6475 233.351 46.8397C233.405 46.7436 233.405 46.5835 233.405 46.0709V39.8248C233.405 37.4234 233.388 34.4765 233.066 33.5156C232.906 33.0351 232.621 32.8109 232.176 32.7148L231.766 32.6187C231.605 32.3945 231.623 31.7859 231.801 31.6898C232.496 31.7538 233.156 31.7859 233.851 31.7859C234.617 31.7859 235.08 31.7538 235.721 31.6898C235.864 31.8499 235.9 32.3945 235.757 32.6187L235.347 32.7789C235.009 32.907 234.706 33.0031 234.581 33.5156C234.331 34.5086 234.331 37.2953 234.331 39.8248V47.4803V47.4803Z" fill="#081E3F"/>
<path d="M241.621 43.6366C242.12 43.6366 242.191 43.5725 242.049 42.8038L241.3 38.96C240.98 37.2623 240.891 36.6537 240.801 36.4295H240.766C240.694 36.6537 240.534 37.4545 240.231 38.96L239.483 42.7077C239.305 43.6366 239.34 43.6366 239.768 43.6366H241.621V43.6366ZM239.483 45.078C239.019 45.078 239.037 45.078 238.877 45.9428L238.147 49.7856C237.79 51.6765 237.861 51.7396 238.521 51.9327L239.037 52.0929C239.162 52.3161 239.145 52.8927 239.002 53.0208C238.432 52.9567 237.844 52.9567 237.112 52.9257C236.525 52.9257 235.973 52.9567 235.349 53.0208C235.224 52.8607 235.207 52.3802 235.331 52.0929L235.866 51.9327C236.382 51.7726 236.578 51.5163 236.846 50.4583C237.06 49.6255 237.344 48.2801 237.718 46.5514L240.16 35.1492C240.374 34.1242 240.552 33.3544 240.498 32.8109C241.122 32.5867 241.71 31.2734 241.746 31.2734C241.889 31.2734 241.977 31.3695 242.049 31.5296C242.334 32.9711 242.565 34.4765 242.85 35.918L245.416 49.3382C245.826 51.4833 245.916 51.6765 246.824 51.9968L247.091 52.0929C247.234 52.3161 247.234 52.8607 247.109 53.0208C246.379 52.9567 245.719 52.9257 244.792 52.9257C244.026 52.9257 243.243 52.9888 242.619 53.0208C242.476 52.8607 242.458 52.2841 242.565 52.0929L242.957 51.9968C243.599 51.8366 243.688 51.6435 243.421 50.2981L242.583 45.9428C242.423 45.078 242.352 45.078 241.853 45.078H239.483V45.078Z" fill="#081E3F"/>
<path d="M251.138 47.6405C251.138 49.2431 251.173 50.3952 251.441 50.9397C251.655 51.3882 251.939 51.6444 253.365 51.6444C255.343 51.6444 255.628 51.4843 256.448 48.185C256.626 48.0249 256.911 48.121 257 48.3772C256.858 49.7225 256.465 52.1569 256.252 53.0218C255.503 52.9577 253.971 52.9257 251.975 52.9257H250.122C249.213 52.9257 248.322 52.9577 247.574 53.0218C247.432 52.8927 247.378 52.253 247.538 52.0929L248.073 51.9327C248.91 51.6765 249.071 51.6444 249.071 48.3132V36.3984C249.071 33.0671 248.91 32.971 248.073 32.7468L247.574 32.6187C247.449 32.4595 247.449 31.8179 247.609 31.6908C248.501 31.7538 249.302 31.7859 250.122 31.7859C250.906 31.7859 251.707 31.7538 252.492 31.6908C252.653 31.8179 252.67 32.4595 252.528 32.6187L252.136 32.7468C251.298 33.0041 251.138 33.0671 251.138 36.3984V47.6405V47.6405Z" fill="#081E3F"/>
<path d="M117.478 66.8294C117.478 63.4351 117.317 63.371 116.48 63.1148L116.177 63.0187C116.052 62.7944 116.07 62.2499 116.212 62.1218C116.926 62.1858 117.727 62.2179 118.511 62.2179C119.313 62.2179 120.115 62.1858 120.898 62.1218C121.041 62.2499 121.059 62.7944 120.935 63.0187L120.543 63.1148C119.705 63.307 119.545 63.4351 119.545 66.8294V74.1646C119.545 78.585 120.293 82.2997 122.77 82.2997C125.104 82.2997 126.066 79.1285 126.066 74.2607V70.2568C126.066 67.8544 126.049 64.8765 125.728 63.9476C125.567 63.4671 125.283 63.2419 124.837 63.1148L124.48 63.0187C124.32 62.7944 124.338 62.2179 124.516 62.1218C125.122 62.1858 125.799 62.2179 126.494 62.2179C127.242 62.2179 127.723 62.1858 128.383 62.1218C128.525 62.2819 128.56 62.7944 128.418 63.0187L128.026 63.1788C127.688 63.307 127.367 63.4351 127.242 63.9476C126.993 64.9075 126.993 67.7273 126.993 70.2568V74.0686C126.993 76.9834 126.743 79.6741 125.817 81.4668C124.89 83.2606 123.554 83.8702 122.325 83.8702C120.65 83.8702 119.473 83.2286 118.654 81.8202C117.852 80.4428 117.478 78.1996 117.478 74.9654V66.8294V66.8294Z" fill="#081E3F"/>
<path d="M140.643 77.9103C140.643 78.8702 140.643 82.8101 140.697 83.5468C140.554 83.8982 140.305 84.0273 140.091 83.9953C139.806 83.3216 139.289 82.2325 138.007 79.607L133.836 71.0555C132.696 68.6852 132.108 67.5 131.805 67.0196C131.752 67.0196 131.752 67.3729 131.752 69.0696V75.3157C131.752 77.7181 131.77 80.664 132.073 81.6249C132.233 82.1054 132.536 82.3296 132.981 82.4267L133.373 82.5218C133.533 82.7461 133.516 83.3547 133.338 83.4507C132.678 83.3867 131.984 83.3547 131.306 83.3547C130.558 83.3547 130.077 83.3867 129.453 83.4507C129.311 83.2906 129.275 82.7461 129.418 82.5218L129.809 82.3617C130.148 82.2325 130.469 82.1375 130.594 81.6249C130.825 80.632 130.825 77.8452 130.825 75.3157V67.7243C130.825 65.2258 130.843 64.7133 130.237 63.7854C130.041 63.4971 129.542 63.2398 129.293 63.1437L129.026 63.0477C128.901 62.8565 128.918 62.2148 129.097 62.1197C129.774 62.2469 130.754 62.2148 131.199 62.2148C131.574 62.2148 132.001 62.1838 132.429 62.1197C132.732 63.4971 134.674 67.5331 135.297 68.7493L137.079 72.2087C137.828 73.6811 139.485 77.0775 139.663 77.2687C139.717 77.1736 139.717 77.0124 139.717 76.5009V70.2548C139.717 67.8524 139.699 64.9055 139.379 63.9455C139.218 63.4641 138.933 63.2398 138.487 63.1437L138.078 63.0477C137.918 62.8234 137.935 62.2148 138.113 62.1197C138.808 62.1838 139.467 62.2148 140.162 62.2148C140.929 62.2148 141.392 62.1838 142.033 62.1197C142.176 62.2799 142.211 62.8234 142.069 63.0477L141.659 63.2078C141.321 63.3359 141.018 63.433 140.893 63.9455C140.643 64.9385 140.643 67.7243 140.643 70.2548V77.9103V77.9103Z" fill="#081E3F"/>
<path d="M146.814 78.7411C146.814 82.1365 146.974 82.2316 147.812 82.4258L148.203 82.5209C148.328 82.7451 148.31 83.3206 148.168 83.4498C147.383 83.3857 146.582 83.3537 145.798 83.3537C145.014 83.3537 144.176 83.3857 143.392 83.4498C143.25 83.3206 143.232 82.7451 143.357 82.5209L143.749 82.4258C144.586 82.2316 144.747 82.1365 144.747 78.7411V66.8264C144.747 63.4321 144.586 63.335 143.749 63.1428L143.357 63.0467C143.232 62.8225 143.25 62.2459 143.392 62.1188C144.176 62.1828 144.978 62.2139 145.798 62.2139C146.582 62.2139 147.383 62.1828 148.168 62.1188C148.31 62.2459 148.328 62.8225 148.203 63.0467L147.812 63.1428C146.974 63.335 146.814 63.4321 146.814 66.8264V78.7411V78.7411Z" fill="#081E3F"/>
<path d="M156.932 75.4178C156.202 78.3327 155.382 82.0794 155.079 83.713C155.043 83.8091 154.901 83.8732 154.776 83.8732C154.651 83.8732 154.527 83.8091 154.438 83.713C154.224 82.4328 153.938 80.8622 153.618 79.5179L150.5 66.0336C150.001 63.8865 149.84 63.439 149.127 63.1818L148.7 63.0226C148.575 62.7984 148.575 62.2208 148.754 62.1258C149.448 62.1898 150.214 62.2208 150.909 62.2208C151.711 62.2208 152.317 62.1898 153.261 62.1258C153.421 62.3169 153.44 62.8294 153.279 63.0537L152.834 63.2459C152.442 63.406 152.299 63.5662 152.299 63.8224C152.299 64.1117 152.442 64.8154 153.172 68.0826L154.456 73.7832C154.776 75.2257 155.257 77.1145 155.435 77.8522C156.397 73.8163 157.467 69.3959 158.411 65.0406C158.696 63.7594 158.643 63.5031 158.108 63.2789L157.591 63.0537C157.467 62.7984 157.484 62.2859 157.627 62.1258C158.358 62.1898 158.963 62.2208 159.534 62.2208C160.175 62.2208 160.763 62.1898 161.262 62.1258C161.404 62.2859 161.386 62.7984 161.298 63.0537L160.852 63.2148C160.442 63.375 160.05 63.5982 159.747 64.5281C159.249 66.0646 158.75 68.2117 157.93 71.4449L156.932 75.4178V75.4178Z" fill="#081E3F"/>
<path d="M162.996 66.8294C162.996 63.435 162.836 63.3069 161.998 63.1147L161.713 63.0507C161.589 62.8254 161.607 62.2499 161.749 62.1217C162.426 62.1858 163.264 62.2178 164.048 62.2178H167.451C168.592 62.2178 169.625 62.1858 169.856 62.1217C169.928 62.6663 170.035 65.1968 170.141 66.5731C170.07 66.8294 169.714 66.8944 169.572 66.7023C169.287 64.8444 169.019 64.0747 168.449 63.7874C168.039 63.5952 167.505 63.4991 167.023 63.4991H165.83C165.063 63.4991 165.063 63.5622 165.063 65.389V70.8023C165.063 71.6351 165.081 71.6661 165.491 71.6661H166.346C167.897 71.6661 168.163 71.6351 168.324 70.2568L168.449 69.1677C168.592 68.9435 168.93 68.9435 169.019 69.1997C169.001 70.0646 168.966 71.2187 168.966 72.4029C168.966 73.6201 169.001 74.7412 169.019 75.7662C168.93 75.9904 168.592 75.9904 168.449 75.7982L168.324 74.517C168.2 73.1716 167.897 73.1076 166.346 73.1076H165.491C165.081 73.1076 165.063 73.1716 165.063 73.9724V78.0394C165.063 79.674 165.099 80.8262 165.366 81.3707C165.58 81.8202 165.883 82.0434 167.38 82.0764C169.643 82.1084 170.035 81.2105 170.659 78.616C170.819 78.3928 171.122 78.4889 171.228 78.8092C171.122 80.1545 170.73 82.5879 170.48 83.4528C169.696 83.3887 168.163 83.3577 166.079 83.3577H164.048C163.264 83.3577 162.177 83.3887 161.375 83.4528C161.233 83.3246 161.215 82.7481 161.339 82.5248L161.998 82.3957C162.836 82.2356 162.996 82.1395 162.996 78.7441V66.8294V66.8294Z" fill="#081E3F"/>
<path d="M175.754 71.6341C175.754 72.6581 175.754 72.7231 176.61 72.7231C178.356 72.7231 179.157 71.1846 179.157 68.1426C179.157 65.6121 178.249 63.4009 176.699 63.4009C175.772 63.4009 175.754 63.498 175.754 64.9715V71.6341V71.6341ZM173.687 67.0215C173.687 63.9465 173.67 63.5621 172.832 63.4009L172.369 63.3059C172.244 63.0816 172.244 62.5681 172.386 62.409C173.509 62.2168 175.024 62.1207 176.485 62.1207C177.875 62.1207 179.086 62.441 179.871 63.2098C180.779 64.0736 181.438 65.5791 181.438 67.8864C181.438 70.8323 180.173 72.3067 179.3 72.9463C179.193 73.0424 179.228 73.2987 179.3 73.4909C180.726 77.8151 181.616 80.5378 182.454 81.7871C182.953 82.5548 183.47 82.748 183.683 82.78C183.773 82.9082 183.773 83.2595 183.719 83.4197C183.505 83.5168 183.167 83.6129 182.543 83.6129C180.832 83.6129 179.906 82.3636 178.819 79.3837C178.338 78.0384 177.839 76.2776 177.411 75.0284C177.091 74.0685 176.895 73.9393 176.307 73.9393C175.772 73.9393 175.754 73.9714 175.754 74.644V78.7441C175.754 82.1384 175.915 82.2345 176.752 82.4277L177.144 82.5238C177.269 82.748 177.25 83.3236 177.108 83.4527C176.324 83.3876 175.523 83.3566 174.739 83.3566C173.954 83.3566 173.152 83.3876 172.333 83.4527C172.19 83.3236 172.137 82.748 172.298 82.5238L172.689 82.4277C173.527 82.2345 173.687 82.1384 173.687 78.7441V67.0215V67.0215Z" fill="#081E3F"/>
<path d="M184.452 82.5249C184.132 81.8522 183.9 79.641 183.918 77.6561C184.025 77.3358 184.328 77.3037 184.47 77.528C184.791 79.1616 185.753 82.5889 187.5 82.5889C188.853 82.5889 189.62 81.1155 189.62 79.1616C189.62 77.3358 189.139 75.8623 187.803 74.517L187.036 73.7482C185.7 72.4039 184.524 70.449 184.524 67.5672C184.524 64.396 185.842 61.7054 188.444 61.7054C189.37 61.7054 190.047 62.0898 190.885 62.378C191.081 63.0827 191.26 65.1968 191.26 66.7023C191.171 66.9896 190.849 67.0226 190.689 66.7984C190.422 65.1328 189.798 62.9856 188.284 62.9856C186.858 62.9856 186.27 64.6523 186.27 66.35C186.27 67.6953 186.786 69.1367 187.963 70.2568L189.067 71.3148C190.226 72.4039 191.509 74.3889 191.509 77.6231C191.509 81.2757 189.959 83.8702 187.375 83.8702C185.736 83.8702 184.809 82.9093 184.452 82.5249" fill="#081E3F"/>
<path d="M196.425 78.7411C196.425 82.1365 196.586 82.2316 197.423 82.4258L197.815 82.5209C197.94 82.7451 197.922 83.3206 197.78 83.4498C196.995 83.3857 196.194 83.3537 195.41 83.3537C194.626 83.3537 193.788 83.3857 193.004 83.4498C192.862 83.3206 192.843 82.7451 192.969 82.5209L193.36 82.4258C194.198 82.2316 194.359 82.1365 194.359 78.7411V66.8264C194.359 63.4321 194.198 63.335 193.36 63.1428L192.969 63.0467C192.843 62.8225 192.862 62.2459 193.004 62.1188C193.788 62.1828 194.59 62.2139 195.41 62.2139C196.194 62.2139 196.995 62.1828 197.78 62.1188C197.922 62.2459 197.94 62.8225 197.815 63.0467L197.423 63.1428C196.586 63.335 196.425 63.4321 196.425 66.8264V78.7411V78.7411Z" fill="#081E3F"/>
<path d="M203.642 64.9075C203.642 63.5622 203.624 63.4991 203.161 63.4991H202.163C200.524 63.4991 200.043 63.8505 199.384 66.445C199.259 66.6382 198.885 66.5421 198.813 66.2208C199.117 64.4911 199.384 62.5061 199.508 61.384C199.544 61.2889 199.616 61.2569 199.705 61.2569C199.776 61.2569 199.847 61.2889 199.882 61.384C199.971 62.1858 200.221 62.2168 201.433 62.2168H208.703C209.576 62.2168 209.843 62.1217 210.057 61.384C210.129 61.321 210.199 61.2569 210.271 61.2569C210.378 61.2569 210.467 61.321 210.502 61.4171C210.324 62.7293 210.182 65.4841 210.235 66.5101C210.146 66.7653 209.843 66.8294 209.683 66.6052C209.452 64.1077 209.112 63.4991 207.206 63.4991H206.19C205.727 63.4991 205.709 63.5622 205.709 64.9075V78.7441C205.709 82.1395 205.87 82.2356 206.707 82.3957L207.348 82.5248C207.474 82.7481 207.456 83.3236 207.313 83.4528C206.279 83.3887 205.478 83.3577 204.694 83.3577C203.909 83.3577 203.072 83.3887 201.932 83.4528C201.789 83.3236 201.772 82.685 201.896 82.5248L202.644 82.3647C203.482 82.1715 203.642 82.1395 203.642 78.7441V64.9075Z" fill="#081E3F"/>
<path d="M215.208 76.8592C215.208 75.0655 215.119 74.586 214.638 72.8873L212.5 65.2968C212.108 63.9195 211.965 63.5671 211.163 63.2458L210.7 63.0546C210.593 62.8294 210.629 62.2218 210.771 62.1257C211.538 62.1908 212.286 62.2218 213.017 62.2218C213.801 62.2218 214.888 62.1908 215.297 62.1257C215.44 62.2538 215.475 62.8294 215.333 63.0546L214.799 63.2148C214.514 63.3109 214.424 63.375 214.424 63.6312C214.424 63.8875 214.478 64.2398 214.745 65.2968C215.44 68.0516 216.099 70.6461 216.812 72.9844C217.542 70.549 218.202 68.3078 218.897 65.9054C219.2 64.8164 219.378 64.1127 219.378 63.7593C219.378 63.44 219.217 63.3429 218.968 63.2799L218.433 63.0546C218.309 62.8294 218.309 62.2859 218.487 62.1257C219.271 62.1908 219.823 62.2218 220.358 62.2218C220.91 62.2218 221.481 62.1908 222.051 62.1257C222.211 62.2859 222.211 62.7984 222.086 63.0546L221.57 63.2458C220.767 63.5351 220.554 64.1127 219.627 66.9295C219.021 68.7553 218.487 70.517 217.935 72.3118C217.4 73.9764 217.275 74.6491 217.275 76.8282V78.7491C217.275 82.1434 217.435 82.2395 218.309 82.3997L218.986 82.5288C219.11 82.753 219.093 83.3286 218.95 83.4577C217.845 83.3927 217.043 83.3616 216.26 83.3616C215.44 83.3616 214.638 83.3927 213.676 83.4577C213.533 83.3286 213.516 82.753 213.64 82.5288L214.211 82.3997C215.048 82.2085 215.208 82.1434 215.208 78.7491V76.8592V76.8592Z" fill="#081E3F"/>
</svg>
