        <svg width="250" height="110" viewBox="0 0 300 92" fill="none" xmlns="http://www.w3.org/2000/svg">
        <g clip-path="url(#clip0)">
        <path d="M4.16511 2.93374V4.65254L6.54323 3.80881V3.77641L4.16511 2.93374ZM8.33907 4.38214L6.32708 5.12854C5.00781 5.61494 3.66615 6.09054 2.58489 6.50147C1.62292 6.86921 1.54636 7.02027 1.48281 7.64734H1.17969V4.80361H1.48281L1.52604 5.10667C1.59115 5.51814 1.69896 5.53948 2.11041 5.40934C2.43229 5.30148 3.10417 5.04161 3.66615 4.81454V2.81401C3.34063 2.67281 2.73751 2.47907 2.28333 2.328C1.70833 2.13267 1.56719 2.21974 1.51303 2.69574L1.48281 2.99828H1.17969V0.597876H1.48281C1.56719 1.26761 1.61145 1.38734 2.58489 1.76547L8.20729 3.95041L8.33907 4.38214Z" fill="#A20641"/>
        <path d="M2.82344 10.2379C1.8276 10.2379 1.62292 10.3468 1.62292 11.1796C1.62292 12.9733 2.88645 13.904 4.68385 13.904C6.99896 13.904 7.79636 12.7364 7.79636 11.0061C7.79636 10.6488 7.75469 10.3681 7.70104 10.3036C7.64531 10.2379 7.45156 10.2379 7.16875 10.2379H2.82344ZM8.20729 11.3515C8.20729 12.5629 7.95 13.666 7.25781 14.3796C6.75937 14.8775 5.95885 15.2884 5.00781 15.2884C2.34844 15.2884 1.17969 13.2337 1.17969 10.7031V8.05359H1.48281C1.54636 8.94159 1.63385 9.02692 2.80104 9.02692H6.58437C7.75469 9.02692 7.84219 8.94159 7.90573 8.13946H8.20729V11.3515" fill="#A20641"/>
        <path d="M4.76821 20.8958C4.09947 20.8958 3.55832 20.366 3.55832 19.7171C3.55832 19.0681 4.09947 18.5275 4.76821 18.5275C5.42863 18.5275 5.98124 19.0681 5.98124 19.7171C5.98124 20.366 5.42863 20.8958 4.76821 20.8958" fill="#A20641"/>
        <path d="M8.20729 25.578L3.05 27.9676L8.20729 30.227V32.2707H7.90573C7.81823 31.3958 7.77708 31.352 6.58437 31.3734L2.80104 31.4816C1.59115 31.514 1.56719 31.5468 1.48281 32.4228H1.17969V29.4051H1.48281C1.56719 30.2494 1.59115 30.2816 2.80104 30.2703L6.95312 30.227V30.1843L1.3099 27.7286V27.4056L6.73697 25.037V24.9936L3.93751 24.9176C2.96303 24.8968 2.36927 24.9072 2.04479 24.951C1.63385 24.9936 1.54636 25.2203 1.48281 25.9348H1.17969V23.3718H1.48281C1.52604 23.9124 1.63385 24.1286 2.04479 24.204C2.36927 24.2588 3.00573 24.3452 4.04584 24.3988L6.27188 24.5176C7.71197 24.5936 7.81823 24.5176 7.90573 23.5884H8.20729V25.578" fill="#A20641"/>
        <path d="M4.16147 35.3145L4.18387 37.0332L6.55105 36.1588V36.1264L4.16147 35.3145ZM8.35679 36.7077L6.35105 37.4807C5.04116 37.9853 3.70575 38.4796 2.63127 38.904C1.67345 39.2837 1.60053 39.4369 1.54324 40.0649L1.24012 40.0692L1.2021 37.226L1.50523 37.2207L1.55313 37.5239C1.62293 37.9332 1.73075 37.9536 2.14012 37.8181C2.46252 37.7061 3.12971 37.4373 3.69012 37.202L3.66304 35.202C3.33595 35.0665 2.72813 34.8791 2.27241 34.7332C1.69585 34.5473 1.55627 34.6364 1.50835 35.1119L1.47971 35.4145L1.17814 35.4197L1.14481 33.0187L1.44949 33.0149C1.5448 33.6837 1.58804 33.8031 2.5672 34.1687L8.2198 36.2764L8.35679 36.7077" fill="#A20641"/>
        <path d="M6.95937 40.0515C8.07396 39.7036 8.12969 39.5947 7.92448 38.7192L8.21355 38.6291L9.12188 41.5416L8.83281 41.6321C8.54375 40.9165 8.43593 40.8603 7.31979 41.2093L3.98541 42.2488C2.85677 42.5999 1.93073 42.7879 0.975 42.0884C0.625521 41.8353 0.279688 41.49 0 41.0327L0.25 40.8197C0.785937 41.4108 1.33541 41.5353 1.92136 41.4879C2.45 41.4359 3.05625 41.2692 3.75677 41.0509L6.95937 40.0515" fill="#A20641"/>
        <path d="M6.1625 44.401C4.51874 45.4646 3.71718 47.0114 4.54895 48.3015C5.1604 49.2458 6.4177 49.4635 8.12655 48.3594C10.0172 47.1395 10.5922 45.6983 9.80624 44.4816C9.18384 43.5187 7.77239 43.3646 6.1625 44.401V44.401ZM9.22499 49.3223C7.29114 50.5728 5.15416 50.0348 4.03958 48.3088C2.88332 46.5203 3.45832 44.4764 5.10936 43.4088C6.60051 42.4468 8.97239 42.3936 10.3526 44.5291C11.3656 46.0999 10.9969 48.1796 9.22499 49.3223Z" fill="#A20641"/>
        <path d="M11.3797 50.9479L11.6922 51.2103C12.0245 51.4884 12.2974 51.6312 12.6531 51.6463C13.2057 51.6577 13.6531 51.3556 13.9869 50.9588C14.7047 50.0941 14.3584 49.2988 13.8281 48.8556C13.4297 48.5228 13.3864 48.5431 13.1646 48.8072L11.3797 50.9479ZM14.2995 48.7129C14.9031 49.2176 15.2776 49.6447 15.4303 50.1379C15.5745 50.6239 15.5079 51.1588 15.0984 51.6473C14.5188 52.3441 13.6787 52.4733 12.799 52.1624C12.7354 52.5051 12.5771 53.3556 12.5307 53.9499C12.4641 54.6692 12.4307 55.1473 12.4516 55.4452C12.4849 55.8103 12.5114 56.0452 12.7036 56.3051L12.4911 56.4931L12.1578 56.1843C11.3083 55.3635 11.2193 54.8968 11.2828 54.1619C11.337 53.5588 11.5068 52.7999 11.6255 52.1671C11.6859 51.826 11.6578 51.6583 11.4068 51.4509L11.1417 51.2301L10.2141 52.3416C9.46822 53.2373 9.47917 53.3588 10.0667 53.9348L9.87291 54.1665L7.53229 52.2145L7.72759 51.9812C8.43437 52.4869 8.55521 52.4749 9.30259 51.5796L11.726 48.6764C12.4719 47.7816 12.4609 47.6603 11.8734 47.0848L12.0656 46.852L14.2995 48.7129" fill="#A20641"/>
        <path d="M21.0427 53.3379C20.9745 53.4999 20.6172 54.216 20.3427 54.8312L20.0505 54.6889C20.2125 54.1859 20.2489 53.8583 20.1885 53.6364C20.1203 53.3864 19.8505 53.1588 19.2677 52.8269L18.7964 52.5597C18.4407 52.3577 18.4213 52.3468 18.2281 52.6848L17.0973 54.678L17.9041 55.1384C18.7136 55.5968 18.7631 55.5515 19.2693 54.8816L19.5708 55.052L18.4375 57.0463L18.1355 56.8744C18.4645 56.0775 18.4677 56.0285 17.6579 55.5697L16.8495 55.1097L15.9713 56.6525C15.6636 57.1973 15.5511 57.4821 15.6511 57.7004C15.7557 57.9093 16.0891 58.1108 16.4828 58.3359C16.9541 58.6031 17.4084 58.8113 17.7407 58.6879C17.9989 58.6009 18.3407 58.3717 18.7593 58.0119L19.0088 58.2275C18.7901 58.5269 18.0369 59.3671 17.8136 59.5884L13.2245 56.9812L13.374 56.7171C14.212 57.1192 14.3328 57.0884 14.9093 56.0723L16.7797 52.7816C17.3579 51.7665 17.3245 51.6488 16.6417 51.1859L16.7907 50.9223L21.0427 53.3379" fill="#A20641"/>
        <path d="M23.5995 54.5103L23.8995 60.1864L27.9145 56.2374L29.8125 56.9988L29.6995 57.2791C28.8547 57.0322 28.7979 57.0583 28.3771 58.1698L27.0688 61.7234C26.6495 62.8583 26.6697 62.89 27.4511 63.2952L27.3401 63.5786L24.5407 62.4567L24.6536 62.175C25.4661 62.4078 25.5063 62.4004 25.9443 61.2723L27.4495 57.4031L27.4068 57.3864L23.0339 61.7119L22.7323 61.5922L22.5527 55.6739L22.5115 55.6567L21.3984 58.2275C21.0177 59.1239 20.8063 59.6791 20.7255 59.9963C20.614 60.3942 20.7921 60.5594 21.4303 60.8848L21.3177 61.1666L18.9391 60.2135L19.0521 59.9322C19.5708 60.0931 19.8109 60.0723 20.0328 59.7192C20.2047 59.4384 20.5219 58.8796 20.9573 57.9354L21.8969 55.913C22.5021 54.6056 22.4735 54.477 21.6401 54.052L21.7527 53.7692L23.5995 54.5103" fill="#A20641"/>
        <path d="M34.8708 62.1155C34.6615 62.7536 33.988 63.1031 33.3719 62.8988C32.7579 62.6973 32.4115 62.014 32.6208 61.3769C32.826 60.7499 33.512 60.3947 34.1281 60.5983C34.7453 60.8015 35.0771 61.4895 34.8708 62.1155Z" fill="#A20641"/>
        <path d="M40.9917 61.9332C41.3807 62.8488 41.5588 62.9968 42.3271 62.6717C43.9797 61.9692 44.3421 60.4427 43.6417 58.7895C42.7369 56.6597 41.3489 56.3785 39.7547 57.0551C39.4276 57.1936 39.1849 57.3431 39.1469 57.4197C39.1084 57.4941 39.1849 57.6728 39.2943 57.9321L40.9917 61.9332ZM40.0297 56.528C41.1584 56.0864 42.2792 55.9255 43.1959 56.3103C43.8401 56.5931 44.5151 57.1889 44.8609 58.0744C45.8297 60.5531 44.3421 62.3884 41.986 63.3108L39.5183 64.2739L39.4073 63.9936C40.2104 63.6093 40.2584 63.4973 39.8344 62.4097L38.4547 58.8848C38.0307 57.7973 37.9177 57.7483 37.1495 57.9791L37.038 57.6973L40.0297 56.528" fill="#A20641"/>
        <path d="M47.9093 52.9285C48.0084 53.0723 48.4115 53.7635 48.7751 54.3307L48.4973 54.4973C48.162 54.0859 47.9093 53.8749 47.6921 53.804C47.4448 53.7244 47.1063 53.8249 46.5109 54.1307L46.0297 54.3764C45.6631 54.564 45.6421 54.5744 45.8219 54.9203L46.8651 56.9603L47.6937 56.5364C48.5208 56.1135 48.5115 56.0452 48.2271 55.2545L48.5369 55.0983L49.5803 57.1373L49.2735 57.2947C48.7844 56.5832 48.7464 56.5561 47.9208 56.9807L47.0937 57.4036L47.9005 58.9812C48.186 59.5405 48.3636 59.7889 48.6005 59.8264C48.8339 59.8545 49.1849 59.6843 49.588 59.4769C50.0693 59.2321 50.4932 58.9649 50.5724 58.6223C50.6421 58.3556 50.6391 57.9441 50.5645 57.3979L50.8823 57.3077C51.012 57.6551 51.3041 58.7452 51.3631 59.0536L46.6683 61.4597L46.5303 61.1911C47.3271 60.7088 47.3667 60.5927 46.8317 59.5525L45.1088 56.1843C44.5755 55.1457 44.4593 55.1077 43.6973 55.4244L43.5625 55.1551L47.9093 52.9285" fill="#A20641"/>
        <path d="M51.3063 50.8655L51.4645 51.1228C50.7995 51.6108 50.7708 51.7307 51.3869 52.7244L53.3797 55.9427C53.9959 56.9359 54.1145 56.9655 54.8484 56.5874L55.0073 56.8447L52.4125 58.4499L52.2557 58.1942C52.9364 57.6942 52.9651 57.576 52.3489 56.5816L50.3568 53.3619C49.7421 52.3687 49.6229 52.3395 48.8719 52.7302L48.7115 52.4718L51.3063 50.8655" fill="#A20641"/>
        <path d="M57.0172 50.6895C57.4349 51.2146 57.3573 51.9671 56.8489 52.3712C56.3427 52.7744 55.5817 52.6884 55.164 52.163C54.7531 51.6474 54.8339 50.8796 55.3407 50.477C55.8484 50.0718 56.6073 50.1739 57.0172 50.6895Z" fill="#A20641"/>
        <path d="M64.3584 43.8613C64.7297 43.9821 65.0599 44.0884 65.2953 44.0988C65.2745 44.7952 65.2521 45.6968 64.9979 46.4796C64.2536 48.7723 62.3864 49.8597 60.3317 49.1921C57.988 48.4301 57.3703 46.1619 58.026 44.1463C58.3136 43.2613 58.7328 42.6025 58.936 42.2588C59.2932 42.352 59.8473 42.4635 60.6541 42.6348L60.5891 42.978C59.2063 42.8244 58.6584 43.602 58.3849 44.4441C57.9229 45.8629 58.688 47.1807 60.5604 47.7879C62.1432 48.304 63.9995 48.1561 64.6079 46.2837C64.7156 45.9545 64.7364 45.7463 64.7188 45.5588C64.6995 45.3373 64.5505 45.1983 64.1391 45.0649L63.2771 44.7832C62.5765 44.5567 62.5021 44.5775 62.0656 45.6405L61.7573 45.5395L62.6864 42.6816L62.9943 42.7816C62.9021 43.3431 62.9292 43.3979 63.65 43.6312L64.3584 43.8613" fill="#A20641"/>
        <path d="M59.414 38.1509L59.714 38.1936C59.6552 39.0583 59.7287 39.1561 60.886 39.3203L64.6125 39.8499C65.2328 39.9384 65.5412 39.9165 65.6969 39.7531C65.8489 39.5895 65.9208 39.2395 65.9697 38.8952C66.0412 38.4036 66.186 37.0983 65.9495 36.8353C65.7713 36.6244 65.4317 36.402 64.9427 36.1577L65.0552 35.8249C65.3885 35.9373 66.4479 36.3275 66.7557 36.4583L65.9303 42.2655L65.6287 42.2228C65.6921 41.3145 65.6188 41.216 64.4631 41.0525L60.7156 40.5203C59.5599 40.3561 59.4615 40.4296 59.2745 41.2775L58.9755 41.2343L59.414 38.1509" fill="#A20641"/>
        <path d="M62.912 34.1884C64.8631 34.3223 66.4333 33.5629 66.5369 32.0312C66.6131 30.9083 65.7333 29.9812 63.7057 29.8431C61.4604 29.6895 60.138 30.4988 60.0396 31.9441C59.9615 33.0873 61 34.0593 62.912 34.1884V34.1884ZM63.4027 28.4124C65.7 28.5703 67.0907 30.2796 66.9495 32.3296C66.8052 34.4536 65.1235 35.7493 63.1593 35.6155C61.3891 35.4952 59.4584 34.1155 59.6312 31.5807C59.7584 29.7145 61.2984 28.2692 63.4027 28.4124Z" fill="#A20641"/>
        <path d="M63.3755 25.9931V25.5821C63.3755 25.1493 63.312 24.8468 63.0943 24.566C62.7484 24.1332 62.2292 23.9816 61.7099 23.9816C60.586 23.9816 60.1969 24.7603 60.1969 25.4525C60.1969 25.9717 60.2396 25.9931 60.586 25.9931H63.3755ZM59.7855 25.1812C59.7855 24.3921 59.8729 23.8301 60.1536 23.3973C60.4349 22.9755 60.8891 22.6843 61.5255 22.6843C62.4355 22.6843 63.074 23.2463 63.3973 24.1228C63.7011 23.9488 64.4584 23.5275 64.9443 23.1812C65.538 22.7707 65.9287 22.4889 66.1427 22.2843C66.4036 22.0249 66.5667 21.8515 66.6417 21.5373L66.924 21.5807L66.9021 22.0348C66.8145 23.214 66.5115 23.5816 65.9063 24.0031C65.4079 24.3493 64.7188 24.7061 64.1547 25.0203C63.8516 25.1931 63.7437 25.3233 63.7437 25.6463V25.9931H65.1932C66.3604 25.9931 66.4479 25.9067 66.5115 25.0843H66.8145V28.1343H66.5115C66.4479 27.2692 66.3604 27.1832 65.1932 27.1832H61.4084C60.2396 27.1832 60.1536 27.2692 60.0891 28.0905H59.7855V25.1812" fill="#A20641"/>
        <path d="M59.7855 17.7504H60.0891C60.1536 18.5712 60.2396 18.6593 61.4084 18.6593H65.1932C66.3604 18.6593 66.4479 18.5712 66.5115 17.7504H66.8145V20.7999H66.5115C66.4479 19.9567 66.3604 19.8703 65.1932 19.8703H61.4084C60.2396 19.8703 60.1536 19.9567 60.0891 20.7999H59.7855V17.7504Z" fill="#A20641"/>
        <path d="M63.8312 14.8603V13.1416L61.4511 13.9854V14.0166L63.8312 14.8603ZM59.6552 13.4108L61.6672 12.6655C62.9864 12.1786 64.3281 11.7031 65.4079 11.2922C66.3713 10.9239 66.4479 10.7728 66.5115 10.1458H66.8145V12.99H66.5115L66.4667 12.687C66.4036 12.2764 66.2937 12.2551 65.8844 12.3843C65.562 12.4927 64.8901 12.752 64.3281 12.9791V14.9796C64.6521 15.1203 65.2573 15.3146 65.7131 15.4666C66.2844 15.6598 66.4255 15.5744 66.4812 15.0988L66.5115 14.7963H66.8145V17.1963H66.5115C66.4255 16.5255 66.3828 16.4072 65.4079 16.0286L59.7855 13.8442L59.6552 13.4108" fill="#A20641"/>
        <path d="M59.7855 7.29108L64.9443 4.90202L59.7855 2.64108V0.597883H60.0891C60.1745 1.47388 60.2188 1.51708 61.4084 1.49521L65.1932 1.38734C66.4036 1.35401 66.4255 1.32175 66.5115 0.446817H66.8145V3.46401H66.5115C66.4255 2.61975 66.4036 2.58694 65.1932 2.59881L61.0396 2.64108V2.68481L66.6844 5.14001V5.46401L61.2557 7.83214V7.87495L64.0584 7.95148C65.0297 7.97175 65.6255 7.96188 65.9495 7.91815C66.3604 7.87495 66.4479 7.64828 66.5115 6.93535H66.8145V9.49734H66.5115C66.4667 8.95668 66.3604 8.74055 65.9495 8.66495C65.6255 8.61135 64.9869 8.52388 63.9484 8.46975L61.7208 8.35148C60.2823 8.27601 60.1745 8.35148 60.0891 9.28122H59.7855V7.29108" fill="#A20641"/>
        <path d="M19.1041 14.0468C19.4964 14.0468 19.8109 13.7217 19.8109 13.3217C19.8109 12.9212 19.4964 12.5963 19.1041 12.5963C18.712 12.5963 18.3948 12.9212 18.3948 13.3217C18.3948 13.7217 18.712 14.0468 19.1041 14.0468Z" fill="#A20641"/>
        <path d="M19.1041 15.4198C18.6771 15.4198 18.3344 15.7785 18.3344 16.2217C18.3344 16.6572 18.6771 17.0056 19.1041 17.0056C19.5297 17.0056 19.8713 16.6572 19.8713 16.2217C19.8713 15.7785 19.5297 15.4198 19.1041 15.4198Z" fill="#A20641"/>
        <path d="M30.3536 12.9447C29.5167 12.9447 29.3188 14.2712 29.3188 14.8764C29.3188 15.4821 29.5167 16.8244 30.3536 16.8244C31.1921 16.8244 31.3921 15.4821 31.3921 14.8764C31.3921 14.2712 31.1921 12.9447 30.3536 12.9447" fill="#A20641"/>
        <path d="M25.6396 22.4301H26.8937L26.6355 21.9973L25.6396 22.4301Z" fill="#A20641"/>
        <path d="M40.7407 21.8821C41.1484 21.5187 41.1027 21.4723 41.6964 21.3812C42.2885 21.29 43.2016 22.1108 43.1079 21.8369C43.0188 21.564 42.9265 20.7427 42.8364 19.9223C42.7552 19.1853 45.1604 22.6124 45.1604 22.6124C48.2599 28.4927 47.3964 32.4593 47.3964 32.4593C49.4464 33.416 49.4464 35.6348 49.4464 35.0577C49.4464 31.7509 48.3568 31.9843 48.4016 29.8963C48.4443 27.8103 50.6781 27.9905 50.6781 27.9905C51.5547 28.0031 51.8183 28.5389 51.8183 28.5389C51.8183 28.5389 51.3771 28.4457 51.1989 28.6832C51.1989 28.6832 50.5355 29.1649 51.726 32.0036C51.9661 32.5749 53.0251 34.5703 51.7469 36.0124C50.8417 37.0321 49.4 36.6536 49.4 36.6536C49.3093 37.2004 49.2636 37.4723 49.2636 37.4723H50.3115C51.2708 37.5197 51.3151 38.5681 51.3151 38.5681V42.9911L50.5849 43.7192H48.1697C48.1251 42.6249 49.538 42.1692 49.538 42.1692V40.254H47.3027C46.1183 40.164 45.4812 37.8837 45.4812 37.8837L44.6145 37.976C44.5688 38.1124 45.8453 40.4369 45.8453 40.4369L43.2459 42.8988V43.628H40.4213C40.2849 42.9431 41.65 42.3509 41.65 42.3509L43.4287 40.4369C43.6557 40.19 43.4969 39.9389 43.1891 39.8373C42.8505 39.7264 42.5792 39.6488 42.1995 39.5036C41.8136 39.3567 40.1912 38.3405 40.8771 36.3791C41.5484 34.4525 43.7937 35.24 43.7937 35.0113C43.7937 34.7853 42.6093 32.0493 42.6093 32.0493L43.5667 30.6348L42.4251 31.3649L39.4177 30.8171C39.0984 33.3712 37.9125 32.7321 37.9125 32.7321V30.8171C37.9125 30.8171 37.9573 29.5577 39.0984 29.1764C40.4656 28.7217 41.4229 28.9936 41.8328 28.9025C42.2437 28.8113 42.1251 28.4479 42.1251 28.4479L40.3292 28.4927L38.7333 27.1703L37.8667 27.0791C36.2708 26.8067 36.8645 25.5755 36.8645 25.5755C36.8645 25.5755 38.2776 25.5755 39.1448 25.5755C40.0084 25.5755 42.2437 27.216 42.2437 27.216C42.2437 27.216 42.5631 25.3927 40.8771 24.7545C39.1891 24.1171 39.5541 23.616 39.5541 23.616L41.1484 24.1624C41.1484 24.1624 41.3328 23.9796 41.0593 23.5692C40.912 23.3483 39.6432 22.8859 39.6432 22.8859C38.6412 22.5212 38.9604 21.7009 38.9604 21.7009L40.7407 21.8821ZM38.8079 35.7119V39.1395C38.8079 39.1395 38.8645 40.926 37.3579 42.4337C35.7917 43.9988 34.0391 43.8321 34.0125 43.8296C33.986 43.8321 32.2349 43.9988 30.6672 42.4337C29.1588 40.926 29.2156 39.1395 29.2156 39.1395V35.7119C29.2156 35.7119 28.7907 35.5999 28.7697 35.1812C28.7412 34.6509 29.3 34.7353 29.3 34.7353H30.4161C30.3604 35.9088 31.088 35.7681 31.088 35.7681C31.8677 35.7952 31.7011 34.7353 31.7011 34.7353H34.0079H34.0172H36.3245C36.3245 34.7353 36.1541 35.7952 36.9375 35.7681C36.9375 35.7681 37.6631 35.9088 37.6088 34.7353H38.7251C38.7251 34.7353 39.2823 34.6509 39.2536 35.1812C39.2333 35.5999 38.8079 35.7119 38.8079 35.7119ZM25.4109 32.0493C25.4109 32.0493 24.2265 34.7853 24.2265 35.0113C24.2265 35.24 26.4713 34.4525 27.1432 36.3791C27.8276 38.3405 26.2047 39.3567 25.8224 39.5036C25.4396 39.6488 25.1683 39.7264 24.8312 39.8373C24.5251 39.9389 24.3645 40.19 24.5917 40.4369L26.3683 42.3509C26.3683 42.3509 27.7369 42.9431 27.5989 43.628H24.7729V42.8988L22.1735 40.4369C22.1735 40.4369 23.45 38.1124 23.4057 37.976L22.5407 37.8837C22.5407 37.8837 21.9005 40.164 20.7161 40.254H18.4817V42.1692C18.4817 42.1692 19.8953 42.6249 19.8473 43.7192H17.4339L16.7036 42.9911V38.5681C16.7036 38.5681 16.7495 37.5197 17.7073 37.4723H18.7536C18.7536 37.4723 18.7088 37.2004 18.6183 36.6536C18.6183 36.6536 17.1765 37.0321 16.2719 36.0124C14.9937 34.5703 16.0527 32.5749 16.2937 32.0036C17.4833 29.1649 16.8213 28.6832 16.8213 28.6832C16.6432 28.4457 16.2021 28.5389 16.2021 28.5389C16.2021 28.5389 16.4636 28.0031 17.3401 27.9905C17.3401 27.9905 19.5745 27.8103 19.6188 29.8963C19.6631 31.9843 18.5724 31.7509 18.5724 35.0577C18.5724 35.6348 18.5724 33.416 20.6255 32.4593C20.6255 32.4593 19.7599 28.4927 22.8593 22.6124C22.8593 22.6124 25.2645 19.1853 25.1823 19.9223C25.0917 20.7427 24.9995 21.564 24.9109 21.8369C24.8188 22.1108 25.7303 21.29 26.3224 21.3812C26.9145 21.4723 26.8703 21.5187 27.2812 21.8821L29.0584 21.7009C29.0584 21.7009 29.3771 22.5212 28.3755 22.8859C28.3755 22.8859 27.1068 23.3483 26.9604 23.5692C26.6891 23.9796 26.8703 24.1624 26.8703 24.1624L28.4656 23.616C28.4656 23.616 28.8297 24.1171 27.1432 24.7545C25.4552 25.3927 25.776 27.216 25.776 27.216C25.776 27.216 28.0099 25.5755 28.8755 25.5755C29.7421 25.5755 31.1557 25.5755 31.1557 25.5755C31.1557 25.5755 31.7479 26.8067 30.1536 27.0791L29.2855 27.1703L27.6912 28.4927L25.8937 28.4479C25.8937 28.4479 25.776 28.8113 26.1844 28.9025C26.5953 28.9936 27.5531 28.7217 28.9197 29.1764C30.0631 29.5577 30.1063 30.8171 30.1063 30.8171V32.7321C30.1063 32.7321 28.9197 33.3712 28.6027 30.8171L25.5937 31.3649L24.4521 30.6348L25.4109 32.0493ZM15.5427 18.1884H13.9172V13.1353H13.2359L13.5057 11.7009H15.5427V18.1884ZM16.9115 13.2703C16.9115 12.0421 18.0021 11.4359 19.1041 11.4359C20.2031 11.4359 21.2953 12.0421 21.2953 13.2703C21.2953 13.9531 20.8697 14.5327 20.2807 14.7296V14.7463C21.0489 15.0025 21.5604 15.59 21.5604 16.4337C21.5604 17.7655 20.2125 18.3791 19.1041 18.3791C17.9927 18.3791 16.6448 17.7655 16.6448 16.4337C16.6448 15.59 17.1579 15.0025 17.926 14.7463V14.7296C17.3385 14.5327 16.9115 13.9531 16.9115 13.2703V13.2703ZM22.4145 13.3135V11.7597H27.7828L24.1912 18.1884H22.1765L25.0251 13.3135H22.4145ZM30.3536 11.5113C32.2115 11.5113 33.0052 13.2603 33.0052 14.8853C33.0052 16.5103 32.2193 18.2588 30.3536 18.2588C28.4896 18.2588 27.7021 16.5103 27.7021 14.8853C27.7021 13.2603 28.4973 11.5113 30.3536 11.5113ZM33.9833 21.0749C33.9943 21.0749 34.0011 21.0859 34.012 21.0864C34.0229 21.0859 34.0292 21.0749 34.0407 21.0749C34.2849 21.0749 34.4849 21.2739 34.4849 21.5192C34.4849 21.6837 34.3943 21.8264 34.264 21.904L34.2625 21.9113L34.2593 30.7671L37.186 33.7379V34.6821H36.7459L36.7427 33.9296L34.012 31.1436L31.2807 33.9296L31.2776 34.6821H30.838V33.7379L33.764 30.7671L33.7609 21.9113L33.7593 21.904C33.6292 21.8264 33.5391 21.6837 33.5391 21.5192C33.5391 21.2739 33.7385 21.0749 33.9833 21.0749V21.0749ZM55.9661 1.01028L37.2027 18.1963H34.0516L52.9557 1.01028H49.8057L34.0511 15.3312V12.4665L46.6547 1.01028H43.5031L34.0521 9.60361V6.73841L40.3521 1.01028H37.2021L34.0511 3.87388V1.01028H12.0323V36.0051C12.0323 48.854 34.0005 54.2427 34.0005 54.2427C34.0005 54.2427 55.9661 48.854 55.9661 36.0051V18.1952H52.9557L55.9661 15.3321V12.4676L49.8057 18.1952H46.6547L55.9661 9.60255V6.73948L43.5031 18.1952H40.3521L55.9661 3.87441V1.01028" fill="#A20641"/>
        <path d="M42.3807 22.4301H41.126L41.3849 21.9973L42.3807 22.4301Z" fill="#A20641"/>
        <path d="M82.4286 38.0993V36.1864C88.0802 35.8504 88.4896 35.4364 88.4896 29.1973V9.81653C88.4896 3.57547 87.9964 3.2468 82.8328 2.9108V0.9988H100.831V2.9108C95.2688 3.2468 94.7754 3.57547 94.7754 9.81653V29.4488C94.7754 32.6921 95.1797 34.3551 96.3182 34.9379C97.4412 35.5203 99.1412 35.604 102.122 35.604C105.27 35.604 107.857 35.0217 109.142 33.5239C110.119 32.5264 111.084 30.6113 111.897 27.9483L113.991 28.2031C113.587 30.1129 112.375 36.5171 111.897 38.0993H82.4286" fill="#231F20"/>
        <path d="M134.576 36.601C140.788 36.601 145.711 32.4427 145.711 20.7963C145.711 11.3146 141.187 2.49415 133.117 2.49415C126.584 2.49415 121.904 8.23695 121.904 18.3827C121.904 29.1974 126.584 36.601 134.576 36.601V36.601ZM114.636 20.3816C114.636 6.40562 125.283 -0.00118379 133.847 -0.00118379C145.464 -0.00118379 152.977 8.39988 152.977 19.1332C152.977 32.1931 143.369 39.0963 133.925 39.0963C121.416 39.0963 114.636 29.3655 114.636 20.3816" fill="#231F20"/>
        <path d="M160.896 38.0993V36.1864C166.709 35.7697 167.113 35.3545 167.113 29.2812V24.2072C167.113 22.6255 166.951 22.1264 165.896 20.2983C164.201 17.2176 161.94 13.3927 158.231 7.07173C156.136 3.40973 155.565 3.32854 151.933 2.9108V0.9988H168.08V2.9108L165.576 3.24681C163.719 3.49361 163.635 3.99214 164.448 5.65827C164.847 6.48947 170.016 15.6384 171.952 18.8837C174.455 14.4733 176.952 8.90094 178.243 6.15667C179.299 3.8264 179.135 3.49361 176.952 3.24681L174.612 2.9108V0.9988H188.821V2.9108C184.461 3.32854 184.141 3.9108 181.964 7.15613C179.78 10.3988 177.361 14.3921 174.696 19.2171C173.484 21.4629 173.4 22.0427 173.4 23.2916V29.2812C173.4 35.3545 173.893 35.7697 179.864 36.1864V38.0993H160.896" fill="#231F20"/>
        <path d="M206.679 36.601C212.896 36.601 217.812 32.4427 217.812 20.7963C217.812 11.3146 213.295 2.49415 205.224 2.49415C198.687 2.49415 194.007 8.23695 194.007 18.3827C194.007 29.1974 198.687 36.601 206.679 36.601V36.601ZM186.739 20.3816C186.739 6.40562 197.391 -0.00118379 205.948 -0.00118379C217.565 -0.00118379 225.08 8.39988 225.08 19.1332C225.08 32.1931 215.472 39.0963 206.028 39.0963C193.517 39.0963 186.739 29.3655 186.739 20.3816" fill="#231F20"/>
        <path d="M227.903 38.0993V36.1864C233.549 35.8504 233.953 35.4364 233.953 29.1973V9.81653C233.953 3.57547 233.471 3.2468 228.301 2.9108V0.9988H246.305V2.9108C240.733 3.2468 240.249 3.57547 240.249 9.81653V29.4488C240.249 32.6921 240.653 34.3551 241.787 34.9379C242.915 35.5203 244.609 35.604 247.601 35.604C250.744 35.604 253.325 35.0217 254.616 33.5239C255.587 32.5264 256.559 30.6113 257.361 27.9483L259.46 28.2031C259.056 30.1129 257.849 36.5171 257.361 38.0993H227.903" fill="#231F20"/>
        <path d="M273.013 21.6307H282.375L277.699 8.9848H277.536L273.013 21.6307ZM283.188 36.1864L284.72 36.0187C286.981 35.7697 287.705 35.1056 286.095 31.1963L283.351 24.4561H272.132C271.56 25.7889 270.191 29.6983 269.388 32.1931C268.417 35.0217 269.145 35.8504 271.481 36.0187L273.339 36.1864V38.0993H259.213V36.1864C262.765 35.7697 264.145 35.4364 266.48 29.6983L278.428 0.499866L280.439 -0.00120012L292.471 30.6979C294.407 35.604 295.944 35.9373 299.491 36.1864V38.0993H283.188V36.1864" fill="#231F20"/>
        <path d="M82.4286 45.6493H85.0473V53.2364C85.0473 54.0827 85.1464 54.7045 85.3469 55.0921C85.6578 55.7859 86.339 56.1296 87.3844 56.1296C88.4276 56.1296 89.1016 55.7859 89.4125 55.0921C89.613 54.7045 89.712 54.0827 89.712 53.2364V45.6493H92.3338V53.2411C92.3338 54.5551 92.1312 55.5796 91.727 56.3072C90.9656 57.6457 89.5197 58.3197 87.3844 58.3197C85.2478 58.3197 83.7978 57.6457 83.0349 56.3072C82.6265 55.5796 82.4286 54.5551 82.4286 53.2411V45.6493" fill="#231F20"/>
        <path d="M96.9708 45.6493H99.6787L104.578 54.2624V45.6493H106.984V58.0004H104.403L99.376 49.2389V58.0004H96.9708V45.6493" fill="#231F20"/>
        <path d="M114.165 58.0004H111.598V45.6493H114.165V58.0004" fill="#231F20"/>
        <path d="M125.981 45.6493H128.663L124.452 58.0004H122.01L117.838 45.6493H120.592L123.273 55.0269L125.981 45.6493Z" fill="#231F20"/>
        <path d="M140.847 47.8395H134.315V50.4597H140.309V52.6045H134.315V55.7816H141.149V58.0004H131.791V45.6493H140.847V47.8395" fill="#231F20"/>
        <path d="M147.687 47.7973V51.1155H150.46C151.009 51.1155 151.424 51.0447 151.701 50.9103C152.189 50.6785 152.436 50.2165 152.436 49.5244C152.436 48.7755 152.197 48.2692 151.727 48.0149C151.461 47.8707 151.061 47.7973 150.533 47.7973H147.687ZM153.019 45.9671C153.473 46.1665 153.856 46.4545 154.172 46.8337C154.435 47.1473 154.64 47.4921 154.793 47.8707C154.947 48.2509 155.023 48.6873 155.023 49.1697C155.023 49.7531 154.872 50.3321 154.579 50.9004C154.28 51.466 153.793 51.8687 153.113 52.102C153.681 52.3307 154.088 52.6556 154.323 53.078C154.561 53.5025 154.679 54.1452 154.679 55.0113V55.8369C154.679 56.4036 154.703 56.7848 154.747 56.9884C154.816 57.3077 154.976 57.5379 155.223 57.6879V58.0004H152.376C152.296 57.726 152.241 57.5088 152.209 57.3389C152.139 56.9916 152.103 56.6379 152.097 56.276L152.085 55.1285C152.069 54.3373 151.936 53.8145 151.671 53.5531C151.411 53.2889 150.923 53.1588 150.205 53.1588H147.687V58.0004H145.163V45.6493H151.068C151.912 45.6692 152.561 45.7739 153.019 45.9671" fill="#231F20"/>
        <path d="M160.659 54.1873C160.736 54.7531 160.892 55.1739 161.131 55.454C161.556 55.9613 162.289 56.2165 163.325 56.2165C163.949 56.2165 164.452 56.1463 164.844 56.0135C165.58 55.7588 165.944 55.2812 165.944 54.5832C165.944 54.1764 165.76 53.8597 165.403 53.6337C165.044 53.416 164.472 53.2239 163.691 53.0597L162.351 52.766C161.039 52.4749 160.136 52.1556 159.644 51.8192C158.809 51.2509 158.395 50.3577 158.395 49.1441C158.395 48.0405 158.805 47.1217 159.617 46.3895C160.432 45.6577 161.627 45.2905 163.205 45.2905C164.52 45.2905 165.645 45.6379 166.575 46.3249C167.504 47.0171 167.995 48.0176 168.039 49.3291H165.557C165.515 48.5884 165.181 48.0603 164.565 47.7463C164.151 47.54 163.641 47.4359 163.027 47.4359C162.344 47.4359 161.8 47.5712 161.395 47.8395C160.985 48.1056 160.787 48.4812 160.787 48.9619C160.787 49.4025 160.985 49.7332 161.384 49.9483C161.641 50.0952 162.189 50.2676 163.027 50.4597L165.193 50.9712C166.144 51.1947 166.855 51.4952 167.329 51.8687C168.064 52.4493 168.432 53.2889 168.432 54.3884C168.432 55.516 167.996 56.4531 167.127 57.2036C166.252 57.9452 165.02 58.3197 163.429 58.3197C161.8 58.3197 160.524 57.9493 159.592 57.2171C158.661 56.4827 158.195 55.4733 158.195 54.1873H160.659" fill="#231F20"/>
        <path d="M174.939 58.0004H172.376V45.6493H174.939V58.0004" fill="#231F20"/>
        <path d="M188.885 45.6493V47.8395H185.191V58.0004H182.596V47.8395H178.883V45.6493H188.885Z" fill="#231F20"/>
        <path d="M198.611 45.6493H201.531L197.404 53.3707V58.0004H194.821V53.3707L190.551 45.6493H193.592L196.155 51.0291L198.611 45.6493" fill="#231F20"/>
        <path d="M212.423 46.9421C213.42 45.9233 214.681 45.4192 216.221 45.4192C218.276 45.4192 219.78 46.0988 220.729 47.464C221.255 48.2269 221.535 48.9941 221.575 49.7671H218.991C218.831 49.1739 218.621 48.7269 218.361 48.4249C217.9 47.8905 217.219 47.6223 216.317 47.6223C215.399 47.6223 214.676 47.9952 214.144 48.7556C213.613 49.5129 213.344 50.5843 213.344 51.9703C213.344 53.354 213.627 54.3884 214.187 55.0807C214.749 55.7717 215.459 56.1149 216.32 56.1149C217.205 56.1149 217.88 55.8181 218.347 55.2275C218.604 54.9083 218.813 54.4307 218.985 53.7963H221.549C221.328 55.14 220.763 56.2369 219.853 57.0791C218.947 57.9197 217.779 58.3452 216.357 58.3452C214.601 58.3452 213.22 57.7744 212.216 56.6353C211.213 55.4905 210.711 53.9217 210.711 51.9264C210.711 49.7728 211.281 48.1097 212.423 46.9421" fill="#231F20"/>
        <path d="M225.209 58.0004V45.6493H227.772V50.3608H232.575V45.6493H235.137V58.0004H232.575V52.4873H227.772V58.0004H225.209" fill="#231F20"/>
        <path d="M242.497 58.0004H239.933V45.6493H242.497V58.0004" fill="#231F20"/>
        <path d="M248.216 46.9421C249.212 45.9233 250.475 45.4192 252.009 45.4192C254.069 45.4192 255.573 46.0988 256.52 47.464C257.043 48.2269 257.325 48.9941 257.365 49.7671H254.785C254.624 49.1739 254.412 48.7269 254.155 48.4249C253.697 47.8905 253.013 47.6223 252.108 47.6223C251.192 47.6223 250.467 47.9952 249.932 48.7556C249.404 49.5129 249.137 50.5843 249.137 51.9703C249.137 53.354 249.417 54.3884 249.977 55.0807C250.54 55.7717 251.249 56.1149 252.111 56.1149C252.999 56.1149 253.675 55.8181 254.137 55.2275C254.397 54.9083 254.609 54.4307 254.779 53.7963H257.34C257.117 55.14 256.557 56.2369 255.649 57.0791C254.737 57.9197 253.572 58.3452 252.153 58.3452C250.396 58.3452 249.013 57.7744 248.008 56.6353C247.004 55.4905 246.501 53.9217 246.501 51.9264C246.501 49.7728 247.072 48.1097 248.216 46.9421" fill="#231F20"/>
        <path d="M263.305 53.3353H266.468L264.908 48.4755L263.305 53.3353ZM263.475 45.6493H266.395L270.764 58.0004H267.964L267.149 55.4608H262.603L261.768 58.0004H259.067L263.475 45.6493" fill="#231F20"/>
        <path d="M281.663 49.5031C281.468 48.6619 280.991 48.0744 280.233 47.7364C279.807 47.5531 279.337 47.464 278.817 47.464C277.823 47.464 277.005 47.8353 276.369 48.5884C275.728 49.3348 275.405 50.4655 275.405 51.9703C275.405 53.4837 275.751 54.5577 276.448 55.1879C277.139 55.8155 277.927 56.1296 278.805 56.1296C279.673 56.1296 280.383 55.8832 280.933 55.3873C281.488 54.8884 281.833 54.2384 281.957 53.4327H279.1V51.3755H284.247V58.0004H282.536L282.276 56.4597C281.779 57.0421 281.332 57.4536 280.933 57.6921C280.256 58.1103 279.419 58.3197 278.421 58.3197C276.785 58.3197 275.445 57.7515 274.403 56.6197C273.315 55.4821 272.769 53.9275 272.769 51.9463C272.769 49.9483 273.317 48.3483 274.416 47.1416C275.519 45.9373 276.972 45.3327 278.78 45.3327C280.352 45.3327 281.612 45.7312 282.565 46.5255C283.515 47.3223 284.065 48.3171 284.204 49.5031H281.663" fill="#231F20"/>
        <path d="M296.327 55.0269C296.927 54.2723 297.225 53.1983 297.225 51.8108C297.225 50.4228 296.927 49.3545 296.327 48.5941C295.725 47.8395 294.916 47.464 293.893 47.464C292.871 47.464 292.056 47.8395 291.443 48.5931C290.836 49.3447 290.533 50.4187 290.533 51.8108C290.533 53.1983 290.836 54.2723 291.443 55.0269C292.056 55.7816 292.871 56.1577 293.893 56.1577C294.916 56.1577 295.725 55.7816 296.327 55.0269ZM297.935 56.9036C297.005 57.8635 295.657 58.3452 293.893 58.3452C292.124 58.3452 290.779 57.8635 289.843 56.9036C288.595 55.7255 287.969 54.028 287.969 51.8108C287.969 49.5493 288.595 47.8452 289.843 46.7149C290.779 45.7567 292.124 45.2764 293.893 45.2764C295.657 45.2764 297.005 45.7567 297.935 46.7149C299.184 47.8452 299.807 49.5493 299.807 51.8108C299.807 54.028 299.184 55.7255 297.935 56.9036Z" fill="#231F20"/>
        <path d="M5.73541 82.0686C5.88437 82.0864 6.0776 82.0926 6.31614 82.0926C7.14114 82.0926 7.78541 81.9811 8.25312 81.7504C9.12344 81.327 9.55312 80.5218 9.55312 79.3364C9.55312 78.6317 9.35885 78.1353 8.96926 77.8479C8.5776 77.5593 8.05833 77.4129 7.40573 77.4129C7.14584 77.4129 6.94948 77.4389 6.81614 77.4873C6.68489 77.5364 6.58906 77.6613 6.52917 77.8629L5.35573 82.0134C5.46093 82.0327 5.58593 82.052 5.73541 82.0686ZM1.14166 87.5681C1.53281 87.539 1.80521 87.4676 1.94948 87.3572C2.18021 87.1916 2.36666 86.8525 2.51302 86.328L4.57292 78.9114L4.72708 78.2749C4.74374 78.1973 4.75833 78.1291 4.76458 78.064C4.77396 78.0025 4.77604 77.9488 4.77604 77.8983C4.77604 77.6369 4.68854 77.4567 4.50625 77.3577C4.32969 77.2603 4.01926 77.2004 3.58437 77.1697V76.8999H7.72396C8.5776 76.8999 9.2677 77.0103 9.78854 77.2212C10.7755 77.616 11.2693 78.3629 11.2693 79.452C11.2693 80.1171 11.0729 80.7051 10.6797 81.2197C9.925 82.215 8.56458 82.715 6.60208 82.715C6.36354 82.715 6.125 82.7046 5.88958 82.6874C5.65417 82.6676 5.42656 82.6348 5.20937 82.591L4.30521 85.8317C4.25 86.0213 4.21093 86.1785 4.18489 86.3072C4.13489 86.5259 4.11041 86.6931 4.11041 86.815C4.11041 87.0895 4.19322 87.2775 4.36041 87.3801C4.52552 87.4853 4.82448 87.5473 5.25312 87.5681V87.8379H1.14166V87.5681" fill="#231F20"/>
        <path d="M14.8989 80.4405C14.9213 80.4697 14.9297 80.5067 14.9297 80.5426C14.9251 80.6009 14.9167 80.6447 14.9088 80.6707L14.0724 83.8525L14.2541 83.4806C14.6473 82.7098 15.1052 82.0098 15.6276 81.3739C16.1521 80.739 16.6521 80.4223 17.1245 80.4223C17.3807 80.4223 17.5755 80.5067 17.7167 80.6744C17.8547 80.8447 17.9229 81.0379 17.9229 81.2567C17.9229 81.502 17.8547 81.7061 17.7167 81.8655C17.5807 82.028 17.3891 82.1072 17.1469 82.1072C16.9797 82.1072 16.8547 82.0754 16.7693 82.0087C16.6812 81.94 16.6161 81.8655 16.5656 81.7765L16.4703 81.5942C16.4473 81.5619 16.4235 81.5364 16.3937 81.5181C16.3631 81.4957 16.326 81.4874 16.2839 81.4874C16.0677 81.4874 15.7604 81.7864 15.3568 82.3785C14.9552 82.9744 14.5953 83.6171 14.2787 84.3119C14.0869 84.7322 13.8729 85.2895 13.636 85.9822C13.488 86.4192 13.2901 87.0374 13.0448 87.8379H11.7854L13.1583 82.89C13.2349 82.6093 13.2984 82.3593 13.3437 82.1348C13.3896 81.916 13.4136 81.7358 13.4136 81.5942C13.4136 81.4322 13.3713 81.3087 13.2885 81.2213C13.2073 81.1369 13.0677 81.0947 12.8646 81.0947C12.7984 81.0947 12.7172 81.0994 12.6198 81.1093C12.5224 81.1207 12.4057 81.1337 12.2687 81.1499V80.8785L12.5969 80.8171C13.0239 80.7296 13.4912 80.6369 13.9964 80.541C14.5027 80.4421 14.7708 80.3947 14.7964 80.3947C14.8469 80.3947 14.8812 80.4077 14.8989 80.4405" fill="#231F20"/>
        <path d="M22.0787 83.2452C22.7312 82.6645 23.0579 82.0879 23.0579 81.5181C23.0579 81.3103 23.0088 81.1447 22.9131 81.0249C22.814 80.8999 22.6683 80.8395 22.4781 80.8395C22.1276 80.8395 21.7803 80.9926 21.4391 81.2942C21.1016 81.5942 20.7948 81.9353 20.5219 82.3166C20.2344 82.765 20.0073 83.1921 19.8369 83.5994C19.7443 83.8187 19.6469 84.065 19.5412 84.3426C20.5817 84.1937 21.426 83.8233 22.0787 83.2452V83.2452ZM19.4307 82.1447C20.5104 81.015 21.626 80.4483 22.7735 80.4483C23.1984 80.4483 23.5364 80.5457 23.788 80.7426C24.038 80.9353 24.1631 81.2296 24.1631 81.6155C24.1631 82.3994 23.7052 83.0702 22.7864 83.6286C21.8708 84.1869 20.9052 84.528 19.8937 84.6546L19.4281 84.7082C19.3568 84.9338 19.3079 85.1119 19.2803 85.2473C19.2557 85.3801 19.2396 85.5489 19.2396 85.7499C19.2396 86.2306 19.3953 86.6041 19.7084 86.8718C20.0203 87.1395 20.3907 87.2728 20.8208 87.2728C21.2265 87.2728 21.6584 87.1364 22.1145 86.8619C22.3776 86.703 22.7527 86.4171 23.2473 86.0051L23.4615 86.1947C23.2167 86.5051 22.8656 86.8249 22.4084 87.1494C21.6 87.739 20.7849 88.0312 19.9697 88.0312C19.3907 88.0312 18.886 87.8233 18.4505 87.414C18.0156 87.0051 17.7979 86.4223 17.7979 85.6593C17.7979 84.4515 18.3401 83.2796 19.4307 82.1447" fill="#231F20"/>
        <path d="M30.9193 81.7864C30.7604 81.3884 30.4615 81.1921 30.0265 81.1921C29.65 81.1921 29.2407 81.3785 28.7989 81.752C28.3563 82.1285 27.986 82.7452 27.6869 83.6077C27.4484 84.2874 27.226 85.0004 27.0167 85.7452C26.8073 86.4921 26.7031 86.9285 26.7031 87.0572C26.7031 87.2645 26.7896 87.4171 26.9584 87.5166C27.1271 87.6155 27.3303 87.664 27.5672 87.664C28.5151 87.664 29.3511 87.0572 30.0735 85.8473C30.7208 84.765 31.0443 83.6884 31.0443 82.6239C31.0443 82.2728 31.0021 81.9905 30.9193 81.7864V81.7864ZM23.3885 91.0212C23.7183 91.0212 23.9636 90.9593 24.1307 90.8374C24.2943 90.7145 24.4193 90.5046 24.4943 90.2093L26.7489 82.2442C26.8027 82.0457 26.8349 81.9009 26.8495 81.814C26.864 81.7259 26.8688 81.6546 26.8688 81.6072C26.8688 81.4259 26.8027 81.291 26.6708 81.202C26.538 81.114 26.3427 81.0718 26.0885 81.0718C26.0333 81.0718 25.9812 81.0718 25.9323 81.077C25.8855 81.0801 25.8318 81.0832 25.7798 81.0963L25.762 80.8249L28.4177 80.4421C28.45 80.4374 28.4745 80.4582 28.4921 80.5067C28.4697 80.6009 28.4484 80.6707 28.4339 80.7213L27.986 82.2275C28.3432 81.7504 28.6708 81.3853 28.9697 81.1369C29.5084 80.6759 30.0703 80.4483 30.6511 80.4483C31.2459 80.4483 31.7084 80.6285 32.0473 80.9926C32.3849 81.3525 32.5552 81.9046 32.5552 82.653C32.5552 83.9306 32.0167 85.1463 30.9407 86.3072C29.8771 87.4546 28.7697 88.0311 27.6224 88.0311C27.3984 88.0311 27.2052 88.0051 27.0479 87.9629C26.8917 87.9171 26.7005 87.8426 26.4729 87.7353L26.3333 88.239C26.1891 88.7926 26.0885 89.19 26.0364 89.4301C25.8917 90.0634 25.8203 90.4155 25.8203 90.4983C25.8203 90.7223 25.8917 90.8666 26.0364 90.9254C26.1776 90.9869 26.4568 91.0275 26.8792 91.052V91.2921H23.3885V91.0212Z" fill="#231F20"/>
        <path d="M38.9563 81.0655C38.7745 80.8786 38.5536 80.7843 38.2959 80.7843C37.3959 80.7843 36.5636 81.4681 35.7921 82.8348C35.1156 84.0358 34.7781 85.0702 34.7781 85.9385C34.7781 86.377 34.8703 86.6931 35.0584 86.8916C35.2469 87.0942 35.4776 87.1916 35.7568 87.1916C36.5765 87.1916 37.3688 86.5296 38.1312 85.2015C38.864 83.9937 39.2307 82.9046 39.2307 81.9338C39.2307 81.5379 39.1364 81.2504 38.9563 81.0655V81.0655ZM39.2208 80.7536C39.3459 80.877 39.4432 81.0327 39.5177 81.2296L39.5599 81.3416L39.7417 80.7275C39.7661 80.6562 39.7875 80.6108 39.8021 80.5864C39.8183 80.5603 39.8588 80.5457 39.9188 80.5411L40.8667 80.4353C40.9151 80.4353 40.9448 80.4437 40.9547 80.4629C40.9625 80.4812 40.9609 80.515 40.9479 80.5655C40.9255 80.6369 40.9088 80.6905 40.8979 80.7343C40.8864 80.7733 40.8688 80.8348 40.8443 80.9098L40.0339 83.8348C39.8552 84.4744 39.7093 85.0249 39.5828 85.4869C39.3833 86.3233 39.2807 86.7989 39.2807 86.9192C39.2807 86.9952 39.3036 87.052 39.3443 87.0864C39.3833 87.1202 39.4333 87.1379 39.4953 87.1379C39.5421 87.1379 39.5989 87.1233 39.6573 87.0895C39.7193 87.0572 39.7907 87.0098 39.8765 86.9416L40.0229 86.8296C40.0683 86.7905 40.1203 86.7483 40.1803 86.6947C40.2355 86.6447 40.3052 86.5801 40.3849 86.5051L40.9219 85.9843L41.1188 86.1525C40.5323 86.877 40.0667 87.3687 39.7125 87.627C39.3588 87.8864 39.0208 88.0166 38.7047 88.0166C38.4953 88.0166 38.3364 87.9431 38.224 87.8051C38.114 87.6608 38.0588 87.4853 38.0588 87.2728C38.0588 87.0765 38.0943 86.7973 38.1688 86.4286C38.2417 86.0635 38.3136 85.7551 38.3828 85.5051C38.286 85.6692 38.1203 85.9062 37.888 86.2207C37.6588 86.5327 37.3751 86.8364 37.0355 87.1301C36.638 87.4838 36.2568 87.7353 35.8932 87.8801C35.6073 87.9806 35.3328 88.0312 35.0735 88.0312C34.6333 88.0312 34.2323 87.8473 33.874 87.4853C33.5136 87.1233 33.3349 86.6077 33.3349 85.9431C33.3349 84.7973 33.8527 83.6041 34.8885 82.3593C35.9579 81.0666 37.0651 80.4223 38.2131 80.4223C38.6459 80.4223 38.9839 80.5327 39.2208 80.7536" fill="#231F20"/>
        <path d="M44.9817 80.4405C45.0031 80.4697 45.0131 80.5067 45.0131 80.5426C45.0063 80.6009 45 80.6447 44.9917 80.6707L44.1588 83.8525L44.336 83.4806C44.7287 82.7098 45.1864 82.0098 45.7104 81.3739C46.2364 80.739 46.7333 80.4223 47.2057 80.4223C47.4604 80.4223 47.6573 80.5067 47.7984 80.6744C47.9364 80.8447 48.0063 81.0379 48.0063 81.2567C48.0063 81.502 47.9375 81.7061 47.7984 81.8655C47.662 82.028 47.474 82.1072 47.2303 82.1072C47.0645 82.1072 46.938 82.0754 46.8521 82.0087C46.7656 81.94 46.6979 81.8655 46.6489 81.7765L46.5516 81.5942C46.5323 81.5619 46.5047 81.5364 46.4755 81.5181C46.4459 81.4957 46.4088 81.4874 46.3651 81.4874C46.1505 81.4874 45.8421 81.7864 45.4412 82.3785C45.0385 82.9744 44.6765 83.6171 44.362 84.3119C44.1688 84.7322 43.9563 85.2895 43.7188 85.9822C43.5713 86.4192 43.3751 87.0374 43.1281 87.8379H41.8703L43.2417 82.89C43.3183 82.6093 43.3797 82.3593 43.4265 82.1348C43.4708 81.916 43.4948 81.7358 43.4948 81.5942C43.4948 81.4322 43.4541 81.3087 43.3735 81.2213C43.2921 81.1369 43.1511 81.0947 42.9495 81.0947C42.8828 81.0947 42.8016 81.0994 42.7027 81.1093C42.6052 81.1207 42.4885 81.1337 42.3521 81.1499V80.8785L42.6787 80.8171C43.1068 80.7296 43.5745 80.6369 44.0807 80.541C44.5855 80.4421 44.8536 80.3947 44.8812 80.3947C44.9303 80.3947 44.964 80.4077 44.9817 80.4405" fill="#231F20"/>
        <path d="M50.9964 78.3791C50.8407 78.2051 50.7609 77.9942 50.7609 77.7488C50.7609 77.4973 50.8407 77.2848 50.9964 77.1108C51.1552 76.9359 51.3469 76.8479 51.5708 76.8479C51.7948 76.8479 51.9864 76.9359 52.1505 77.1108C52.3115 77.2848 52.3921 77.4973 52.3921 77.7488C52.3921 77.9989 52.3115 78.2119 52.1505 78.3817C51.9864 78.5541 51.7948 78.6421 51.5708 78.6421C51.3469 78.6421 51.1552 78.5541 50.9964 78.3791ZM51.7688 80.4244C51.7984 80.4421 51.8115 80.465 51.8063 80.4942L50.1568 86.3379C50.0807 86.6478 50.0417 86.8343 50.0417 86.8931C50.0417 86.9775 50.0579 87.0489 50.0907 87.1072C50.1197 87.1739 50.188 87.2062 50.2964 87.2062C50.4803 87.2062 50.7251 87.0442 51.0303 86.7223C51.2088 86.5327 51.4312 86.2567 51.6927 85.9015L51.9068 86.0817L51.824 86.1968C51.4151 86.7713 51.0776 87.1853 50.8093 87.4369C50.3907 87.8312 49.9817 88.0312 49.586 88.0312C49.3505 88.0312 49.1536 87.9286 49.0016 87.7338C48.8437 87.539 48.7677 87.302 48.7677 87.0343C48.7677 86.877 48.7771 86.739 48.7984 86.6202C48.8208 86.502 48.862 86.328 48.9235 86.0994L50.0907 81.8869C50.1084 81.8218 50.1213 81.7614 50.1328 81.7082C50.1407 81.653 50.1489 81.5994 50.1489 81.5426C50.1489 81.3478 50.0776 81.2259 49.9328 81.1786C49.7885 81.1338 49.5041 81.1093 49.0807 81.1093V80.8395C49.5271 80.7843 49.85 80.7457 50.0464 80.715C50.2432 80.6853 50.4412 80.653 50.6421 80.6223C50.9005 80.5786 51.1437 80.5296 51.3776 80.4759C51.6084 80.4223 51.7396 80.4046 51.7688 80.4244" fill="#231F20"/>
        <path d="M52.9167 87.8379L54.3156 82.7942C54.436 82.3692 54.5057 82.1093 54.5255 82.0181C54.5432 81.9306 54.5531 81.8317 54.5531 81.7259C54.5531 81.5666 54.5088 81.4421 54.4197 81.3525C54.3307 81.2614 54.1552 81.2166 53.8937 81.2166C53.8287 81.2166 53.764 81.2213 53.7005 81.2296C53.6375 81.2374 53.5693 81.2468 53.4927 81.2567V80.989C53.8469 80.9338 54.0953 80.8916 54.2443 80.8655C54.3937 80.8379 54.5563 80.8041 54.7297 80.7681L56.1844 80.4483C56.2167 80.4697 56.2375 80.4957 56.2479 80.5233L55.1745 84.0374C55.8432 83.0181 56.4031 82.2582 56.8547 81.7635C57.6437 80.8869 58.3484 80.4483 58.9751 80.4483C59.2151 80.4483 59.4229 80.4957 59.5984 80.5879C59.9312 80.7681 60.0984 81.0895 60.0984 81.5603C60.0984 81.6921 60.0855 81.8286 60.0588 81.9697C60.0303 82.1124 59.9959 82.265 59.9521 82.427L58.874 86.3395C58.8531 86.4223 58.8303 86.5213 58.7995 86.6395C58.7735 86.7567 58.7604 86.8379 58.7604 86.8848C58.7604 86.9676 58.7803 87.0421 58.8188 87.1072C58.8563 87.1739 58.9161 87.2062 59.0011 87.2062C59.1369 87.2062 59.2912 87.1233 59.4713 86.9577C59.65 86.7921 59.9375 86.4405 60.3417 85.8978L60.5771 86.1155C60.1417 86.7145 59.7948 87.1416 59.5364 87.3864C59.0964 87.8135 58.6776 88.0312 58.2765 88.0312C58.0948 88.0312 57.9213 87.9676 57.7511 87.8457C57.5839 87.7207 57.4989 87.4968 57.4989 87.177C57.4989 87.0812 57.5057 86.9838 57.5172 86.8801C57.5303 86.7744 57.5495 86.6869 57.5703 86.6088L58.626 82.64C58.6776 82.4223 58.7167 82.2442 58.7344 82.1046C58.7541 81.9666 58.7636 81.8671 58.7636 81.8072C58.7636 81.6759 58.7312 81.564 58.6683 81.4681C58.6063 81.3739 58.4959 81.327 58.3355 81.327C57.9213 81.327 57.3984 81.6921 56.7672 82.4338C56.4005 82.8739 56.024 83.3963 55.6407 84.0051C55.3531 84.4775 55.126 84.9405 54.9588 85.3869C54.7948 85.8364 54.5333 86.6525 54.1745 87.8379H52.9167" fill="#231F20"/>
        <path d="M64.062 84.4775C64.2375 84.8119 64.5511 84.9806 65.0021 84.9806C65.4907 84.9806 65.9276 84.6676 66.312 84.0426C66.6969 83.4145 66.8869 82.7244 66.8869 81.9676C66.8869 81.6072 66.8088 81.327 66.6516 81.1207C66.4921 80.916 66.2568 80.814 65.9407 80.814C65.3317 80.814 64.838 81.1384 64.4683 81.7874C64.0948 82.4374 63.9084 83.065 63.9084 83.6692C63.9084 84.0051 63.9599 84.278 64.062 84.4775V84.4775ZM65.812 90.5015C66.2421 90.1884 66.4568 89.8202 66.4568 89.3864C66.4568 89.0598 66.3412 88.7838 66.1172 88.5588C65.9989 88.4384 65.8041 88.3103 65.5344 88.1739C65.3104 88.065 64.9307 87.9062 64.3964 87.703C63.8609 87.4968 63.5527 87.3947 63.4713 87.3947C63.3287 87.3947 63.0541 87.5843 62.6469 87.966C62.236 88.3442 62.0312 88.7728 62.0312 89.2536C62.0312 89.9822 62.3464 90.4822 62.976 90.7567C63.3057 90.8994 63.7115 90.9707 64.1907 90.9707C64.8432 90.9707 65.3817 90.8114 65.812 90.5015V90.5015ZM61.5979 88.2957C61.9131 87.9286 62.4063 87.5619 63.0864 87.1999C62.9505 87.1103 62.838 87.0197 62.7505 86.9254C62.6661 86.8296 62.6208 86.7051 62.6208 86.5442C62.6208 86.3233 62.7765 86.065 63.0864 85.7765C63.2636 85.614 63.5511 85.3994 63.9469 85.1317C63.5979 85.0004 63.2964 84.815 63.0443 84.5765C62.7391 84.2536 62.5864 83.8348 62.5864 83.3233C62.5864 82.4989 62.9084 81.814 63.5511 81.2666C64.1937 80.7213 64.9896 80.4483 65.9407 80.4483C66.4355 80.4483 66.8563 80.5265 67.2 80.6822C67.5407 80.8364 67.7459 80.965 67.8052 81.0666H68.9093V81.7228H68.0719C68.1041 81.8426 68.1303 81.952 68.1448 82.0504C68.1625 82.1468 68.1693 82.2874 68.1693 82.4676C68.1693 83.3525 67.8287 84.0489 67.1464 84.5572C66.4631 85.0634 65.7276 85.3186 64.9369 85.3186C64.8563 85.3186 64.7797 85.3119 64.7084 85.3056C64.6369 85.2973 64.5511 85.2843 64.4469 85.2619C64.3656 85.2619 64.2552 85.3395 64.1125 85.4973C63.9645 85.6577 63.8917 85.7973 63.8917 85.9239C63.8917 86.1077 64.4912 86.4254 65.6907 86.8702C66.8855 87.3233 67.4828 87.9838 67.4828 88.852C67.4828 89.5062 67.1807 90.078 66.5828 90.5681C65.9807 91.0598 65.0751 91.3067 63.864 91.3067C63.0219 91.3067 62.3563 91.1265 61.8656 90.7676C61.374 90.4093 61.1271 89.9692 61.1271 89.4562C61.1271 89.0489 61.2849 88.6608 61.5979 88.2957" fill="#231F20"/>
        <path d="M79.7693 81.7864C79.6104 81.3884 79.3131 81.1921 78.8751 81.1921C78.4979 81.1921 78.0912 81.3785 77.6479 81.752C77.2063 82.1285 76.8375 82.7452 76.5375 83.6077C76.2984 84.2874 76.0745 85.0004 75.8651 85.7452C75.6573 86.4921 75.5521 86.9285 75.5521 87.0572C75.5521 87.2645 75.6364 87.4171 75.8052 87.5166C75.9771 87.6155 76.1787 87.664 76.4156 87.664C77.3651 87.664 78.1995 87.0572 78.9219 85.8473C79.5697 84.765 79.8927 83.6884 79.8927 82.6239C79.8927 82.2728 79.8505 81.9905 79.7693 81.7864V81.7864ZM72.2407 91.0212C72.5683 91.0212 72.8151 90.9593 72.9776 90.8374C73.1479 90.7145 73.2661 90.5046 73.3443 90.2093L75.5943 82.2442C75.6495 82.0457 75.6849 81.9009 75.6995 81.814C75.7115 81.7259 75.7193 81.6546 75.7193 81.6072C75.7193 81.4259 75.6527 81.291 75.5193 81.202C75.3849 81.114 75.1917 81.0718 74.9355 81.0718C74.8828 81.0718 74.8328 81.0718 74.7828 81.077C74.7339 81.0801 74.6817 81.0832 74.6265 81.0963L74.6104 80.8249L77.2661 80.4421C77.3005 80.4374 77.3245 80.4582 77.3412 80.5067C77.3183 80.6009 77.2969 80.6707 77.2823 80.7213L76.8375 82.2275C77.1932 81.7504 77.5193 81.3853 77.8183 81.1369C78.3584 80.6759 78.9188 80.4483 79.5 80.4483C80.0921 80.4483 80.5599 80.6285 80.8959 80.9926C81.2339 81.3525 81.4027 81.9046 81.4027 82.653C81.4027 83.9306 80.8667 85.1463 79.7907 86.3072C78.7255 87.4546 77.6203 88.0311 76.474 88.0311C76.2469 88.0311 76.0536 88.0051 75.8979 87.9629C75.7401 87.9171 75.5484 87.8426 75.3245 87.7353L75.1839 88.239C75.0375 88.7926 74.9364 89.19 74.8849 89.4301C74.7417 90.0634 74.6724 90.4155 74.6724 90.4983C74.6724 90.7223 74.7417 90.8666 74.8849 90.9254C75.026 90.9869 75.3068 91.0275 75.7255 91.052V91.2921H72.2407V91.0212Z" fill="#231F20"/>
        <path d="M86.7364 83.2452C87.386 82.6645 87.7136 82.0879 87.7136 81.5181C87.7136 81.3103 87.662 81.1447 87.5645 81.0249C87.4703 80.8999 87.3276 80.8395 87.136 80.8395C86.7792 80.8395 86.4344 80.9926 86.0937 81.2942C85.7557 81.5942 85.451 81.9353 85.175 82.3166C84.8896 82.765 84.662 83.1921 84.4932 83.5994C84.3989 83.8187 84.3016 84.065 84.1979 84.3426C85.2364 84.1937 86.0839 83.8233 86.7364 83.2452V83.2452ZM84.0875 82.1447C85.1688 81.015 86.2817 80.4483 87.4281 80.4483C87.8568 80.4483 88.1912 80.5457 88.4412 80.7426C88.6943 80.9353 88.8177 81.2296 88.8177 81.6155C88.8177 82.3994 88.3599 83.0702 87.4412 83.6286C86.5255 84.1869 85.5609 84.528 84.5484 84.6546L84.0839 84.7082C84.0125 84.9338 83.964 85.1119 83.938 85.2473C83.9088 85.3801 83.8958 85.5489 83.8958 85.7499C83.8958 86.2306 84.0546 86.6041 84.3636 86.8718C84.675 87.1395 85.0453 87.2728 85.474 87.2728C85.8792 87.2728 86.3145 87.1364 86.7688 86.8619C87.0286 86.703 87.4084 86.4171 87.9021 86.0051L88.1167 86.1947C87.8729 86.5051 87.5224 86.8249 87.0645 87.1494C86.2527 87.739 85.4412 88.0312 84.6229 88.0312C84.0484 88.0312 83.5417 87.8233 83.1068 87.414C82.6688 87.0051 82.451 86.4223 82.451 85.6593C82.451 84.4515 82.9995 83.2796 84.0875 82.1447" fill="#231F20"/>
        <path d="M91.5479 87.2176C91.7755 87.5166 92.1031 87.664 92.5448 87.664C93.4307 87.664 94.2197 86.9921 94.9052 85.6463C95.4896 84.4937 95.7817 83.4338 95.7817 82.465C95.7817 82.0541 95.7297 81.7228 95.6323 81.4728C95.4407 80.9973 95.0932 80.7588 94.5839 80.7588C93.7527 80.7588 92.9735 81.3853 92.2396 82.6369C91.5511 83.8041 91.2073 84.9582 91.2073 86.0895C91.2073 86.5421 91.3208 86.9192 91.5479 87.2176V87.2176ZM96.6156 81.1546C96.9959 81.6431 97.1807 82.2213 97.1807 82.8848C97.1807 84.0426 96.6745 85.1806 95.6552 86.2921C94.6 87.4499 93.4797 88.0312 92.2849 88.0312C91.5349 88.0312 90.9375 87.8103 90.4828 87.3733C90.0287 86.9369 89.8011 86.3233 89.8011 85.5296C89.8011 84.3348 90.3115 83.1921 91.324 82.0994C92.3563 80.9812 93.4765 80.4223 94.6807 80.4223C95.5964 80.4223 96.2427 80.6661 96.6156 81.1546" fill="#231F20"/>
        <path d="M103.947 81.7864C103.788 81.3884 103.489 81.1921 103.054 81.1921C102.678 81.1921 102.268 81.3785 101.827 81.752C101.385 82.1285 101.012 82.7452 100.714 83.6077C100.476 84.2874 100.252 85.0004 100.044 85.7452C99.8364 86.4921 99.7297 86.9285 99.7297 87.0572C99.7297 87.2645 99.8172 87.4171 99.9896 87.5166C100.158 87.6155 100.359 87.664 100.596 87.664C101.541 87.664 102.379 87.0572 103.103 85.8473C103.748 84.765 104.073 83.6884 104.073 82.6239C104.073 82.2728 104.028 81.9905 103.947 81.7864V81.7864ZM96.4183 91.0212C96.7459 91.0212 96.9927 90.9593 97.1579 90.8374C97.3235 90.7145 97.4469 90.5046 97.5251 90.2093L99.7781 82.2442C99.8333 82.0457 99.8656 81.9009 99.8787 81.814C99.8917 81.7259 99.8979 81.6546 99.8979 81.6072C99.8979 81.4259 99.8333 81.291 99.6969 81.202C99.5672 81.114 99.3693 81.0718 99.1156 81.0718C99.0604 81.0718 99.012 81.0718 98.9636 81.077C98.9115 81.0801 98.8625 81.0832 98.8073 81.0963L98.7912 80.8249L101.447 80.4421C101.479 80.4374 101.505 80.4582 101.521 80.5067C101.496 80.6009 101.473 80.6707 101.46 80.7213L101.012 82.2275C101.372 81.7504 101.697 81.3853 101.996 81.1369C102.534 80.6759 103.096 80.4483 103.68 80.4483C104.268 80.4483 104.739 80.6285 105.077 80.9926C105.414 81.3525 105.583 81.9046 105.583 82.653C105.583 83.9306 105.044 85.1463 103.966 86.3072C102.905 87.4546 101.801 88.0311 100.652 88.0311C100.424 88.0311 100.236 88.0051 100.077 87.9629C99.9208 87.9171 99.7297 87.8426 99.4989 87.7353L99.3625 88.239C99.2167 88.7926 99.1193 89.19 99.0604 89.4301C98.9245 90.0634 98.8464 90.4155 98.8464 90.4983C98.8464 90.7223 98.9245 90.8666 99.0604 90.9254C99.2068 90.9869 99.486 91.0275 99.9084 91.052V91.2921H96.4183V91.0212Z" fill="#231F20"/>
        <path d="M109.287 77.9113C109.31 77.8395 109.327 77.7703 109.33 77.6988C109.333 77.6291 109.34 77.5703 109.34 77.5264C109.34 77.34 109.261 77.2264 109.112 77.1843C108.966 77.1436 108.667 77.1239 108.219 77.1307V76.8629C108.466 76.8269 108.748 76.7895 109.067 76.7488C109.388 76.7051 109.596 76.6744 109.696 76.6583C110.005 76.6031 110.372 76.5233 110.81 76.416C110.849 76.416 110.885 76.4436 110.927 76.5004L108.196 86.3379C108.135 86.5733 108.099 86.7145 108.09 86.7629C108.08 86.8119 108.073 86.8619 108.073 86.9093C108.073 87.0129 108.09 87.1009 108.132 87.1786C108.167 87.2499 108.239 87.2858 108.346 87.2858C108.541 87.2858 108.794 87.1119 109.115 86.7629C109.427 86.4129 109.696 86.078 109.914 85.7452L110.138 85.9015C109.67 86.5973 109.304 87.0796 109.044 87.3457C108.593 87.802 108.138 88.0312 107.681 88.0312C107.482 88.0312 107.31 87.9791 107.158 87.8801C106.924 87.7338 106.804 87.4822 106.804 87.127C106.804 86.9869 106.827 86.8036 106.869 86.5749C106.898 86.4385 106.94 86.2812 106.989 86.1009L109.287 77.9113" fill="#231F20"/>
        <path d="M115.566 83.2452C116.219 82.6645 116.544 82.0879 116.544 81.5181C116.544 81.3103 116.495 81.1447 116.394 81.0249C116.3 80.8999 116.157 80.8395 115.969 80.8395C115.612 80.8395 115.265 80.9926 114.927 81.2942C114.582 81.5942 114.281 81.9353 114.008 82.3166C113.722 82.765 113.492 83.1921 113.326 83.5994C113.229 83.8187 113.131 84.065 113.031 84.3426C114.067 84.1937 114.917 83.8233 115.566 83.2452V83.2452ZM112.917 82.1447C114.002 81.015 115.112 80.4483 116.265 80.4483C116.686 80.4483 117.024 80.5457 117.274 80.7426C117.524 80.9353 117.651 81.2296 117.651 81.6155C117.651 82.3994 117.193 83.0702 116.278 83.6286C115.358 84.1869 114.394 84.528 113.381 84.6546L112.914 84.7082C112.846 84.9338 112.797 85.1119 112.768 85.2473C112.742 85.3801 112.729 85.5489 112.729 85.7499C112.729 86.2306 112.885 86.6041 113.196 86.8718C113.508 87.1395 113.878 87.2728 114.307 87.2728C114.713 87.2728 115.148 87.1364 115.602 86.8619C115.862 86.703 116.239 86.4171 116.735 86.0051L116.953 86.1947C116.709 86.5051 116.355 86.8249 115.897 87.1494C115.086 87.739 114.271 88.0312 113.456 88.0312C112.881 88.0312 112.372 87.8233 111.936 87.414C111.502 87.0051 111.287 86.4223 111.287 85.6593C111.287 84.4515 111.83 83.2796 112.917 82.1447" fill="#231F20"/>
        <path d="M123.011 87.164C123.017 87.1041 123.03 87.0489 123.046 86.9869L124.634 81.2702H123.391C123.391 81.1239 123.397 81.0312 123.423 80.9926C123.446 80.952 123.502 80.9161 123.589 80.877C124.144 80.64 124.579 80.4129 124.884 80.1937C125.19 79.9744 125.608 79.5541 126.137 78.9244L126.267 78.7681C126.284 78.7473 126.303 78.7296 126.329 78.7145C126.348 78.702 126.378 78.6952 126.404 78.6952C126.459 78.7067 126.494 78.7166 126.517 78.7296C126.534 78.7671 126.543 78.8009 126.546 78.8301C126.546 78.8593 126.546 78.8921 126.54 78.9223L126.056 80.7036H127.41L127.309 81.2702H125.891L124.365 86.7744C124.335 86.8733 124.345 86.9661 124.387 87.0572C124.433 87.1478 124.504 87.1916 124.611 87.1916C124.751 87.1916 124.953 87.052 125.209 86.7666C125.355 86.6119 125.605 86.3103 125.956 85.8556L126.167 85.9791L126.056 86.1499C125.582 86.8525 125.17 87.3411 124.816 87.6187C124.456 87.8916 124.118 88.0312 123.8 88.0312C123.52 88.0312 123.316 87.9562 123.196 87.8088C123.069 87.6608 123.004 87.4968 123.004 87.3135C123.004 87.2697 123.004 87.2176 123.011 87.164" fill="#231F20"/>
        <path d="M129.222 87.2176C129.443 87.5166 129.777 87.664 130.212 87.664C131.098 87.664 131.891 86.9921 132.579 85.6463C133.16 84.4937 133.452 83.4338 133.452 82.465C133.452 82.0541 133.4 81.7228 133.306 81.4728C133.111 80.9973 132.764 80.7588 132.254 80.7588C131.423 80.7588 130.637 81.3853 129.91 82.6369C129.222 83.8041 128.877 84.9582 128.877 86.0895C128.877 86.5421 128.994 86.9192 129.222 87.2176V87.2176ZM134.289 81.1546C134.667 81.6431 134.851 82.2213 134.851 82.8848C134.851 84.0426 134.345 85.1806 133.325 86.2921C132.273 87.4499 131.153 88.0312 129.958 88.0312C129.206 88.0312 128.605 87.8103 128.154 87.3733C127.699 86.9369 127.475 86.3233 127.475 85.5296C127.475 84.3348 127.981 83.1921 128.998 82.0994C130.03 80.9812 131.15 80.4223 132.355 80.4223C133.27 80.4223 133.913 80.6661 134.289 81.1546" fill="#231F20"/>
        <path d="M142.769 77.9113C142.792 77.8395 142.805 77.7703 142.812 77.6988C142.819 77.6291 142.819 77.5703 142.819 77.5264C142.819 77.34 142.744 77.2264 142.595 77.1843C142.448 77.1436 142.149 77.1239 141.705 77.1307V76.8629C141.948 76.8269 142.235 76.7895 142.552 76.7488C142.873 76.7051 143.081 76.6744 143.179 76.6583C143.488 76.6031 143.857 76.5233 144.296 76.416C144.332 76.416 144.373 76.4436 144.405 76.5004L141.679 86.3379C141.62 86.5733 141.585 86.7145 141.572 86.7629C141.563 86.8119 141.556 86.8619 141.556 86.9093C141.556 87.0129 141.579 87.1009 141.613 87.1786C141.649 87.2499 141.721 87.2858 141.828 87.2858C142.023 87.2858 142.283 87.1119 142.597 86.7629C142.912 86.4129 143.185 86.078 143.403 85.7452L143.62 85.9015C143.153 86.5973 142.792 87.0796 142.527 87.3457C142.075 87.802 141.62 88.0312 141.163 88.0312C140.965 88.0312 140.792 87.9791 140.64 87.8801C140.407 87.7338 140.289 87.4822 140.289 87.127C140.289 86.9869 140.312 86.8036 140.355 86.5749C140.384 86.4385 140.423 86.2812 140.471 86.1009L142.769 77.9113" fill="#231F20"/>
        <path d="M149.052 83.2452C149.704 82.6645 150.032 82.0879 150.032 81.5181C150.032 81.3103 149.984 81.1447 149.883 81.0249C149.785 80.8999 149.636 80.8395 149.448 80.8395C149.095 80.8395 148.751 80.9926 148.409 81.2942C148.072 81.5942 147.767 81.9353 147.493 82.3166C147.204 82.765 146.977 83.1921 146.808 83.5994C146.717 83.8187 146.617 84.065 146.516 84.3426C147.555 84.1937 148.396 83.8233 149.052 83.2452V83.2452ZM146.403 82.1447C147.48 81.015 148.597 80.4483 149.747 80.4483C150.172 80.4483 150.507 80.5457 150.756 80.7426C151.009 80.9353 151.133 81.2296 151.133 81.6155C151.133 82.3994 150.675 83.0702 149.76 83.6286C148.844 84.1869 147.88 84.528 146.867 84.6546L146.403 84.7082C146.331 84.9338 146.279 85.1119 146.253 85.2473C146.224 85.3801 146.211 85.5489 146.211 85.7499C146.211 86.2306 146.367 86.6041 146.679 86.8718C146.991 87.1395 147.36 87.2728 147.792 87.2728C148.199 87.2728 148.629 87.1364 149.088 86.8619C149.348 86.703 149.724 86.4171 150.217 86.0051L150.435 86.1947C150.188 86.5051 149.837 86.8249 149.38 87.1494C148.572 87.739 147.76 88.0312 146.941 88.0312C146.36 88.0312 145.857 87.8233 145.425 87.414C144.991 87.0051 144.769 86.4223 144.769 85.6593C144.769 84.4515 145.315 83.2796 146.403 82.1447" fill="#231F20"/>
        <path d="M157.552 81.0655C157.373 80.8786 157.152 80.7843 156.896 80.7843C155.996 80.7843 155.163 81.4681 154.392 82.8348C153.713 84.0358 153.376 85.0702 153.376 85.9385C153.376 86.377 153.467 86.6931 153.656 86.8916C153.844 87.0942 154.075 87.1916 154.353 87.1916C155.175 87.1916 155.967 86.5296 156.731 85.2015C157.46 83.9937 157.828 82.9046 157.828 81.9338C157.828 81.5379 157.736 81.2504 157.552 81.0655ZM157.817 80.7536C157.944 80.877 158.045 81.0327 158.116 81.2296L158.156 81.3416L158.34 80.7275C158.363 80.6562 158.385 80.6108 158.403 80.5864C158.419 80.5603 158.455 80.5457 158.519 80.5411L159.464 80.4353C159.512 80.4353 159.545 80.4437 159.552 80.4629C159.559 80.4812 159.559 80.515 159.548 80.5655C159.525 80.6369 159.505 80.6905 159.493 80.7343C159.483 80.7733 159.467 80.8348 159.444 80.9098L158.632 83.8348C158.455 84.4744 158.305 85.0249 158.185 85.4869C157.98 86.3233 157.88 86.7989 157.88 86.9192C157.88 86.9952 157.899 87.052 157.944 87.0864C157.98 87.1202 158.032 87.1379 158.093 87.1379C158.139 87.1379 158.195 87.1233 158.256 87.0895C158.317 87.0572 158.389 87.0098 158.477 86.9416L158.623 86.8296C158.668 86.7905 158.72 86.7483 158.779 86.6947C158.837 86.6447 158.903 86.5801 158.987 86.5051L159.523 85.9843L159.713 86.1525C159.129 86.877 158.665 87.3687 158.312 87.627C157.957 87.8864 157.62 88.0166 157.301 88.0166C157.091 88.0166 156.935 87.9431 156.824 87.8051C156.711 87.6608 156.656 87.4853 156.656 87.2728C156.656 87.0765 156.691 86.7973 156.765 86.4286C156.84 86.0635 156.912 85.7551 156.983 85.5051C156.885 85.6692 156.717 85.9062 156.487 86.2207C156.256 86.5327 155.973 86.8364 155.633 87.1301C155.236 87.4838 154.857 87.7353 154.489 87.8801C154.208 87.9806 153.932 88.0312 153.672 88.0312C153.231 88.0312 152.831 87.8473 152.473 87.4853C152.113 87.1233 151.932 86.6077 151.932 85.9431C151.932 84.7973 152.451 83.6041 153.487 82.3593C154.555 81.0666 155.663 80.4223 156.812 80.4223C157.243 80.4223 157.584 80.5327 157.817 80.7536" fill="#231F20"/>
        <path d="M161.977 86.8051C162.132 87.0536 162.392 87.1786 162.759 87.1786C163.541 87.1786 164.292 86.5504 165.019 85.2973C165.711 84.1202 166.055 83.0051 166.055 81.952C166.055 81.6192 166.003 81.3442 165.892 81.127C165.781 80.9062 165.557 80.7994 165.224 80.7994C164.385 80.7994 163.577 81.4713 162.795 82.8119C162.097 84.0119 161.749 85.0541 161.749 85.9353C161.749 86.2681 161.824 86.5588 161.977 86.8051ZM166.061 80.7312C166.165 80.8494 166.249 81.0494 166.311 81.3395L167.263 78.0088C167.291 77.9145 167.308 77.8332 167.317 77.7588C167.324 77.6843 167.327 77.6192 167.327 77.5671C167.327 77.3545 167.288 77.2212 167.211 77.1645C167.132 77.1108 167.016 77.0832 166.869 77.0832C166.775 77.0832 166.688 77.0869 166.609 77.0916C166.532 77.0947 166.424 77.1061 166.291 77.1176V76.8479C166.912 76.7649 167.769 76.6207 168.869 76.416L168.94 76.5004L168.921 76.5869L167.311 82.452L166.211 86.3447C166.188 86.4338 166.171 86.5129 166.159 86.5895C166.141 86.664 166.136 86.7322 166.136 86.7942C166.136 86.9416 166.171 87.039 166.247 87.0864C166.32 87.1301 166.385 87.1494 166.441 87.1494C166.603 87.1494 166.827 87.0114 167.12 86.7291C167.295 86.5603 167.528 86.2921 167.827 85.9353L168.012 86.1155L167.901 86.2874C167.697 86.5843 167.437 86.8916 167.116 87.203C166.555 87.752 166.048 88.0312 165.6 88.0312C165.451 88.0312 165.321 87.9968 165.197 87.9301C164.973 87.802 164.86 87.5666 164.86 87.2306C164.86 87.1171 164.876 86.9369 164.908 86.6869C164.944 86.4385 164.993 86.1645 165.061 85.8619C164.645 86.4921 164.191 87.0098 163.695 87.4108C163.197 87.8135 162.655 88.0166 162.071 88.0166C161.597 88.0166 161.181 87.8473 160.824 87.5082C160.471 87.1692 160.292 86.6525 160.292 85.9483C160.292 84.765 160.84 83.5426 161.941 82.2926C163.035 81.0442 164.1 80.4223 165.139 80.4223C165.573 80.4223 165.879 80.5233 166.061 80.7312" fill="#231F20"/>
        <path d="M177.417 83.2452C178.071 82.6645 178.395 82.0879 178.395 81.5181C178.395 81.3103 178.347 81.1447 178.248 81.0249C178.151 80.8999 178.005 80.8395 177.813 80.8395C177.463 80.8395 177.116 80.9926 176.777 81.2942C176.437 81.5942 176.132 81.9353 175.859 82.3166C175.573 82.765 175.343 83.1921 175.175 83.5994C175.083 83.8187 174.985 84.065 174.879 84.3426C175.917 84.1937 176.761 83.8233 177.417 83.2452V83.2452ZM174.772 82.1447C175.847 81.015 176.963 80.4483 178.112 80.4483C178.537 80.4483 178.872 80.5457 179.125 80.7426C179.375 80.9353 179.501 81.2296 179.501 81.6155C179.501 82.3994 179.044 83.0702 178.128 83.6286C177.207 84.1869 176.249 84.528 175.229 84.6546L174.765 84.7082C174.693 84.9338 174.645 85.1119 174.619 85.2473C174.593 85.3801 174.576 85.5489 174.576 85.7499C174.576 86.2306 174.732 86.6041 175.048 86.8718C175.359 87.1395 175.729 87.2728 176.157 87.2728C176.567 87.2728 176.992 87.1364 177.453 86.8619C177.709 86.703 178.089 86.4171 178.587 86.0051L178.797 86.1947C178.553 86.5051 178.207 86.8249 177.745 87.1494C176.937 87.739 176.123 88.0312 175.308 88.0312C174.729 88.0312 174.227 87.8233 173.788 87.414C173.353 87.0051 173.132 86.4223 173.132 85.6593C173.132 84.4515 173.677 83.2796 174.772 82.1447" fill="#231F20"/>
        <path d="M179.765 86.8426C179.897 86.752 180.031 86.7062 180.171 86.7062C180.232 86.7062 180.297 86.7145 180.363 86.7353C180.431 86.7567 180.499 86.7858 180.576 86.8296L180.865 86.9838C180.897 87.0051 180.94 87.0213 180.973 87.0275C181.012 87.0358 181.047 87.039 181.093 87.039C181.229 87.039 181.333 87.0051 181.408 86.9385C181.479 86.8702 181.667 86.6301 181.976 86.2259C182.177 85.9567 182.635 85.3041 183.352 84.2697C183.352 84.2306 183.287 83.9369 183.161 83.39C183.037 82.8426 182.92 82.3786 182.816 81.9973C182.709 81.6093 182.619 81.3546 182.537 81.2312C182.456 81.1093 182.304 81.0457 182.08 81.0457C182.001 81.0457 181.852 81.077 181.628 81.1301C181.485 81.1614 181.333 81.1999 181.168 81.2426L181.093 80.9744L182.005 80.6645C182.239 80.5832 182.456 80.515 182.657 80.4681C182.856 80.4192 183.024 80.3947 183.167 80.3947C183.397 80.3947 183.569 80.4629 183.684 80.6009C183.859 80.8187 184.005 81.2536 184.128 81.8994L184.297 82.8379C184.791 82.0864 185.173 81.5572 185.447 81.2489C185.693 80.9697 185.924 80.765 186.141 80.6254C186.363 80.489 186.569 80.4223 186.764 80.4223C186.949 80.4223 187.103 80.4483 187.216 80.5051C187.424 80.6009 187.528 80.7864 187.528 81.0619C187.528 81.2426 187.476 81.3885 187.368 81.4926C187.268 81.5978 187.135 81.6483 186.969 81.6483C186.911 81.6483 186.852 81.6416 186.8 81.6286C186.745 81.614 186.687 81.5942 186.625 81.5666L186.411 81.4759C186.352 81.4483 186.293 81.4259 186.239 81.4077C186.187 81.3885 186.144 81.3786 186.115 81.3786C185.868 81.3786 185.531 81.6952 185.092 82.3332C184.655 82.9676 184.437 83.3364 184.437 83.4369C184.437 83.5166 184.489 83.7827 184.589 84.2322C184.693 84.6822 184.8 85.1593 184.924 85.6593C185.031 86.1332 185.121 86.4614 185.2 86.6431C185.329 86.9369 185.469 87.0827 185.632 87.0827C185.777 87.0827 185.927 87.002 186.083 86.8379C186.236 86.6723 186.465 86.377 186.771 85.9483L187.001 86.0864C186.764 86.5098 186.524 86.8749 186.271 87.1786C185.793 87.7437 185.343 88.0312 184.908 88.0312C184.635 88.0312 184.417 87.8978 184.261 87.6364C184.171 87.4822 184.076 87.2306 183.989 86.8848L183.483 84.8671L181.804 87.065C181.476 87.4447 181.225 87.7015 181.044 87.8312C180.868 87.9629 180.651 88.0312 180.392 88.0312C180.037 88.0312 179.804 87.9207 179.673 87.703C179.605 87.5879 179.571 87.4515 179.571 87.2957C179.571 87.0812 179.632 86.9322 179.765 86.8426" fill="#231F20"/>
        <path d="M188.108 87.164C188.115 87.1041 188.125 87.0489 188.141 86.9869L189.728 81.2702H188.485C188.485 81.1239 188.499 81.0312 188.517 80.9926C188.544 80.952 188.596 80.9161 188.683 80.877C189.241 80.64 189.673 80.4129 189.979 80.1937C190.287 79.9744 190.703 79.5541 191.232 78.9244L191.361 78.7681C191.377 78.7473 191.401 78.7296 191.424 78.7145C191.447 78.702 191.475 78.6952 191.501 78.6952C191.557 78.7067 191.592 78.7166 191.612 78.7296C191.631 78.7671 191.641 78.8009 191.644 78.8301C191.648 78.8593 191.644 78.8921 191.637 78.9223L191.151 80.7036H192.501L192.407 81.2702H190.988L189.463 86.7744C189.433 86.8733 189.443 86.9661 189.485 87.0572C189.531 87.1478 189.605 87.1916 189.705 87.1916C189.849 87.1916 190.049 87.052 190.304 86.7666C190.452 86.6119 190.703 86.3103 191.053 85.8556L191.264 85.9791L191.151 86.1499C190.68 86.8525 190.271 87.3411 189.911 87.6187C189.553 87.8916 189.216 88.0312 188.895 88.0312C188.619 88.0312 188.413 87.9562 188.287 87.8088C188.167 87.6608 188.103 87.4968 188.103 87.3135C188.103 87.2697 188.105 87.2176 188.108 87.164" fill="#231F20"/>
        <path d="M196.357 80.4405C196.376 80.4697 196.387 80.5067 196.387 80.5426C196.376 80.6009 196.369 80.6447 196.364 80.6707L195.529 83.8525L195.711 83.4806C196.101 82.7098 196.561 82.0098 197.084 81.3739C197.611 80.739 198.107 80.4223 198.581 80.4223C198.835 80.4223 199.032 80.5067 199.168 80.6744C199.308 80.8447 199.38 81.0379 199.38 81.2567C199.38 81.502 199.308 81.7061 199.175 81.8655C199.039 82.028 198.848 82.1072 198.604 82.1072C198.439 82.1072 198.308 82.0754 198.224 82.0087C198.136 81.94 198.072 81.8655 198.023 81.7765L197.925 81.5942C197.905 81.5619 197.877 81.5364 197.851 81.5181C197.821 81.4957 197.783 81.4874 197.737 81.4874C197.525 81.4874 197.217 81.7864 196.815 82.3785C196.412 82.9744 196.052 83.6171 195.733 84.3119C195.543 84.7322 195.331 85.2895 195.091 85.9822C194.945 86.4192 194.749 87.0374 194.503 87.8379H193.244L194.613 82.89C194.692 82.6093 194.753 82.3593 194.799 82.1348C194.844 81.916 194.867 81.7358 194.867 81.5942C194.867 81.4322 194.828 81.3087 194.747 81.2213C194.665 81.1369 194.523 81.0947 194.321 81.0947C194.256 81.0947 194.176 81.0994 194.079 81.1093C193.981 81.1207 193.86 81.1337 193.724 81.1499V80.8785L194.055 80.8171C194.481 80.7296 194.945 80.6369 195.455 80.541C195.961 80.4421 196.224 80.3947 196.253 80.3947C196.301 80.3947 196.337 80.4077 196.357 80.4405" fill="#231F20"/>
        <path d="M204.523 81.0655C204.339 80.8786 204.121 80.7843 203.861 80.7843C202.965 80.7843 202.128 81.4681 201.359 82.8348C200.683 84.0358 200.341 85.0702 200.341 85.9385C200.341 86.377 200.439 86.6931 200.624 86.8916C200.816 87.0942 201.047 87.1916 201.323 87.1916C202.144 87.1916 202.936 86.5296 203.699 85.2015C204.425 83.9937 204.793 82.9046 204.793 81.9338C204.793 81.5379 204.703 81.2504 204.523 81.0655V81.0655ZM204.787 80.7536C204.913 80.877 205.013 81.0327 205.081 81.2296L205.128 81.3416L205.309 80.7275C205.335 80.6562 205.352 80.6108 205.368 80.5864C205.384 80.5603 205.425 80.5457 205.488 80.5411L206.432 80.4353C206.484 80.4353 206.511 80.4437 206.52 80.4629C206.527 80.4812 206.527 80.515 206.517 80.5655C206.495 80.6369 206.477 80.6905 206.465 80.7343C206.448 80.7733 206.436 80.8348 206.409 80.9098L205.601 83.8348C205.425 84.4744 205.273 85.0249 205.151 85.4869C204.949 86.3233 204.848 86.7989 204.848 86.9192C204.848 86.9952 204.868 87.052 204.909 87.0864C204.949 87.1202 205.001 87.1379 205.063 87.1379C205.111 87.1379 205.163 87.1233 205.225 87.0895C205.283 87.0572 205.357 87.0098 205.445 86.9416L205.592 86.8296C205.637 86.7905 205.685 86.7483 205.748 86.6947C205.803 86.6447 205.875 86.5801 205.952 86.5051L206.488 85.9843L206.683 86.1525C206.101 86.877 205.631 87.3687 205.28 87.627C204.925 87.8864 204.592 88.0166 204.271 88.0166C204.063 88.0166 203.9 87.9431 203.789 87.8051C203.683 87.6608 203.624 87.4853 203.624 87.2728C203.624 87.0765 203.66 86.7973 203.732 86.4286C203.805 86.0635 203.881 85.7551 203.949 85.5051C203.852 85.6692 203.689 85.9062 203.459 86.2207C203.228 86.5327 202.939 86.8364 202.601 87.1301C202.205 87.4838 201.823 87.7353 201.459 87.8801C201.176 87.9806 200.904 88.0312 200.64 88.0312C200.196 88.0312 199.8 87.8473 199.439 87.4853C199.083 87.1233 198.9 86.6077 198.9 85.9431C198.9 84.7973 199.42 83.6041 200.456 82.3593C201.524 81.0666 202.635 80.4223 203.78 80.4223C204.215 80.4223 204.549 80.5327 204.787 80.7536" fill="#231F20"/>
        <path d="M209.205 87.2176C209.429 87.5166 209.76 87.664 210.199 87.664C211.088 87.664 211.873 86.9921 212.563 85.6463C213.147 84.4937 213.439 83.4338 213.439 82.465C213.439 82.0541 213.387 81.7228 213.289 81.4728C213.101 80.9973 212.751 80.7588 212.244 80.7588C211.409 80.7588 210.627 81.3853 209.893 82.6369C209.212 83.8041 208.864 84.9582 208.864 86.0895C208.864 86.5421 208.977 86.9192 209.205 87.2176V87.2176ZM214.276 81.1546C214.653 81.6431 214.841 82.2213 214.841 82.8848C214.841 84.0426 214.332 85.1806 213.312 86.2921C212.26 87.4499 211.14 88.0312 209.945 88.0312C209.195 88.0312 208.592 87.8103 208.14 87.3733C207.689 86.9369 207.461 86.3233 207.461 85.5296C207.461 84.3348 207.972 83.1921 208.984 82.0994C210.02 80.9812 211.133 80.4223 212.337 80.4223C213.257 80.4223 213.9 80.6661 214.276 81.1546" fill="#231F20"/>
        <path d="M218.923 80.4405C218.941 80.4697 218.952 80.5067 218.952 80.5426C218.945 80.6009 218.939 80.6447 218.932 80.6707L218.097 83.8525L218.276 83.4806C218.665 82.7098 219.127 82.0098 219.652 81.3739C220.176 80.739 220.672 80.4223 221.145 80.4223C221.403 80.4223 221.597 80.5067 221.737 80.6744C221.877 80.8447 221.945 81.0379 221.945 81.2567C221.945 81.502 221.877 81.7061 221.74 81.8655C221.601 82.028 221.412 82.1072 221.169 82.1072C221.004 82.1072 220.877 82.0754 220.792 82.0087C220.704 81.94 220.64 81.8655 220.588 81.7765L220.493 81.5942C220.471 81.5619 220.445 81.5364 220.416 81.5181C220.383 81.4957 220.351 81.4874 220.305 81.4874C220.088 81.4874 219.783 81.7864 219.38 82.3785C218.977 82.9744 218.617 83.6171 218.299 84.3119C218.108 84.7322 217.896 85.2895 217.659 85.9822C217.509 86.4192 217.312 87.0374 217.068 87.8379H215.809L217.183 82.89C217.26 82.6093 217.319 82.3593 217.364 82.1348C217.412 81.916 217.435 81.7358 217.435 81.5942C217.435 81.4322 217.396 81.3087 217.312 81.2213C217.231 81.1369 217.088 81.0947 216.887 81.0947C216.821 81.0947 216.74 81.0994 216.643 81.1093C216.543 81.1207 216.429 81.1337 216.292 81.1499V80.8785L216.62 80.8171C217.045 80.7296 217.513 80.6369 218.02 80.541C218.529 80.4421 218.792 80.3947 218.819 80.3947C218.871 80.3947 218.905 80.4077 218.923 80.4405" fill="#231F20"/>
        <path d="M223.224 86.8051C223.376 87.0536 223.636 87.1786 224.003 87.1786C224.789 87.1786 225.541 86.5504 226.263 85.2973C226.951 84.1202 227.301 83.0051 227.301 81.952C227.301 81.6192 227.247 81.3442 227.136 81.127C227.023 80.9062 226.801 80.7994 226.467 80.7994C225.633 80.7994 224.824 81.4713 224.041 82.8119C223.341 84.0119 222.993 85.0541 222.993 85.9353C222.993 86.2681 223.071 86.5588 223.224 86.8051ZM227.308 80.7312C227.412 80.8494 227.496 81.0494 227.555 81.3395L228.509 78.0088C228.536 77.9145 228.555 77.8332 228.564 77.7588C228.571 77.6843 228.575 77.6192 228.575 77.5671C228.575 77.3545 228.532 77.2212 228.451 77.1645C228.373 77.1108 228.263 77.0832 228.113 77.0832C228.023 77.0832 227.932 77.0869 227.853 77.0916C227.776 77.0947 227.669 77.1061 227.536 77.1176V76.8479C228.156 76.7649 229.016 76.6207 230.113 76.416L230.188 76.5004L230.172 76.5869L228.557 82.452L227.455 86.3447C227.435 86.4338 227.419 86.5129 227.403 86.5895C227.387 86.664 227.383 86.7322 227.383 86.7942C227.383 86.9416 227.419 87.039 227.493 87.0864C227.568 87.1301 227.629 87.1494 227.684 87.1494C227.844 87.1494 228.075 87.0114 228.367 86.7291C228.536 86.5603 228.769 86.2921 229.075 85.9353L229.26 86.1155L229.143 86.2874C228.944 86.5843 228.679 86.8916 228.363 87.203C227.801 87.752 227.296 88.0312 226.844 88.0312C226.697 88.0312 226.561 87.9968 226.444 87.9301C226.22 87.802 226.107 87.5666 226.107 87.2306C226.107 87.1171 226.12 86.9369 226.156 86.6869C226.188 86.4385 226.237 86.1645 226.305 85.8619C225.889 86.4921 225.432 87.0098 224.941 87.4108C224.441 87.8135 223.905 88.0166 223.319 88.0166C222.844 88.0166 222.425 87.8473 222.072 87.5082C221.717 87.1692 221.539 86.6525 221.539 85.9483C221.539 84.765 222.088 83.5426 223.185 82.2926C224.279 81.0442 225.347 80.4223 226.387 80.4223C226.817 80.4223 227.127 80.5233 227.308 80.7312" fill="#231F20"/>
        <path d="M232.697 78.3791C232.535 78.2051 232.457 77.9942 232.457 77.7488C232.457 77.4973 232.535 77.2848 232.697 77.1108C232.856 76.9359 233.045 76.8479 233.272 76.8479C233.496 76.8479 233.691 76.9359 233.849 77.1108C234.012 77.2848 234.091 77.4973 234.091 77.7488C234.091 77.9989 234.012 78.2119 233.849 78.3817C233.691 78.5541 233.496 78.6421 233.272 78.6421C233.045 78.6421 232.856 78.5541 232.697 78.3791ZM233.471 80.4244C233.5 80.4421 233.509 80.465 233.505 80.4942L231.856 86.3379C231.779 86.6478 231.743 86.8343 231.743 86.8931C231.743 86.9775 231.759 87.0489 231.792 87.1072C231.817 87.1739 231.885 87.2062 231.996 87.2062C232.181 87.2062 232.425 87.0442 232.729 86.7223C232.908 86.5327 233.127 86.2567 233.389 85.9015L233.607 86.0817L233.525 86.1968C233.113 86.7713 232.779 87.1853 232.509 87.4369C232.093 87.8312 231.681 88.0312 231.285 88.0312C231.052 88.0312 230.853 87.9286 230.697 87.7338C230.545 87.539 230.467 87.302 230.467 87.0343C230.467 86.877 230.477 86.739 230.5 86.6202C230.523 86.502 230.561 86.328 230.62 86.0994L231.792 81.8869C231.808 81.8218 231.821 81.7614 231.831 81.7082C231.844 81.653 231.847 81.5994 231.847 81.5426C231.847 81.3478 231.776 81.2259 231.629 81.1786C231.489 81.1338 231.204 81.1093 230.779 81.1093V80.8395C231.227 80.7843 231.548 80.7457 231.747 80.715C231.944 80.6853 232.143 80.653 232.34 80.6223C232.6 80.5786 232.847 80.5296 233.077 80.4759C233.311 80.4223 233.437 80.4046 233.471 80.4244Z" fill="#231F20"/>
        <path d="M234.616 87.8379L236.016 82.7942C236.136 82.3692 236.204 82.1093 236.224 82.0181C236.243 81.9306 236.256 81.8317 236.256 81.7259C236.256 81.5666 236.207 81.4421 236.12 81.3525C236.028 81.2614 235.853 81.2166 235.591 81.2166C235.528 81.2166 235.46 81.2213 235.399 81.2296C235.34 81.2374 235.269 81.2468 235.195 81.2567V80.989C235.545 80.9338 235.799 80.8916 235.948 80.8655C236.093 80.8379 236.256 80.8041 236.428 80.7681L237.883 80.4483C237.915 80.4697 237.935 80.4957 237.948 80.5233L236.876 84.0374C237.545 83.0181 238.103 82.2582 238.551 81.7635C239.344 80.8869 240.044 80.4483 240.671 80.4483C240.915 80.4483 241.123 80.4957 241.297 80.5879C241.632 80.7681 241.797 81.0895 241.797 81.5603C241.797 81.6921 241.785 81.8286 241.759 81.9697C241.729 82.1124 241.693 82.265 241.648 82.427L240.573 86.3395C240.555 86.4223 240.532 86.5213 240.499 86.6395C240.473 86.7567 240.46 86.8379 240.46 86.8848C240.46 86.9676 240.48 87.0421 240.515 87.1072C240.555 87.1739 240.616 87.2062 240.704 87.2062C240.837 87.2062 240.996 87.1233 241.171 86.9577C241.349 86.7921 241.636 86.4405 242.041 85.8978L242.279 86.1155C241.84 86.7145 241.489 87.1416 241.236 87.3864C240.797 87.8135 240.379 88.0312 239.976 88.0312C239.797 88.0312 239.616 87.9676 239.451 87.8457C239.281 87.7207 239.2 87.4968 239.2 87.177C239.2 87.0812 239.204 86.9838 239.217 86.8801C239.229 86.7744 239.249 86.6869 239.272 86.6088L240.324 82.64C240.379 82.4223 240.415 82.2442 240.435 82.1046C240.457 81.9666 240.464 81.8671 240.464 81.8072C240.464 81.6759 240.431 81.564 240.367 81.4681C240.308 81.3739 240.193 81.327 240.035 81.327C239.616 81.327 239.1 81.6921 238.471 82.4338C238.097 82.8739 237.724 83.3963 237.34 84.0051C237.051 84.4775 236.824 84.9405 236.659 85.3869C236.493 85.8364 236.231 86.6525 235.876 87.8379H234.616" fill="#231F20"/>
        <path d="M248.573 81.0655C248.392 80.8786 248.171 80.7843 247.908 80.7843C247.015 80.7843 246.177 81.4681 245.408 82.8348C244.729 84.0358 244.392 85.0702 244.392 85.9385C244.392 86.377 244.487 86.6931 244.675 86.8916C244.863 87.0942 245.096 87.1916 245.372 87.1916C246.197 87.1916 246.983 86.5296 247.745 85.2015C248.476 83.9937 248.847 82.9046 248.847 81.9338C248.847 81.5379 248.755 81.2504 248.573 81.0655ZM248.836 80.7536C248.96 80.877 249.064 81.0327 249.135 81.2296L249.175 81.3416L249.363 80.7275C249.381 80.6562 249.401 80.6108 249.417 80.5864C249.433 80.5603 249.473 80.5457 249.535 80.5411L250.485 80.4353C250.531 80.4353 250.564 80.4437 250.571 80.4629C250.576 80.4812 250.576 80.515 250.567 80.5655C250.541 80.6369 250.525 80.6905 250.512 80.7343C250.501 80.7733 250.485 80.8348 250.46 80.9098L249.652 83.8348C249.473 84.4744 249.323 85.0249 249.2 85.4869C249.003 86.3233 248.899 86.7989 248.899 86.9192C248.899 86.9952 248.917 87.052 248.956 87.0864C249.003 87.1202 249.051 87.1379 249.109 87.1379C249.157 87.1379 249.213 87.1233 249.275 87.0895C249.333 87.0572 249.404 87.0098 249.496 86.9416L249.639 86.8296C249.687 86.7905 249.739 86.7483 249.791 86.6947C249.852 86.6447 249.921 86.5801 249.999 86.5051L250.535 85.9843L250.732 86.1525C250.148 86.877 249.681 87.3687 249.327 87.627C248.976 87.8864 248.639 88.0166 248.32 88.0166C248.112 88.0166 247.949 87.9431 247.843 87.8051C247.729 87.6608 247.671 87.4853 247.671 87.2728C247.671 87.0765 247.709 86.7973 247.784 86.4286C247.856 86.0635 247.931 85.7551 247.999 85.5051C247.901 85.6692 247.736 85.9062 247.505 86.2207C247.275 86.5327 246.989 86.8364 246.655 87.1301C246.256 87.4838 245.869 87.7353 245.509 87.8801C245.227 87.9806 244.951 88.0312 244.691 88.0312C244.249 88.0312 243.849 87.8473 243.489 87.4853C243.129 87.1233 242.951 86.6077 242.951 85.9431C242.951 84.7973 243.469 83.6041 244.503 82.3593C245.571 81.0666 246.681 80.4223 247.827 80.4223C248.261 80.4223 248.6 80.5327 248.836 80.7536" fill="#231F20"/>
        <path d="M254.599 80.4405C254.615 80.4697 254.628 80.5067 254.628 80.5426C254.625 80.6009 254.612 80.6447 254.605 80.6707L253.771 83.8525L253.956 83.4806C254.343 82.7098 254.804 82.0098 255.329 81.3739C255.852 80.739 256.345 80.4223 256.823 80.4223C257.076 80.4223 257.275 80.5067 257.413 80.6744C257.551 80.8447 257.621 81.0379 257.621 81.2567C257.621 81.502 257.553 81.7061 257.417 81.8655C257.281 82.028 257.087 82.1072 256.845 82.1072C256.68 82.1072 256.553 82.0754 256.467 82.0087C256.379 81.94 256.313 81.8655 256.264 81.7765L256.167 81.5942C256.148 81.5619 256.119 81.5364 256.089 81.5181C256.064 81.4957 256.024 81.4874 255.983 81.4874C255.768 81.4874 255.463 81.7864 255.053 82.3785C254.655 82.9744 254.293 83.6171 253.976 84.3119C253.781 84.7322 253.573 85.2895 253.333 85.9822C253.191 86.4192 252.989 87.0374 252.745 87.8379H251.485L252.859 82.89C252.933 82.6093 252.995 82.3593 253.041 82.1348C253.087 81.916 253.109 81.7358 253.109 81.5942C253.109 81.4322 253.071 81.3087 252.989 81.2213C252.908 81.1369 252.765 81.0947 252.564 81.0947C252.499 81.0947 252.415 81.0994 252.317 81.1093C252.223 81.1207 252.103 81.1337 251.967 81.1499V80.8785L252.297 80.8171C252.723 80.7296 253.191 80.6369 253.693 80.541C254.203 80.4421 254.469 80.3947 254.495 80.3947C254.547 80.3947 254.58 80.4077 254.599 80.4405" fill="#231F20"/>
        <path d="M257.313 90.0926C257.424 89.9676 257.583 89.9025 257.791 89.9025C257.924 89.9025 258.047 89.9301 258.148 89.9806C258.252 90.0338 258.363 90.1103 258.479 90.2077L258.589 90.2936C258.625 90.3202 258.657 90.339 258.703 90.3541C258.741 90.3702 258.787 90.3754 258.833 90.3754C259.103 90.3754 259.533 90.0213 260.125 89.3166C260.712 88.6103 261.008 88.0973 261.008 87.7759C261.008 87.4707 260.907 86.8718 260.703 85.9791C260.501 85.0832 260.3 84.2874 260.109 83.5926C259.843 82.6155 259.599 81.9483 259.379 81.6009C259.157 81.2536 258.829 81.0801 258.401 81.0801C258.365 81.0801 258.313 81.0832 258.229 81.0895C258.151 81.0994 258.017 81.114 257.827 81.1369V80.8655L260.06 80.4374L260.232 80.4223C260.368 80.4046 260.628 81.0202 261.017 82.2634C261.365 83.3806 261.585 84.1936 261.671 84.6952L262.001 86.6463C262.576 85.6869 262.995 84.9515 263.261 84.4421C263.787 83.4369 264.053 82.7291 264.053 82.3233C264.053 82.2322 264.033 82.1416 264.001 82.0504C263.969 81.9629 263.891 81.8838 263.775 81.8202L263.635 81.7457C263.547 81.7046 263.447 81.6192 263.329 81.4989C263.209 81.3786 263.155 81.2197 263.155 81.0202C263.155 80.8494 263.205 80.7051 263.32 80.5916C263.427 80.4775 263.592 80.4223 263.807 80.4223C264.076 80.4223 264.296 80.5004 264.465 80.6629C264.631 80.8202 264.716 81.0963 264.716 81.4838C264.716 82.064 264.397 82.9989 263.761 84.2874C263.268 85.2713 262.723 86.2275 262.115 87.1494C261.359 88.3072 260.707 89.1994 260.16 89.8249C259.293 90.8114 258.576 91.3067 258.001 91.3067C257.777 91.3067 257.583 91.2369 257.411 91.1025C257.236 90.9645 257.151 90.7791 257.151 90.5421C257.151 90.3666 257.207 90.2176 257.313 90.0926Z" fill="#231F20"/>
        <path d="M272.384 77.9113C272.404 77.8395 272.42 77.7703 272.423 77.6988C272.433 77.6291 272.433 77.5703 272.433 77.5264C272.433 77.34 272.357 77.2264 272.209 77.1843C272.06 77.1436 271.764 77.1239 271.319 77.1307V76.8629C271.563 76.8269 271.845 76.7895 272.167 76.7488C272.488 76.7051 272.692 76.6744 272.793 76.6583C273.101 76.6031 273.472 76.5233 273.907 76.416C273.945 76.416 273.981 76.4436 274.024 76.5004L271.293 86.3379C271.235 86.5733 271.196 86.7145 271.187 86.7629C271.173 86.8119 271.169 86.8619 271.169 86.9093C271.169 87.0129 271.189 87.1009 271.228 87.1786C271.264 87.2499 271.336 87.2858 271.44 87.2858C271.635 87.2858 271.893 87.1119 272.209 86.7629C272.527 86.4129 272.796 86.078 273.013 85.7452L273.237 85.9015C272.764 86.5973 272.4 87.0796 272.14 87.3457C271.689 87.802 271.235 88.0312 270.777 88.0312C270.579 88.0312 270.407 87.9791 270.255 87.8801C270.02 87.7338 269.9 87.4822 269.9 87.127C269.9 86.9869 269.927 86.8036 269.965 86.5749C269.997 86.4385 270.037 86.2812 270.085 86.1009L272.384 77.9113" fill="#231F20"/>
        <path d="M276.884 78.3791C276.728 78.2051 276.647 77.9942 276.647 77.7488C276.647 77.4973 276.728 77.2848 276.884 77.1108C277.043 76.9359 277.237 76.8479 277.459 76.8479C277.685 76.8479 277.875 76.9359 278.036 77.1108C278.196 77.2848 278.276 77.4973 278.276 77.7488C278.276 77.9989 278.196 78.2119 278.036 78.3817C277.875 78.5541 277.685 78.6421 277.459 78.6421C277.237 78.6421 277.043 78.5541 276.884 78.3791ZM277.656 80.4244C277.685 80.4421 277.699 80.465 277.696 80.4942L276.047 86.3379C275.968 86.6478 275.929 86.8343 275.929 86.8931C275.929 86.9775 275.949 87.0489 275.979 87.1072C276.004 87.1739 276.072 87.2062 276.185 87.2062C276.368 87.2062 276.611 87.0442 276.913 86.7223C277.095 86.5327 277.319 86.2567 277.576 85.9015L277.793 86.0817L277.712 86.1968C277.305 86.7713 276.965 87.1853 276.703 87.4369C276.277 87.8312 275.868 88.0312 275.472 88.0312C275.237 88.0312 275.047 87.9286 274.887 87.7338C274.732 87.539 274.653 87.302 274.653 87.0343C274.653 86.877 274.663 86.739 274.685 86.6202C274.709 86.502 274.751 86.328 274.809 86.0994L275.979 81.8869C275.995 81.8218 276.007 81.7614 276.017 81.7082C276.029 81.653 276.036 81.5994 276.036 81.5426C276.036 81.3478 275.965 81.2259 275.819 81.1786C275.676 81.1338 275.391 81.1093 274.968 81.1093V80.8395C275.413 80.7843 275.737 80.7457 275.932 80.715C276.131 80.6853 276.332 80.653 276.527 80.6223C276.789 80.5786 277.033 80.5296 277.264 80.4759C277.495 80.4223 277.628 80.4046 277.656 80.4244" fill="#231F20"/>
        <path d="M285.396 80.7749C285.561 80.9957 285.643 81.2426 285.643 81.5218C285.643 82.2582 284.92 83.5504 283.465 85.3963C282.081 87.1494 281.251 88.0312 280.975 88.0312C280.893 88.0312 280.835 87.9171 280.812 87.6916C280.796 87.5666 280.787 87.3541 280.787 87.052C280.787 86.6869 280.751 86.065 280.679 85.1921C280.608 84.3187 280.54 83.6707 280.475 83.252C280.339 82.327 280.205 81.7312 280.075 81.465C279.945 81.1952 279.696 81.064 279.328 81.064C279.269 81.064 279.199 81.0655 279.121 81.0718C279.043 81.0786 278.949 81.0832 278.845 81.0963V80.8786C279.011 80.8478 279.357 80.7733 279.884 80.6629C280.409 80.5494 280.685 80.4858 280.721 80.4759L280.991 80.3947C281.072 80.3723 281.127 80.4129 281.176 80.5233C281.215 80.627 281.273 80.8233 281.339 81.114C281.545 82.064 281.705 83.0004 281.809 83.9239C281.873 84.4973 281.939 85.3447 282.004 86.4707L282.273 86.1853C282.835 85.5895 283.391 84.8817 283.952 84.0635C284.507 83.2437 284.787 82.6645 284.787 82.3233C284.787 82.1546 284.663 81.952 284.423 81.715C284.176 81.4759 284.052 81.2603 284.052 81.064C284.052 80.8822 284.115 80.7343 284.235 80.6223C284.361 80.5067 284.511 80.4483 284.692 80.4483C285 80.4483 285.235 80.5572 285.396 80.7749" fill="#231F20"/>
        <path d="M290.751 83.2452C291.403 82.6645 291.727 82.0879 291.727 81.5181C291.727 81.3103 291.676 81.1447 291.581 81.0249C291.484 80.8999 291.341 80.8395 291.147 80.8395C290.796 80.8395 290.448 80.9926 290.107 81.2942C289.769 81.5942 289.461 81.9353 289.192 82.3166C288.9 82.765 288.672 83.1921 288.507 83.5994C288.412 83.8187 288.319 84.065 288.211 84.3426C289.251 84.1937 290.095 83.8233 290.751 83.2452V83.2452ZM288.101 82.1447C289.179 81.015 290.296 80.4483 291.445 80.4483C291.871 80.4483 292.205 80.5457 292.457 80.7426C292.708 80.9353 292.835 81.2296 292.835 81.6155C292.835 82.3994 292.376 83.0702 291.459 83.6286C290.539 84.1869 289.575 84.528 288.565 84.6546L288.101 84.7082C288.029 84.9338 287.977 85.1119 287.952 85.2473C287.923 85.3801 287.909 85.5489 287.909 85.7499C287.909 86.2306 288.065 86.6041 288.377 86.8718C288.692 87.1395 289.059 87.2728 289.491 87.2728C289.9 87.2728 290.328 87.1364 290.783 86.8619C291.045 86.703 291.423 86.4171 291.916 86.0051L292.129 86.1947C291.887 86.5051 291.532 86.8249 291.079 87.1494C290.267 87.739 289.455 88.0312 288.64 88.0312C288.059 88.0312 287.556 87.8233 287.12 87.414C286.685 87.0051 286.468 86.4223 286.468 85.6593C286.468 84.4515 287.011 83.2796 288.101 82.1447" fill="#231F20"/>
        <path d="M293.968 85.3853H294.237C294.357 86.0473 294.5 86.5358 294.663 86.8426C294.961 87.4093 295.409 87.6916 296.003 87.6916C296.335 87.6916 296.613 87.5733 296.841 87.3395C297.065 87.1072 297.179 86.7973 297.179 86.4108C297.179 86.1707 297.149 85.9759 297.091 85.8218C297.036 85.6723 296.964 85.5312 296.876 85.4093L296.201 84.4046C295.792 83.7957 295.536 83.3869 295.432 83.1806C295.276 82.8702 295.195 82.5588 295.195 82.2452C295.195 81.7733 295.364 81.3546 295.708 80.9926C296.045 80.6286 296.532 80.4483 297.163 80.4483C297.428 80.4483 297.733 80.5004 298.075 80.5978C298.419 80.6999 298.652 80.7504 298.776 80.7504C298.915 80.7504 299.016 80.7244 299.077 80.6692C299.145 80.614 299.204 80.5426 299.263 80.4483H299.496L299.161 82.7702H298.889C298.817 82.2442 298.715 81.8478 298.571 81.5796C298.312 81.0864 297.899 80.8395 297.331 80.8395C297.091 80.8395 296.876 80.9161 296.692 81.064C296.5 81.2129 296.409 81.4306 296.409 81.7213C296.409 81.9421 296.451 82.1416 296.536 82.3088C296.617 82.4759 296.808 82.7749 297.107 83.2067L297.688 84.0374C297.987 84.4661 298.201 84.8171 298.324 85.0895C298.448 85.3619 298.513 85.6562 298.513 85.9697C298.513 86.5551 298.267 87.052 297.763 87.4515C297.26 87.8541 296.663 88.0536 295.971 88.0536C295.751 88.0536 295.432 88.0082 295.019 87.9171C294.604 87.8233 294.364 87.7775 294.299 87.7775C294.192 87.7775 294.111 87.802 294.059 87.8473C294.003 87.8931 293.955 87.9629 293.916 88.0536H293.643L293.968 85.3853Z" fill="#231F20"/>
        </g>
        <defs>
        <clipPath id="clip0">
        <rect width="299.8" height="91.3067" fill="white"/>
        </clipPath>
        </defs>
        </svg>