<svg width="317" height="92" viewBox="0 0 317 92" fill="none" xmlns="http://www.w3.org/2000/svg">
<path d="M131.551 0.266828H133.467V91.8452H131.551V0.266828Z" fill="#B6862C"/>
<path d="M1.82023 3.48953H42.9966V27.934H29.9583V22.2595H19.0252V38.5676H31.5415V56.157H19.0252V70.227H22.711V88.5983H1.82023V70.227H5.74369V22.2595H1.82023V3.48953V3.48953ZM0 25.2606L3.90491 25.2518V67.2081L0 67.2292V91.554H24.5017V67.2524H20.8846V59.2102L33.4153 59.2479V35.6063L20.8846 35.5642V25.2042H27.9533V30.903H44.8856V0.554815H0V25.2606V25.2606ZM48.6902 3.48953H69.5803V22.2595H65.8175V70.227H69.5803V88.5983H48.776V70.227H52.5395V22.2595H48.6902V3.48953V3.48953ZM46.872 25.2042H50.7158V67.2414H46.872V91.5341H71.3744V67.2414H67.6501V25.2042H71.4046V0.554815H46.872V25.2042V25.2042ZM119.97 22.2595H116.21L116.202 72.5194L106.668 88.5983H88.4042L78.8799 72.5194V22.2595H75.1138V3.48953H94.3705V22.2595H92.1615V68.4097L92.1642 68.3997L93.2522 70.227H101.829H101.834L102.928 68.3942V22.2595H100.719V3.48953H119.97V22.2595V22.2595ZM98.4684 0.554815V25.2141L101.098 25.2042L101.093 67.2613H94.0263V25.2086H96.3748V0.554815H73.3107V25.2042H77.0295V74.0122L87.3986 91.5607H107.735L118.025 74.0122V25.2042H121.82V0.554815H98.4684V0.554815Z" fill="#B6862C"/>
<path d="M100.497 22.2606H102.929V68.3964L101.835 70.2281H101.829H93.2536L92.1649 68.4019L92.1621 68.4108V22.2606H94.3711V3.49063H75.1144V22.2606H78.8806V72.5205L88.4049 88.5994H106.668L116.202 72.5205L116.21 22.2606H119.971V3.49063H100.497V22.2606V22.2606Z" fill="#081E3F"/>
<path d="M69.581 3.48953H48.6902V22.2595H52.5395V70.227H48.776V88.5983H69.581V70.227H65.8182V22.2595H69.581V3.48953V3.48953Z" fill="#081E3F"/>
<path d="M1.82022 22.2606H5.74368V70.2281H1.82022V88.5994H22.711V70.2281H19.0252V56.1581H31.5415V38.5687H19.0252V22.2606H29.9583V27.9351H42.9966V3.49063H1.82022V22.2606V22.2606Z" fill="#081E3F"/>
<path d="M150.447 0.565904C151.854 0.565904 153.085 0.530466 153.547 0.45959C153.547 1.23923 153.547 3.89708 153.591 5.56266C153.503 5.84617 153.107 5.91704 152.887 5.70441C152.667 3.64901 152.316 2.62131 151.48 2.26693C150.888 2.01886 150.337 1.98342 149.634 1.98342H148.514C147.591 1.98342 147.591 2.0543 147.591 4.03883V10.3822C147.591 11.2682 147.612 11.3391 148.117 11.3391H149.414C151.327 11.3391 151.656 11.2682 151.876 9.77867L152.052 8.57378C152.184 8.32682 152.601 8.32682 152.711 8.61033C152.689 9.53171 152.645 10.8418 152.645 12.153C152.645 13.4642 152.689 14.74 152.711 15.8386C152.601 16.1221 152.184 16.1221 152.052 15.874L151.876 14.4919C151.678 13.0035 151.327 12.9327 149.414 12.9327H148.117C147.612 12.9327 147.591 13.0035 147.591 13.8895V18.8508C147.591 22.6072 147.788 22.6427 148.822 22.8553L149.745 23.0325C149.898 23.2805 149.876 23.9173 149.7 24.0602C148.293 23.9893 147.305 23.9539 146.338 23.9539C145.37 23.9539 144.382 23.9893 143.37 24.0602C143.195 23.9173 143.173 23.2805 143.326 23.0325L143.81 22.9262C144.843 22.7135 145.041 22.6072 145.041 18.8508V5.66897C145.041 1.91255 144.843 1.80623 143.81 1.55817L143.524 1.48729C143.37 1.23923 143.392 0.601341 143.568 0.45959C144.337 0.530466 145.327 0.565904 146.294 0.565904H150.447V0.565904Z" fill="#081E3F"/>
<path d="M159.301 18.1077C159.301 19.8796 159.346 21.1554 159.675 21.7578C159.939 22.2539 160.29 22.5374 162.049 22.5374C164.489 22.5374 164.84 22.3603 165.851 18.7101C166.071 18.533 166.422 18.6393 166.532 18.9228C166.357 20.4112 165.873 23.1045 165.61 24.0613C164.686 23.9904 162.796 23.955 160.334 23.955H158.049C156.927 23.955 155.828 23.9904 154.906 24.0613C154.73 23.9184 154.664 23.2108 154.862 23.0336L155.521 22.8564C156.554 22.5729 156.752 22.5374 156.752 18.8519V5.67007C156.752 1.98452 156.554 1.87821 155.521 1.63014L154.906 1.48839C154.752 1.3112 154.752 0.60244 154.95 0.460688C156.049 0.531564 157.037 0.567003 158.049 0.567003C159.016 0.567003 160.005 0.531564 160.972 0.460688C161.17 0.60244 161.192 1.3112 161.016 1.48839L160.532 1.63014C159.499 1.91365 159.301 1.98452 159.301 5.67007V18.1077V18.1077Z" fill="#081E3F"/>
<path d="M169.969 11.5517C169.969 16.4422 171.265 23.1034 175.023 23.1034C177.529 23.1034 179.551 20.0912 179.551 12.9693C179.551 7.61813 178.056 1.41759 174.562 1.41759C172.364 1.41759 169.969 4.00456 169.969 11.5517V11.5517ZM182.54 12.3314C182.54 19.3116 179.243 24.5209 174.803 24.5209C169.837 24.5209 166.979 18.8874 166.979 12.5794C166.979 5.35009 170.232 6.71016e-05 174.847 6.71016e-05C179.924 6.71016e-05 182.54 5.88166 182.54 12.3314" fill="#081E3F"/>
<path d="M187.553 10.9868C187.553 12.1208 187.553 12.1917 188.608 12.1917C190.762 12.1917 191.75 10.4907 191.75 7.12406C191.75 4.32446 190.629 1.87924 188.718 1.87924C187.575 1.87924 187.553 1.98666 187.553 3.6157V10.9868V10.9868ZM185.003 5.88373C185.003 2.48169 184.982 2.05754 183.949 1.87924L183.377 1.77293C183.223 1.52597 183.223 0.957857 183.398 0.781775C184.784 0.568039 186.651 0.46283 188.454 0.46283C190.168 0.46283 191.662 0.816104 192.63 1.66772C193.75 2.62344 194.564 4.28903 194.564 6.84056C194.564 10.1009 193.003 11.731 191.927 12.4398C191.795 12.5461 191.838 12.8296 191.927 13.0411C193.685 17.8252 194.783 20.8375 195.816 22.2195C196.432 23.07 197.069 23.2827 197.333 23.3181C197.443 23.4599 197.443 23.8497 197.377 24.0269C197.113 24.1332 196.696 24.2395 195.926 24.2395C193.816 24.2395 192.674 22.8574 191.333 19.5617C190.74 18.0733 190.124 16.1253 189.596 14.7432C189.201 13.6801 188.959 13.5383 188.234 13.5383C187.575 13.5383 187.553 13.5738 187.553 14.3169V18.8529C187.553 22.6094 187.75 22.7157 188.784 22.9283L189.267 23.0346C189.421 23.2827 189.399 23.9206 189.223 24.0623C188.256 23.9914 187.267 23.956 186.3 23.956C185.333 23.956 184.344 23.9914 183.332 24.0623C183.157 23.9206 183.091 23.2827 183.289 23.0346L183.772 22.9283C184.805 22.7157 185.003 22.6094 185.003 18.8529V5.88373V5.88373Z" fill="#081E3F"/>
<path d="M201.97 18.8497C201.97 22.6061 202.168 22.7124 203.201 22.9251L203.685 23.0314C203.839 23.2794 203.817 23.9173 203.641 24.0591C202.674 23.9882 201.685 23.9528 200.718 23.9528C199.751 23.9528 198.718 23.9882 197.751 24.0591C197.575 23.9173 197.552 23.2794 197.707 23.0314L198.19 22.9251C199.223 22.7124 199.421 22.6061 199.421 18.8497V5.66788C199.421 1.91256 199.223 1.80513 198.19 1.59251L197.707 1.48619C197.552 1.23813 197.575 0.600243 197.751 0.458491C198.718 0.529367 199.706 0.564806 200.718 0.564806C201.685 0.564806 202.674 0.529367 203.641 0.458491C203.817 0.600243 203.839 1.23813 203.685 1.48619L203.201 1.59251C202.168 1.80513 201.97 1.91256 201.97 5.66788V18.8497V18.8497Z" fill="#081E3F"/>
<path d="M209.753 17.4653C209.753 20.9028 209.906 22.7456 212.236 22.7456C216.148 22.7456 217.907 18.2804 217.907 12.2914C217.907 5.27576 215.379 1.87371 211.709 1.87371C210.786 1.87371 210.082 2.15722 209.928 2.36984C209.774 2.58247 209.753 3.32667 209.753 4.99226V17.4653V17.4653ZM207.203 5.8782C207.203 2.47616 207.181 1.98003 206.148 1.83827L205.686 1.7674C205.533 1.59021 205.533 0.952325 205.708 0.775135C207.291 0.562507 209.049 0.456193 211.203 0.456193C213.291 0.456193 214.785 0.739696 216.39 1.66108C219.028 3.22035 220.896 6.97678 220.896 12.2559C220.896 16.1895 219.687 20.2295 216.961 22.4621C215.401 23.7378 213.511 24.162 211.511 24.162C210.17 24.162 209.136 23.9494 208.324 23.9494C207.489 23.9494 206.5 23.9859 205.533 24.0568C205.357 23.9139 205.335 23.2771 205.488 23.028L205.972 22.9228C207.005 22.709 207.203 22.6038 207.203 18.8474V5.8782V5.8782Z" fill="#081E3F"/>
<path d="M227.927 13.6779C228.543 13.6779 228.631 13.6071 228.455 12.7566L227.533 8.504C227.137 6.62579 227.026 5.95247 226.916 5.7044H226.873C226.785 5.95247 226.587 6.83842 226.214 8.504L225.291 12.6502C225.071 13.6779 225.114 13.6779 225.642 13.6779H227.927V13.6779ZM225.291 15.2727C224.719 15.2727 224.74 15.2727 224.543 16.2295L223.642 20.482C223.202 22.5718 223.29 22.6427 224.104 22.8564L224.74 23.0325C224.895 23.2805 224.873 23.9184 224.697 24.0613C223.993 23.9904 223.268 23.9904 222.367 23.9539C221.642 23.9539 220.96 23.9904 220.191 24.0613C220.038 23.883 220.015 23.3514 220.169 23.0325L220.829 22.8564C221.466 22.6781 221.708 22.3957 222.037 21.2251C222.301 20.3037 222.653 18.8165 223.114 16.9028L226.126 4.28799C226.39 3.15398 226.609 2.30346 226.543 1.70102C227.312 1.45295 228.037 -6.03696e-06 228.082 -6.03696e-06C228.257 -6.03696e-06 228.368 0.106308 228.455 0.283498C228.807 1.87821 229.092 3.54379 229.444 5.1385L232.609 19.9859C233.115 22.3591 233.225 22.5718 234.346 22.9273L234.675 23.0325C234.851 23.2805 234.851 23.883 234.697 24.0613C233.796 23.9904 232.982 23.9539 231.84 23.9539C230.895 23.9539 229.928 24.0247 229.158 24.0613C228.983 23.883 228.961 23.2451 229.092 23.0325L229.576 22.9273C230.367 22.749 230.477 22.5374 230.147 21.0479L229.114 16.2295C228.917 15.2727 228.829 15.2727 228.213 15.2727H225.291V15.2727Z" fill="#081E3F"/>
<path d="M147.59 52.5158C147.59 56.2722 147.788 56.3774 148.821 56.5923L149.304 56.6975C149.458 56.9455 149.436 57.5823 149.26 57.7252C148.293 57.6543 147.304 57.6188 146.337 57.6188C145.37 57.6188 144.337 57.6543 143.37 57.7252C143.195 57.5823 143.172 56.9455 143.326 56.6975L143.809 56.5923C144.842 56.3774 145.04 56.2722 145.04 52.5158V39.334C145.04 35.5786 144.842 35.4712 143.809 35.2597L143.326 35.1523C143.172 34.9042 143.195 34.2674 143.37 34.1257C144.337 34.1966 145.326 34.2309 146.337 34.2309C147.304 34.2309 148.293 34.1966 149.26 34.1257C149.436 34.2674 149.458 34.9042 149.304 35.1523L148.821 35.2597C147.788 35.4712 147.59 35.5786 147.59 39.334V52.5158V52.5158Z" fill="#081E3F"/>
<path d="M164.906 51.5967C164.906 52.6587 164.906 57.0176 164.973 57.8326C164.797 58.2225 164.489 58.3653 164.226 58.3288C163.873 57.5846 163.236 56.3797 161.654 53.4749L156.51 44.0129C155.104 41.3916 154.379 40.0793 154.005 39.5489C153.939 39.5489 153.939 39.9387 153.939 41.8158V48.7262C153.939 51.384 153.961 54.6432 154.334 55.7064C154.532 56.239 154.906 56.486 155.455 56.5934L155.939 56.6997C156.137 56.9467 156.115 57.6211 155.896 57.7274C155.082 57.6555 154.225 57.6211 153.389 57.6211C152.467 57.6211 151.873 57.6555 151.104 57.7274C150.928 57.5491 150.884 56.9467 151.06 56.6997L151.544 56.5225C151.961 56.3797 152.356 56.2734 152.511 55.7064C152.797 54.6078 152.797 51.5258 152.797 48.7262V40.3285C152.797 37.5643 152.818 36.9973 152.071 35.9696C151.829 35.6507 151.213 35.3672 150.906 35.2609L150.577 35.1545C150.423 34.9419 150.445 34.2332 150.664 34.1268C151.5 34.2686 152.709 34.2332 153.258 34.2332C153.72 34.2332 154.247 34.1977 154.775 34.1268C155.148 35.6507 157.544 40.1159 158.313 41.4625L160.511 45.2887C161.433 46.9189 163.478 50.6753 163.697 50.8879C163.764 50.7816 163.764 50.6044 163.764 50.0374V43.127C163.764 40.4702 163.742 37.2099 163.346 36.1468C163.148 35.6152 162.797 35.3672 162.247 35.2609L161.742 35.1545C161.543 34.9065 161.566 34.2332 161.786 34.1268C162.643 34.1977 163.456 34.2332 164.313 34.2332C165.259 34.2332 165.83 34.1977 166.621 34.1268C166.797 34.304 166.84 34.9065 166.665 35.1545L166.159 35.3317C165.742 35.4735 165.368 35.5798 165.214 36.1468C164.906 37.2454 164.906 40.3285 164.906 43.127V51.5967V51.5967Z" fill="#081E3F"/>
<path d="M173.197 37.211C173.197 35.7226 173.175 35.6518 172.603 35.6518H171.372C169.35 35.6518 168.757 36.0416 167.944 38.9121C167.79 39.1247 167.328 39.0184 167.24 38.664C167.614 36.7503 167.944 34.5532 168.097 33.3128C168.142 33.2065 168.23 33.1711 168.34 33.1711C168.428 33.1711 168.516 33.2065 168.559 33.3128C168.669 34.1988 168.977 34.2342 170.471 34.2342H179.439C180.516 34.2342 180.845 34.1279 181.109 33.3128C181.196 33.2431 181.284 33.1711 181.373 33.1711C181.505 33.1711 181.615 33.2431 181.658 33.3483C181.439 34.8012 181.263 37.8489 181.329 38.9829C181.219 39.2664 180.845 39.3373 180.647 39.0892C180.362 36.3251 179.944 35.6518 177.592 35.6518H176.339C175.768 35.6518 175.747 35.7226 175.747 37.211V52.5191C175.747 56.2745 175.944 56.3808 176.977 56.558L177.768 56.7008C177.922 56.9489 177.901 57.5857 177.724 57.7285C176.449 57.6565 175.461 57.6222 174.494 57.6222C173.526 57.6222 172.493 57.6565 171.087 57.7285C170.911 57.5857 170.889 56.878 171.043 56.7008L171.966 56.5236C172.999 56.311 173.197 56.2745 173.197 52.5191V37.211V37.211Z" fill="#081E3F"/>
<path d="M184.077 39.3372C184.077 35.5808 183.879 35.4391 182.846 35.2264L182.494 35.1556C182.341 34.9075 182.363 34.2696 182.538 34.1279C183.374 34.1987 184.406 34.2342 185.374 34.2342H189.571C190.978 34.2342 192.253 34.1987 192.539 34.1279C192.627 34.7303 192.759 37.5299 192.89 39.0537C192.802 39.3372 192.364 39.4081 192.187 39.1955C191.835 37.1401 191.506 36.2896 190.802 35.9706C190.297 35.758 189.638 35.6517 189.044 35.6517H187.572C186.627 35.6517 186.627 35.7226 186.627 37.7425V43.7316C186.627 44.6529 186.648 44.6884 187.154 44.6884H188.209C190.121 44.6884 190.451 44.6529 190.648 43.1291L190.802 41.9242C190.978 41.6762 191.396 41.6762 191.506 41.9597C191.484 42.9165 191.44 44.1923 191.44 45.5023C191.44 46.8501 191.484 48.0893 191.506 49.2233C191.396 49.4714 190.978 49.4714 190.802 49.2588L190.648 47.8413C190.495 46.3529 190.121 46.2831 188.209 46.2831H187.154C186.648 46.2831 186.627 46.3529 186.627 47.2388V51.7394C186.627 53.5479 186.67 54.8225 187 55.425C187.264 55.9211 187.638 56.1692 189.483 56.2046C192.275 56.2401 192.759 55.2478 193.528 52.3773C193.726 52.1293 194.099 52.2356 194.231 52.5899C194.099 54.0783 193.616 56.7716 193.308 57.7285C192.341 57.6565 190.451 57.6221 187.879 57.6221H185.374C184.406 57.6221 183.066 57.6565 182.077 57.7285C181.901 57.5856 181.879 56.9488 182.033 56.7008L182.846 56.5579C183.879 56.3807 184.077 56.2744 184.077 52.5191V39.3372V39.3372Z" fill="#081E3F"/>
<path d="M198.934 44.6529C198.934 45.787 198.934 45.8578 199.989 45.8578C202.143 45.8578 203.132 44.1568 203.132 40.7902C203.132 37.9906 202.011 35.5454 200.099 35.5454C198.956 35.5454 198.934 35.6517 198.934 37.2818V44.6529V44.6529ZM196.385 39.5499C196.385 36.1478 196.363 35.7226 195.33 35.5454L194.759 35.4391C194.604 35.1921 194.604 34.624 194.78 34.4479C196.165 34.2342 198.033 34.129 199.835 34.129C201.55 34.129 203.044 34.4822 204.012 35.3328C205.132 36.2896 205.945 37.9552 205.945 40.5067C205.945 43.767 204.385 45.3971 203.308 46.1048C203.176 46.2122 203.22 46.4957 203.308 46.7072C205.067 51.4914 206.165 54.5036 207.198 55.8857C207.814 56.7362 208.451 56.9488 208.715 56.9843C208.825 57.126 208.825 57.5158 208.759 57.693C208.495 57.8004 208.077 57.9056 207.308 57.9056C205.198 57.9056 204.056 56.5236 202.715 53.2278C202.121 51.7394 201.506 49.7914 200.978 48.4094C200.583 47.3462 200.341 47.2045 199.616 47.2045C198.956 47.2045 198.934 47.2388 198.934 47.983V52.5191C198.934 56.2755 199.132 56.3807 200.165 56.5955L200.649 56.7007C200.803 56.9488 200.78 57.5856 200.605 57.7284C199.638 57.6576 198.649 57.6221 197.682 57.6221C196.715 57.6221 195.725 57.6576 194.714 57.7284C194.539 57.5856 194.473 56.9488 194.671 56.7007L195.154 56.5955C196.187 56.3807 196.385 56.2755 196.385 52.5191V39.5499V39.5499Z" fill="#081E3F"/>
<path d="M222.893 51.5967C222.893 52.6587 222.893 57.0176 222.959 57.8326C222.783 58.2225 222.475 58.3653 222.211 58.3288C221.86 57.5846 221.222 56.3797 219.64 53.4749L214.496 44.0129C213.09 41.3916 212.365 40.0793 211.991 39.5489C211.925 39.5489 211.925 39.9387 211.925 41.8158V48.7262C211.925 51.384 211.947 54.6432 212.321 55.7064C212.519 56.239 212.892 56.486 213.442 56.5934L213.925 56.6997C214.123 56.9467 214.101 57.6211 213.881 57.7274C213.068 57.6555 212.211 57.6211 211.376 57.6211C210.453 57.6211 209.859 57.6555 209.09 57.7274C208.914 57.5491 208.87 56.9467 209.047 56.6997L209.529 56.5225C209.947 56.3797 210.343 56.2734 210.497 55.7064C210.782 54.6078 210.782 51.5258 210.782 48.7262V40.3285C210.782 37.5643 210.804 36.9973 210.057 35.9696C209.815 35.6507 209.2 35.3672 208.892 35.2609L208.563 35.1545C208.408 34.9419 208.43 34.2332 208.651 34.1268C209.485 34.2686 210.694 34.2332 211.244 34.2332C211.705 34.2332 212.233 34.1977 212.76 34.1268C213.134 35.6507 215.529 40.1159 216.299 41.4625L218.497 45.2887C219.42 46.9189 221.464 50.6753 221.684 50.8879C221.75 50.7816 221.75 50.6044 221.75 50.0374V43.127C221.75 40.4702 221.728 37.2099 221.333 36.1468C221.134 35.6152 220.783 35.3672 220.233 35.2609L219.728 35.1545C219.53 34.9065 219.552 34.2332 219.771 34.1268C220.629 34.1977 221.442 34.2332 222.299 34.2332C223.244 34.2332 223.816 34.1977 224.607 34.1268C224.783 34.304 224.826 34.9065 224.651 35.1545L224.146 35.3317C223.728 35.4735 223.354 35.5798 223.2 36.1468C222.893 37.2454 222.893 40.3285 222.893 43.127V51.5967V51.5967Z" fill="#081E3F"/>
<path d="M232.083 47.344C232.699 47.344 232.786 47.2732 232.611 46.4226L231.688 42.1701C231.293 40.2919 231.182 39.6186 231.072 39.3705H231.029C230.941 39.6186 230.743 40.5045 230.369 42.1701L229.446 46.3163C229.226 47.344 229.27 47.344 229.798 47.344H232.083V47.344ZM229.446 48.9387C228.875 48.9387 228.896 48.9387 228.698 49.8956L227.798 54.147C227.358 56.239 227.446 56.3087 228.259 56.5225L228.896 56.6997C229.051 56.9466 229.029 57.5845 228.853 57.7263C228.149 57.6554 227.424 57.6554 226.523 57.6211C225.797 57.6211 225.116 57.6554 224.347 57.7263C224.194 57.5491 224.171 57.0175 224.325 56.6997L224.984 56.5225C225.622 56.3453 225.863 56.0618 226.193 54.8912C226.457 53.9698 226.809 52.4814 227.27 50.5689L230.281 37.9541C230.545 36.8201 230.764 35.9684 230.698 35.3671C231.468 35.119 232.193 33.6661 232.238 33.6661C232.413 33.6661 232.523 33.7724 232.611 33.9496C232.962 35.5443 233.248 37.2099 233.6 38.8046L236.764 53.652C237.27 56.0252 237.38 56.239 238.501 56.5933L238.83 56.6997C239.007 56.9466 239.007 57.5491 238.852 57.7263C237.952 57.6554 237.138 57.6211 235.996 57.6211C235.05 57.6211 234.083 57.6908 233.314 57.7263C233.138 57.5491 233.116 56.9112 233.248 56.6997L233.732 56.5933C234.523 56.4162 234.633 56.2024 234.303 54.714L233.271 49.8956C233.072 48.9387 232.984 48.9387 232.369 48.9387H229.446V48.9387Z" fill="#081E3F"/>
<path d="M242.682 37.211C242.682 35.7226 242.66 35.6518 242.088 35.6518H240.857C238.835 35.6518 238.242 36.0416 237.428 38.9121C237.275 39.1247 236.813 39.0184 236.725 38.664C237.099 36.7503 237.428 34.5532 237.582 33.3128C237.627 33.2065 237.714 33.1711 237.825 33.1711C237.913 33.1711 238 33.2065 238.044 33.3128C238.154 34.1988 238.461 34.2342 239.956 34.2342H248.923C250 34.2342 250.33 34.1279 250.594 33.3128C250.682 33.2431 250.77 33.1711 250.858 33.1711C250.99 33.1711 251.099 33.2431 251.143 33.3483C250.924 34.8012 250.748 37.8489 250.814 38.9829C250.704 39.2664 250.33 39.3373 250.133 39.0892C249.847 36.3251 249.429 35.6518 247.077 35.6518H245.824C245.253 35.6518 245.231 35.7226 245.231 37.211V52.5191C245.231 56.2745 245.429 56.3808 246.462 56.558L247.253 56.7008C247.407 56.9489 247.385 57.5857 247.21 57.7285C245.934 57.6565 244.946 57.6222 243.979 57.6222C243.011 57.6222 241.978 57.6565 240.572 57.7285C240.396 57.5857 240.374 56.878 240.528 56.7008L241.451 56.5236C242.484 56.311 242.682 56.2745 242.682 52.5191V37.211V37.211Z" fill="#081E3F"/>
<path d="M256.09 52.5158C256.09 56.2722 256.287 56.3774 257.32 56.5923L257.804 56.6975C257.958 56.9455 257.936 57.5823 257.76 57.7252C256.792 57.6543 255.804 57.6188 254.837 57.6188C253.87 57.6188 252.837 57.6543 251.869 57.7252C251.694 57.5823 251.672 56.9455 251.825 56.6975L252.309 56.5923C253.342 56.3774 253.54 56.2722 253.54 52.5158V39.334C253.54 35.5786 253.342 35.4712 252.309 35.2597L251.825 35.1523C251.672 34.9042 251.694 34.2674 251.869 34.1257C252.837 34.1966 253.826 34.2309 254.837 34.2309C255.804 34.2309 256.792 34.1966 257.76 34.1257C257.936 34.2674 257.958 34.9042 257.804 35.1523L257.32 35.2597C256.287 35.4712 256.09 35.5786 256.09 39.334V52.5158V52.5158Z" fill="#081E3F"/>
<path d="M262.155 45.2177C262.155 50.107 263.452 56.7694 267.209 56.7694C269.716 56.7694 271.737 53.7571 271.737 46.6352C271.737 41.2841 270.243 35.0835 266.748 35.0835C264.551 35.0835 262.155 37.6705 262.155 45.2177ZM274.727 45.9973C274.727 52.9775 271.43 58.1869 266.99 58.1869C262.024 58.1869 259.165 52.5522 259.165 46.2454C259.165 39.016 262.418 33.666 267.034 33.666C272.111 33.666 274.727 39.5476 274.727 45.9973" fill="#081E3F"/>
<path d="M289.039 51.5967C289.039 52.6587 289.039 57.0176 289.105 57.8326C288.929 58.2225 288.622 58.3653 288.358 58.3288C288.006 57.5846 287.369 56.3797 285.787 53.4749L280.643 44.0129C279.237 41.3916 278.511 40.0793 278.138 39.5489C278.072 39.5489 278.072 39.9387 278.072 41.8158V48.7262C278.072 51.384 278.094 54.6432 278.467 55.7064C278.665 56.239 279.039 56.486 279.588 56.5934L280.072 56.6997C280.27 56.9467 280.248 57.6211 280.028 57.7274C279.215 57.6555 278.358 57.6211 277.522 57.6211C276.6 57.6211 276.006 57.6555 275.236 57.7274C275.061 57.5491 275.017 56.9467 275.193 56.6997L275.677 56.5225C276.094 56.3797 276.489 56.2734 276.643 55.7064C276.929 54.6078 276.929 51.5258 276.929 48.7262V40.3285C276.929 37.5643 276.951 36.9973 276.204 35.9696C275.962 35.6507 275.346 35.3672 275.039 35.2609L274.71 35.1545C274.556 34.9419 274.577 34.2332 274.797 34.1268C275.632 34.2686 276.841 34.2332 277.39 34.2332C277.852 34.2332 278.38 34.1977 278.907 34.1268C279.281 35.6507 281.677 40.1159 282.446 41.4625L284.644 45.2887C285.566 46.9189 287.611 50.6753 287.83 50.8879C287.896 50.7816 287.896 50.6044 287.896 50.0374V43.127C287.896 40.4702 287.875 37.2099 287.479 36.1468C287.281 35.6152 286.93 35.3672 286.38 35.2609L285.875 35.1545C285.676 34.9065 285.699 34.2332 285.918 34.1268C286.775 34.1977 287.589 34.2332 288.446 34.2332C289.391 34.2332 289.962 34.1977 290.754 34.1268C290.93 34.304 290.973 34.9065 290.798 35.1545L290.292 35.3317C289.874 35.4735 289.501 35.5798 289.347 36.1468C289.039 37.2454 289.039 40.3285 289.039 43.127V51.5967V51.5967Z" fill="#081E3F"/>
<path d="M298.03 47.344C298.646 47.344 298.734 47.2732 298.559 46.4226L297.635 42.1701C297.24 40.2919 297.13 39.6186 297.019 39.3705H296.975C296.887 39.6186 296.69 40.5045 296.316 42.1701L295.393 46.3163C295.174 47.344 295.217 47.344 295.745 47.344H298.03V47.344ZM295.393 48.9387C294.821 48.9387 294.843 48.9387 294.646 49.8956L293.745 54.147C293.305 56.239 293.393 56.3087 294.207 56.5225L294.843 56.6997C294.997 56.9466 294.976 57.5845 294.8 57.7263C294.097 57.6554 293.371 57.6554 292.469 57.6211C291.745 57.6211 291.063 57.6554 290.294 57.7263C290.14 57.5491 290.119 57.0175 290.272 56.6997L290.932 56.5225C291.569 56.3453 291.81 56.0618 292.14 54.8912C292.404 53.9698 292.755 52.4814 293.217 50.5689L296.228 37.9541C296.493 36.8201 296.712 35.9684 296.646 35.3671C297.415 35.119 298.14 33.6661 298.184 33.6661C298.361 33.6661 298.47 33.7724 298.559 33.9496C298.91 35.5443 299.195 37.2099 299.547 38.8046L302.712 53.652C303.218 56.0252 303.328 56.239 304.449 56.5933L304.778 56.6997C304.954 56.9466 304.954 57.5491 304.8 57.7263C303.899 57.6554 303.085 57.6211 301.942 57.6211C300.997 57.6211 300.031 57.6908 299.261 57.7263C299.085 57.5491 299.064 56.9112 299.195 56.6997L299.679 56.5933C300.47 56.4162 300.58 56.2024 300.25 54.714L299.217 49.8956C299.02 48.9387 298.932 48.9387 298.316 48.9387H295.393V48.9387Z" fill="#081E3F"/>
<path d="M309.769 51.7738C309.769 53.5468 309.813 54.8214 310.143 55.4239C310.407 55.92 310.758 56.2035 312.517 56.2035C314.957 56.2035 315.308 56.0263 316.319 52.3762C316.538 52.199 316.89 52.3053 317 52.5888C316.825 54.0772 316.341 56.7705 316.078 57.7274C315.154 57.6565 313.264 57.621 310.802 57.621H308.516C307.395 57.621 306.296 57.6565 305.374 57.7274C305.198 57.5845 305.131 56.8768 305.329 56.6997L305.989 56.5225C307.022 56.239 307.22 56.2035 307.22 52.518V39.3362C307.22 35.6506 307.022 35.5443 305.989 35.2962L305.374 35.1545C305.219 34.9784 305.219 34.2685 305.417 34.1279C306.517 34.1976 307.505 34.2331 308.516 34.2331C309.483 34.2331 310.472 34.1976 311.44 34.1279C311.638 34.2685 311.66 34.9784 311.484 35.1545L311 35.2962C309.967 35.5808 309.769 35.6506 309.769 39.3362V51.7738V51.7738Z" fill="#081E3F"/>
<path d="M144.904 73.0034C144.904 69.2481 144.706 69.1772 143.673 68.8937L143.3 68.7874C143.146 68.5393 143.169 67.9369 143.344 67.7951C144.224 67.866 145.212 67.9014 146.179 67.9014C147.168 67.9014 148.157 67.866 149.124 67.7951C149.3 67.9369 149.322 68.5393 149.168 68.7874L148.685 68.8937C147.652 69.1063 147.454 69.2481 147.454 73.0034V81.1187C147.454 86.0091 148.377 90.1188 151.432 90.1188C154.311 90.1188 155.498 86.6105 155.498 81.225V76.7952C155.498 74.1374 155.477 70.8428 155.08 69.8151C154.883 69.2835 154.532 69.0343 153.981 68.8937L153.542 68.7874C153.344 68.5393 153.366 67.9014 153.586 67.7951C154.333 67.866 155.168 67.9014 156.026 67.9014C156.949 67.9014 157.542 67.866 158.355 67.7951C158.531 67.9723 158.575 68.5393 158.399 68.7874L157.916 68.9646C157.498 69.1063 157.103 69.2481 156.949 69.8151C156.641 70.8771 156.641 73.9967 156.641 76.7952V81.0124C156.641 84.2372 156.333 87.214 155.191 89.1974C154.047 91.182 152.399 91.8564 150.883 91.8564C148.817 91.8564 147.366 91.1465 146.355 89.5884C145.366 88.0645 144.904 85.5828 144.904 82.0046V73.0034V73.0034Z" fill="#081E3F"/>
<path d="M173.478 85.2627C173.478 86.3247 173.478 90.6836 173.544 91.4987C173.369 91.8874 173.061 92.0302 172.797 91.9948C172.445 91.2495 171.808 90.0446 170.226 87.1398L165.082 77.6789C163.676 75.0565 162.951 73.7453 162.577 73.2138C162.511 73.2138 162.511 73.6047 162.511 75.4818V82.3922C162.511 85.05 162.533 88.3092 162.907 89.3724C163.105 89.9039 163.478 90.152 164.028 90.2594L164.511 90.3646C164.708 90.6127 164.687 91.286 164.467 91.3923C163.654 91.3215 162.797 91.286 161.962 91.286C161.039 91.286 160.445 91.3215 159.676 91.3923C159.5 91.2151 159.456 90.6127 159.632 90.3646L160.115 90.1874C160.533 90.0446 160.929 89.9394 161.082 89.3724C161.368 88.2738 161.368 85.1907 161.368 82.3922V73.9934C161.368 71.2292 161.39 70.6622 160.643 69.6356C160.401 69.3167 159.786 69.0321 159.478 68.9258L159.149 68.8194C158.994 68.6079 159.016 67.8981 159.237 67.7929C160.071 67.9335 161.28 67.8981 161.83 67.8981C162.291 67.8981 162.819 67.8637 163.346 67.7929C163.72 69.3167 166.115 73.7819 166.884 75.1274L169.082 78.9547C170.006 80.5838 172.05 84.3413 172.27 84.5528C172.336 84.4476 172.336 84.2693 172.336 83.7034V76.793C172.336 74.1351 172.314 70.8749 171.919 69.8128C171.72 69.2801 171.368 69.0321 170.819 68.9258L170.314 68.8194C170.116 68.5714 170.138 67.8981 170.357 67.7929C171.215 67.8637 172.028 67.8981 172.885 67.8981C173.83 67.8981 174.402 67.8637 175.193 67.7929C175.369 67.97 175.412 68.5714 175.237 68.8194L174.731 68.9966C174.314 69.1384 173.94 69.2458 173.786 69.8128C173.478 70.9114 173.478 73.9934 173.478 76.793V85.2627V85.2627Z" fill="#081E3F"/>
<path d="M181.089 86.1819C181.089 89.9383 181.287 90.0435 182.32 90.2583L182.803 90.3635C182.957 90.6116 182.935 91.2484 182.76 91.3912C181.792 91.3204 180.803 91.2849 179.836 91.2849C178.869 91.2849 177.836 91.3204 176.869 91.3912C176.693 91.2484 176.671 90.6116 176.825 90.3635L177.309 90.2583C178.342 90.0435 178.539 89.9383 178.539 86.1819V73C178.539 69.2447 178.342 69.1373 177.309 68.9247L176.825 68.8183C176.671 68.5703 176.693 67.9324 176.869 67.7918C177.836 67.8626 178.825 67.897 179.836 67.897C180.803 67.897 181.792 67.8626 182.76 67.7918C182.935 67.9324 182.957 68.5703 182.803 68.8183L182.32 68.9247C181.287 69.1373 181.089 69.2447 181.089 73V86.1819V86.1819Z" fill="#081E3F"/>
<path d="M193.57 82.5052C192.669 85.73 191.657 89.8752 191.284 91.6825C191.24 91.7888 191.065 91.8597 190.91 91.8597C190.756 91.8597 190.603 91.7888 190.493 91.6825C190.229 90.2661 189.877 88.5285 189.482 87.0412L185.636 72.1229C185.02 69.7475 184.822 69.2525 183.943 68.9679L183.416 68.7918C183.262 68.5437 183.262 67.9047 183.482 67.7995C184.339 67.8704 185.284 67.9047 186.141 67.9047C187.13 67.9047 187.878 67.8704 189.042 67.7995C189.24 68.011 189.262 68.578 189.064 68.8261L188.515 69.0387C188.031 69.2159 187.856 69.3931 187.856 69.6766C187.856 69.9967 188.031 70.7752 188.932 74.3899L190.515 80.6967C190.91 82.2925 191.504 84.3823 191.723 85.1984C192.91 80.7333 194.229 75.8428 195.394 71.0244C195.746 69.6068 195.68 69.3233 195.02 69.0753L194.383 68.8261C194.229 68.5437 194.251 67.9767 194.427 67.7995C195.328 67.8704 196.075 67.9047 196.779 67.9047C197.569 67.9047 198.295 67.8704 198.91 67.7995C199.086 67.9767 199.064 68.5437 198.955 68.8261L198.405 69.0044C197.9 69.1816 197.416 69.4285 197.043 70.4574C196.427 72.1573 195.812 74.5327 194.801 78.1097L193.57 82.5052V82.5052Z" fill="#081E3F"/>
<path d="M201.05 73.0034C201.05 69.2481 200.852 69.1063 199.819 68.8937L199.467 68.8228C199.314 68.5736 199.336 67.9369 199.512 67.7951C200.346 67.866 201.38 67.9014 202.347 67.9014H206.545C207.952 67.9014 209.226 67.866 209.512 67.7951C209.599 68.3976 209.732 71.1972 209.863 72.7199C209.775 73.0034 209.336 73.0754 209.161 72.8627C208.809 70.8073 208.478 69.9557 207.776 69.6379C207.27 69.4253 206.611 69.3189 206.017 69.3189H204.545C203.6 69.3189 203.6 69.3887 203.6 71.4098V77.3988C203.6 78.3202 203.622 78.3545 204.127 78.3545H205.182C207.094 78.3545 207.423 78.3202 207.621 76.7952L207.776 75.5904C207.952 75.3423 208.369 75.3423 208.478 75.6258C208.456 76.5826 208.413 77.8595 208.413 79.1696C208.413 80.5162 208.456 81.7566 208.478 82.8906C208.369 83.1386 207.952 83.1386 207.776 82.926L207.621 81.5085C207.468 80.0201 207.094 79.9492 205.182 79.9492H204.127C203.622 79.9492 203.6 80.0201 203.6 80.9061V85.4056C203.6 87.214 203.644 88.4887 203.973 89.0911C204.237 89.5884 204.611 89.8353 206.457 89.8719C209.248 89.9073 209.732 88.9139 210.501 86.0435C210.698 85.7965 211.072 85.9028 211.204 86.2572C211.072 87.7456 210.589 90.4378 210.281 91.3946C209.314 91.3237 207.423 91.2894 204.852 91.2894H202.347C201.38 91.2894 200.039 91.3237 199.05 91.3946C198.875 91.2528 198.853 90.615 199.006 90.368L199.819 90.2251C200.852 90.0479 201.05 89.9416 201.05 86.1852V73.0034V73.0034Z" fill="#081E3F"/>
<path d="M216.786 78.319C216.786 79.4519 216.786 79.5239 217.841 79.5239C219.995 79.5239 220.984 77.8218 220.984 74.4563C220.984 71.6567 219.864 69.2103 217.951 69.2103C216.808 69.2103 216.786 69.3178 216.786 70.9479V78.319V78.319ZM214.237 73.2159C214.237 69.8139 214.215 69.3886 213.182 69.2103L212.611 69.1051C212.456 68.8571 212.456 68.289 212.632 68.1129C214.017 67.9003 215.885 67.7939 217.687 67.7939C219.402 67.7939 220.896 68.1483 221.864 68.9988C222.984 69.9545 223.797 71.6201 223.797 74.1728C223.797 77.432 222.237 79.0632 221.16 79.7709C221.028 79.8772 221.072 80.1607 221.16 80.3733C222.919 85.1574 224.017 88.1697 225.05 89.5518C225.666 90.4012 226.303 90.6149 226.567 90.6503C226.677 90.7921 226.677 91.1808 226.611 91.358C226.347 91.4654 225.929 91.5717 225.16 91.5717C223.05 91.5717 221.908 90.1896 220.567 86.8928C219.973 85.4044 219.358 83.4564 218.83 82.0743C218.435 81.0123 218.193 80.8694 217.468 80.8694C216.808 80.8694 216.786 80.9049 216.786 81.6491V86.1851C216.786 89.9405 216.984 90.0468 218.017 90.2605L218.501 90.3668C218.655 90.6149 218.632 91.2517 218.457 91.3945C217.49 91.3225 216.501 91.2882 215.534 91.2882C214.566 91.2882 213.577 91.3225 212.566 91.3945C212.39 91.2517 212.325 90.6149 212.523 90.3668L213.006 90.2605C214.039 90.0468 214.237 89.9405 214.237 86.1851V73.2159V73.2159Z" fill="#081E3F"/>
<path d="M227.515 90.368C227.12 89.6238 226.834 87.1775 226.856 84.9814C226.988 84.627 227.361 84.5916 227.537 84.8397C227.933 86.647 229.12 90.4389 231.274 90.4389C232.944 90.4389 233.889 88.8087 233.889 86.647C233.889 84.627 233.295 82.9969 231.648 81.5085L230.702 80.658C229.054 79.1707 227.603 77.0079 227.603 73.8196C227.603 70.3112 229.23 67.3344 232.439 67.3344C233.581 67.3344 234.416 67.7597 235.449 68.0786C235.691 68.8582 235.912 71.1971 235.912 72.8627C235.802 73.1806 235.406 73.2171 235.208 72.969C234.879 71.1263 234.109 68.7508 232.241 68.7508C230.482 68.7508 229.757 70.5947 229.757 72.4729C229.757 73.9613 230.394 75.556 231.845 76.7952L233.208 77.9658C234.636 79.1707 236.219 81.3667 236.219 84.9449C236.219 88.9859 234.307 91.8564 231.12 91.8564C229.098 91.8564 227.955 90.7932 227.515 90.368" fill="#081E3F"/>
<path d="M242.283 86.1819C242.283 89.9383 242.481 90.0435 243.514 90.2583L243.998 90.3635C244.152 90.6116 244.13 91.2484 243.954 91.3912C242.987 91.3204 241.998 91.2849 241.031 91.2849C240.064 91.2849 239.031 91.3204 238.064 91.3912C237.888 91.2484 237.865 90.6116 238.02 90.3635L238.503 90.2583C239.536 90.0435 239.734 89.9383 239.734 86.1819V73C239.734 69.2447 239.536 69.1373 238.503 68.9247L238.02 68.8183C237.865 68.5703 237.888 67.9324 238.064 67.7918C239.031 67.8626 240.02 67.897 241.031 67.897C241.998 67.897 242.987 67.8626 243.954 67.7918C244.13 67.9324 244.152 68.5703 243.998 68.8183L243.514 68.9247C242.481 69.1373 242.283 69.2447 242.283 73V86.1819V86.1819Z" fill="#081E3F"/>
<path d="M251.185 70.8771C251.185 69.3887 251.163 69.3189 250.592 69.3189H249.361C247.339 69.3189 246.745 69.7077 245.933 72.5781C245.779 72.7919 245.317 72.6856 245.229 72.3301C245.603 70.4164 245.933 68.2204 246.086 66.9789C246.13 66.8737 246.218 66.8383 246.328 66.8383C246.416 66.8383 246.504 66.8737 246.547 66.9789C246.657 67.866 246.966 67.9003 248.46 67.9003H257.427C258.504 67.9003 258.834 67.7951 259.098 66.9789C259.186 66.9092 259.273 66.8383 259.361 66.8383C259.493 66.8383 259.603 66.9092 259.647 67.0155C259.427 68.4673 259.251 71.515 259.317 72.6501C259.207 72.9325 258.834 73.0034 258.637 72.7553C258.351 69.9923 257.932 69.3189 255.581 69.3189H254.328C253.757 69.3189 253.735 69.3887 253.735 70.8771V86.1852C253.735 89.9416 253.933 90.0479 254.966 90.2251L255.756 90.368C255.911 90.615 255.889 91.2517 255.713 91.3946C254.438 91.3237 253.449 91.2894 252.482 91.2894C251.514 91.2894 250.482 91.3237 249.075 91.3946C248.899 91.2517 248.878 90.5452 249.031 90.368L249.954 90.1908C250.987 89.9771 251.185 89.9416 251.185 86.1852V70.8771Z" fill="#081E3F"/>
<path d="M265.452 84.0999C265.452 82.1154 265.342 81.5849 264.748 79.7056L262.111 71.3079C261.627 69.7841 261.451 69.3943 260.462 69.0388L259.891 68.8273C259.759 68.5781 259.803 67.9059 259.979 67.7996C260.924 67.8715 261.847 67.9059 262.748 67.9059C263.715 67.9059 265.056 67.8715 265.561 67.7996C265.737 67.9413 265.781 68.5781 265.606 68.8273L264.946 69.0044C264.594 69.1108 264.485 69.1816 264.485 69.4651C264.485 69.7486 264.551 70.1385 264.88 71.3079C265.737 74.3556 266.551 77.2261 267.429 79.813C268.33 77.1186 269.144 74.6391 270.001 71.9812C270.375 70.7763 270.594 69.9978 270.594 69.6069C270.594 69.2536 270.397 69.1462 270.089 69.0764L269.429 68.8273C269.276 68.5781 269.276 67.9767 269.495 67.7996C270.463 67.8715 271.144 67.9059 271.803 67.9059C272.485 67.9059 273.188 67.8715 273.891 67.7996C274.089 67.9767 274.089 68.5438 273.935 68.8273L273.298 69.0388C272.308 69.3588 272.045 69.9978 270.902 73.1141C270.155 75.1341 269.495 77.0832 268.815 79.0688C268.155 80.9105 268.001 81.6547 268.001 84.0656V86.1908C268.001 89.9461 268.199 90.0524 269.276 90.2296L270.111 90.3724C270.265 90.6205 270.243 91.2573 270.067 91.4001C268.704 91.3282 267.715 91.2938 266.749 91.2938C265.737 91.2938 264.748 91.3282 263.561 91.4001C263.386 91.2573 263.364 90.6205 263.517 90.3724L264.221 90.2296C265.254 90.0181 265.452 89.9461 265.452 86.1908V84.0999V84.0999Z" fill="#081E3F"/>
</svg>
