<svg width="280" height="84" viewBox="0 0 280 84" fill="none" xmlns="http://www.w3.org/2000/svg">
<path d="M3.88999 2.70006V4.28129L6.111 3.50509V3.47528L3.88999 2.70006ZM7.7882 4.03253L5.90913 4.7192C4.67702 5.16667 3.424 5.6042 2.41417 5.98224C1.51575 6.32055 1.44425 6.45952 1.3849 7.0364H1.10181V4.42027H1.3849L1.42527 4.69908C1.48608 5.07761 1.58677 5.09725 1.97104 4.97752C2.27165 4.87829 2.89914 4.63922 3.424 4.43033V2.58991C3.11998 2.46001 2.55671 2.28178 2.13253 2.1428C1.59552 1.9631 1.46371 2.0432 1.41312 2.48111L1.3849 2.75943H1.10181V0.551147H1.3849C1.46371 1.16728 1.50504 1.27743 2.41417 1.62529L7.66512 3.63536L7.7882 4.03253Z" fill="#A20641"/>
<path d="M2.63696 9.41977C1.70691 9.41977 1.51575 9.51995 1.51575 10.2861C1.51575 11.9362 2.69581 12.7924 4.37446 12.7924C6.53662 12.7924 7.28134 11.7183 7.28134 10.1265C7.28134 9.79778 7.24242 9.53955 7.19232 9.48021C7.14027 9.41977 6.95932 9.41977 6.69519 9.41977H2.63696ZM7.66512 10.4442C7.66512 11.5587 7.42483 12.5735 6.77837 13.23C6.31286 13.688 5.56523 14.066 4.67702 14.066C2.19334 14.066 1.10181 12.1758 1.10181 9.84773V7.41028H1.3849C1.44425 8.22721 1.52596 8.30571 2.61604 8.30571H6.14942C7.24242 8.30571 7.32414 8.22721 7.38349 7.48928H7.66512V10.4442Z" fill="#A20641"/>
<path d="M4.45332 19.2246C3.82876 19.2246 3.32336 18.7373 3.32336 18.1403C3.32336 17.5432 3.82876 17.0459 4.45332 17.0459C5.07011 17.0459 5.58621 17.5432 5.58621 18.1403C5.58621 18.7373 5.07011 19.2246 4.45332 19.2246Z" fill="#A20641"/>
<path d="M7.66512 23.5317L2.84855 25.73L7.66512 27.8086V29.6887H7.38349C7.30177 28.8839 7.26334 28.8436 6.14942 28.8633L2.61604 28.9628C1.48608 28.9926 1.46371 29.0228 1.3849 29.8287H1.10181V27.0525H1.3849C1.46371 27.8292 1.48608 27.8588 2.61604 27.8484L6.49381 27.8086V27.7693L1.22341 25.5102V25.213L6.29194 23.034V22.9941L3.67743 22.9242C2.76733 22.905 2.2128 22.9146 1.90975 22.9549C1.52596 22.9941 1.44425 23.2026 1.3849 23.8599H1.10181V21.5021H1.3849C1.42527 21.9994 1.52596 22.1983 1.90975 22.2677C2.2128 22.3181 2.80721 22.3976 3.7786 22.4469L5.85758 22.5562C7.20253 22.6261 7.30177 22.5562 7.38349 21.7013H7.66512V23.5317Z" fill="#A20641"/>
<path d="M3.88645 32.4891L3.90737 34.0702L6.11816 33.2658V33.236L3.88645 32.4891ZM7.80461 33.7708L5.93138 34.4819C4.70803 34.9461 3.46084 35.4009 2.45735 35.7913C1.56281 36.1406 1.4947 36.2815 1.4412 36.8593L1.15811 36.8632L1.1226 34.2476L1.4057 34.2427L1.45044 34.5217C1.51562 34.8982 1.61632 34.917 1.99865 34.7923C2.29975 34.6893 2.92286 34.442 3.44624 34.2255L3.42095 32.3856C3.11547 32.2609 2.54781 32.0885 2.1222 31.9543C1.58373 31.7833 1.45337 31.8653 1.40861 32.3027L1.38187 32.5811L1.10022 32.5859L1.06909 30.377L1.35364 30.3735C1.44266 30.9888 1.48304 31.0987 2.39751 31.435L7.67667 33.374L7.80461 33.7708Z" fill="#A20641"/>
<path d="M6.49959 36.8471C7.54055 36.5271 7.5926 36.4269 7.40094 35.6215L7.67091 35.5386L8.51923 38.218L8.24926 38.3012C7.9793 37.6429 7.8786 37.5912 6.8362 37.9123L3.72211 38.8686C2.66803 39.1916 1.80317 39.3645 0.910586 38.721C0.584195 38.4882 0.26121 38.1705 0 37.7498L0.233484 37.5538C0.734013 38.0976 1.24719 38.2122 1.79442 38.1686C2.28814 38.1207 2.85434 37.9674 3.50858 37.7665L6.49959 36.8471Z" fill="#A20641"/>
<path d="M5.75539 40.8485C4.22023 41.827 3.47162 43.25 4.24844 44.4369C4.8195 45.3056 5.99373 45.5059 7.58968 44.4901C9.35543 43.3679 9.89244 42.042 9.1584 40.9227C8.57712 40.0369 7.25892 39.8951 5.75539 40.8485ZM8.61555 45.376C6.80947 46.5264 4.81367 46.0314 3.77272 44.4436C2.69285 42.7982 3.22986 40.9179 4.77183 39.9358C6.16446 39.0507 8.37964 39.0018 9.66867 40.9664C10.6147 42.4115 10.2704 44.3247 8.61555 45.376Z" fill="#A20641"/>
<path d="M10.6279 46.8714L10.9197 47.1128C11.2301 47.3686 11.485 47.5 11.8172 47.5139C12.3333 47.5243 12.7511 47.2464 13.0628 46.8814C13.7332 46.0859 13.4098 45.3542 12.9145 44.9465C12.5425 44.6403 12.502 44.659 12.2949 44.902L10.6279 46.8714ZM13.3548 44.8152C13.9185 45.2795 14.2683 45.6725 14.4109 46.1262C14.5456 46.5733 14.4834 47.0654 14.1009 47.5148C13.5596 48.1558 12.775 48.2747 11.9534 47.9886C11.894 48.3039 11.7462 49.0864 11.7029 49.6331C11.6407 50.2948 11.6095 50.7347 11.629 51.0087C11.6601 51.3446 11.6848 51.5607 11.8643 51.7998L11.6659 51.9727L11.3546 51.6887C10.5612 50.9335 10.4781 50.5042 10.5374 49.8281C10.588 49.2733 10.7466 48.5751 10.8575 47.993C10.9139 47.6792 10.8876 47.5249 10.6532 47.3341L10.4056 47.131L9.5393 48.1535C8.8427 48.9775 8.85293 49.0893 9.40164 49.6192L9.22065 49.8323L7.03467 48.0366L7.21707 47.822C7.87715 48.2872 7.99001 48.2761 8.68801 47.4525L10.9513 44.7817C11.6479 43.9585 11.6377 43.8469 11.089 43.3174L11.2685 43.1033L13.3548 44.8152Z" fill="#A20641"/>
<path d="M19.6525 49.07C19.5888 49.2191 19.2551 49.8779 18.9988 50.4438L18.7259 50.3129C18.8772 49.8502 18.9112 49.5488 18.8547 49.3447C18.7911 49.1147 18.5391 48.9053 17.9948 48.5999L17.5546 48.3541C17.2224 48.1683 17.2043 48.1583 17.0239 48.4692L15.9678 50.3029L16.7213 50.7264C17.4773 51.1482 17.5235 51.1065 17.9963 50.4902L18.2779 50.647L17.2194 52.4816L16.9374 52.3235C17.2446 51.5904 17.2476 51.5453 16.4913 51.1232L15.7363 50.7L14.9162 52.1194C14.6288 52.6206 14.5237 52.8826 14.6171 53.0834C14.7148 53.2756 15.0262 53.4609 15.3939 53.668C15.834 53.9138 16.2583 54.1054 16.5687 53.9919C16.8098 53.9118 17.129 53.701 17.52 53.37L17.753 53.5683C17.5487 53.8437 16.8453 54.6167 16.6367 54.8203L12.3508 52.4218L12.4905 52.1788C13.2731 52.5487 13.3859 52.5204 13.9243 51.5856L15.6712 48.5583C16.2112 47.6244 16.18 47.5161 15.5423 47.0903L15.6814 46.8478L19.6525 49.07Z" fill="#A20641"/>
<path d="M22.0404 50.1487L22.3206 55.3705L26.0703 51.7376L27.8429 52.438L27.7374 52.6959C26.9484 52.4688 26.8953 52.4928 26.5023 53.5153L25.2805 56.7845C24.8889 57.8286 24.9077 57.8577 25.6375 58.2305L25.5338 58.4912L22.9194 57.4591L23.0248 57.2C23.7837 57.4141 23.8212 57.4073 24.2303 56.3695L25.636 52.81L25.5961 52.7946L21.5121 56.7739L21.2305 56.6638L21.0627 51.2192L21.0243 51.2034L19.9847 53.5684C19.6291 54.3931 19.4317 54.9038 19.3562 55.1956C19.2521 55.5617 19.4184 55.7137 20.0145 56.013L19.9093 56.2723L17.6879 55.3954L17.7934 55.1367C18.2778 55.2847 18.5021 55.2655 18.7093 54.9407C18.8699 54.6824 19.1661 54.1683 19.5727 53.2997L20.4503 51.4391C21.0155 50.2364 20.9888 50.1181 20.2104 49.7271L20.3156 49.4669L22.0404 50.1487Z" fill="#A20641"/>
<path d="M32.5671 57.1452C32.3716 57.7322 31.7426 58.0538 31.1672 57.8658C30.5938 57.6804 30.2703 57.0518 30.4657 56.4657C30.6574 55.8889 31.2981 55.5621 31.8735 55.7494C32.4499 55.9364 32.7598 56.5693 32.5671 57.1452Z" fill="#A20641"/>
<path d="M38.2836 56.9775C38.6469 57.8199 38.8132 57.956 39.5307 57.6569C41.0742 57.0107 41.4126 55.6063 40.7585 54.0855C39.9135 52.1261 38.6172 51.8674 37.1283 52.4899C36.8228 52.6173 36.5961 52.7548 36.5606 52.8253C36.5247 52.8937 36.5961 53.0581 36.6983 53.2967L38.2836 56.9775ZM37.3851 52.005C38.4392 51.5987 39.486 51.4507 40.3421 51.8047C40.9438 52.0648 41.5742 52.613 41.8971 53.4276C42.8019 55.7079 41.4126 57.3963 39.2122 58.2449L36.9075 59.1309L36.8038 58.873C37.5539 58.5195 37.5987 58.4165 37.2027 57.4159L35.9142 54.1731C35.5182 53.1727 35.4126 53.1276 34.6952 53.3399L34.5911 53.0807L37.3851 52.005Z" fill="#A20641"/>
<path d="M44.7442 48.6934C44.8368 48.8257 45.2132 49.4615 45.5528 49.9833L45.2933 50.1366C44.9802 49.7581 44.7442 49.564 44.5413 49.4988C44.3104 49.4256 43.9942 49.518 43.4382 49.7993L42.9888 50.0254C42.6464 50.198 42.6268 50.2075 42.7947 50.5257L43.769 52.4025L44.5428 52.0125C45.3153 51.6234 45.3066 51.5606 45.041 50.8332L45.3303 50.6895L46.3048 52.5653L46.0183 52.7101C45.5615 52.0556 45.526 52.0306 44.7549 52.4212L43.9825 52.8103L44.736 54.2616C45.0026 54.7762 45.1685 55.0047 45.3897 55.0392C45.6077 55.065 45.9355 54.9085 46.312 54.7177C46.7615 54.4924 47.1574 54.2466 47.2314 53.9314C47.2965 53.6861 47.2936 53.3075 47.224 52.805L47.5208 52.7221C47.6419 53.0417 47.9147 54.0445 47.9698 54.3282L43.5852 56.5418L43.4563 56.2947C44.2005 55.851 44.2374 55.7441 43.7378 54.7872L42.1287 51.6886C41.6306 50.7331 41.5221 50.6981 40.8105 50.9895L40.6846 50.7418L44.7442 48.6934Z" fill="#A20641"/>
<path d="M47.9167 46.7955L48.0644 47.0322C47.4433 47.4812 47.4165 47.5915 47.9919 48.5057L49.8531 51.4664C50.4286 52.3801 50.5393 52.4073 51.2247 52.0595L51.3732 52.2962L48.9498 53.7729L48.8033 53.5377C49.4391 53.0777 49.4659 52.969 48.8904 52.0541L47.0299 49.0921C46.4558 48.1784 46.3445 48.1516 45.6431 48.511L45.4933 48.2733L47.9167 46.7955Z" fill="#A20641"/>
<path d="M53.2504 46.6335C53.6405 47.1166 53.568 47.8088 53.0932 48.1806C52.6204 48.5515 51.9097 48.4724 51.5196 47.9891C51.1359 47.5147 51.2113 46.8084 51.6846 46.438C52.1588 46.0652 52.8676 46.1592 53.2504 46.6335Z" fill="#A20641"/>
<path d="M60.1065 40.3519C60.4533 40.4631 60.7617 40.5609 60.9816 40.5704C60.9621 41.2111 60.9412 42.0405 60.7038 42.7607C60.0087 44.8699 58.2648 45.8702 56.3459 45.2561C54.157 44.5551 53.5801 42.4684 54.1925 40.6141C54.4611 39.8 54.8526 39.1939 55.0424 38.8777C55.376 38.9634 55.8935 39.066 56.647 39.2236L56.5863 39.5393C55.2948 39.398 54.7831 40.1134 54.5277 40.8881C54.0962 42.1933 54.8108 43.4057 56.5595 43.9643C58.0377 44.439 59.7714 44.303 60.3396 42.5804C60.4402 42.2776 60.4596 42.0861 60.4431 41.9136C60.4251 41.7098 60.286 41.5819 59.9017 41.4592L59.0967 41.2C58.4424 40.9917 58.3729 41.0108 57.9652 41.9887L57.6773 41.8958L58.545 39.2666L58.8326 39.3586C58.7465 39.8752 58.7718 39.9256 59.445 40.1402L60.1065 40.3519Z" fill="#A20641"/>
<path d="M55.4888 35.0986L55.7689 35.1379C55.714 35.9334 55.7827 36.0233 56.8635 36.1744L60.3438 36.6616C60.9231 36.743 61.2112 36.7229 61.3566 36.5725C61.4985 36.422 61.5657 36.1 61.6114 35.7833C61.6781 35.331 61.8134 34.1302 61.5925 33.8883C61.4261 33.6943 61.1089 33.4896 60.6522 33.2649L60.7573 32.9587C61.0685 33.0621 62.058 33.4211 62.3454 33.5414L61.5745 38.8839L61.2929 38.8446C61.3521 38.009 61.2836 37.9184 60.2043 37.7679L56.7044 37.2783C55.625 37.1273 55.5331 37.1949 55.3585 37.9749L55.0792 37.9352L55.4888 35.0986Z" fill="#A20641"/>
<path d="M58.7557 31.4532C60.5779 31.5764 62.0443 30.8778 62.1411 29.4687C62.2123 28.4356 61.3906 27.5827 59.4969 27.4557C57.4 27.3144 56.1649 28.0589 56.073 29.3885C56.0001 30.4402 56.97 31.3344 58.7557 31.4532ZM59.2139 26.1395C61.3595 26.2848 62.6583 27.8573 62.5264 29.7432C62.3917 31.6972 60.8211 32.8892 58.9866 32.7661C57.3334 32.6554 55.5302 31.3861 55.6916 29.0542C55.8104 27.3374 57.2487 26.0078 59.2139 26.1395Z" fill="#A20641"/>
<path d="M59.1885 23.9138V23.5356C59.1885 23.1375 59.1292 22.8592 58.9259 22.6009C58.6028 22.2027 58.1179 22.0632 57.633 22.0632C56.5833 22.0632 56.2199 22.7796 56.2199 23.4164C56.2199 23.8941 56.2598 23.9138 56.5833 23.9138H59.1885ZM55.8357 23.1668C55.8357 22.4409 55.9173 21.9239 56.1795 21.5257C56.4422 21.1377 56.8664 20.8698 57.4607 20.8698C58.3106 20.8698 58.9069 21.3868 59.2089 22.1931C59.4926 22.0331 60.1999 21.6455 60.6537 21.3269C61.2081 20.9493 61.573 20.69 61.7729 20.5018C62.0166 20.2631 62.1689 20.1036 62.2389 19.8146L62.5026 19.8545L62.4821 20.2723C62.4003 21.3571 62.1173 21.6953 61.5521 22.083C61.0866 22.4015 60.4431 22.7298 59.9162 23.0188C59.6332 23.1778 59.5324 23.2976 59.5324 23.5947V23.9138H60.8861C61.9762 23.9138 62.0579 23.8343 62.1173 23.0777H62.4003V25.8836H62.1173C62.0579 25.0877 61.9762 25.0086 60.8861 25.0086H57.3514C56.2598 25.0086 56.1795 25.0877 56.1192 25.8433H55.8357V23.1668Z" fill="#A20641"/>
<path d="M55.8357 16.3309H56.1192C56.1795 17.086 56.2598 17.1671 57.3514 17.1671H60.8861C61.9762 17.1671 62.0579 17.086 62.1173 16.3309H62.4003V19.1364H62.1173C62.0579 18.3606 61.9762 18.2812 60.8861 18.2812H57.3514C56.2598 18.2812 56.1795 18.3606 56.1192 19.1364H55.8357V16.3309Z" fill="#A20641"/>
<path d="M59.6141 13.6721V12.091L57.3912 12.8673V12.896L59.6141 13.6721ZM55.714 12.3386L57.5931 11.653C58.8251 11.2051 60.0782 10.7676 61.0866 10.3896C61.9864 10.0508 62.0579 9.91178 62.1173 9.33496H62.4003V11.9515H62.1173L62.0755 11.6728C62.0165 11.295 61.9139 11.2754 61.5317 11.3943C61.2306 11.494 60.603 11.7326 60.0782 11.9415V13.7819C60.3808 13.9113 60.946 14.0901 61.3717 14.2299C61.9052 14.4076 62.037 14.3291 62.089 13.8915L62.1173 13.6133H62.4003V15.8212H62.1173C62.037 15.2041 61.9971 15.0952 61.0866 14.7469L55.8357 12.7374L55.714 12.3386Z" fill="#A20641"/>
<path d="M55.8357 6.70871L60.6537 4.51086L55.8357 2.43087V0.551207H56.1192C56.199 1.35709 56.2404 1.39683 57.3514 1.37672L60.8861 1.27748C62.0166 1.24682 62.037 1.21714 62.1173 0.412231H62.4003V3.18794H62.1173C62.037 2.41125 62.0166 2.38107 60.8861 2.39199L57.0069 2.43087V2.4711L62.2788 4.7298V5.02787L57.2088 7.20646V7.24585L59.8263 7.31625C60.7334 7.3349 61.2899 7.32582 61.5925 7.28559C61.9762 7.24585 62.0579 7.03732 62.1173 6.38145H62.4003V8.73839H62.1173C62.0755 8.241 61.9762 8.04217 61.5925 7.97262C61.2899 7.92331 60.6935 7.84284 59.7236 7.79304L57.6431 7.68424C56.2997 7.61481 56.199 7.68424 56.1192 8.53956H55.8357V6.70871Z" fill="#A20641"/>
<path d="M17.842 12.9238C18.2084 12.9238 18.5021 12.6247 18.5021 12.2567C18.5021 11.8883 18.2084 11.5894 17.842 11.5894C17.4758 11.5894 17.1796 11.8883 17.1796 12.2567C17.1796 12.6247 17.4758 12.9238 17.842 12.9238Z" fill="#A20641"/>
<path d="M17.842 14.1869C17.4432 14.1869 17.1232 14.5169 17.1232 14.9246C17.1232 15.3253 17.4432 15.6458 17.842 15.6458C18.2395 15.6458 18.5585 15.3253 18.5585 14.9246C18.5585 14.5169 18.2395 14.1869 17.842 14.1869Z" fill="#A20641"/>
<path d="M28.3483 11.9098C27.5667 11.9098 27.3818 13.1301 27.3818 13.6869C27.3818 14.2441 27.5667 15.479 28.3483 15.479C29.1314 15.479 29.3182 14.2441 29.3182 13.6869C29.3182 13.1301 29.1314 11.9098 28.3483 11.9098Z" fill="#A20641"/>
<path d="M23.9457 20.6361H25.1169L24.8758 20.2379L23.9457 20.6361Z" fill="#A20641"/>
<path d="M38.0492 20.1319C38.43 19.7976 38.3873 19.7549 38.9417 19.6711C39.4947 19.5872 40.3475 20.3423 40.26 20.0903C40.1768 19.8392 40.0906 19.0837 40.0064 18.3289C39.9306 17.6509 42.1769 20.8037 42.1769 20.8037C45.0716 26.2134 44.2652 29.8625 44.2652 29.8625C46.1797 30.7426 46.1797 32.7839 46.1797 32.2529C46.1797 29.2108 45.1621 29.4255 45.204 27.5046C45.2438 25.5856 47.3301 25.7514 47.3301 25.7514C48.1488 25.763 48.3949 26.2559 48.3949 26.2559C48.3949 26.2559 47.9829 26.1701 47.8165 26.3886C47.8165 26.3886 47.1969 26.8318 48.3087 29.4433C48.533 29.9689 49.522 31.8046 48.3283 33.1312C47.4829 34.0693 46.1364 33.7211 46.1364 33.7211C46.0517 34.2242 46.009 34.4743 46.009 34.4743H46.9877C47.8836 34.5179 47.925 35.4824 47.925 35.4824V39.5514L47.243 40.2212H44.9874C44.9457 39.2145 46.2653 38.7953 46.2653 38.7953V37.0334H44.1777C43.0715 36.9506 42.4765 34.8528 42.4765 34.8528L41.6671 34.9377C41.6244 35.0632 42.8165 37.2016 42.8165 37.2016L40.3889 39.4665V40.1373H37.7509C37.6235 39.5072 38.8984 38.9624 38.8984 38.9624L40.5596 37.2016C40.7716 36.9745 40.6233 36.7435 40.3358 36.65C40.0196 36.548 39.7662 36.4766 39.4116 36.343C39.0512 36.2079 37.536 35.273 38.1766 33.4686C38.8035 31.6962 40.9005 32.4207 40.9005 32.2103C40.9005 32.0023 39.7943 29.4853 39.7943 29.4853L40.6885 28.184L39.6223 28.8557L36.8136 28.3517C36.5154 30.7014 35.4078 30.1135 35.4078 30.1135V28.3517C35.4078 28.3517 35.4497 27.1931 36.5154 26.8424C37.7923 26.4241 38.6863 26.6742 39.0691 26.5904C39.4529 26.5065 39.3421 26.1722 39.3421 26.1722L37.6649 26.2134L36.1744 24.9968L35.3651 24.9129C33.8746 24.6623 34.4291 23.5297 34.4291 23.5297C34.4291 23.5297 35.7488 23.5297 36.5587 23.5297C37.3653 23.5297 39.4529 25.0389 39.4529 25.0389C39.4529 25.0389 39.7512 23.3615 38.1766 22.7744C36.6001 22.188 36.941 21.727 36.941 21.727L38.43 22.2297C38.43 22.2297 38.6022 22.0615 38.3467 21.6839C38.2092 21.4807 37.0242 21.0553 37.0242 21.0553C36.0884 20.7198 36.3865 19.9652 36.3865 19.9652L38.0492 20.1319ZM36.2441 32.8548V36.0081C36.2441 36.0081 36.2969 37.6516 34.8899 39.0386C33.4271 40.4784 31.7903 40.3251 31.7655 40.3228C31.7407 40.3251 30.1053 40.4784 28.6412 39.0386C27.2325 37.6516 27.2855 36.0081 27.2855 36.0081V32.8548C27.2855 32.8548 26.8887 32.7517 26.8691 32.3666C26.8424 31.8787 27.3643 31.9563 27.3643 31.9563H28.4067C28.3547 33.0359 29.0342 32.9065 29.0342 32.9065C29.7624 32.9314 29.6068 31.9563 29.6068 31.9563H31.7612H31.7699H33.9247C33.9247 31.9563 33.7656 32.9314 34.4972 32.9065C34.4972 32.9065 35.1749 33.0359 35.1242 31.9563H36.1667C36.1667 31.9563 36.6871 31.8787 36.6603 32.3666C36.6414 32.7517 36.2441 32.8548 36.2441 32.8548ZM23.7322 29.4853C23.7322 29.4853 22.626 32.0023 22.626 32.2103C22.626 32.4207 24.7225 31.6962 25.35 33.4686C25.9892 35.273 24.4735 36.2079 24.1165 36.343C23.759 36.4766 23.5056 36.548 23.1908 36.65C22.9049 36.7435 22.7549 36.9745 22.9671 37.2016L24.6263 38.9624C24.6263 38.9624 25.9045 39.5072 25.7756 40.1373H23.1363V39.4665L20.7086 37.2016C20.7086 37.2016 21.9008 35.0632 21.8594 34.9377L21.0516 34.8528C21.0516 34.8528 20.4537 36.9506 19.3475 37.0334H17.2607V38.7953C17.2607 38.7953 18.581 39.2145 18.5361 40.2212H16.2822L15.6001 39.5514V35.4824C15.6001 35.4824 15.643 34.5179 16.5375 34.4743H17.5147C17.5147 34.4743 17.4728 34.2242 17.3883 33.7211C17.3883 33.7211 16.0418 34.0693 15.1969 33.1312C14.0032 31.8046 14.9922 29.9689 15.2173 29.4433C16.3283 26.8318 15.71 26.3886 15.71 26.3886C15.5437 26.1701 15.1317 26.2559 15.1317 26.2559C15.1317 26.2559 15.376 25.763 16.1946 25.7514C16.1946 25.7514 18.2813 25.5856 18.3227 27.5046C18.3641 29.4255 17.3454 29.2108 17.3454 32.2529C17.3454 32.7839 17.3454 30.7426 19.2629 29.8625C19.2629 29.8625 18.4545 26.2134 21.3491 20.8037C21.3491 20.8037 23.5954 17.6509 23.5187 18.3289C23.434 19.0837 23.3479 19.8392 23.2652 20.0903C23.1792 20.3423 24.0305 19.5872 24.5834 19.6711C25.1364 19.7549 25.0951 19.7976 25.4789 20.1319L27.1387 19.9652C27.1387 19.9652 27.4363 20.7198 26.5009 21.0553C26.5009 21.0553 25.316 21.4807 25.1793 21.6839C24.9259 22.0615 25.0951 22.2297 25.0951 22.2297L26.585 21.727C26.585 21.727 26.9251 22.188 25.35 22.7744C23.7735 23.3615 24.0731 25.0389 24.0731 25.0389C24.0731 25.0389 26.1595 23.5297 26.9679 23.5297C27.7772 23.5297 29.0974 23.5297 29.0974 23.5297C29.0974 23.5297 29.6505 24.6623 28.1615 24.9129L27.3508 24.9968L25.8618 26.2134L24.1831 26.1722C24.1831 26.1722 24.0731 26.5065 24.4546 26.5904C24.8383 26.6742 25.7328 26.4241 27.0091 26.8424C28.077 27.1931 28.1174 28.3517 28.1174 28.3517V30.1135C28.1174 30.1135 27.0091 30.7014 26.7131 28.3517L23.9029 28.8557L22.8367 28.184L23.7322 29.4853ZM14.5159 16.7338H12.9978V12.0851H12.3615L12.6135 10.7655H14.5159V16.7338ZM15.7943 12.2093C15.7943 11.0794 16.8128 10.5217 17.842 10.5217C18.8684 10.5217 19.8885 11.0794 19.8885 12.2093C19.8885 12.8375 19.491 13.3707 18.9409 13.5518V13.5672C19.6583 13.8029 20.136 14.3434 20.136 15.1195C20.136 16.3447 18.8772 16.9092 17.842 16.9092C16.804 16.9092 15.5452 16.3447 15.5452 15.1195C15.5452 14.3434 16.0244 13.8029 16.7418 13.5672V13.5518C16.1931 13.3707 15.7943 12.8375 15.7943 12.2093ZM20.9337 12.2491V10.8196H25.9474L22.593 16.7338H20.7114L23.3718 12.2491H20.9337ZM28.3483 10.5911C30.0835 10.5911 30.8247 12.2001 30.8247 13.6951C30.8247 15.19 30.0908 16.7986 28.3483 16.7986C26.6075 16.7986 25.872 15.19 25.872 13.6951C25.872 12.2001 26.6147 10.5911 28.3483 10.5911ZM31.7382 19.3893C31.7485 19.3893 31.7548 19.3994 31.765 19.3998C31.7752 19.3994 31.7811 19.3893 31.7918 19.3893C32.0199 19.3893 32.2067 19.5723 32.2067 19.798C32.2067 19.9493 32.1221 20.0806 32.0004 20.152L31.999 20.1587L31.996 28.3057L34.7293 31.0388V31.9074H34.3183L34.3153 31.2151L31.765 28.6521L29.2142 31.2151L29.2113 31.9074H28.8007V31.0388L31.5334 28.3057L31.5305 20.1587L31.529 20.152C31.4075 20.0806 31.3234 19.9493 31.3234 19.798C31.3234 19.5723 31.5096 19.3893 31.7382 19.3893ZM52.2687 0.930542L34.7449 16.7411H31.802L49.4572 0.930542H46.5153L31.8015 14.1053V11.4699L43.5725 0.930542H40.6291L31.8025 8.8361V6.20022L37.6863 0.930542H34.7444L31.8015 3.56495V0.930542H11.2374V33.1245C11.2374 44.945 31.7543 49.9025 31.7543 49.9025C31.7543 49.9025 52.2687 44.945 52.2687 33.1245V16.7401H49.4572L52.2687 14.1061V11.4709L46.5153 16.7401H43.5725L52.2687 8.83512V6.2012L40.6291 16.7401H37.6863L52.2687 3.56544V0.930542Z" fill="#A20641"/>
<path d="M39.5809 20.6361H38.4091L38.6509 20.2379L39.5809 20.6361Z" fill="#A20641"/>
<path d="M76.9829 35.0512V33.2914C82.2611 32.9823 82.6435 32.6014 82.6435 26.8617V9.03204C82.6435 3.29049 82.1829 2.98812 77.3604 2.67902V0.920044H94.1695V2.67902C88.9748 2.98812 88.514 3.29049 88.514 9.03204V27.093C88.514 30.0767 88.8916 31.6066 89.9549 32.1428C91.0037 32.6786 92.5914 32.7556 95.3753 32.7556C98.3153 32.7556 100.731 32.2199 101.931 30.842C102.844 29.9243 103.745 28.1625 104.504 25.7126L106.46 25.947C106.083 27.704 104.951 33.5956 104.504 35.0512H76.9829Z" fill="#231F20"/>
<path d="M125.685 33.6727C131.487 33.6727 136.085 29.8472 136.085 19.1329C136.085 10.4101 131.86 2.29562 124.323 2.29562C118.221 2.29562 113.85 7.57879 113.85 16.9125C113.85 26.8617 118.221 33.6727 125.685 33.6727ZM107.063 18.7514C107.063 5.89403 117.006 0 125.004 0C135.854 0 142.871 7.72868 142.871 17.6029C142.871 29.6176 133.897 35.9683 125.077 35.9683C113.395 35.9683 107.063 27.0163 107.063 18.7514Z" fill="#231F20"/>
<path d="M150.266 35.0512V33.2914C155.695 32.908 156.073 32.5261 156.073 26.9388V22.2709C156.073 20.8158 155.921 20.3567 154.936 18.6749C153.353 15.8408 151.241 12.322 147.777 6.50692C145.821 3.13801 145.287 3.06332 141.895 2.67902V0.920044H156.976V2.67902L154.637 2.98813C152.903 3.21518 152.824 3.67381 153.584 5.20659C153.956 5.97126 158.784 14.388 160.592 17.3735C162.929 13.3161 165.261 8.18973 166.467 5.6651C167.453 3.52133 167.3 3.21518 165.261 2.98813L163.076 2.67902V0.920044H176.346V2.67902C172.274 3.06332 171.976 3.59898 169.942 6.58457C167.903 9.56771 165.643 13.2414 163.155 17.6802C162.023 19.7463 161.944 20.2797 161.944 21.4286V26.9388C161.944 32.5261 162.405 32.908 167.981 33.2914V35.0512H150.266Z" fill="#231F20"/>
<path d="M193.025 33.6727C198.831 33.6727 203.422 29.8472 203.422 19.1329C203.422 10.4101 199.204 2.29562 191.666 2.29562C185.561 2.29562 181.19 7.57879 181.19 16.9125C181.19 26.8617 185.561 33.6727 193.025 33.6727ZM174.402 18.7514C174.402 5.89403 184.35 0 192.342 0C203.191 0 210.21 7.72868 210.21 17.6029C210.21 29.6176 201.237 35.9683 192.417 35.9683C180.732 35.9683 174.402 27.0163 174.402 18.7514Z" fill="#231F20"/>
<path d="M212.846 35.0512V33.2914C218.119 32.9823 218.497 32.6014 218.497 26.8617V9.03204C218.497 3.29049 218.047 2.98812 213.218 2.67902V0.920044H230.033V2.67902C224.829 2.98812 224.377 3.29049 224.377 9.03204V27.093C224.377 30.0767 224.754 31.6066 225.813 32.1428C226.867 32.6786 228.449 32.7556 231.243 32.7556C234.178 32.7556 236.589 32.2199 237.795 30.842C238.701 29.9243 239.609 28.1625 240.358 25.7126L242.319 25.947C241.941 27.704 240.814 33.5956 240.358 35.0512H212.846Z" fill="#231F20"/>
<path d="M254.976 19.9006H263.72L259.353 8.2668H259.2L254.976 19.9006ZM264.479 33.2913L265.91 33.137C268.021 32.908 268.697 32.297 267.194 28.7006L264.631 22.4998H254.153C253.619 23.726 252.341 27.3225 251.591 29.6176C250.684 32.2198 251.364 32.9822 253.545 33.137L255.281 33.2913V35.0511H242.088V33.2913C245.405 32.908 246.694 32.6013 248.875 27.3225L260.033 0.460963L261.911 0L273.149 28.2421C274.957 32.7555 276.392 33.0621 279.705 33.2913V35.0511H264.479V33.2913Z" fill="#231F20"/>
<path d="M76.9829 41.9967H79.4286V48.9766C79.4286 49.7551 79.5212 50.3272 79.7084 50.6837C79.9988 51.322 80.635 51.6382 81.6113 51.6382C82.5856 51.6382 83.2151 51.322 83.5054 50.6837C83.6927 50.3272 83.7851 49.7551 83.7851 48.9766V41.9967H86.2337V48.9809C86.2337 50.1897 86.0445 51.1322 85.667 51.8016C84.9559 53.033 83.6055 53.653 81.6113 53.653C79.6159 53.653 78.2617 53.033 77.5492 51.8016C77.1677 51.1322 76.9829 50.1897 76.9829 48.9809V41.9967Z" fill="#231F20"/>
<path d="M90.5642 41.9967H93.0932L97.6688 49.9204V41.9967H99.9159V53.3593H97.5054L92.8105 45.299V53.3593H90.5642V41.9967Z" fill="#231F20"/>
<path d="M106.623 53.3593H104.225V41.9967H106.623V53.3593Z" fill="#231F20"/>
<path d="M117.658 41.9967H120.163L116.23 53.3593H113.949L110.053 41.9967H112.625L115.129 50.6238L117.658 41.9967Z" fill="#231F20"/>
<path d="M131.542 44.0116H125.441V46.4221H131.039V48.3952H125.441V51.3181H131.824V53.3593H123.084V41.9967H131.542V44.0116Z" fill="#231F20"/>
<path d="M137.93 43.9728V47.0254H140.52C141.032 47.0254 141.42 46.9603 141.679 46.8366C142.134 46.6234 142.365 46.1984 142.365 45.5617C142.365 44.8727 142.142 44.4069 141.703 44.173C141.455 44.0403 141.081 43.9728 140.588 43.9728H137.93ZM142.91 42.2891C143.334 42.4725 143.691 42.7375 143.986 43.0863C144.232 43.3748 144.424 43.692 144.566 44.0403C144.71 44.3901 144.781 44.7916 144.781 45.2353C144.781 45.7721 144.64 46.3047 144.367 46.8275C144.087 47.3479 143.632 47.7183 142.997 47.933C143.528 48.1434 143.908 48.4422 144.127 48.8308C144.35 49.2214 144.46 49.8126 144.46 50.6094V51.3689C144.46 51.8903 144.482 52.241 144.523 52.4283C144.588 52.722 144.737 52.9338 144.968 53.0718V53.3593H142.309C142.234 53.1068 142.183 52.907 142.153 52.7507C142.088 52.4312 142.054 52.1058 142.049 51.7729L142.037 50.7172C142.022 49.9894 141.898 49.5084 141.651 49.2679C141.408 49.0249 140.952 48.9052 140.282 48.9052H137.93V53.3593H135.573V41.9967H141.088C141.876 42.015 142.482 42.1113 142.91 42.2891Z" fill="#231F20"/>
<path d="M150.045 49.8515C150.117 50.372 150.262 50.7591 150.486 51.0168C150.883 51.4835 151.567 51.7183 152.535 51.7183C153.117 51.7183 153.587 51.6537 153.953 51.5315C154.641 51.2972 154.981 50.8578 154.981 50.2157C154.981 49.8415 154.809 49.5501 154.475 49.3422C154.14 49.1419 153.606 48.9652 152.877 48.8141L151.625 48.5439C150.4 48.2761 149.556 47.9824 149.097 47.6729C148.317 47.1501 147.93 46.3284 147.93 45.2119C147.93 44.1966 148.313 43.3514 149.072 42.6778C149.833 42.0046 150.949 41.6667 152.423 41.6667C153.651 41.6667 154.701 41.9863 155.57 42.6184C156.438 43.2552 156.896 44.1756 156.937 45.3821H154.619C154.58 44.7007 154.268 44.2149 153.693 43.926C153.306 43.7362 152.83 43.6404 152.256 43.6404C151.619 43.6404 151.11 43.7649 150.732 44.0117C150.349 44.2565 150.164 44.6021 150.164 45.0443C150.164 45.4496 150.349 45.7539 150.722 45.9518C150.962 46.0869 151.474 46.2455 152.256 46.4222L154.279 46.8928C155.167 47.0984 155.832 47.3748 156.274 47.7185C156.961 48.2526 157.304 49.025 157.304 50.0365C157.304 51.0738 156.897 51.9359 156.086 52.6264C155.268 53.3086 154.118 53.6531 152.632 53.6531C151.11 53.6531 149.919 53.3124 149.048 52.6388C148.179 51.9632 147.744 51.0346 147.744 49.8515H150.045Z" fill="#231F20"/>
<path d="M163.382 53.3593H160.988V41.9967H163.382V53.3593Z" fill="#231F20"/>
<path d="M176.406 41.9967V44.0116H172.956V53.3593H170.533V44.0116H167.065V41.9967H176.406Z" fill="#231F20"/>
<path d="M185.49 41.9967H188.217L184.362 49.1001V53.3593H181.95V49.1001L177.962 41.9967H180.802L183.196 46.9459L185.49 41.9967Z" fill="#231F20"/>
<path d="M198.389 43.1862C199.32 42.2489 200.498 41.7852 201.936 41.7852C203.855 41.7852 205.26 42.4104 206.146 43.6663C206.638 44.3681 206.899 45.0739 206.936 45.7851H204.523C204.374 45.2393 204.178 44.8281 203.935 44.5503C203.504 44.0587 202.868 43.8119 202.026 43.8119C201.168 43.8119 200.493 44.155 199.996 44.8545C199.5 45.5512 199.249 46.5369 199.249 47.8119C199.249 49.0849 199.514 50.0365 200.037 50.6734C200.561 51.3091 201.224 51.6248 202.029 51.6248C202.855 51.6248 203.486 51.3518 203.922 50.8084C204.162 50.5148 204.357 50.0754 204.518 49.4918H206.912C206.706 50.7279 206.178 51.7371 205.328 52.5118C204.482 53.2852 203.391 53.6766 202.063 53.6766C200.423 53.6766 199.133 53.1515 198.196 52.1036C197.259 51.0504 196.79 49.6071 196.79 47.7715C196.79 45.7903 197.323 44.2603 198.389 43.1862Z" fill="#231F20"/>
<path d="M210.33 53.3593V41.9967H212.724V46.3311H217.21V41.9967H219.602V53.3593H217.21V48.2874H212.724V53.3593H210.33Z" fill="#231F20"/>
<path d="M226.476 53.3593H224.082V41.9967H226.476V53.3593Z" fill="#231F20"/>
<path d="M231.817 43.1862C232.748 42.2489 233.927 41.7852 235.36 41.7852C237.284 41.7852 238.688 42.4104 239.573 43.6663C240.061 44.3681 240.325 45.0739 240.362 45.7851H237.952C237.802 45.2393 237.604 44.8281 237.364 44.5503C236.936 44.0587 236.298 43.8119 235.452 43.8119C234.597 43.8119 233.92 44.155 233.42 44.8545C232.927 45.5512 232.678 46.5369 232.678 47.8119C232.678 49.0849 232.939 50.0365 233.462 50.6734C233.988 51.3091 234.65 51.6248 235.455 51.6248C236.284 51.6248 236.916 51.3518 237.347 50.8084C237.59 50.5148 237.788 50.0754 237.947 49.4918H240.339C240.13 50.7279 239.607 51.7371 238.759 52.5118C237.908 53.2852 236.82 53.6766 235.494 53.6766C233.853 53.6766 232.562 53.1515 231.623 52.1036C230.686 51.0504 230.216 49.6071 230.216 47.7715C230.216 45.7903 230.749 44.2603 231.817 43.1862Z" fill="#231F20"/>
<path d="M245.91 49.0675H248.864L247.407 44.5967L245.91 49.0675ZM246.068 41.9967H248.795L252.876 53.3593H250.261L249.5 51.0229H245.254L244.474 53.3593H241.952L246.068 41.9967Z" fill="#231F20"/>
<path d="M263.055 45.5421C262.873 44.7682 262.427 44.2277 261.719 43.9168C261.321 43.7481 260.882 43.6662 260.397 43.6662C259.468 43.6662 258.704 44.0077 258.11 44.7006C257.512 45.3872 257.21 46.4274 257.21 47.8118C257.21 49.2041 257.533 50.1921 258.184 50.7719C258.83 51.3492 259.566 51.6382 260.385 51.6382C261.196 51.6382 261.859 51.4115 262.373 50.9553C262.891 50.4963 263.213 49.8984 263.329 49.1572H260.661V47.2646H265.468V53.3593H263.87L263.627 51.9419C263.163 52.4777 262.746 52.8562 262.373 53.0757C261.741 53.4604 260.959 53.653 260.027 53.653C258.499 53.653 257.248 53.1303 256.274 52.0891C255.258 51.0425 254.748 49.6124 254.748 47.7897C254.748 45.9516 255.26 44.4797 256.286 43.3696C257.317 42.2617 258.674 41.7054 260.362 41.7054C261.83 41.7054 263.007 42.0721 263.897 42.8028C264.784 43.5358 265.298 44.451 265.428 45.5421H263.055Z" fill="#231F20"/>
<path d="M276.75 50.6239C277.31 49.9297 277.589 48.9417 277.589 47.6652C277.589 46.3883 277.31 45.4055 276.75 44.706C276.188 44.0118 275.432 43.6663 274.477 43.6663C273.522 43.6663 272.761 44.0118 272.189 44.7051C271.622 45.3965 271.339 46.3845 271.339 47.6652C271.339 48.9417 271.622 49.9297 272.189 50.6239C272.761 51.3182 273.522 51.6642 274.477 51.6642C275.432 51.6642 276.188 51.3182 276.75 50.6239ZM278.252 52.3504C277.383 53.2335 276.124 53.6766 274.477 53.6766C272.825 53.6766 271.568 53.2335 270.694 52.3504C269.529 51.2666 268.944 49.705 268.944 47.6652C268.944 45.5847 269.529 44.017 270.694 42.9772C271.568 42.0957 272.825 41.6538 274.477 41.6538C276.124 41.6538 277.383 42.0957 278.252 42.9772C279.418 44.017 280 45.5847 280 47.6652C280 49.705 279.418 51.2666 278.252 52.3504Z" fill="#231F20"/>
<path d="M5.35642 75.5012C5.49554 75.5176 5.67601 75.5233 5.89879 75.5233C6.66928 75.5233 7.27099 75.4207 7.7078 75.2085C8.52062 74.819 8.92191 74.0782 8.92191 72.9877C8.92191 72.3394 8.74048 71.8827 8.37663 71.6183C8.01084 71.3528 7.52588 71.2182 6.91639 71.2182C6.67367 71.2182 6.49028 71.2421 6.36575 71.2866C6.24317 71.3318 6.15368 71.4467 6.09774 71.6321L5.00183 75.4504C5.10008 75.4682 5.21682 75.486 5.35642 75.5012ZM1.06616 80.5606C1.43147 80.5338 1.68587 80.4681 1.82061 80.3666C2.0361 80.2142 2.21023 79.9023 2.34692 79.4197L4.27073 72.5967L4.41471 72.0112C4.43027 71.9398 4.44389 71.877 4.44973 71.8171C4.45849 71.7606 4.46043 71.7112 4.46043 71.6647C4.46043 71.4242 4.37871 71.2584 4.20847 71.1674C4.04357 71.0778 3.75365 71.0227 3.34749 70.9944V70.7462H7.2136C8.01084 70.7462 8.65535 70.8478 9.14178 71.0418C10.0635 71.405 10.5247 72.0921 10.5247 73.0941C10.5247 73.7059 10.3413 74.2469 9.97406 74.7203C9.26922 75.6359 7.99868 76.0959 6.16583 76.0959C5.94305 76.0959 5.72027 76.0863 5.50041 76.0705C5.28055 76.0523 5.06798 76.0221 4.86514 75.9818L4.02071 78.9632C3.96915 79.1376 3.93266 79.2822 3.90834 79.4006C3.86164 79.6018 3.83878 79.7556 3.83878 79.8678C3.83878 80.1203 3.91612 80.2932 4.07226 80.3876C4.22646 80.4844 4.50567 80.5414 4.906 80.5606V80.8088H1.06616V80.5606Z" fill="#231F20"/>
<path d="M13.9145 74.0033C13.9354 74.0302 13.9433 74.0642 13.9433 74.0972C13.939 74.1509 13.9311 74.1912 13.9238 74.2151L13.1426 77.1422L13.3123 76.8001C13.6795 76.091 14.1072 75.447 14.5951 74.862C15.0849 74.2779 15.5519 73.9866 15.9931 73.9866C16.2324 73.9866 16.4143 74.0642 16.5462 74.2185C16.675 74.3752 16.7387 74.5529 16.7387 74.7542C16.7387 74.9799 16.675 75.1676 16.5462 75.3143C16.4191 75.4638 16.2402 75.5366 16.014 75.5366C15.8578 75.5366 15.7411 75.5074 15.6613 75.446C15.5791 75.3828 15.5183 75.3143 15.4711 75.2324L15.3821 75.0647C15.3606 75.035 15.3384 75.0115 15.3106 74.9947C15.282 74.9741 15.2473 74.9664 15.208 74.9664C15.0061 74.9664 14.7191 75.2415 14.3422 75.7862C13.9671 76.3344 13.631 76.9257 13.3353 77.5649C13.1562 77.9515 12.9563 78.4642 12.7351 79.1015C12.5968 79.5035 12.412 80.0722 12.1829 80.8087H11.0067L12.2889 76.2568C12.3605 75.9985 12.4198 75.7685 12.4621 75.562C12.5049 75.3607 12.5273 75.1949 12.5273 75.0647C12.5273 74.9156 12.4878 74.802 12.4105 74.7216C12.3347 74.644 12.2043 74.6052 12.0146 74.6052C11.9528 74.6052 11.877 74.6095 11.786 74.6186C11.695 74.6291 11.586 74.641 11.4581 74.6559V74.4063L11.7646 74.3498C12.1634 74.2693 12.5998 74.184 13.0716 74.0958C13.5445 74.0048 13.7949 73.9612 13.8188 73.9612C13.866 73.9612 13.898 73.9731 13.9145 74.0033Z" fill="#231F20"/>
<path d="M20.6202 76.5837C21.2296 76.0494 21.5347 75.519 21.5347 74.9948C21.5347 74.8036 21.4888 74.6513 21.3995 74.5411C21.3069 74.4261 21.1708 74.3705 20.9932 74.3705C20.6658 74.3705 20.3415 74.5114 20.0228 74.7888C19.7076 75.0648 19.4211 75.3786 19.1662 75.7294C18.8977 76.1419 18.6856 76.5348 18.5265 76.9095C18.44 77.1113 18.349 77.3378 18.2503 77.5932C19.2221 77.4562 20.0106 77.1155 20.6202 76.5837ZM18.1471 75.5712C19.1555 74.532 20.1974 74.0106 21.2691 74.0106C21.6659 74.0106 21.9816 74.1002 22.2166 74.2814C22.45 74.4586 22.5669 74.7294 22.5669 75.0844C22.5669 75.8056 22.1392 76.4227 21.2811 76.9364C20.426 77.45 19.5242 77.7638 18.5795 77.8803L18.1447 77.9296C18.0781 78.1371 18.0324 78.301 18.0067 78.4255C17.9837 78.5477 17.9686 78.703 17.9686 78.8879C17.9686 79.3301 18.1141 79.6737 18.4065 79.92C18.6978 80.1663 19.0437 80.2889 19.4454 80.2889C19.8243 80.2889 20.2276 80.1634 20.6536 79.9109C20.8993 79.7647 21.2496 79.5017 21.7116 79.1227L21.9116 79.2971C21.683 79.5827 21.3551 79.8769 20.9281 80.1754C20.1731 80.7178 19.4119 80.9866 18.6505 80.9866C18.1098 80.9866 17.6384 80.7954 17.2317 80.4188C16.8255 80.0426 16.6222 79.5065 16.6222 78.8046C16.6222 77.6934 17.1286 76.6153 18.1471 75.5712Z" fill="#231F20"/>
<path d="M28.8767 75.2417C28.7283 74.8756 28.4491 74.695 28.0428 74.695C27.6912 74.695 27.309 74.8664 26.8963 75.2101C26.483 75.5564 26.1371 76.1238 25.8578 76.9172C25.6351 77.5425 25.4274 78.1985 25.2319 78.8837C25.0363 79.5708 24.939 79.9722 24.939 80.0906C24.939 80.2814 25.0198 80.4217 25.1774 80.5133C25.335 80.6043 25.5248 80.6489 25.746 80.6489C26.6313 80.6489 27.4121 80.0906 28.0867 78.9776C28.6913 77.9819 28.9934 76.9915 28.9934 76.0122C28.9934 75.6892 28.954 75.4295 28.8767 75.2417ZM21.8434 83.7374C22.1514 83.7374 22.3805 83.6804 22.5365 83.5683C22.6893 83.4552 22.8061 83.2621 22.8761 82.9905L24.9818 75.6629C25.032 75.4802 25.0621 75.347 25.0757 75.2671C25.0893 75.186 25.0938 75.1204 25.0938 75.0768C25.0938 74.9101 25.032 74.786 24.9088 74.7041C24.7848 74.6231 24.6024 74.5843 24.365 74.5843C24.3135 74.5843 24.2648 74.5843 24.2191 74.5891C24.1754 74.5919 24.1253 74.5948 24.0767 74.6068L24.0601 74.3572L26.5403 74.005C26.5705 74.0007 26.5934 74.0198 26.6098 74.0644C26.5889 74.1511 26.569 74.2153 26.5555 74.2618L26.1371 75.6475C26.4707 75.2086 26.7767 74.8727 27.0559 74.6442C27.559 74.2201 28.0837 74.0107 28.6262 74.0107C29.1817 74.0107 29.6136 74.1765 29.9301 74.5114C30.2454 74.8425 30.4045 75.3504 30.4045 76.0389C30.4045 77.2143 29.9016 78.3327 28.8966 79.4007C27.9033 80.4562 26.8691 80.9866 25.7976 80.9866C25.5884 80.9866 25.4079 80.9627 25.261 80.9239C25.1151 80.8817 24.9366 80.8132 24.724 80.7145L24.5936 81.1779C24.459 81.6871 24.365 82.0527 24.3163 82.2736C24.1812 82.8562 24.1145 83.1802 24.1145 83.2563C24.1145 83.4624 24.1812 83.5952 24.3163 83.6493C24.4482 83.7058 24.709 83.7432 25.1035 83.7657V83.9866H21.8434V83.7374Z" fill="#231F20"/>
<path d="M36.3826 74.5784C36.2128 74.4065 36.0065 74.3197 35.7658 74.3197C34.9253 74.3197 34.148 74.9488 33.4274 76.2061C32.7956 77.311 32.4804 78.2626 32.4804 79.0614C32.4804 79.4648 32.5665 79.7556 32.7422 79.9382C32.9182 80.1246 33.1337 80.2142 33.3945 80.2142C34.16 80.2142 34.9 79.6052 35.612 78.3834C36.2964 77.2723 36.6389 76.2703 36.6389 75.3772C36.6389 75.013 36.5508 74.7485 36.3826 74.5784ZM36.6296 74.2915C36.7464 74.405 36.8373 74.5482 36.9069 74.7294L36.9463 74.8324L37.1161 74.2675C37.1389 74.2019 37.1589 74.1601 37.1725 74.1377C37.1876 74.1136 37.2255 74.1002 37.2815 74.096L38.1668 73.9987C38.212 73.9987 38.2397 74.0064 38.249 74.024C38.2562 74.0409 38.2547 74.072 38.2426 74.1184C38.2217 74.1841 38.2061 74.2334 38.1959 74.2737C38.1852 74.3096 38.1687 74.3662 38.1459 74.4352L37.389 77.1261C37.2221 77.7145 37.0858 78.2209 36.9677 78.6459C36.7814 79.4154 36.6856 79.8529 36.6856 79.9636C36.6856 80.0335 36.7069 80.0858 36.745 80.1174C36.7814 80.1485 36.8281 80.1648 36.886 80.1648C36.9297 80.1648 36.9827 80.1514 37.0373 80.1203C37.0952 80.0906 37.1619 80.047 37.242 79.9842L37.3787 79.8812C37.4211 79.8452 37.4697 79.8064 37.5257 79.7571C37.5773 79.7111 37.6424 79.6516 37.7168 79.5826L38.2183 79.1035L38.4022 79.2583C37.8545 79.9248 37.4196 80.3771 37.0888 80.6148C36.7585 80.8534 36.4428 80.9732 36.1476 80.9732C35.952 80.9732 35.8036 80.9056 35.6987 80.7786C35.5959 80.6459 35.5444 80.4844 35.5444 80.2889C35.5444 80.1083 35.5775 79.8515 35.6471 79.5123C35.7152 79.1764 35.7823 78.8927 35.847 78.6627C35.7566 78.8136 35.6018 79.0317 35.3849 79.321C35.1708 79.608 34.9058 79.8874 34.5887 80.1576C34.2174 80.483 33.8614 80.7144 33.5219 80.8476C33.2548 80.9401 32.9985 80.9866 32.7563 80.9866C32.3452 80.9866 31.9707 80.8174 31.6361 80.4844C31.2995 80.1514 31.1326 79.677 31.1326 79.0656C31.1326 78.0115 31.6162 76.9138 32.5835 75.7687C33.5823 74.5794 34.6163 73.9867 35.6885 73.9867C36.0927 73.9867 36.4084 74.0883 36.6296 74.2915Z" fill="#231F20"/>
<path d="M42.01 74.0033C42.03 74.0302 42.0393 74.0642 42.0393 74.0972C42.0329 74.1509 42.0271 74.1912 42.0193 74.2151L41.2414 77.1422L41.4069 76.8001C41.7737 76.091 42.2011 75.447 42.6905 74.862C43.1818 74.2779 43.6458 73.9866 44.087 73.9866C44.3249 73.9866 44.5088 74.0642 44.6406 74.2185C44.7695 74.3752 44.8347 74.5529 44.8347 74.7542C44.8347 74.9799 44.7705 75.1676 44.6406 75.3143C44.5132 75.4638 44.3376 75.5366 44.11 75.5366C43.9552 75.5366 43.837 75.5074 43.7568 75.446C43.676 75.3828 43.6128 75.3143 43.567 75.2324L43.4762 75.0647C43.4581 75.035 43.4323 75.0115 43.4051 74.9947C43.3774 74.9741 43.3428 74.9664 43.302 74.9664C43.1016 74.9664 42.8135 75.2415 42.4391 75.7862C42.063 76.3344 41.7249 76.9257 41.4312 77.5649C41.2508 77.9515 41.0523 78.4642 40.8305 79.1015C40.6927 79.5035 40.5095 80.0722 40.2788 80.8087H39.1041L40.3849 76.2568C40.4565 75.9985 40.5138 75.7685 40.5575 75.562C40.5989 75.3607 40.6213 75.1949 40.6213 75.0647C40.6213 74.9156 40.5833 74.802 40.508 74.7216C40.432 74.644 40.3003 74.6052 40.112 74.6052C40.0497 74.6052 39.9739 74.6095 39.8815 74.6186C39.7905 74.6291 39.6815 74.641 39.5541 74.6559V74.4063L39.8591 74.3498C40.2589 74.2693 40.6957 74.184 41.1685 74.0958C41.6399 74.0048 41.8903 73.9612 41.9161 73.9612C41.962 73.9612 41.9934 73.9731 42.01 74.0033Z" fill="#231F20"/>
<path d="M47.6274 72.107C47.4819 71.9469 47.4074 71.7529 47.4074 71.5272C47.4074 71.2958 47.4819 71.1003 47.6274 70.9402C47.7757 70.7793 47.9547 70.6984 48.1638 70.6984C48.373 70.6984 48.552 70.7793 48.7052 70.9402C48.8556 71.1003 48.9309 71.2958 48.9309 71.5272C48.9309 71.7572 48.8556 71.9532 48.7052 72.1094C48.552 72.268 48.373 72.349 48.1638 72.349C47.9547 72.349 47.7757 72.268 47.6274 72.107ZM48.3487 73.9886C48.3764 74.0049 48.3886 74.026 48.3838 74.0528L46.8432 79.4288C46.7722 79.7139 46.7357 79.8855 46.7357 79.9396C46.7357 80.0172 46.7509 80.0829 46.7815 80.1366C46.8086 80.1979 46.8724 80.2276 46.9736 80.2276C47.1454 80.2276 47.374 80.0786 47.659 79.7825C47.8257 79.608 48.0334 79.3541 48.2777 79.0273L48.4776 79.1931L48.4003 79.299C48.0184 79.8275 47.7032 80.2084 47.4526 80.4399C47.0617 80.8026 46.6797 80.9866 46.3101 80.9866C46.0902 80.9866 45.9063 80.8922 45.7643 80.713C45.6169 80.5338 45.5459 80.3158 45.5459 80.0695C45.5459 79.9248 45.5547 79.7978 45.5746 79.6885C45.5955 79.5798 45.634 79.4197 45.6914 79.2094L46.7815 75.3341C46.798 75.2742 46.8101 75.2186 46.8208 75.1697C46.8282 75.1189 46.8358 75.0696 46.8358 75.0173C46.8358 74.8381 46.7693 74.726 46.634 74.6824C46.4993 74.6412 46.2336 74.6187 45.8382 74.6187V74.3705C46.2551 74.3197 46.5567 74.2842 46.7401 74.256C46.9239 74.2286 47.1088 74.1989 47.2965 74.1707C47.5378 74.1305 47.7649 74.0854 47.9834 74.036C48.1989 73.9867 48.3215 73.9704 48.3487 73.9886Z" fill="#231F20"/>
<path d="M49.4207 80.8088L50.7271 76.1688C50.8396 75.7778 50.9047 75.5387 50.9232 75.4548C50.9397 75.3743 50.9489 75.2833 50.9489 75.186C50.9489 75.0394 50.9076 74.9249 50.8244 74.8424C50.7412 74.7586 50.5773 74.7174 50.3331 74.7174C50.2724 74.7174 50.212 74.7217 50.1527 74.7294C50.0938 74.7366 50.0301 74.7452 49.9586 74.7543V74.508C50.2894 74.4573 50.5214 74.4184 50.6605 74.3944C50.8001 74.369 50.9519 74.3379 51.1139 74.3048L52.4725 74.0106C52.5026 74.0303 52.5221 74.0542 52.5318 74.0796L51.5293 77.3125C52.1538 76.3747 52.6767 75.6757 53.0985 75.2206C53.8354 74.4141 54.4935 74.0106 55.0788 74.0106C55.3029 74.0106 55.497 74.0542 55.6609 74.139C55.9717 74.3048 56.1279 74.6005 56.1279 75.0336C56.1279 75.1549 56.1158 75.2804 56.0909 75.4103C56.0643 75.5415 56.0322 75.6819 55.9913 75.831L54.9844 79.4303C54.9649 79.5065 54.9436 79.5976 54.9148 79.7063C54.8905 79.8141 54.8783 79.8888 54.8783 79.932C54.8783 80.0081 54.8969 80.0767 54.9328 80.1366C54.9679 80.1979 55.0237 80.2276 55.1031 80.2276C55.2299 80.2276 55.374 80.1514 55.5422 79.999C55.7091 79.8467 55.9776 79.5232 56.3551 79.024L56.575 79.2242C56.1683 79.7753 55.8443 80.1682 55.603 80.3934C55.1921 80.7863 54.801 80.9866 54.4264 80.9866C54.2567 80.9866 54.0946 80.9281 53.9357 80.816C53.7795 80.701 53.7001 80.495 53.7001 80.2008C53.7001 80.1126 53.7065 80.023 53.7172 79.9276C53.7295 79.8304 53.7474 79.7499 53.7668 79.6781L54.7528 76.0269C54.801 75.8266 54.8375 75.6628 54.854 75.5344C54.8724 75.4074 54.8813 75.3159 54.8813 75.2608C54.8813 75.14 54.851 75.037 54.7923 74.9488C54.7344 74.8621 54.6313 74.819 54.4815 74.819C54.0946 74.819 53.6063 75.1549 53.0168 75.8372C52.6743 76.2421 52.3227 76.7227 51.9647 77.2827C51.6961 77.7173 51.484 78.1433 51.3278 78.554C51.1747 78.9675 50.9305 79.7183 50.5954 80.8088H49.4207Z" fill="#231F20"/>
<path d="M59.8296 77.7173C59.9935 78.025 60.2864 78.1802 60.7076 78.1802C61.1639 78.1802 61.572 77.8922 61.931 77.3172C62.2904 76.7394 62.4679 76.1045 62.4679 75.4083C62.4679 75.0768 62.395 74.819 62.2481 74.6292C62.0992 74.4409 61.8794 74.3471 61.5842 74.3471C61.0154 74.3471 60.5544 74.6455 60.2091 75.2425C59.8603 75.8405 59.6862 76.4179 59.6862 76.9737C59.6862 77.2827 59.7343 77.5338 59.8296 77.7173ZM61.464 83.2592C61.8657 82.9712 62.0662 82.6324 62.0662 82.2333C62.0662 81.9329 61.9583 81.679 61.749 81.472C61.6386 81.3612 61.4566 81.2434 61.2048 81.1179C60.9955 81.0177 60.6409 80.8716 60.1419 80.6847C59.6418 80.495 59.354 80.4011 59.2779 80.4011C59.1448 80.4011 58.8883 80.5755 58.508 80.9266C58.1243 81.2746 57.933 81.6689 57.933 82.1112C57.933 82.7815 58.2274 83.2414 58.8154 83.494C59.1233 83.6253 59.5023 83.6909 59.9498 83.6909C60.5592 83.6909 61.0621 83.5443 61.464 83.2592ZM57.5283 81.2299C57.8227 80.8922 58.2833 80.5549 58.9185 80.2218C58.7916 80.1394 58.6865 80.0561 58.6048 79.9693C58.5259 79.8812 58.4836 79.7666 58.4836 79.6186C58.4836 79.4154 58.6291 79.1778 58.9185 78.9124C59.084 78.7629 59.3525 78.5655 59.7221 78.3192C59.3962 78.1984 59.1146 78.0278 58.8792 77.8084C58.5941 77.5114 58.4515 77.1261 58.4515 76.6555C58.4515 75.8971 58.7522 75.267 59.3525 74.7634C59.9526 74.2618 60.6959 74.0106 61.5842 74.0106C62.0463 74.0106 62.4393 74.0826 62.7603 74.2258C63.0785 74.3677 63.2701 74.486 63.3255 74.5794H64.3567V75.1831H63.5746C63.6047 75.2933 63.6291 75.394 63.6427 75.4845C63.6592 75.5732 63.6656 75.7025 63.6656 75.8683C63.6656 76.6824 63.3475 77.323 62.7103 77.7907C62.0721 78.2563 61.3852 78.4911 60.6467 78.4911C60.5714 78.4911 60.4999 78.485 60.4333 78.4792C60.3665 78.4715 60.2864 78.4596 60.1891 78.439C60.1132 78.439 60.0101 78.5103 59.8768 78.6555C59.7386 78.8031 59.6706 78.9315 59.6706 79.048C59.6706 79.2171 60.2305 79.5093 61.3507 79.9185C62.4666 80.3354 63.0244 80.943 63.0244 81.7417C63.0244 82.3436 62.7423 82.8696 62.1839 83.3205C61.6216 83.7728 60.7758 84 59.6447 84C58.8582 84 58.2366 83.8342 57.7783 83.504C57.3192 83.1744 57.0886 82.7695 57.0886 82.2976C57.0886 81.9229 57.236 81.5658 57.5283 81.2299Z" fill="#231F20"/>
<path d="M74.4992 75.2417C74.3508 74.8756 74.0732 74.695 73.6641 74.695C73.3118 74.695 72.932 74.8664 72.518 75.2101C72.1056 75.5564 71.7611 76.1238 71.4809 76.9172C71.2576 77.5425 71.0485 78.1985 70.853 78.8837C70.6589 79.5708 70.5606 79.9722 70.5606 80.0906C70.5606 80.2814 70.6394 80.4217 70.797 80.5133C70.9576 80.6043 71.1459 80.6489 71.3671 80.6489C72.2539 80.6489 73.0331 80.0906 73.7078 78.9776C74.3128 77.9819 74.6145 76.9915 74.6145 76.0122C74.6145 75.6892 74.5751 75.4295 74.4992 75.2417ZM67.468 83.7374C67.774 83.7374 68.0045 83.6804 68.1562 83.5683C68.3153 83.4552 68.4257 83.2621 68.4987 82.9905L70.6001 75.6629C70.6516 75.4802 70.6847 75.347 70.6983 75.2671C70.7095 75.186 70.7168 75.1204 70.7168 75.0768C70.7168 74.9101 70.6546 74.786 70.53 74.7041C70.4045 74.6231 70.2241 74.5843 69.9848 74.5843C69.9356 74.5843 69.8889 74.5843 69.8422 74.5891C69.7965 74.5919 69.7478 74.5948 69.6962 74.6068L69.6812 74.3572L72.1614 74.005C72.1935 74.0007 72.216 74.0198 72.2316 74.0644C72.2102 74.1511 72.1902 74.2153 72.1765 74.2618L71.7611 75.6475C72.0933 75.2086 72.3979 74.8727 72.6771 74.6442C73.1815 74.2201 73.7049 74.0107 74.2477 74.0107C74.8007 74.0107 75.2376 74.1765 75.5514 74.5114C75.8671 74.8425 76.0247 75.3504 76.0247 76.0389C76.0247 77.2143 75.5241 78.3327 74.5192 79.4007C73.5244 80.4562 72.4922 80.9866 71.4216 80.9866C71.2095 80.9866 71.029 80.9627 70.8836 80.9239C70.7362 80.8817 70.5572 80.8132 70.3481 80.7145L70.2168 81.1779C70.08 81.6871 69.9856 82.0527 69.9375 82.2736C69.8038 82.8562 69.7391 83.1802 69.7391 83.2563C69.7391 83.4624 69.8038 83.5952 69.9375 83.6493C70.0693 83.7058 70.3316 83.7432 70.7226 83.7657V83.9866H67.468V83.7374Z" fill="#231F20"/>
<path d="M81.0061 76.5837C81.6127 76.0494 81.9187 75.519 81.9187 74.9948C81.9187 74.8036 81.8705 74.6513 81.7795 74.5411C81.6915 74.4261 81.5582 74.3705 81.3793 74.3705C81.046 74.3705 80.724 74.5114 80.4058 74.7888C80.0902 75.0648 79.8056 75.3786 79.5478 75.7294C79.2813 76.1419 79.0687 76.5348 78.9111 76.9095C78.823 77.1113 78.7321 77.3378 78.6353 77.5932C79.6052 77.4562 80.3967 77.1155 81.0061 76.5837ZM78.5322 75.5712C79.542 74.532 80.5814 74.0106 81.6521 74.0106C82.0524 74.0106 82.3648 74.1002 82.5982 74.2814C82.8346 74.4586 82.9499 74.7294 82.9499 75.0844C82.9499 75.8056 82.5223 76.4227 81.6643 76.9364C80.8091 77.45 79.9082 77.7638 78.9626 77.8803L78.5288 77.9296C78.4621 78.1371 78.4168 78.301 78.3926 78.4255C78.3653 78.5477 78.3531 78.703 78.3531 78.8879C78.3531 79.3301 78.5014 79.6737 78.79 79.92C79.0809 80.1663 79.4267 80.2889 79.8271 80.2889C80.2055 80.2889 80.612 80.1634 81.0363 79.9109C81.279 79.7647 81.6337 79.5017 82.0948 79.1227L82.2952 79.2971C82.0675 79.5827 81.7401 79.8769 81.3125 80.1754C80.5543 80.7178 79.7964 80.9866 79.0322 80.9866C78.4957 80.9866 78.0224 80.7954 77.6163 80.4188C77.2072 80.0426 77.0038 79.5065 77.0038 78.8046C77.0038 77.6934 77.5161 76.6153 78.5322 75.5712Z" fill="#231F20"/>
<path d="M85.4997 80.2381C85.7122 80.5132 86.0182 80.6488 86.4307 80.6488C87.2581 80.6488 87.995 80.0307 88.6352 78.7926C89.181 77.7322 89.4538 76.7572 89.4538 75.8659C89.4538 75.4879 89.4052 75.1831 89.3142 74.9531C89.1353 74.5157 88.8108 74.2963 88.3351 74.2963C87.5588 74.2963 86.8311 74.8726 86.1457 76.024C85.5027 77.0978 85.1816 78.1596 85.1816 79.2003C85.1816 79.6167 85.2876 79.9636 85.4997 80.2381ZM90.2326 74.6604C90.5878 75.1098 90.7603 75.6417 90.7603 76.2521C90.7603 77.3172 90.2876 78.3642 89.3356 79.3867C88.3501 80.4518 87.3039 80.9866 86.188 80.9866C85.4875 80.9866 84.9296 80.7834 84.505 80.3814C84.0809 79.9799 83.8683 79.4154 83.8683 78.6852C83.8683 77.5861 84.345 76.5348 85.2906 75.5296C86.2547 74.5009 87.3009 73.9867 88.4255 73.9867C89.2807 73.9867 89.8843 74.211 90.2326 74.6604Z" fill="#231F20"/>
<path d="M97.0797 75.2417C96.9312 74.8756 96.6519 74.695 96.2457 74.695C95.8945 74.695 95.5116 74.8664 95.0997 75.2101C94.6869 75.5564 94.3386 76.1238 94.0602 76.9172C93.838 77.5425 93.6288 78.1985 93.4345 78.8837C93.2406 79.5708 93.141 79.9722 93.141 80.0906C93.141 80.2814 93.2227 80.4217 93.3837 80.5133C93.541 80.6043 93.7287 80.6489 93.95 80.6489C94.8326 80.6489 95.6152 80.0906 96.2914 78.9776C96.8938 77.9819 97.1973 76.9915 97.1973 76.0122C97.1973 75.6892 97.1553 75.4295 97.0797 75.2417ZM90.0483 83.7374C90.3543 83.7374 90.5848 83.6804 90.7391 83.5683C90.8937 83.4552 91.009 83.2621 91.082 82.9905L93.1862 75.6629C93.2377 75.4802 93.2679 75.347 93.2801 75.2671C93.2923 75.186 93.2981 75.1204 93.2981 75.0768C93.2981 74.9101 93.2377 74.786 93.1103 74.7041C92.9892 74.6231 92.8044 74.5843 92.5674 74.5843C92.5159 74.5843 92.4707 74.5843 92.4255 74.5891C92.3768 74.5919 92.3311 74.5948 92.2795 74.6068L92.2645 74.3572L94.7448 74.005C94.7747 74.0007 94.799 74.0198 94.8139 74.0644C94.7906 74.1511 94.7691 74.2153 94.757 74.2618L94.3386 75.6475C94.6748 75.2086 94.9783 74.8727 95.2575 74.6442C95.76 74.2201 96.2849 74.0107 96.8303 74.0107C97.3794 74.0107 97.8193 74.1765 98.135 74.5114C98.4497 74.8425 98.6076 75.3504 98.6076 76.0389C98.6076 77.2143 98.1042 78.3327 97.0974 79.4007C96.1065 80.4562 95.0754 80.9866 94.0023 80.9866C93.7894 80.9866 93.6138 80.9627 93.4653 80.9239C93.3195 80.8817 93.141 80.8132 92.9254 80.7145L92.798 81.1779C92.6619 81.6871 92.5709 82.0527 92.5159 82.2736C92.389 82.8562 92.316 83.1802 92.316 83.2563C92.316 83.4624 92.389 83.5952 92.5159 83.6493C92.6526 83.7058 92.9134 83.7432 93.3079 83.7657V83.9866H90.0483V83.7374Z" fill="#231F20"/>
<path d="M102.067 71.6768C102.088 71.6107 102.104 71.5471 102.107 71.4813C102.11 71.4172 102.116 71.3631 102.116 71.3227C102.116 71.1512 102.043 71.0467 101.904 71.008C101.767 70.9705 101.488 70.9524 101.07 70.9586V70.7123C101.3 70.6792 101.564 70.6448 101.862 70.6073C102.161 70.5671 102.356 70.5389 102.449 70.5241C102.738 70.4733 103.08 70.3999 103.489 70.3011C103.526 70.3011 103.559 70.3265 103.599 70.3788L101.048 79.4289C100.991 79.6455 100.957 79.7754 100.949 79.8199C100.94 79.865 100.933 79.911 100.933 79.9546C100.933 80.0499 100.949 80.1309 100.988 80.2024C101.021 80.2679 101.088 80.301 101.188 80.301C101.37 80.301 101.607 80.141 101.906 79.8199C102.198 79.4979 102.449 79.1898 102.653 78.8837L102.862 79.0275C102.425 79.6676 102.083 80.1113 101.84 80.3561C101.419 80.7759 100.994 80.9867 100.567 80.9867C100.381 80.9867 100.221 80.9388 100.079 80.8477C99.8601 80.7131 99.748 80.4817 99.748 80.1549C99.748 80.026 99.7695 79.8574 99.8088 79.647C99.8358 79.5215 99.8751 79.3768 99.9208 79.2109L102.067 71.6768Z" fill="#231F20"/>
<path d="M107.931 76.5837C108.541 76.0494 108.844 75.519 108.844 74.9948C108.844 74.8036 108.799 74.6513 108.704 74.5411C108.616 74.4261 108.483 74.3705 108.307 74.3705C107.974 74.3705 107.65 74.5114 107.334 74.7888C107.012 75.0648 106.731 75.3786 106.476 75.7294C106.209 76.1419 105.994 76.5348 105.839 76.9095C105.748 77.1113 105.657 77.3378 105.563 77.5932C106.531 77.4562 107.325 77.1155 107.931 76.5837ZM105.457 75.5712C106.47 74.532 107.507 74.0106 108.584 74.0106C108.977 74.0106 109.293 74.1002 109.526 74.2814C109.76 74.4586 109.878 74.7294 109.878 75.0844C109.878 75.8056 109.451 76.4227 108.596 76.9364C107.737 77.45 106.836 77.7638 105.89 77.8803L105.454 77.9296C105.391 78.1371 105.345 78.301 105.318 78.4255C105.294 78.5477 105.281 78.703 105.281 78.8879C105.281 79.3301 105.427 79.6737 105.718 79.92C106.009 80.1663 106.355 80.2889 106.755 80.2889C107.134 80.2889 107.541 80.1634 107.965 79.9109C108.207 79.7647 108.56 79.5017 109.023 79.1227L109.226 79.2971C108.998 79.5827 108.668 79.8769 108.24 80.1754C107.483 80.7178 106.722 80.9866 105.96 80.9866C105.423 80.9866 104.948 80.7954 104.541 80.4188C104.135 80.0426 103.935 79.5065 103.935 78.8046C103.935 77.6934 104.442 76.6153 105.457 75.5712Z" fill="#231F20"/>
<path d="M114.884 80.1888C114.89 80.1337 114.902 80.0829 114.917 80.0259L116.4 74.7667H115.239C115.239 74.6321 115.245 74.5469 115.269 74.5114C115.29 74.474 115.343 74.441 115.424 74.405C115.942 74.187 116.349 73.9781 116.633 73.7764C116.919 73.5746 117.31 73.188 117.804 72.6087L117.925 72.4649C117.941 72.4458 117.959 72.4295 117.983 72.4156C118.001 72.4041 118.029 72.3978 118.053 72.3978C118.104 72.4084 118.137 72.4175 118.158 72.4295C118.174 72.464 118.183 72.4951 118.186 72.5219C118.186 72.5488 118.186 72.579 118.18 72.6068L117.728 74.2455H118.992L118.898 74.7667H117.574L116.149 79.8304C116.121 79.9214 116.13 80.0068 116.169 80.0906C116.212 80.1739 116.278 80.2142 116.378 80.2142C116.509 80.2142 116.698 80.0858 116.937 79.8232C117.073 79.6809 117.307 79.4034 117.635 78.9851L117.832 79.0988L117.728 79.2559C117.285 79.9023 116.9 80.3517 116.57 80.6071C116.234 80.8582 115.918 80.9866 115.621 80.9866C115.359 80.9866 115.169 80.9176 115.057 80.782C114.938 80.6459 114.878 80.495 114.878 80.3264C114.878 80.2861 114.878 80.2381 114.884 80.1888Z" fill="#231F20"/>
<path d="M120.685 80.2381C120.891 80.5132 121.203 80.6488 121.609 80.6488C122.437 80.6488 123.177 80.0307 123.82 78.7926C124.363 77.7322 124.635 76.7572 124.635 75.8659C124.635 75.4879 124.587 75.1831 124.499 74.9531C124.317 74.5157 123.993 74.2963 123.516 74.2963C122.74 74.2963 122.006 74.8726 121.327 76.024C120.685 77.0978 120.363 78.1596 120.363 79.2003C120.363 79.6167 120.472 79.9636 120.685 80.2381ZM125.417 74.6604C125.77 75.1098 125.942 75.6417 125.942 76.2521C125.942 77.3172 125.469 78.3642 124.517 79.3867C123.534 80.4518 122.488 80.9866 121.372 80.9866C120.67 80.9866 120.109 80.7834 119.687 80.3814C119.262 79.9799 119.053 79.4154 119.053 78.6852C119.053 77.5861 119.526 76.5348 120.476 75.5296C121.439 74.5009 122.485 73.9867 123.611 73.9867C124.465 73.9867 125.066 74.211 125.417 74.6604Z" fill="#231F20"/>
<path d="M133.337 71.6768C133.358 71.6107 133.371 71.5471 133.377 71.4813C133.384 71.4172 133.384 71.3631 133.384 71.3227C133.384 71.1512 133.314 71.0467 133.174 71.008C133.037 70.9705 132.758 70.9524 132.343 70.9586V70.7123C132.57 70.6792 132.838 70.6448 133.134 70.6073C133.434 70.5671 133.628 70.5389 133.72 70.5241C134.008 70.4733 134.353 70.3999 134.763 70.3011C134.797 70.3011 134.835 70.3265 134.865 70.3788L132.319 79.4289C132.264 79.6455 132.231 79.7754 132.219 79.8199C132.211 79.865 132.204 79.911 132.204 79.9546C132.204 80.0499 132.226 80.1309 132.257 80.2024C132.291 80.2679 132.358 80.301 132.458 80.301C132.64 80.301 132.883 80.141 133.176 79.8199C133.47 79.4979 133.725 79.1898 133.929 78.8837L134.132 79.0275C133.696 79.6676 133.358 80.1113 133.111 80.3561C132.689 80.7759 132.264 80.9867 131.837 80.9867C131.652 80.9867 131.491 80.9388 131.349 80.8477C131.131 80.7131 131.021 80.4817 131.021 80.1549C131.021 80.026 131.042 79.8574 131.082 79.647C131.109 79.5215 131.146 79.3768 131.191 79.2109L133.337 71.6768Z" fill="#231F20"/>
<path d="M139.205 76.5837C139.814 76.0494 140.12 75.519 140.12 74.9948C140.12 74.8036 140.075 74.6513 139.981 74.5411C139.889 74.4261 139.75 74.3705 139.575 74.3705C139.245 74.3705 138.924 74.5114 138.604 74.7888C138.289 75.0648 138.005 75.3786 137.749 75.7294C137.479 76.1419 137.267 76.5348 137.109 76.9095C137.024 77.1113 136.931 77.3378 136.836 77.5932C137.807 77.4562 138.592 77.1155 139.205 76.5837ZM136.731 75.5712C137.737 74.532 138.78 74.0106 139.854 74.0106C140.251 74.0106 140.564 74.1002 140.796 74.2814C141.032 74.4586 141.148 74.7294 141.148 75.0844C141.148 75.8056 140.721 76.4227 139.866 76.9364C139.01 77.45 138.11 77.7638 137.164 77.8803L136.731 77.9296C136.664 78.1371 136.615 78.301 136.591 78.4255C136.564 78.5477 136.551 78.703 136.551 78.8879C136.551 79.3301 136.697 79.6737 136.989 79.92C137.28 80.1663 137.625 80.2889 138.028 80.2889C138.408 80.2889 138.81 80.1634 139.238 79.9109C139.481 79.7647 139.832 79.5017 140.293 79.1227L140.496 79.2971C140.266 79.5827 139.938 79.8769 139.511 80.1754C138.756 80.7178 137.998 80.9866 137.233 80.9866C136.691 80.9866 136.221 80.7954 135.817 80.4188C135.412 80.0426 135.205 79.5065 135.205 78.8046C135.205 77.6934 135.715 76.6153 136.731 75.5712Z" fill="#231F20"/>
<path d="M147.143 74.5784C146.976 74.4065 146.77 74.3197 146.53 74.3197C145.69 74.3197 144.912 74.9488 144.192 76.2061C143.558 77.311 143.243 78.2626 143.243 79.0614C143.243 79.4648 143.328 79.7556 143.505 79.9382C143.68 80.1246 143.896 80.2142 144.155 80.2142C144.923 80.2142 145.663 79.6052 146.376 78.3834C147.057 77.2723 147.401 76.2703 147.401 75.3772C147.401 75.013 147.315 74.7485 147.143 74.5784ZM147.391 74.2915C147.509 74.405 147.604 74.5482 147.67 74.7294L147.707 74.8324L147.879 74.2675C147.901 74.2019 147.921 74.1601 147.938 74.1377C147.953 74.1136 147.986 74.1002 148.046 74.096L148.929 73.9987C148.974 73.9987 149.004 74.0064 149.011 74.024C149.018 74.0409 149.018 74.072 149.007 74.1184C148.986 74.1841 148.967 74.2334 148.956 74.2737C148.947 74.3096 148.932 74.3662 148.91 74.4352L148.152 77.1261C147.986 77.7145 147.846 78.2209 147.734 78.6459C147.543 79.4154 147.449 79.8529 147.449 79.9636C147.449 80.0335 147.467 80.0858 147.509 80.1174C147.543 80.1485 147.591 80.1648 147.648 80.1648C147.691 80.1648 147.744 80.1514 147.801 80.1203C147.858 80.0906 147.925 80.047 148.007 79.9842L148.143 79.8812C148.185 79.8452 148.234 79.8064 148.289 79.7571C148.343 79.7111 148.405 79.6516 148.483 79.5826L148.984 79.1035L149.161 79.2583C148.616 79.9248 148.183 80.3771 147.853 80.6148C147.521 80.8534 147.207 80.9732 146.909 80.9732C146.713 80.9732 146.567 80.9056 146.463 80.7786C146.358 80.6459 146.306 80.4844 146.306 80.2889C146.306 80.1083 146.339 79.8515 146.408 79.5123C146.478 79.1764 146.545 78.8927 146.612 78.6627C146.52 78.8136 146.363 79.0317 146.148 79.321C145.933 79.608 145.668 79.8874 145.351 80.1576C144.98 80.483 144.626 80.7144 144.282 80.8476C144.02 80.9401 143.762 80.9866 143.519 80.9866C143.108 80.9866 142.734 80.8174 142.4 80.4844C142.063 80.1514 141.894 79.677 141.894 79.0656C141.894 78.0115 142.379 76.9138 143.347 75.7687C144.344 74.5794 145.379 73.9867 146.452 73.9867C146.855 73.9867 147.173 74.0883 147.391 74.2915Z" fill="#231F20"/>
<path d="M151.276 79.8587C151.421 80.0874 151.663 80.2024 152.006 80.2024C152.736 80.2024 153.438 79.6244 154.117 78.4716C154.763 77.3887 155.084 76.3629 155.084 75.3941C155.084 75.0879 155.036 74.8349 154.932 74.6351C154.829 74.432 154.619 74.3337 154.308 74.3337C153.525 74.3337 152.77 74.9518 152.04 76.1851C151.388 77.2891 151.063 78.2479 151.063 79.0586C151.063 79.3647 151.133 79.6322 151.276 79.8587ZM155.09 74.271C155.187 74.3797 155.266 74.5637 155.323 74.8306L156.213 71.7665C156.239 71.6797 156.255 71.6049 156.263 71.5365C156.27 71.4679 156.272 71.408 156.272 71.3601C156.272 71.1645 156.236 71.0419 156.164 70.9897C156.09 70.9403 155.982 70.9149 155.845 70.9149C155.757 70.9149 155.676 70.9183 155.602 70.9227C155.53 70.9255 155.429 70.936 155.305 70.9466V70.6985C155.885 70.6221 156.685 70.4895 157.712 70.3011L157.779 70.3788L157.761 70.4584L156.257 75.8541L155.23 79.4352C155.209 79.5172 155.193 79.5899 155.182 79.6604C155.165 79.7289 155.16 79.7917 155.16 79.8487C155.16 79.9843 155.193 80.0739 155.264 80.1175C155.332 80.1577 155.393 80.1755 155.445 80.1755C155.596 80.1755 155.805 80.0485 156.079 79.7888C156.242 79.6335 156.46 79.3868 156.739 79.0586L156.912 79.2243L156.808 79.3825C156.618 79.6556 156.375 79.9383 156.075 80.2248C155.551 80.7299 155.078 80.9867 154.659 80.9867C154.52 80.9867 154.399 80.9551 154.283 80.8937C154.074 80.7759 153.968 80.5593 153.968 80.2502C153.968 80.1458 153.983 79.98 154.013 79.75C154.047 79.5215 154.093 79.2694 154.156 78.991C153.768 79.5708 153.344 80.0471 152.88 80.416C152.415 80.7864 151.909 80.9733 151.364 80.9733C150.921 80.9733 150.532 80.8175 150.199 80.5056C149.869 80.1937 149.702 79.7184 149.702 79.0705C149.702 77.9819 150.214 76.8574 151.242 75.7074C152.264 74.5589 153.259 73.9868 154.229 73.9868C154.634 73.9868 154.92 74.0797 155.09 74.271Z" fill="#231F20"/>
<path d="M165.696 76.5837C166.307 76.0494 166.609 75.519 166.609 74.9948C166.609 74.8036 166.564 74.6513 166.472 74.5411C166.381 74.4261 166.245 74.3705 166.066 74.3705C165.739 74.3705 165.415 74.5114 165.098 74.7888C164.78 75.0648 164.496 75.3786 164.241 75.7294C163.974 76.1419 163.759 76.5348 163.602 76.9095C163.516 77.1113 163.424 77.3378 163.325 77.5932C164.295 77.4562 165.083 77.1155 165.696 76.5837ZM163.225 75.5712C164.229 74.532 165.272 74.0106 166.345 74.0106C166.742 74.0106 167.055 74.1002 167.291 74.2814C167.524 74.4586 167.642 74.7294 167.642 75.0844C167.642 75.8056 167.215 76.4227 166.36 76.9364C165.5 77.45 164.605 77.7638 163.652 77.8803L163.219 77.9296C163.152 78.1371 163.107 78.301 163.083 78.4255C163.058 78.5477 163.042 78.703 163.042 78.8879C163.042 79.3301 163.188 79.6737 163.483 79.92C163.774 80.1663 164.119 80.2889 164.519 80.2889C164.902 80.2889 165.299 80.1634 165.729 79.9109C165.968 79.7647 166.323 79.5017 166.788 79.1227L166.985 79.2971C166.757 79.5827 166.434 79.8769 166.002 80.1754C165.247 80.7178 164.487 80.9866 163.726 80.9866C163.185 80.9866 162.716 80.7954 162.306 80.4188C161.9 80.0426 161.694 79.5065 161.694 78.8046C161.694 77.6934 162.203 76.6153 163.225 75.5712Z" fill="#231F20"/>
<path d="M167.889 79.893C168.012 79.8097 168.137 79.7675 168.268 79.7675C168.325 79.7675 168.386 79.7752 168.447 79.7943C168.511 79.814 168.574 79.8408 168.646 79.8811L168.916 80.0229C168.946 80.0425 168.986 80.0574 169.017 80.0631C169.053 80.0708 169.086 80.0737 169.129 80.0737C169.256 80.0737 169.353 80.0425 169.423 79.9812C169.49 79.9184 169.665 79.6975 169.954 79.3257C170.141 79.078 170.569 78.4777 171.239 77.526C171.239 77.4901 171.178 77.2199 171.06 76.7168C170.945 76.2132 170.835 75.7863 170.738 75.4355C170.638 75.0786 170.554 74.8443 170.478 74.7307C170.402 74.6186 170.26 74.5601 170.051 74.5601C169.977 74.5601 169.838 74.5889 169.629 74.6377C169.495 74.6665 169.353 74.7019 169.199 74.7412L169.129 74.4945L169.981 74.2094C170.199 74.1346 170.402 74.0719 170.59 74.0287C170.776 73.9837 170.933 73.9612 171.066 73.9612C171.281 73.9612 171.442 74.0239 171.549 74.1509C171.712 74.3512 171.849 74.7513 171.964 75.3455L172.121 76.2088C172.583 75.5175 172.94 75.0306 173.195 74.747C173.425 74.4902 173.641 74.3018 173.844 74.1734C174.051 74.0479 174.243 73.9866 174.425 73.9866C174.598 73.9866 174.742 74.0105 174.848 74.0627C175.042 74.1509 175.139 74.3215 175.139 74.575C175.139 74.7412 175.09 74.8754 174.99 74.9712C174.896 75.068 174.772 75.1144 174.617 75.1144C174.563 75.1144 174.508 75.1083 174.459 75.0963C174.408 75.0829 174.354 75.0647 174.296 75.0393L174.096 74.9558C174.041 74.9305 173.986 74.9098 173.935 74.8931C173.887 74.8754 173.846 74.8663 173.819 74.8663C173.589 74.8663 173.274 75.1576 172.864 75.7445C172.456 76.3282 172.252 76.6674 172.252 76.7599C172.252 76.8332 172.301 77.078 172.394 77.4915C172.491 77.9055 172.591 78.3444 172.707 78.8044C172.807 79.2404 172.891 79.5423 172.965 79.7095C173.085 79.9798 173.216 80.1139 173.368 80.1139C173.504 80.1139 173.644 80.0397 173.789 79.8887C173.932 79.7363 174.146 79.4647 174.432 79.0703L174.647 79.1973C174.425 79.5869 174.201 79.9227 173.965 80.2021C173.519 80.722 173.098 80.9865 172.692 80.9865C172.437 80.9865 172.233 80.8638 172.088 80.6233C172.004 80.4814 171.915 80.25 171.834 79.9318L171.361 78.0756L169.793 80.0976C169.487 80.4469 169.252 80.6832 169.083 80.8025C168.919 80.9237 168.716 80.9865 168.474 80.9865C168.143 80.9865 167.925 80.8848 167.803 80.6846C167.739 80.5787 167.708 80.4532 167.708 80.3099C167.708 80.1125 167.765 79.9754 167.889 79.893Z" fill="#231F20"/>
<path d="M175.68 80.1888C175.687 80.1337 175.696 80.0829 175.711 80.0259L177.193 74.7667H176.033C176.033 74.6321 176.046 74.5469 176.062 74.5114C176.088 74.474 176.136 74.441 176.217 74.405C176.739 74.187 177.142 73.9781 177.428 73.7764C177.716 73.5746 178.104 73.188 178.598 72.6087L178.719 72.4649C178.733 72.4458 178.756 72.4295 178.777 72.4156C178.799 72.4041 178.825 72.3978 178.849 72.3978C178.902 72.4084 178.934 72.4175 178.953 72.4295C178.971 72.464 178.98 72.4951 178.983 72.5219C178.987 72.5488 178.983 72.579 178.976 72.6068L178.522 74.2455H179.783L179.695 74.7667H178.37L176.946 79.8304C176.918 79.9214 176.927 80.0068 176.966 80.0906C177.009 80.1739 177.079 80.2142 177.172 80.2142C177.306 80.2142 177.493 80.0858 177.731 79.8232C177.87 79.6809 178.104 79.4034 178.431 78.9851L178.628 79.0988L178.522 79.2559C178.083 79.9023 177.701 80.3517 177.364 80.6071C177.03 80.8582 176.715 80.9866 176.415 80.9866C176.158 80.9866 175.965 80.9176 175.848 80.782C175.736 80.6459 175.676 80.495 175.676 80.3264C175.676 80.2861 175.678 80.2381 175.68 80.1888Z" fill="#231F20"/>
<path d="M183.385 74.0033C183.402 74.0302 183.413 74.0642 183.413 74.0972C183.402 74.1509 183.396 74.1912 183.391 74.2151L182.611 77.1422L182.781 76.8001C183.145 76.091 183.575 75.447 184.063 74.862C184.556 74.2779 185.019 73.9866 185.462 73.9866C185.699 73.9866 185.883 74.0642 186.01 74.2185C186.141 74.3752 186.208 74.5529 186.208 74.7542C186.208 74.9799 186.141 75.1676 186.016 75.3143C185.889 75.4638 185.711 75.5366 185.483 75.5366C185.329 75.5366 185.207 75.5074 185.128 75.446C185.046 75.3828 184.986 75.3143 184.94 75.2324L184.849 75.0647C184.83 75.035 184.804 75.0115 184.78 74.9947C184.752 74.9741 184.716 74.9664 184.673 74.9664C184.475 74.9664 184.188 75.2415 183.812 75.7862C183.436 76.3344 183.1 76.9257 182.802 77.5649C182.624 77.9515 182.426 78.4642 182.202 79.1015C182.066 79.5035 181.883 80.0722 181.653 80.8087H180.477L181.756 76.2568C181.83 75.9985 181.886 75.7685 181.929 75.562C181.971 75.3607 181.993 75.1949 181.993 75.0647C181.993 74.9156 181.957 74.802 181.881 74.7216C181.804 74.644 181.672 74.6052 181.483 74.6052C181.422 74.6052 181.348 74.6095 181.257 74.6186C181.165 74.6291 181.052 74.641 180.925 74.6559V74.4063L181.235 74.3498C181.632 74.2693 182.066 74.184 182.542 74.0958C183.015 74.0048 183.26 73.9612 183.287 73.9612C183.332 73.9612 183.366 73.9731 183.385 74.0033Z" fill="#231F20"/>
<path d="M191.011 74.5784C190.839 74.4065 190.636 74.3197 190.393 74.3197C189.556 74.3197 188.774 74.9488 188.056 76.2061C187.425 77.311 187.105 78.2626 187.105 79.0614C187.105 79.4648 187.197 79.7556 187.37 79.9382C187.549 80.1246 187.765 80.2142 188.022 80.2142C188.789 80.2142 189.529 79.6052 190.241 78.3834C190.92 77.2723 191.263 76.2703 191.263 75.3772C191.263 75.013 191.179 74.7485 191.011 74.5784ZM191.258 74.2915C191.375 74.405 191.469 74.5482 191.532 74.7294L191.576 74.8324L191.745 74.2675C191.769 74.2019 191.785 74.1601 191.8 74.1377C191.815 74.1136 191.853 74.1002 191.912 74.096L192.794 73.9987C192.842 73.9987 192.868 74.0064 192.876 74.024C192.883 74.0409 192.883 74.072 192.873 74.1184C192.853 74.1841 192.836 74.2334 192.825 74.2737C192.809 74.3096 192.798 74.3662 192.772 74.4352L192.018 77.1261C191.853 77.7145 191.711 78.2209 191.598 78.6459C191.409 79.4154 191.315 79.8529 191.315 79.9636C191.315 80.0335 191.333 80.0858 191.372 80.1174C191.409 80.1485 191.457 80.1648 191.515 80.1648C191.56 80.1648 191.609 80.1514 191.667 80.1203C191.721 80.0906 191.79 80.047 191.872 79.9842L192.009 79.8812C192.051 79.8452 192.096 79.8064 192.155 79.7571C192.206 79.7111 192.274 79.6516 192.346 79.5826L192.846 79.1035L193.028 79.2583C192.485 79.9248 192.046 80.3771 191.718 80.6148C191.386 80.8534 191.075 80.9732 190.776 80.9732C190.581 80.9732 190.429 80.9056 190.326 80.7786C190.227 80.6459 190.171 80.4844 190.171 80.2889C190.171 80.1083 190.205 79.8515 190.272 79.5123C190.34 79.1764 190.411 78.8927 190.475 78.6627C190.384 78.8136 190.232 79.0317 190.017 79.321C189.802 79.608 189.532 79.8874 189.216 80.1576C188.846 80.483 188.489 80.7144 188.149 80.8476C187.885 80.9401 187.631 80.9866 187.385 80.9866C186.97 80.9866 186.6 80.8174 186.263 80.4844C185.93 80.1514 185.76 79.677 185.76 79.0656C185.76 78.0115 186.245 76.9138 187.213 75.7687C188.21 74.5794 189.248 73.9867 190.317 73.9867C190.723 73.9867 191.035 74.0883 191.258 74.2915Z" fill="#231F20"/>
<path d="M195.384 80.2381C195.593 80.5132 195.902 80.6488 196.312 80.6488C197.142 80.6488 197.875 80.0307 198.52 78.7926C199.065 77.7322 199.338 76.7572 199.338 75.8659C199.338 75.4879 199.289 75.1831 199.198 74.9531C199.022 74.5157 198.695 74.2963 198.222 74.2963C197.442 74.2963 196.712 74.8726 196.026 76.024C195.39 77.0978 195.065 78.1596 195.065 79.2003C195.065 79.6167 195.171 79.9636 195.384 80.2381ZM200.12 74.6604C200.472 75.1098 200.647 75.6417 200.647 76.2521C200.647 77.3172 200.172 78.3642 199.219 79.3867C198.237 80.4518 197.191 80.9866 196.075 80.9866C195.374 80.9866 194.811 80.7834 194.389 80.3814C193.968 79.9799 193.755 79.4154 193.755 78.6852C193.755 77.5861 194.232 76.5348 195.177 75.5296C196.145 74.5009 197.184 73.9867 198.309 73.9867C199.168 73.9867 199.768 74.211 200.12 74.6604Z" fill="#231F20"/>
<path d="M204.46 74.0033C204.476 74.0302 204.487 74.0642 204.487 74.0972C204.48 74.1509 204.475 74.1912 204.468 74.2151L203.688 77.1422L203.855 76.8001C204.219 76.091 204.65 75.447 205.14 74.862C205.63 74.2779 206.093 73.9866 206.535 73.9866C206.776 73.9866 206.957 74.0642 207.088 74.2185C207.218 74.3752 207.282 74.5529 207.282 74.7542C207.282 74.9799 207.218 75.1676 207.09 75.3143C206.961 75.4638 206.784 75.5366 206.557 75.5366C206.403 75.5366 206.285 75.5074 206.205 75.446C206.123 75.3828 206.063 75.3143 206.015 75.2324L205.926 75.0647C205.905 75.035 205.881 75.0115 205.854 74.9947C205.823 74.9741 205.793 74.9664 205.75 74.9664C205.548 74.9664 205.263 75.2415 204.886 75.7862C204.51 76.3344 204.174 76.9257 203.877 77.5649C203.698 77.9515 203.5 78.4642 203.279 79.1015C203.139 79.5035 202.955 80.0722 202.727 80.8087H201.551L202.835 76.2568C202.906 75.9985 202.962 75.7685 203.004 75.562C203.048 75.3607 203.07 75.1949 203.07 75.0647C203.07 74.9156 203.033 74.802 202.955 74.7216C202.879 74.644 202.746 74.6052 202.558 74.6052C202.496 74.6052 202.421 74.6095 202.33 74.6186C202.237 74.6291 202.13 74.641 202.002 74.6559V74.4063L202.309 74.3498C202.706 74.2693 203.143 74.184 203.616 74.0958C204.092 74.0048 204.337 73.9612 204.362 73.9612C204.411 73.9612 204.443 73.9731 204.46 74.0033Z" fill="#231F20"/>
<path d="M208.477 79.8587C208.619 80.0874 208.861 80.2024 209.204 80.2024C209.938 80.2024 210.64 79.6244 211.315 78.4716C211.957 77.3887 212.284 76.3629 212.284 75.3941C212.284 75.0879 212.234 74.8349 212.13 74.6351C212.025 74.432 211.817 74.3337 211.505 74.3337C210.726 74.3337 209.971 74.9518 209.24 76.1851C208.586 77.2891 208.261 78.2479 208.261 79.0586C208.261 79.3647 208.334 79.6322 208.477 79.8587ZM212.291 74.271C212.388 74.3797 212.466 74.5637 212.521 74.8306L213.412 71.7665C213.438 71.6797 213.455 71.6049 213.464 71.5365C213.47 71.4679 213.474 71.408 213.474 71.3601C213.474 71.1645 213.434 71.0419 213.358 70.9897C213.285 70.9403 213.183 70.9149 213.043 70.9149C212.959 70.9149 212.874 70.9183 212.8 70.9227C212.728 70.9255 212.628 70.936 212.504 70.9466V70.6985C213.083 70.6221 213.886 70.4895 214.91 70.3011L214.98 70.3788L214.966 70.4584L213.457 75.8541L212.428 79.4352C212.409 79.5172 212.394 79.5899 212.379 79.6604C212.365 79.7289 212.361 79.7917 212.361 79.8487C212.361 79.9843 212.394 80.0739 212.464 80.1175C212.534 80.1577 212.591 80.1755 212.642 80.1755C212.791 80.1755 213.007 80.0485 213.28 79.7888C213.438 79.6335 213.655 79.3868 213.941 79.0586L214.114 79.2243L214.005 79.3825C213.819 79.6556 213.571 79.9383 213.276 80.2248C212.751 80.7299 212.28 80.9867 211.857 80.9867C211.72 80.9867 211.593 80.9551 211.484 80.8937C211.275 80.7759 211.169 80.5593 211.169 80.2502C211.169 80.1458 211.181 79.98 211.215 79.75C211.245 79.5215 211.291 79.2694 211.354 78.991C210.965 79.5708 210.539 80.0471 210.08 80.416C209.613 80.7864 209.113 80.9733 208.565 80.9733C208.122 80.9733 207.73 80.8175 207.401 80.5056C207.069 80.1937 206.903 79.7184 206.903 79.0705C206.903 77.9819 207.416 76.8574 208.44 75.7074C209.462 74.5589 210.459 73.9868 211.431 73.9868C211.832 73.9868 212.122 74.0797 212.291 74.271Z" fill="#231F20"/>
<path d="M217.324 72.107C217.172 71.9469 217.1 71.7529 217.1 71.5272C217.1 71.2958 217.172 71.1003 217.324 70.9402C217.472 70.7793 217.649 70.6984 217.861 70.6984C218.07 70.6984 218.252 70.7793 218.4 70.9402C218.552 71.1003 218.626 71.2958 218.626 71.5272C218.626 71.7572 218.552 71.9532 218.4 72.1094C218.252 72.268 218.07 72.349 217.861 72.349C217.649 72.349 217.472 72.268 217.324 72.107ZM218.047 73.9886C218.074 74.0049 218.082 74.026 218.078 74.0528L216.538 79.4288C216.466 79.7139 216.433 79.8855 216.433 79.9396C216.433 80.0172 216.448 80.0829 216.479 80.1366C216.502 80.1979 216.565 80.2276 216.669 80.2276C216.842 80.2276 217.07 80.0786 217.354 79.7825C217.521 79.608 217.725 79.3541 217.97 79.0273L218.174 79.1931L218.097 79.299C217.712 79.8275 217.4 80.2084 217.148 80.4399C216.76 80.8026 216.375 80.9866 216.005 80.9866C215.787 80.9866 215.602 80.8922 215.456 80.713C215.314 80.5338 215.241 80.3158 215.241 80.0695C215.241 79.9248 215.25 79.7978 215.272 79.6885C215.293 79.5798 215.329 79.4197 215.384 79.2094L216.479 75.3341C216.493 75.2742 216.506 75.2186 216.515 75.1697C216.527 75.1189 216.53 75.0696 216.53 75.0173C216.53 74.8381 216.464 74.726 216.326 74.6824C216.196 74.6412 215.929 74.6187 215.532 74.6187V74.3705C215.951 74.3197 216.251 74.2842 216.436 74.256C216.62 74.2286 216.806 74.1989 216.99 74.1707C217.233 74.1305 217.464 74.0854 217.679 74.036C217.897 73.9867 218.015 73.9704 218.047 73.9886Z" fill="#231F20"/>
<path d="M219.116 80.8088L220.423 76.1688C220.535 75.7778 220.599 75.5387 220.618 75.4548C220.635 75.3743 220.647 75.2833 220.647 75.186C220.647 75.0394 220.602 74.9249 220.52 74.8424C220.435 74.7586 220.271 74.7174 220.026 74.7174C219.968 74.7174 219.904 74.7217 219.847 74.7294C219.792 74.7366 219.726 74.7452 219.657 74.7543V74.508C219.983 74.4573 220.221 74.4184 220.36 74.3944C220.495 74.369 220.647 74.3379 220.808 74.3048L222.167 74.0106C222.197 74.0303 222.216 74.0542 222.228 74.0796L221.227 77.3125C221.851 76.3747 222.372 75.6757 222.791 75.2206C223.531 74.4141 224.185 74.0106 224.771 74.0106C224.999 74.0106 225.193 74.0542 225.355 74.139C225.668 74.3048 225.822 74.6005 225.822 75.0336C225.822 75.1549 225.811 75.2804 225.787 75.4103C225.759 75.5415 225.725 75.6819 225.683 75.831L224.679 79.4303C224.662 79.5065 224.641 79.5976 224.61 79.7063C224.586 79.8141 224.574 79.8888 224.574 79.932C224.574 80.0081 224.592 80.0767 224.625 80.1366C224.662 80.1979 224.719 80.2276 224.802 80.2276C224.926 80.2276 225.074 80.1514 225.238 79.999C225.404 79.8467 225.672 79.5232 226.05 79.024L226.273 79.2242C225.863 79.7753 225.535 80.1682 225.298 80.3934C224.888 80.7863 224.498 80.9866 224.122 80.9866C223.955 80.9866 223.786 80.9281 223.631 80.816C223.473 80.701 223.397 80.495 223.397 80.2008C223.397 80.1126 223.401 80.023 223.413 79.9276C223.424 79.8304 223.443 79.7499 223.464 79.6781L224.447 76.0269C224.498 75.8266 224.532 75.6628 224.55 75.5344C224.571 75.4074 224.577 75.3159 224.577 75.2608C224.577 75.14 224.547 75.037 224.487 74.9488C224.432 74.8621 224.324 74.819 224.177 74.819C223.786 74.819 223.304 75.1549 222.716 75.8372C222.367 76.2421 222.019 76.7227 221.66 77.2827C221.39 77.7173 221.178 78.1433 221.024 78.554C220.869 78.9675 220.624 79.7183 220.293 80.8088H219.116Z" fill="#231F20"/>
<path d="M232.151 74.5784C231.982 74.4065 231.775 74.3197 231.53 74.3197C230.696 74.3197 229.913 74.9488 229.195 76.2061C228.561 77.311 228.246 78.2626 228.246 79.0614C228.246 79.4648 228.335 79.7556 228.51 79.9382C228.686 80.1246 228.904 80.2142 229.161 80.2142C229.932 80.2142 230.666 79.6052 231.378 78.3834C232.06 77.2723 232.407 76.2703 232.407 75.3772C232.407 75.013 232.321 74.7485 232.151 74.5784ZM232.397 74.2915C232.512 74.405 232.609 74.5482 232.676 74.7294L232.713 74.8324L232.889 74.2675C232.906 74.2019 232.924 74.1601 232.939 74.1377C232.954 74.1136 232.991 74.1002 233.049 74.096L233.937 73.9987C233.98 73.9987 234.01 74.0064 234.017 74.024C234.022 74.0409 234.022 74.072 234.013 74.1184C233.989 74.1841 233.974 74.2334 233.962 74.2737C233.952 74.3096 233.937 74.3662 233.913 74.4352L233.159 77.1261C232.991 77.7145 232.851 78.2209 232.736 78.6459C232.552 79.4154 232.455 79.8529 232.455 79.9636C232.455 80.0335 232.472 80.0858 232.509 80.1174C232.552 80.1485 232.597 80.1648 232.651 80.1648C232.696 80.1648 232.749 80.1514 232.807 80.1203C232.861 80.0906 232.927 80.047 233.013 79.9842L233.146 79.8812C233.191 79.8452 233.24 79.8064 233.288 79.7571C233.345 79.7111 233.41 79.6516 233.483 79.5826L233.983 79.1035L234.167 79.2583C233.622 79.9248 233.186 80.3771 232.855 80.6148C232.527 80.8534 232.213 80.9732 231.915 80.9732C231.72 80.9732 231.568 80.9056 231.469 80.7786C231.363 80.6459 231.308 80.4844 231.308 80.2889C231.308 80.1083 231.344 79.8515 231.414 79.5123C231.481 79.1764 231.551 78.8927 231.615 78.6627C231.523 78.8136 231.369 79.0317 231.153 79.321C230.939 79.608 230.672 79.8874 230.36 80.1576C229.987 80.483 229.626 80.7144 229.289 80.8476C229.026 80.9401 228.768 80.9866 228.525 80.9866C228.113 80.9866 227.739 80.8174 227.403 80.4844C227.067 80.1514 226.9 79.677 226.9 79.0656C226.9 78.0115 227.384 76.9138 228.35 75.7687C229.347 74.5794 230.384 73.9867 231.454 73.9867C231.86 73.9867 232.176 74.0883 232.397 74.2915Z" fill="#231F20"/>
<path d="M237.779 74.0033C237.794 74.0302 237.806 74.0642 237.806 74.0972C237.803 74.1509 237.791 74.1912 237.784 74.2151L237.005 77.1422L237.178 76.8001C237.54 76.091 237.97 75.447 238.461 74.862C238.949 74.2779 239.409 73.9866 239.856 73.9866C240.092 73.9866 240.278 74.0642 240.407 74.2185C240.536 74.3752 240.601 74.5529 240.601 74.7542C240.601 74.9799 240.538 75.1676 240.411 75.3143C240.284 75.4638 240.102 75.5366 239.876 75.5366C239.722 75.5366 239.604 75.5074 239.523 75.446C239.441 75.3828 239.38 75.3143 239.334 75.2324L239.243 75.0647C239.225 75.035 239.198 75.0115 239.17 74.9947C239.147 74.9741 239.11 74.9664 239.071 74.9664C238.871 74.9664 238.586 75.2415 238.203 75.7862C237.831 76.3344 237.493 76.9257 237.197 77.5649C237.015 77.9515 236.821 78.4642 236.596 79.1015C236.464 79.5035 236.275 80.0722 236.047 80.8087H234.87L236.154 76.2568C236.223 75.9985 236.281 75.7685 236.324 75.562C236.367 75.3607 236.387 75.1949 236.387 75.0647C236.387 74.9156 236.352 74.802 236.275 74.7216C236.199 74.644 236.066 74.6052 235.878 74.6052C235.817 74.6052 235.739 74.6095 235.648 74.6186C235.56 74.6291 235.448 74.641 235.321 74.6559V74.4063L235.629 74.3498C236.027 74.2693 236.464 74.184 236.933 74.0958C237.409 74.0048 237.657 73.9612 237.682 73.9612C237.73 73.9612 237.761 73.9731 237.779 74.0033Z" fill="#231F20"/>
<path d="M240.313 82.883C240.417 82.768 240.566 82.7081 240.76 82.7081C240.884 82.7081 240.999 82.7335 241.093 82.78C241.19 82.8289 241.294 82.8993 241.402 82.9889L241.505 83.0679C241.539 83.0924 241.569 83.1097 241.612 83.1236C241.647 83.1384 241.69 83.1432 241.733 83.1432C241.985 83.1432 242.387 82.8174 242.94 82.1691C243.488 81.5193 243.764 81.0474 243.764 80.7517C243.764 80.4709 243.67 79.92 243.479 79.0987C243.291 78.2745 243.103 77.5424 242.925 76.9032C242.676 76.0043 242.448 75.3905 242.243 75.0709C242.036 74.7514 241.729 74.5918 241.33 74.5918C241.296 74.5918 241.247 74.5947 241.169 74.6005C241.096 74.6096 240.971 74.623 240.793 74.6441V74.3944L242.879 74.0006L243.04 73.9867C243.167 73.9704 243.409 74.5367 243.773 75.6804C244.098 76.7082 244.303 77.4561 244.383 77.9176L244.692 79.7125C245.229 78.8299 245.62 78.1534 245.868 77.6847C246.36 76.76 246.608 76.1088 246.608 75.7355C246.608 75.6517 246.589 75.5684 246.56 75.4845C246.53 75.404 246.457 75.3312 246.348 75.2727L246.218 75.2041C246.136 75.1663 246.042 75.0878 245.932 74.9771C245.82 74.8664 245.769 74.7202 245.769 74.5367C245.769 74.3796 245.816 74.2468 245.924 74.1424C246.023 74.0374 246.178 73.9867 246.378 73.9867C246.63 73.9867 246.835 74.0585 246.993 74.208C247.148 74.3527 247.227 74.6067 247.227 74.9632C247.227 75.497 246.929 76.357 246.335 77.5424C245.875 78.4476 245.366 79.3272 244.798 80.1754C244.092 81.2405 243.483 82.0613 242.972 82.6367C242.163 83.5443 241.493 83.9999 240.956 83.9999C240.747 83.9999 240.566 83.9357 240.405 83.8121C240.242 83.6851 240.162 83.5146 240.162 83.2965C240.162 83.1351 240.214 82.998 240.313 82.883Z" fill="#231F20"/>
<path d="M254.389 71.6768C254.407 71.6107 254.422 71.5471 254.425 71.4813C254.434 71.4172 254.434 71.3631 254.434 71.3227C254.434 71.1512 254.363 71.0467 254.225 71.008C254.086 70.9705 253.81 70.9524 253.394 70.9586V70.7123C253.622 70.6792 253.885 70.6448 254.186 70.6073C254.486 70.5671 254.676 70.5389 254.771 70.5241C255.058 70.4733 255.405 70.3999 255.811 70.3011C255.847 70.3011 255.88 70.3265 255.92 70.3788L253.37 79.4289C253.316 79.6455 253.279 79.7754 253.271 79.8199C253.258 79.865 253.254 79.911 253.254 79.9546C253.254 80.0499 253.273 80.1309 253.309 80.2024C253.343 80.2679 253.41 80.301 253.507 80.301C253.689 80.301 253.93 80.141 254.225 79.8199C254.522 79.4979 254.773 79.1898 254.976 78.8837L255.185 79.0275C254.744 79.6676 254.404 80.1113 254.161 80.3561C253.74 80.7759 253.316 80.9867 252.888 80.9867C252.703 80.9867 252.542 80.9388 252.4 80.8477C252.181 80.7131 252.069 80.4817 252.069 80.1549C252.069 80.026 252.094 79.8574 252.129 79.647C252.159 79.5215 252.197 79.3768 252.242 79.2109L254.389 71.6768Z" fill="#231F20"/>
<path d="M258.591 72.107C258.446 71.9469 258.37 71.7529 258.37 71.5272C258.37 71.2958 258.446 71.1003 258.591 70.9402C258.74 70.7793 258.921 70.6984 259.128 70.6984C259.34 70.6984 259.517 70.7793 259.667 70.9402C259.817 71.1003 259.891 71.2958 259.891 71.5272C259.891 71.7572 259.817 71.9532 259.667 72.1094C259.517 72.268 259.34 72.349 259.128 72.349C258.921 72.349 258.74 72.268 258.591 72.107ZM259.312 73.9886C259.339 74.0049 259.353 74.026 259.35 74.0528L257.81 79.4288C257.736 79.7139 257.699 79.8855 257.699 79.9396C257.699 80.0172 257.718 80.0829 257.746 80.1366C257.77 80.1979 257.833 80.2276 257.939 80.2276C258.109 80.2276 258.336 80.0786 258.618 79.7825C258.788 79.608 258.998 79.3541 259.238 79.0273L259.44 79.1931L259.365 79.299C258.985 79.8275 258.667 80.2084 258.422 80.4399C258.025 80.8026 257.643 80.9866 257.273 80.9866C257.053 80.9866 256.876 80.8922 256.726 80.713C256.582 80.5338 256.508 80.3158 256.508 80.0695C256.508 79.9248 256.517 79.7978 256.538 79.6885C256.56 79.5798 256.599 79.4197 256.653 79.2094L257.746 75.3341C257.761 75.2742 257.772 75.2186 257.782 75.1697C257.793 75.1189 257.799 75.0696 257.799 75.0173C257.799 74.8381 257.733 74.726 257.597 74.6824C257.463 74.6412 257.197 74.6187 256.802 74.6187V74.3705C257.218 74.3197 257.52 74.2842 257.702 74.256C257.888 74.2286 258.076 74.1989 258.258 74.1707C258.503 74.1305 258.731 74.0854 258.946 74.036C259.162 73.9867 259.286 73.9704 259.312 73.9886Z" fill="#231F20"/>
<path d="M266.541 74.311C266.695 74.5142 266.772 74.7413 266.772 74.9982C266.772 75.6756 266.097 76.8644 264.738 78.5626C263.445 80.1754 262.67 80.9866 262.412 80.9866C262.336 80.9866 262.282 80.8816 262.26 80.6742C262.245 80.5592 262.237 80.3637 262.237 80.0858C262.237 79.7499 262.203 79.1777 262.136 78.3747C262.069 77.5712 262.006 76.9751 261.945 76.5899C261.818 75.7389 261.693 75.1908 261.572 74.9459C261.45 74.6977 261.218 74.577 260.874 74.577C260.819 74.577 260.754 74.5784 260.681 74.5842C260.608 74.5904 260.52 74.5947 260.423 74.6067V74.4064C260.578 74.3781 260.901 74.3096 261.393 74.208C261.884 74.1036 262.141 74.0451 262.175 74.036L262.427 73.9613C262.503 73.9407 262.554 73.978 262.6 74.0796C262.636 74.175 262.691 74.3556 262.752 74.623C262.945 75.497 263.094 76.3584 263.191 77.208C263.251 77.7355 263.313 78.5151 263.373 79.551L263.625 79.2884C264.149 78.7403 264.669 78.0892 265.193 77.3364C265.711 76.5822 265.972 76.0494 265.972 75.7355C265.972 75.5803 265.857 75.3939 265.632 75.1759C265.402 74.9559 265.286 74.7576 265.286 74.577C265.286 74.4098 265.345 74.2737 265.457 74.1707C265.575 74.0643 265.715 74.0106 265.884 74.0106C266.171 74.0106 266.391 74.1108 266.541 74.311Z" fill="#231F20"/>
<path d="M271.542 76.5837C272.151 76.0494 272.454 75.519 272.454 74.9948C272.454 74.8036 272.406 74.6513 272.317 74.5411C272.227 74.4261 272.093 74.3705 271.912 74.3705C271.584 74.3705 271.259 74.5114 270.941 74.7888C270.625 75.0648 270.338 75.3786 270.086 75.7294C269.814 76.1419 269.601 76.5348 269.447 76.9095C269.358 77.1113 269.271 77.3378 269.17 77.5932C270.141 77.4562 270.93 77.1155 271.542 76.5837ZM269.067 75.5712C270.074 74.532 271.117 74.0106 272.19 74.0106C272.588 74.0106 272.9 74.1002 273.136 74.2814C273.37 74.4586 273.489 74.7294 273.489 75.0844C273.489 75.8056 273.06 76.4227 272.204 76.9364C271.344 77.45 270.444 77.7638 269.501 77.8803L269.067 77.9296C269 78.1371 268.952 78.301 268.928 78.4255C268.901 78.5477 268.888 78.703 268.888 78.8879C268.888 79.3301 269.034 79.6737 269.325 79.92C269.619 80.1663 269.962 80.2889 270.366 80.2889C270.748 80.2889 271.147 80.1634 271.572 79.9109C271.817 79.7647 272.17 79.5017 272.63 79.1227L272.829 79.2971C272.603 79.5827 272.272 79.8769 271.849 80.1754C271.09 80.7178 270.332 80.9866 269.571 80.9866C269.028 80.9866 268.558 80.7954 268.151 80.4188C267.745 80.0426 267.542 79.5065 267.542 78.8046C267.542 77.6934 268.049 76.6153 269.067 75.5712Z" fill="#231F20"/>
<path d="M274.547 78.5525H274.798C274.91 79.1615 275.044 79.6109 275.196 79.8931C275.474 80.4145 275.893 80.6742 276.447 80.6742C276.757 80.6742 277.017 80.5654 277.23 80.3503C277.439 80.1366 277.546 79.8515 277.546 79.4959C277.546 79.275 277.518 79.0958 277.463 78.954C277.412 78.8165 277.345 78.6867 277.263 78.5746L276.632 77.6503C276.25 77.0901 276.011 76.714 275.914 76.5242C275.768 76.2387 275.693 75.9522 275.693 75.6637C275.693 75.2296 275.851 74.8444 276.172 74.5114C276.487 74.1765 276.941 74.0106 277.531 74.0106C277.778 74.0106 278.063 74.0585 278.382 74.1482C278.704 74.2421 278.921 74.2885 279.037 74.2885C279.167 74.2885 279.261 74.2646 279.318 74.2138C279.382 74.1631 279.437 74.0974 279.492 74.0106H279.71L279.397 76.1467H279.143C279.075 75.6628 278.98 75.2981 278.846 75.0514C278.604 74.5976 278.218 74.3705 277.688 74.3705C277.463 74.3705 277.263 74.441 277.091 74.577C276.912 74.714 276.827 74.9143 276.827 75.1817C276.827 75.3849 276.866 75.5684 276.945 75.7222C277.021 75.8759 277.199 76.151 277.478 76.5482L278.021 77.3125C278.3 77.7068 278.5 78.0298 278.615 78.2804C278.731 78.531 278.792 78.8017 278.792 79.0901C278.792 79.6287 278.562 80.0858 278.091 80.4533C277.621 80.8237 277.064 81.0072 276.417 81.0072C276.212 81.0072 275.914 80.9655 275.528 80.8816C275.141 80.7954 274.917 80.7532 274.856 80.7532C274.756 80.7532 274.68 80.7758 274.632 80.8174C274.579 80.8596 274.535 80.9238 274.498 81.0072H274.243L274.547 78.5525Z" fill="#231F20"/>
</svg>
