<svg width="397" height="124" viewBox="0 0 397 124" fill="none" xmlns="http://www.w3.org/2000/svg">
<path d="M5.51538 3.9858V6.32L8.66446 5.17418V5.13018L5.51538 3.9858ZM11.0425 5.95279L8.37823 6.96643C6.63127 7.62698 4.85467 8.27287 3.42288 8.83093C2.14905 9.33034 2.04767 9.53548 1.96352 10.3871H1.56213V6.52516H1.96352L2.02077 6.93673C2.10698 7.49553 2.24974 7.52451 2.79458 7.34777C3.22081 7.20129 4.1105 6.84838 4.85467 6.54001V3.8232C4.42362 3.63145 3.62498 3.36834 3.02356 3.16318C2.26215 2.89791 2.07526 3.01616 2.00354 3.66259L1.96352 4.07345H1.56213V0.813599H1.96352C2.07526 1.72313 2.13386 1.88572 3.42288 2.39924L10.868 5.36648L11.0425 5.95279Z" fill="#A20641"/>
<path d="M3.73876 13.9052C2.42009 13.9052 2.14905 14.0531 2.14905 15.184C2.14905 17.62 3.8222 18.8839 6.20229 18.8839C9.26793 18.8839 10.3238 17.2982 10.3238 14.9484C10.3238 14.4632 10.2687 14.082 10.1976 13.9944C10.1238 13.9052 9.86725 13.9052 9.49276 13.9052H3.73876ZM10.868 15.4175C10.868 17.0626 10.5273 18.5607 9.61069 19.5298C8.95066 20.2059 7.89063 20.764 6.63127 20.764C3.10978 20.764 1.56213 17.9736 1.56213 14.5369V10.9388H1.96352C2.04767 12.1447 2.16353 12.2606 3.7091 12.2606H8.71893C10.2687 12.2606 10.3845 12.1447 10.4687 11.0554H10.868V15.4175Z" fill="#A20641"/>
<path d="M6.31403 28.3791C5.4285 28.3791 4.71191 27.6596 4.71191 26.7784C4.71191 25.897 5.4285 25.1628 6.31403 25.1628C7.18855 25.1628 7.92031 25.897 7.92031 26.7784C7.92031 27.6596 7.18855 28.3791 6.31403 28.3791Z" fill="#A20641"/>
<path d="M10.868 34.7376L4.03877 37.9827L10.868 41.0511V43.8265H10.4687C10.3528 42.6384 10.2983 42.5789 8.71893 42.608L3.7091 42.7549C2.10698 42.7989 2.07526 42.8434 1.96352 44.0331H1.56213V39.9349H1.96352C2.07526 41.0815 2.10698 41.1253 3.7091 41.1099L9.20723 41.0511V40.9931L1.73456 37.6582V37.2195L8.921 34.0029V33.9439L5.214 33.8407C3.92361 33.8125 3.13736 33.8266 2.70769 33.8861C2.16353 33.9439 2.04767 34.2518 1.96352 35.2221H1.56213V31.7415H1.96352C2.02077 32.4756 2.16353 32.7692 2.70769 32.8716C3.13736 32.946 3.98015 33.0634 5.35745 33.1362L8.30514 33.2975C10.2121 33.4007 10.3528 33.2975 10.4687 32.0356H10.868V34.7376Z" fill="#A20641"/>
<path d="M5.51049 47.9602L5.54015 50.2942L8.67473 49.1068V49.0628L5.51049 47.9602ZM11.0659 49.8522L8.40989 50.902C6.67536 51.5872 4.90703 52.2585 3.48422 52.8349C2.21589 53.3505 2.11933 53.5586 2.04346 54.4114L1.64208 54.4173L1.59173 50.5561L1.99313 50.5489L2.05656 50.9606C2.14899 51.5165 2.29176 51.5442 2.83384 51.3602C3.26076 51.2081 4.14424 50.843 4.88633 50.5235L4.85047 47.8074C4.41734 47.6234 3.61248 47.3689 3.00902 47.1707C2.24555 46.9183 2.06072 47.0393 1.99726 47.685L1.95934 48.096L1.56 48.103L1.51587 44.8424L1.91932 44.8372C2.04553 45.7455 2.10279 45.9076 3.39938 46.4041L10.8845 49.2665L11.0659 49.8522Z" fill="#A20641"/>
<path d="M9.2155 54.3933C10.6914 53.9208 10.7652 53.7729 10.4935 52.584L10.8763 52.4616L12.0791 56.4169L11.6963 56.5398C11.3135 55.568 11.1707 55.4917 9.69276 55.9656L5.27742 57.3773C3.78289 57.8541 2.55664 58.1094 1.29108 57.1595C0.828306 56.8158 0.370359 56.3468 0 55.7258L0.331046 55.4365C1.04073 56.2393 1.76833 56.4084 2.54424 56.344C3.24425 56.2734 4.04704 56.047 4.97466 55.7505L9.2155 54.3933Z" fill="#A20641"/>
<path d="M8.16029 60.3002C5.98365 61.7446 4.92223 63.8452 6.02365 65.5972C6.83332 66.8796 8.49822 67.1753 10.7611 65.6759C13.2646 64.0192 14.026 62.062 12.9853 60.4096C12.1611 59.102 10.2921 58.8927 8.16029 60.3002ZM12.2156 66.9835C9.65482 68.6818 6.82506 67.9511 5.34915 65.6071C3.81805 63.1783 4.57945 60.4026 6.76574 58.9527C8.7403 57.6463 11.8811 57.5741 13.7088 60.4741C15.0502 62.6074 14.5619 65.4317 12.2156 66.9835Z" fill="#A20641"/>
<path d="M15.0688 69.1911L15.4826 69.5474C15.9226 69.9251 16.284 70.119 16.755 70.1395C17.4868 70.155 18.0792 69.7447 18.5212 69.2059C19.4717 68.0316 19.0132 66.9515 18.3109 66.3496C17.7834 65.8977 17.726 65.9252 17.4323 66.2839L15.0688 69.1911ZM18.9352 66.1558C19.7344 66.8412 20.2303 67.4213 20.4325 68.0911C20.6235 68.7511 20.5353 69.4775 19.9931 70.1409C19.2256 71.0872 18.1131 71.2626 16.9482 70.8404C16.864 71.3058 16.6544 72.4608 16.5929 73.2679C16.5048 74.2448 16.4605 74.894 16.4882 75.2986C16.5323 75.7944 16.5674 76.1134 16.8219 76.4664L16.5405 76.7217L16.0992 76.3023C14.9743 75.1876 14.8564 74.5538 14.9405 73.5558C15.0123 72.7368 15.2371 71.7062 15.3943 70.8468C15.4743 70.3836 15.4371 70.1558 15.1047 69.8742L14.7536 69.5743L13.5253 71.0838C12.5377 72.3002 12.5522 72.4652 13.3301 73.2474L13.0735 73.5621L9.97412 70.9112L10.2327 70.5943C11.1686 71.2811 11.3287 71.2648 12.3183 70.0489L15.5274 66.1063C16.5151 64.8911 16.5005 64.7264 15.7226 63.9448L15.9771 63.6287L18.9352 66.1558Z" fill="#A20641"/>
<path d="M27.8643 72.4367C27.774 72.6567 27.3009 73.6292 26.9374 74.4647L26.5505 74.2715C26.765 73.5884 26.8132 73.1435 26.7332 72.8421C26.6429 72.5026 26.2856 72.1935 25.5139 71.7428L24.8898 71.3799C24.4188 71.1056 24.3931 71.0908 24.1373 71.5498L22.6399 74.2567L23.7083 74.8819C24.7802 75.5044 24.8457 75.4429 25.516 74.5331L25.9153 74.7646L24.4146 77.4729L24.0147 77.2395C24.4503 76.1572 24.4546 76.0907 23.3822 75.4676L22.3118 74.8429L21.1489 76.9381C20.7414 77.678 20.5924 78.0647 20.7249 78.3612C20.8634 78.6449 21.3049 78.9185 21.8262 79.2242C22.4503 79.5871 23.0519 79.8698 23.4919 79.7023C23.8338 79.5841 24.2864 79.2729 24.8407 78.7842L25.1711 79.077C24.8815 79.4836 23.8841 80.6247 23.5884 80.9252L17.5116 77.3845L17.7096 77.0258C18.8192 77.5719 18.9792 77.5301 19.7426 76.1502L22.2193 71.6813C22.985 70.3027 22.9408 70.1429 22.0366 69.5142L22.2339 69.1562L27.8643 72.4367Z" fill="#A20641"/>
<path d="M31.2501 74.0289L31.6473 81.7373L36.9639 76.3744L39.4773 77.4084L39.3276 77.7891C38.2089 77.4538 38.1337 77.4892 37.5765 78.9987L35.8441 83.8246C35.2889 85.3658 35.3156 85.4089 36.3503 85.9592L36.2033 86.344L32.4964 84.8205L32.6459 84.4379C33.7218 84.754 33.775 84.744 34.355 83.212L36.3482 77.9575L36.2917 77.9348L30.5011 83.809L30.1018 83.6464L29.8639 75.6091L29.8094 75.5858L28.3354 79.077C27.8313 80.2944 27.5514 81.0484 27.4444 81.4791C27.2967 82.0195 27.5326 82.2438 28.3777 82.6857L28.2286 83.0684L25.0789 81.7741L25.2285 81.3921C25.9153 81.6106 26.2333 81.5823 26.5271 81.1028C26.7547 80.7215 27.1748 79.9626 27.7513 78.6803L28.9955 75.9338C29.7969 74.1583 29.7591 73.9837 28.6555 73.4065L28.8046 73.0225L31.2501 74.0289Z" fill="#A20641"/>
<path d="M46.1755 84.3571C45.8983 85.2237 45.0065 85.6983 44.1906 85.4208C43.3776 85.1472 42.9189 84.2192 43.196 83.354C43.4678 82.5025 44.3762 82.0202 45.192 82.2967C46.0093 82.5726 46.4486 83.507 46.1755 84.3571Z" fill="#A20641"/>
<path d="M54.2806 84.1096C54.7957 85.353 55.0315 85.554 56.0489 85.1125C58.2373 84.1585 58.7172 82.0854 57.7897 79.8403C56.5916 76.9479 54.7536 76.5661 52.6426 77.4849C52.2094 77.673 51.8881 77.876 51.8377 77.9801C51.7868 78.0811 51.8881 78.3238 52.0329 78.6759L54.2806 84.1096ZM53.0067 76.7691C54.5013 76.1694 55.9855 75.9509 57.1994 76.4734C58.0524 76.8575 58.9462 77.6666 59.4041 78.8692C60.687 82.2353 58.7172 84.7278 55.5972 85.9804L52.3295 87.2883L52.1826 86.9077C53.246 86.3858 53.3096 86.2337 52.7481 84.7567L50.9211 79.9697C50.3597 78.4928 50.2101 78.4263 49.1928 78.7397L49.0452 78.357L53.0067 76.7691Z" fill="#A20641"/>
<path d="M63.4408 71.8807C63.572 72.076 64.1058 73.0147 64.5873 73.785L64.2194 74.0112C63.7754 73.4525 63.4408 73.166 63.1532 73.0697C62.8257 72.9616 62.3775 73.0981 61.589 73.5134L60.9518 73.847C60.4664 74.1018 60.4386 74.1159 60.6767 74.5857L62.0581 77.3561L63.1553 76.7804C64.2505 76.2061 64.2382 76.1133 63.8616 75.0395L64.2718 74.8274L65.6535 77.5965L65.2472 77.8102C64.5996 76.844 64.5493 76.8072 63.456 77.3838L62.3608 77.9581L63.4291 80.1006C63.8072 80.8601 64.0424 81.1975 64.3561 81.2484C64.6651 81.2865 65.1299 81.0554 65.6637 80.7737C66.301 80.4413 66.8623 80.0784 66.9672 79.6132C67.0595 79.251 67.0555 78.6921 66.9568 77.9504L67.3776 77.8279C67.5493 78.2997 67.9361 79.7801 68.0143 80.1989L61.7975 83.4665L61.6147 83.1017C62.6698 82.4467 62.7223 82.289 62.0138 80.8764L59.7324 76.3022C59.0262 74.8918 58.8723 74.8402 57.8633 75.2703L57.6848 74.9046L63.4408 71.8807Z" fill="#A20641"/>
<path d="M67.939 69.0791L68.1485 69.4285C67.2679 70.0912 67.2299 70.2541 68.0457 71.6036L70.6846 75.9742C71.5005 77.323 71.6576 77.3632 72.6294 76.8497L72.8398 77.1991L69.4038 79.379L69.1962 79.0318C70.0975 78.3528 70.1355 78.1922 69.3196 76.8418L66.6817 72.4693C65.8677 71.1205 65.7099 71.0809 64.7154 71.6114L64.503 71.2605L67.939 69.0791Z" fill="#A20641"/>
<path d="M75.5014 68.8401C76.0545 69.5532 75.9518 70.5751 75.2785 71.1239C74.6082 71.6715 73.6005 71.5547 73.0474 70.8412C72.5033 70.141 72.6103 69.0983 73.2814 68.5515C73.9537 68.0012 74.9586 68.1399 75.5014 68.8401Z" fill="#A20641"/>
<path d="M85.2225 59.5671C85.7141 59.7312 86.1514 59.8755 86.4631 59.8897C86.4356 60.8354 86.4059 62.0598 86.0693 63.1229C85.0837 66.2365 82.6112 67.7132 79.8904 66.8066C76.7869 65.7718 75.9689 62.6914 76.8372 59.9542C77.218 58.7523 77.7731 57.8576 78.0422 57.3909C78.5152 57.5174 79.2489 57.6689 80.3173 57.9015L80.2312 58.3676C78.4001 58.159 77.6746 59.215 77.3125 60.3586C76.7007 62.2854 77.7138 64.075 80.1932 64.8996C82.2891 65.6005 84.7472 65.3996 85.5529 62.8569C85.6955 62.4098 85.723 62.127 85.6997 61.8724C85.6742 61.5716 85.4769 61.3828 84.9321 61.2017L83.7906 60.8191C82.8629 60.5115 82.7644 60.5398 82.1864 61.9834L81.7781 61.8462L83.0084 57.965L83.4162 58.1009C83.2941 58.8634 83.33 58.9378 84.2844 59.2546L85.2225 59.5671Z" fill="#A20641"/>
<path d="M78.6751 51.8122L79.0724 51.8702C78.9945 53.0445 79.0919 53.1773 80.6243 53.4003L85.5589 54.1195C86.3803 54.2397 86.7887 54.2099 86.9949 53.988C87.1961 53.7659 87.2914 53.2905 87.3561 52.823C87.4508 52.1554 87.6425 50.3827 87.3294 50.0255C87.0934 49.7391 86.6437 49.4371 85.9962 49.1053L86.1451 48.6534C86.5865 48.806 87.9893 49.3359 88.3969 49.5136L87.3039 57.4L86.9046 57.342C86.9885 56.1085 86.8914 55.9747 85.3611 55.7527L80.3987 55.0299C78.8683 54.8069 78.738 54.9068 78.4904 56.0582L78.0945 55.9996L78.6751 51.8122Z" fill="#A20641"/>
<path d="M83.3071 46.4309C85.8907 46.6127 87.97 45.5814 88.1072 43.5013C88.2081 41.9764 87.0431 40.7173 84.3581 40.5298C81.3849 40.3212 79.6338 41.4203 79.5035 43.383C79.4001 44.9356 80.7753 46.2556 83.3071 46.4309ZM83.9569 38.5868C86.999 38.8013 88.8405 41.1226 88.6535 43.9066C88.4624 46.7911 86.2356 48.5507 83.6346 48.369C81.2905 48.2056 78.7339 46.3319 78.9627 42.8895C79.1312 40.3552 81.1704 38.3924 83.9569 38.5868Z" fill="#A20641"/>
<path d="M83.9209 35.3013V34.7431C83.9209 34.1554 83.8368 33.7446 83.5485 33.3632C83.0905 32.7755 82.403 32.5696 81.7153 32.5696C80.2271 32.5696 79.7118 33.6271 79.7118 34.5671C79.7118 35.2722 79.7684 35.3013 80.2271 35.3013H83.9209ZM79.1671 34.1987C79.1671 33.1271 79.2828 32.3638 79.6545 31.7761C80.027 31.2033 80.6284 30.8078 81.4711 30.8078C82.6761 30.8078 83.5216 31.571 83.9497 32.7613C84.352 32.525 85.3548 31.9529 85.9983 31.4826C86.7844 30.9251 87.3018 30.5424 87.5852 30.2646C87.9306 29.9123 88.1466 29.6768 88.2459 29.2501L88.6198 29.3091L88.5908 29.9257C88.4748 31.5272 88.0735 32.0264 87.2721 32.5988C86.6122 33.0689 85.6997 33.5535 84.9527 33.9802C84.5513 34.2149 84.4084 34.3917 84.4084 34.8303V35.3013H86.3278C87.8734 35.3013 87.9893 35.184 88.0735 34.0671H88.4748V38.2091H88.0735C87.9893 37.0343 87.8734 36.9175 86.3278 36.9175H81.3161C79.7684 36.9175 79.6545 37.0343 79.5691 38.1496H79.1671V34.1987Z" fill="#A20641"/>
<path d="M79.1671 24.1075H79.5691C79.6545 25.2222 79.7684 25.3418 81.3161 25.3418H86.3278C87.8734 25.3418 87.9893 25.2222 88.0735 24.1075H88.4747V28.2488H88.0735C87.9893 27.1037 87.8734 26.9864 86.3278 26.9864H81.3161C79.7684 26.9864 79.6545 27.1037 79.5691 28.2488H79.1671V24.1075Z" fill="#A20641"/>
<path d="M84.5243 20.1825V17.8485L81.3726 18.9944V19.0367L84.5243 20.1825ZM78.9945 18.214L81.6588 17.2019C83.4056 16.5407 85.1823 15.8949 86.6121 15.3369C87.8879 14.8367 87.9893 14.6315 88.0735 13.78H88.4747V17.6426H88.0735L88.0142 17.2311C87.9306 16.6735 87.7851 16.6445 87.2431 16.82C86.8162 16.9672 85.9265 17.3194 85.1823 17.6278V20.3445C85.6113 20.5356 86.4127 20.7995 87.0163 21.0059C87.7728 21.2683 87.9596 21.1523 88.0334 20.5064L88.0735 20.0956H88.4747V23.3549H88.0735C87.9596 22.4439 87.9031 22.2833 86.6121 21.7691L79.167 18.8026L78.9945 18.214Z" fill="#A20641"/>
<path d="M79.1671 9.9032L85.9983 6.65875L79.1671 3.5883V0.813552H79.5691C79.6822 2.00319 79.7408 2.06186 81.3161 2.03216L86.3278 1.88567C87.9306 1.8404 87.9596 1.79659 88.0735 0.608398H88.4747V4.70587H88.0735C87.9596 3.55933 87.9306 3.51478 86.3278 3.5309L80.8277 3.5883V3.64769L88.3025 6.98195V7.42196L81.1139 10.638V10.6961L84.8252 10.8C86.1113 10.8276 86.9003 10.8142 87.3293 10.7548C87.8734 10.6961 87.9893 10.3883 88.0735 9.4201H88.4747V12.8994H88.0735C88.0142 12.1652 87.8734 11.8716 87.3293 11.769C86.9003 11.6962 86.0547 11.5774 84.6795 11.5039L81.7297 11.3433C79.8249 11.2408 79.6822 11.3433 79.5691 12.6059H79.1671V9.9032Z" fill="#A20641"/>
<path d="M25.2974 19.0779C25.8169 19.0779 26.2333 18.6364 26.2333 18.0932C26.2333 17.5493 25.8169 17.108 25.2974 17.108C24.7782 17.108 24.3582 17.5493 24.3582 18.0932C24.3582 18.6364 24.7782 19.0779 25.2974 19.0779Z" fill="#A20641"/>
<path d="M25.2974 20.9424C24.732 20.9424 24.2782 21.4296 24.2782 22.0315C24.2782 22.6229 24.732 23.096 25.2974 23.096C25.861 23.096 26.3133 22.6229 26.3133 22.0315C26.3133 21.4296 25.861 20.9424 25.2974 20.9424Z" fill="#A20641"/>
<path d="M40.1937 17.5811C39.0855 17.5811 38.8234 19.3826 38.8234 20.2044C38.8234 21.027 39.0855 22.8499 40.1937 22.8499C41.304 22.8499 41.5689 21.027 41.5689 20.2044C41.5689 19.3826 41.304 17.5811 40.1937 17.5811Z" fill="#A20641"/>
<path d="M33.9515 30.4627H35.6122L35.2703 29.8749L33.9515 30.4627Z" fill="#A20641"/>
<path d="M53.9483 29.7185C54.4882 29.225 54.4276 29.1619 55.2138 29.0382C55.9979 28.9144 57.207 30.0291 57.0829 29.6571C56.9649 29.2865 56.8427 28.1711 56.7234 27.057C56.6159 26.0561 59.8008 30.7102 59.8008 30.7102C63.9051 38.6959 62.7617 44.0828 62.7617 44.0828C65.4763 45.382 65.4762 48.3952 65.4762 47.6115C65.4762 43.1207 64.0334 43.4377 64.0927 40.6021C64.1493 37.7692 67.1072 38.0139 67.1072 38.0139C68.268 38.031 68.6171 38.7587 68.6171 38.7587C68.6171 38.7587 68.0329 38.6321 67.7969 38.9547C67.7969 38.9547 66.9184 39.6088 68.4949 43.4639C68.8128 44.2397 70.2151 46.9496 68.5225 48.908C67.3239 50.2928 65.4148 49.7788 65.4148 49.7788C65.2947 50.5214 65.2342 50.8906 65.2342 50.8906H66.6218C67.8921 50.955 67.9508 52.3788 67.9508 52.3788V58.3854L66.9838 59.3742H63.7857C63.7266 57.8881 65.5975 57.2692 65.5975 57.2692V54.6683H62.6376C61.0692 54.5461 60.2256 51.4493 60.2256 51.4493L59.0779 51.5747C59.0174 51.7599 60.7077 54.9167 60.7077 54.9167L57.2656 58.26V59.2503H53.5253C53.3447 58.3202 55.1524 57.516 55.1524 57.516L57.5077 54.9167C57.8083 54.5814 57.598 54.2404 57.1904 54.1024C56.7421 53.9518 56.3828 53.8464 55.88 53.6492C55.369 53.4497 53.2207 52.0697 54.1289 49.406C55.0178 46.7896 57.991 47.8591 57.991 47.5485C57.991 47.2416 56.4227 43.526 56.4227 43.526L57.6904 41.605L56.1787 42.5965L52.1964 41.8526C51.7736 45.3212 50.2032 44.4532 50.2032 44.4532V41.8526C50.2032 41.8526 50.2626 40.1423 51.7736 39.6244C53.584 39.0069 54.8517 39.3762 55.3944 39.2525C55.9385 39.1286 55.7815 38.6351 55.7815 38.6351L53.4034 38.6959L51.2901 36.9001L50.1426 36.7762C48.0293 36.4063 48.8155 34.7343 48.8155 34.7343C48.8155 34.7343 50.6867 34.7343 51.835 34.7343C52.9786 34.7343 55.9385 36.9621 55.9385 36.9621C55.9385 36.9621 56.3615 34.486 54.1289 33.6193C51.8937 32.7537 52.377 32.0732 52.377 32.0732L54.4882 32.8152C54.4882 32.8152 54.7323 32.567 54.3702 32.0096C54.1751 31.7096 52.495 31.0817 52.495 31.0817C51.1682 30.5864 51.5908 29.4724 51.5908 29.4724L53.9483 29.7185ZM51.3889 48.4999V53.1547C51.3889 53.1547 51.4639 55.5809 49.4688 57.6284C47.3949 59.7539 45.0741 59.5275 45.0389 59.5241C45.0038 59.5275 42.685 59.7539 40.6091 57.6284C38.6117 55.5809 38.6869 53.1547 38.6869 53.1547V48.4999C38.6869 48.4999 38.1243 48.3478 38.0965 47.7792C38.0587 47.059 38.7987 47.1737 38.7987 47.1737H40.2766C40.2028 48.7673 41.1663 48.5762 41.1663 48.5762C42.1988 48.613 41.9782 47.1737 41.9782 47.1737H45.0328H45.0451H48.1004C48.1004 47.1737 47.8748 48.613 48.9121 48.5762C48.9121 48.5762 49.873 48.7673 49.8011 47.1737H51.2793C51.2793 47.1737 52.0171 47.059 51.9791 47.7792C51.9522 48.3478 51.3889 48.4999 51.3889 48.4999ZM33.6488 43.526C33.6488 43.526 32.0804 47.2416 32.0804 47.5485C32.0804 47.8591 35.053 46.7896 35.9427 49.406C36.8489 52.0697 34.6999 53.4497 34.1937 53.6492C33.6868 53.8464 33.3275 53.9518 32.8812 54.1024C32.4758 54.2404 32.2632 54.5814 32.564 54.9167L34.9166 57.516C34.9166 57.516 36.7288 58.3202 36.5461 59.2503H32.804V58.26L29.3619 54.9167C29.3619 54.9167 31.0522 51.7599 30.9935 51.5747L29.8481 51.4493C29.8481 51.4493 29.0004 54.5461 27.432 54.6683H24.4732V57.2692C24.4732 57.2692 26.3451 57.8881 26.2816 59.3742H23.0858L22.1187 58.3854V52.3788C22.1187 52.3788 22.1795 50.955 23.4478 50.8906H24.8333C24.8333 50.8906 24.774 50.5214 24.6541 49.7788C24.6541 49.7788 22.7449 50.2928 21.5471 48.908C19.8545 46.9496 21.2568 44.2397 21.5759 43.4639C23.1512 39.6088 22.2746 38.9547 22.2746 38.9547C22.0387 38.6321 21.4546 38.7587 21.4546 38.7587C21.4546 38.7587 21.8009 38.031 22.9616 38.0139C22.9616 38.0139 25.9203 37.7692 25.979 40.6021C26.0376 43.4377 24.5933 43.1207 24.5933 47.6115C24.5933 48.3952 24.5933 45.382 27.312 44.0828C27.312 44.0828 26.1658 38.6959 30.27 30.7102C30.27 30.7102 33.4549 26.0561 33.3461 27.057C33.2261 28.1711 33.104 29.2865 32.9867 29.6571C32.8647 30.0291 34.0717 28.9144 34.8558 29.0382C35.6398 29.1619 35.5813 29.225 36.1254 29.7185L38.4788 29.4724C38.4788 29.4724 38.9008 30.5864 37.5745 31.0817C37.5745 31.0817 35.8945 31.7096 35.7006 32.0096C35.3414 32.567 35.5813 32.8152 35.5813 32.8152L37.6938 32.0732C37.6938 32.0732 38.1759 32.7537 35.9427 33.6193C33.7075 34.486 34.1322 36.9621 34.1322 36.9621C34.1322 36.9621 37.0903 34.7343 38.2366 34.7343C39.3841 34.7343 41.256 34.7343 41.256 34.7343C41.256 34.7343 42.0402 36.4063 39.929 36.7762L38.7795 36.9001L36.6683 38.6959L34.2881 38.6351C34.2881 38.6351 34.1323 39.1286 34.673 39.2525C35.2172 39.3762 36.4855 39.0069 38.2951 39.6244C39.8092 40.1423 39.8664 41.8526 39.8664 41.8526V44.4532C39.8664 44.4532 38.2951 45.3212 37.8753 41.8526L33.8909 42.5965L32.3792 41.605L33.6488 43.526ZM20.5815 24.7023H18.429V17.8399H17.5268L17.8841 15.892H20.5815V24.7023ZM22.394 18.0233C22.394 16.3553 23.8382 15.5321 25.2974 15.5321C26.7527 15.5321 28.199 16.3553 28.199 18.0233C28.199 18.9506 27.6354 19.7377 26.8555 20.0051V20.0278C27.8727 20.3757 28.55 21.1735 28.55 22.3193C28.55 24.128 26.7651 24.9612 25.2974 24.9612C23.8257 24.9612 22.0408 24.128 22.0408 22.3193C22.0408 21.1735 22.7203 20.3757 23.7374 20.0278V20.0051C22.9594 19.7377 22.394 18.9506 22.394 18.0233ZM29.681 18.082V15.9718H36.7896L32.0337 24.7023H29.3658L33.1379 18.082H29.681ZM40.1938 15.6345C42.654 15.6345 43.7051 18.0097 43.7051 20.2165C43.7051 22.4233 42.6644 24.7979 40.1938 24.7979C37.7256 24.7979 36.6828 22.4233 36.6828 20.2165C36.6828 18.0097 37.7358 15.6345 40.1938 15.6345ZM45.0002 28.6223C45.0148 28.6223 45.0238 28.6372 45.0382 28.6379C45.0527 28.6372 45.061 28.6223 45.0762 28.6223C45.3996 28.6223 45.6645 28.8925 45.6645 29.2256C45.6645 29.449 45.5445 29.6428 45.3719 29.7482L45.37 29.7581L45.3657 41.7847L49.2412 45.8191V47.1014H48.6584L48.6542 46.0795L45.0382 42.296L41.4215 46.0795L41.4174 47.1014H40.8353V45.8191L44.7098 41.7847L44.7057 29.7581L44.7036 29.7482C44.5313 29.6428 44.412 29.449 44.412 29.2256C44.412 28.8925 44.6761 28.6223 45.0002 28.6223ZM74.1095 1.37366L49.2633 24.713H45.0907L70.1232 1.37366H65.952L45.09 20.8221V16.9317L61.7795 1.37366H57.6062L45.0913 13.0438V9.1527L53.4337 1.37366H49.2625L45.09 5.26255V1.37366H15.933V48.8981C15.933 66.3474 45.023 73.6655 45.023 73.6655C45.023 73.6655 74.1095 66.3474 74.1095 48.8981V24.7115H70.1232L74.1095 20.8233V16.9332L65.952 24.7115H61.7795L74.1095 13.0423V9.15415L57.6062 24.7115H53.4337L74.1095 5.26327V1.37366Z" fill="#A20641"/>
<path d="M56.12 30.4627H54.4585L54.8013 29.8749L56.12 30.4627Z" fill="#A20641"/>
<path d="M109.151 51.7421V49.1443C116.635 48.688 117.177 48.1258 117.177 39.6528V13.3329C117.177 4.85726 116.524 4.41091 109.686 3.95461V1.35803H133.519V3.95461C126.154 4.41091 125.5 4.85726 125.5 13.3329V39.9943C125.5 44.3989 126.036 46.6573 127.543 47.4488C129.03 48.2397 131.281 48.3534 135.228 48.3534C139.397 48.3534 142.823 47.5626 144.524 45.5285C145.818 44.1738 147.096 41.5731 148.172 37.9566L150.945 38.3026C150.41 40.8962 148.805 49.5934 148.172 51.7421H109.151Z" fill="#231F20"/>
<path d="M178.204 49.7073C186.429 49.7073 192.948 44.0602 192.948 28.2439C192.948 15.3673 186.958 3.38877 176.272 3.38877C167.621 3.38877 161.423 11.1877 161.423 24.9661C161.423 39.6529 167.621 49.7073 178.204 49.7073ZM151.799 27.6807C151.799 8.70071 165.898 0 177.238 0C192.621 0 202.57 11.409 202.57 25.9853C202.57 43.7212 189.847 53.096 177.342 53.096C160.777 53.096 151.799 39.8812 151.799 27.6807Z" fill="#231F20"/>
<path d="M213.056 51.7421V49.1443C220.754 48.5784 221.289 48.0145 221.289 39.7667V32.876C221.289 30.728 221.074 30.0502 219.677 27.5676C217.433 23.3838 214.439 18.1895 209.527 9.60533C206.753 4.63218 205.997 4.52192 201.187 3.95461V1.35803H222.569V3.95461L219.253 4.41092C216.794 4.74609 216.683 5.42311 217.76 7.68579C218.288 8.81459 225.133 21.2392 227.696 25.6465C231.011 19.657 234.317 12.0895 236.027 8.36264C237.425 5.19803 237.208 4.74609 234.317 4.41092L231.219 3.95461V1.35803H250.034V3.95461C244.261 4.52192 243.837 5.31265 240.954 9.71995C238.062 14.1236 234.859 19.5467 231.33 26.0993C229.725 29.1491 229.614 29.9365 229.614 31.6326V39.7667C229.614 48.0145 230.267 48.5784 238.173 49.1443V51.7421H213.056Z" fill="#231F20"/>
<path d="M273.681 49.7073C281.914 49.7073 288.423 44.0602 288.423 28.2439C288.423 15.3673 282.442 3.38877 271.755 3.38877C263.098 3.38877 256.901 11.1877 256.901 24.9661C256.901 39.6529 263.098 49.7073 273.681 49.7073ZM247.277 27.6807C247.277 8.70071 261.382 0 272.713 0C288.096 0 298.048 11.409 298.048 25.9853C298.048 43.7212 285.325 53.096 272.819 53.096C256.252 53.096 247.277 39.8812 247.277 27.6807Z" fill="#231F20"/>
<path d="M301.786 51.7421V49.1443C309.262 48.688 309.797 48.1258 309.797 39.6528V13.3329C309.797 4.85726 309.159 4.41091 302.313 3.95461V1.35803H326.153V3.95461C318.775 4.41091 318.134 4.85726 318.134 13.3329V39.9943C318.134 44.3989 318.669 46.6573 320.171 47.4488C321.664 48.2397 323.908 48.3534 327.87 48.3534C332.032 48.3534 335.449 47.5626 337.159 45.5285C338.445 44.1738 339.732 41.5731 340.794 37.9566L343.573 38.3026C343.038 40.8962 341.44 49.5934 340.794 51.7421H301.786Z" fill="#231F20"/>
<path d="M361.52 29.377H373.917L367.725 12.2034H367.509L361.52 29.377ZM374.993 49.1443L377.022 48.9166C380.016 48.5784 380.975 47.6765 378.843 42.3675L375.209 33.2141H360.353C359.596 35.0241 357.783 40.3332 356.72 43.7212C355.434 47.5626 356.398 48.688 359.491 48.9166L361.951 49.1443V51.7421H343.246V49.1443C347.95 48.5784 349.777 48.1258 352.869 40.3332L368.69 0.680469L371.353 0L387.286 41.6907C389.849 48.3534 391.885 48.806 396.582 49.1443V51.7421H374.993V49.1443Z" fill="#231F20"/>
<path d="M109.151 61.9953H112.618V72.2989C112.618 73.4482 112.75 74.2926 113.015 74.819C113.427 75.7612 114.329 76.228 115.713 76.228C117.095 76.228 117.987 75.7612 118.399 74.819C118.664 74.2926 118.795 73.4482 118.795 72.2989V61.9953H122.267V72.3053C122.267 74.0898 121.999 75.4811 121.464 76.4692C120.455 78.2869 118.541 79.2022 115.713 79.2022C112.884 79.2022 110.964 78.2869 109.954 76.4692C109.413 75.4811 109.151 74.0898 109.151 72.3053V61.9953Z" fill="#231F20"/>
<path d="M128.407 61.9953H131.993L138.481 73.6923V61.9953H141.667V78.7686H138.249L131.592 66.8701V78.7686H128.407V61.9953Z" fill="#231F20"/>
<path d="M151.176 78.7686H147.776V61.9953H151.176V78.7686Z" fill="#231F20"/>
<path d="M166.822 61.9953H170.374L164.798 78.7686H161.564L156.039 61.9953H159.686L163.236 74.7305L166.822 61.9953Z" fill="#231F20"/>
<path d="M186.508 64.9697H177.858V68.528H185.795V71.4408H177.858V75.7554H186.907V78.7686H174.516V61.9953H186.508V64.9697Z" fill="#231F20"/>
<path d="M195.565 64.9124V69.4186H199.237C199.964 69.4186 200.513 69.3225 200.88 69.14C201.526 68.8252 201.854 68.1977 201.854 67.2578C201.854 66.2408 201.537 65.5532 200.915 65.2079C200.562 65.0121 200.033 64.9124 199.334 64.9124H195.565ZM202.626 62.4269C203.227 62.6977 203.734 63.0888 204.152 63.6038C204.501 64.0296 204.772 64.4979 204.975 65.0121C205.179 65.5284 205.279 66.121 205.279 66.7762C205.279 67.5684 205.079 68.3547 204.691 69.1265C204.295 69.8946 203.65 70.4415 202.75 70.7583C203.502 71.0689 204.041 71.5102 204.352 72.0838C204.667 72.6603 204.824 73.5331 204.824 74.7093V75.8305C204.824 76.6001 204.855 77.1178 204.914 77.3943C205.005 77.8279 205.217 78.1405 205.544 78.3442V78.7686H201.774C201.668 78.396 201.595 78.101 201.553 77.8703C201.46 77.3986 201.413 76.9183 201.405 76.4268L201.389 74.8685C201.368 73.794 201.191 73.084 200.841 72.729C200.496 72.3702 199.85 72.1935 198.899 72.1935H195.565V78.7686H192.223V61.9953H200.042C201.16 62.0223 202.019 62.1645 202.626 62.4269Z" fill="#231F20"/>
<path d="M212.742 73.5903C212.844 74.3587 213.051 74.9301 213.367 75.3105C213.93 75.9995 214.901 76.346 216.273 76.346C217.099 76.346 217.765 76.2507 218.284 76.0703C219.259 75.7245 219.741 75.0758 219.741 74.1279C219.741 73.5755 219.497 73.1454 219.024 72.8385C218.549 72.5428 217.791 72.2819 216.757 72.059L214.983 71.6601C213.245 71.2648 212.05 70.8312 211.398 70.3743C210.293 69.6025 209.744 68.3895 209.744 66.7414C209.744 65.2427 210.287 63.9949 211.362 63.0005C212.442 62.0067 214.024 61.5081 216.114 61.5081C217.855 61.5081 219.345 61.9798 220.576 62.9128C221.806 63.8529 222.456 65.2116 222.515 66.9926H219.228C219.173 65.9867 218.73 65.2696 217.915 64.8431C217.366 64.563 216.691 64.4216 215.878 64.4216C214.974 64.4216 214.253 64.6053 213.717 64.9697C213.174 65.3311 212.912 65.8412 212.912 66.494C212.912 67.0923 213.174 67.5414 213.702 67.8335C214.043 68.033 214.768 68.2672 215.878 68.5281L218.746 69.2227C220.005 69.5262 220.947 69.9343 221.575 70.4415C222.548 71.23 223.035 72.3702 223.035 73.8634C223.035 75.3947 222.458 76.6673 221.307 77.6866C220.148 78.6937 218.517 79.2023 216.41 79.2023C214.253 79.2023 212.564 78.6992 211.329 77.7049C210.097 76.7075 209.479 75.3367 209.479 73.5903H212.742Z" fill="#231F20"/>
<path d="M231.652 78.7686H228.258V61.9953H231.652V78.7686Z" fill="#231F20"/>
<path d="M250.119 61.9953V64.9697H245.227V78.7686H241.791V64.9697H236.874V61.9953H250.119Z" fill="#231F20"/>
<path d="M262.998 61.9953H266.864L261.399 72.4813V78.7686H257.979V72.4813L252.325 61.9953H256.352L259.746 69.3013L262.998 61.9953Z" fill="#231F20"/>
<path d="M281.287 63.7511C282.608 62.3675 284.277 61.6829 286.317 61.6829C289.038 61.6829 291.029 62.6058 292.286 64.4598C292.983 65.4959 293.353 66.5378 293.406 67.5876H289.985C289.773 66.782 289.495 66.1749 289.15 65.7648C288.54 65.0391 287.638 64.6748 286.444 64.6748C285.228 64.6748 284.271 65.1812 283.566 66.2139C282.863 67.2423 282.507 68.6973 282.507 70.5796C282.507 72.4587 282.882 73.8635 283.623 74.8036C284.367 75.7421 285.308 76.2081 286.448 76.2081C287.62 76.2081 288.513 75.8051 289.132 75.003C289.472 74.5695 289.749 73.9209 289.977 73.0594H293.372C293.079 74.8842 292.331 76.3738 291.126 77.5176C289.926 78.6591 288.38 79.237 286.497 79.237C284.171 79.237 282.343 78.4618 281.013 76.9149C279.685 75.3602 279.02 73.2297 279.02 70.52C279.02 67.5953 279.775 65.3367 281.287 63.7511Z" fill="#231F20"/>
<path d="M298.218 78.7686V61.9953H301.612V68.3937H307.972V61.9953H311.365V78.7686H307.972V71.2816H301.612V78.7686H298.218Z" fill="#231F20"/>
<path d="M321.111 78.7686H317.716V61.9953H321.111V78.7686Z" fill="#231F20"/>
<path d="M328.684 63.7511C330.003 62.3675 331.675 61.6829 333.707 61.6829C336.434 61.6829 338.426 62.6058 339.68 64.4598C340.372 65.4959 340.746 66.5378 340.799 67.5876H337.383C337.169 66.782 336.889 66.1749 336.548 65.7648C335.942 65.0391 335.036 64.6748 333.838 64.6748C332.625 64.6748 331.665 65.1812 330.956 66.2139C330.257 67.2423 329.903 68.6973 329.903 70.5796C329.903 72.4587 330.274 73.8635 331.016 74.8036C331.761 75.7421 332.7 76.2081 333.842 76.2081C335.017 76.2081 335.913 75.8051 336.524 75.003C336.869 74.5695 337.149 73.9209 337.375 73.0594H340.766C340.47 74.8842 339.729 76.3738 338.527 77.5176C337.319 78.6591 335.776 79.237 333.897 79.237C331.571 79.237 329.739 78.4618 328.408 76.9149C327.079 75.3602 326.413 73.2297 326.413 70.52C326.413 67.5953 327.169 65.3367 328.684 63.7511Z" fill="#231F20"/>
<path d="M348.665 72.4332H352.853L350.787 65.8334L348.665 72.4332ZM348.89 61.9953H352.756L358.542 78.7686H354.834L353.755 75.3197H347.735L346.629 78.7686H343.053L348.89 61.9953Z" fill="#231F20"/>
<path d="M372.974 67.2289C372.716 66.0865 372.084 65.2887 371.08 64.8296C370.516 64.5807 369.894 64.4597 369.205 64.4597C367.889 64.4597 366.806 64.9639 365.964 65.9867C365.115 67.0003 364.687 68.5359 364.687 70.5794C364.687 72.6347 365.145 74.0932 366.068 74.9491C366.983 75.8014 368.027 76.228 369.189 76.228C370.339 76.228 371.279 75.8933 372.007 75.2199C372.742 74.5424 373.199 73.6596 373.363 72.5655H369.58V69.7717H376.396V78.7686H374.13L373.786 76.6762C373.128 77.4672 372.536 78.026 372.007 78.3499C371.111 78.9178 370.002 79.2022 368.681 79.2022C366.515 79.2022 364.74 78.4306 363.36 76.8935C361.92 75.3486 361.197 73.2374 361.197 70.5469C361.197 67.8335 361.922 65.6606 363.378 64.0219C364.838 62.3864 366.762 61.5653 369.156 61.5653C371.238 61.5653 372.906 62.1065 374.168 63.1852C375.426 64.2673 376.155 65.6183 376.339 67.2289H372.974Z" fill="#231F20"/>
<path d="M392.392 74.7305C393.186 73.7057 393.581 72.2472 393.581 70.3629C393.581 68.4779 393.186 67.0271 392.392 65.9945C391.595 64.9697 390.523 64.4597 389.169 64.4597C387.815 64.4597 386.736 64.9697 385.924 65.9931C385.121 67.0138 384.719 68.4723 384.719 70.3629C384.719 72.2472 385.121 73.7057 385.924 74.7305C386.736 75.7554 387.815 76.2662 389.169 76.2662C390.523 76.2662 391.595 75.7554 392.392 74.7305ZM394.521 77.2791C393.29 78.5827 391.505 79.2369 389.169 79.2369C386.826 79.2369 385.045 78.5827 383.806 77.2791C382.153 75.6792 381.324 73.3739 381.324 70.3629C381.324 67.2917 382.153 64.9774 383.806 63.4424C385.045 62.1412 386.826 61.4889 389.169 61.4889C391.505 61.4889 393.29 62.1412 394.521 63.4424C396.175 64.9774 397 67.2917 397 70.3629C397 73.3739 396.175 75.6792 394.521 77.2791Z" fill="#231F20"/>
<path d="M7.59463 111.454C7.79188 111.478 8.04776 111.487 8.36363 111.487C9.45608 111.487 10.3092 111.335 10.9285 111.022C12.081 110.447 12.65 109.354 12.65 107.744C12.65 106.787 12.3927 106.113 11.8769 105.722C11.3582 105.33 10.6706 105.132 9.80645 105.132C9.4623 105.132 9.20229 105.167 9.02572 105.233C8.85192 105.299 8.72502 105.469 8.64572 105.743L7.09187 111.379C7.23117 111.405 7.39669 111.432 7.59463 111.454ZM1.51166 118.923C2.02961 118.883 2.39032 118.786 2.58136 118.636C2.88689 118.411 3.13378 117.951 3.32759 117.239L6.05528 107.167L6.25942 106.302C6.28148 106.197 6.3008 106.104 6.30907 106.016C6.3215 105.932 6.32425 105.859 6.32425 105.791C6.32425 105.436 6.20838 105.191 5.967 105.057C5.7332 104.924 5.32213 104.843 4.74626 104.801V104.435H10.2278C11.3582 104.435 12.272 104.585 12.9617 104.871C14.2686 105.407 14.9225 106.422 14.9225 107.901C14.9225 108.804 14.6625 109.603 14.1418 110.301C13.1424 111.653 11.341 112.332 8.74226 112.332C8.42639 112.332 8.11052 112.318 7.79878 112.295C7.48706 112.268 7.18566 112.223 6.89806 112.164L5.70078 116.565C5.62768 116.822 5.57594 117.036 5.54146 117.21C5.47525 117.507 5.44283 117.734 5.44283 117.9C5.44283 118.273 5.55249 118.528 5.77388 118.667C5.99252 118.81 6.38839 118.894 6.95599 118.923V119.289H1.51166V118.923Z" fill="#231F20"/>
<path d="M19.7289 109.243C19.7585 109.283 19.7697 109.333 19.7697 109.382C19.7636 109.461 19.7524 109.52 19.742 109.556L18.6344 113.877L18.875 113.372C19.3957 112.325 20.002 111.374 20.6938 110.511C21.3883 109.649 22.0504 109.218 22.676 109.218C23.0152 109.218 23.2732 109.333 23.4602 109.561C23.6429 109.792 23.7332 110.054 23.7332 110.352C23.7332 110.685 23.6429 110.962 23.4602 111.178C23.2801 111.399 23.0264 111.507 22.7056 111.507C22.4842 111.507 22.3187 111.463 22.2056 111.373C22.089 111.28 22.0028 111.178 21.9359 111.058L21.8097 110.81C21.7792 110.766 21.7477 110.731 21.7083 110.707C21.6677 110.676 21.6186 110.665 21.5629 110.665C21.2766 110.665 20.8697 111.071 20.3352 111.875C19.8034 112.684 19.3268 113.557 18.9076 114.501C18.6536 115.071 18.3703 115.828 18.0566 116.769C17.8606 117.362 17.5985 118.202 17.2737 119.289H15.606L17.424 112.57C17.5254 112.188 17.6095 111.849 17.6695 111.544C17.7303 111.247 17.7621 111.002 17.7621 110.81C17.7621 110.59 17.706 110.422 17.5964 110.304C17.4889 110.189 17.304 110.132 17.0351 110.132C16.9474 110.132 16.8399 110.138 16.7109 110.151C16.5819 110.167 16.4274 110.185 16.246 110.207V109.838L16.6806 109.755C17.246 109.636 17.8648 109.51 18.5338 109.38C19.2042 109.245 19.5592 109.181 19.5931 109.181C19.66 109.181 19.7054 109.199 19.7289 109.243Z" fill="#231F20"/>
<path d="M29.2364 113.052C30.1004 112.263 30.533 111.48 30.533 110.707C30.533 110.424 30.468 110.2 30.3413 110.037C30.2101 109.867 30.0171 109.785 29.7653 109.785C29.3011 109.785 28.8412 109.993 28.3894 110.403C27.9425 110.81 27.5363 111.273 27.1749 111.791C26.7942 112.4 26.4935 112.98 26.2678 113.533C26.1452 113.831 26.0162 114.165 25.8763 114.542C27.2541 114.34 28.3721 113.837 29.2364 113.052ZM25.7299 111.558C27.1597 110.023 28.6369 109.254 30.1564 109.254C30.7191 109.254 31.1666 109.386 31.4998 109.653C31.8309 109.915 31.9965 110.315 31.9965 110.839C31.9965 111.903 31.3902 112.814 30.1735 113.573C28.9611 114.331 27.6825 114.794 26.343 114.966L25.7265 115.039C25.6321 115.345 25.5673 115.587 25.5308 115.771C25.4982 115.951 25.4769 116.181 25.4769 116.454C25.4769 117.106 25.6831 117.614 26.0977 117.977C26.5107 118.341 27.0012 118.522 27.5707 118.522C28.1079 118.522 28.6798 118.337 29.2838 117.964C29.6322 117.748 30.1289 117.36 30.7838 116.8L31.0675 117.058C30.7433 117.479 30.2784 117.913 29.673 118.354C28.6025 119.155 27.5232 119.552 26.4437 119.552C25.677 119.552 25.0087 119.269 24.432 118.713C23.8561 118.158 23.5678 117.367 23.5678 116.331C23.5678 114.69 24.2858 113.099 25.7299 111.558Z" fill="#231F20"/>
<path d="M40.9429 111.071C40.7325 110.531 40.3367 110.264 39.7607 110.264C39.2622 110.264 38.7202 110.517 38.1351 111.024C37.5491 111.536 37.0587 112.373 36.6626 113.544C36.3468 114.467 36.0523 115.436 35.7752 116.447C35.4979 117.462 35.3599 118.054 35.3599 118.229C35.3599 118.51 35.4745 118.718 35.698 118.853C35.9214 118.987 36.1904 119.053 36.5041 119.053C37.7593 119.053 38.8664 118.229 39.8229 116.586C40.6801 115.116 41.1085 113.654 41.1085 112.208C41.1085 111.732 41.0526 111.348 40.9429 111.071ZM30.9708 123.612C31.4075 123.612 31.7323 123.528 31.9536 123.363C32.1702 123.196 32.3357 122.911 32.435 122.51L35.4206 111.693C35.4918 111.423 35.5344 111.227 35.5538 111.108C35.573 110.989 35.5793 110.892 35.5793 110.828C35.5793 110.581 35.4918 110.398 35.3171 110.277C35.1413 110.158 34.8827 110.101 34.5461 110.101C34.473 110.101 34.404 110.101 34.3392 110.108C34.2773 110.112 34.2061 110.116 34.1373 110.134L34.1137 109.765L37.6304 109.245C37.6731 109.239 37.7056 109.267 37.7289 109.333C37.6992 109.461 37.671 109.556 37.6518 109.625L37.0587 111.67C37.5317 111.022 37.9655 110.526 38.3613 110.189C39.0746 109.563 39.8187 109.254 40.5878 109.254C41.3754 109.254 41.9879 109.499 42.4366 109.993C42.8837 110.482 43.1092 111.232 43.1092 112.248C43.1092 113.983 42.3961 115.634 40.9713 117.21C39.5629 118.769 38.0965 119.552 36.5772 119.552C36.2806 119.552 36.0248 119.516 35.8165 119.459C35.6096 119.397 35.3565 119.296 35.0551 119.15L34.8702 119.834C34.6793 120.586 34.5461 121.125 34.4771 121.451C34.2855 122.312 34.1909 122.79 34.1909 122.902C34.1909 123.206 34.2855 123.402 34.4771 123.482C34.664 123.566 35.0338 123.621 35.5931 123.654V123.98H30.9708V123.612Z" fill="#231F20"/>
<path d="M51.5853 110.092C51.3446 109.838 51.0521 109.71 50.7108 109.71C49.5191 109.71 48.4169 110.639 47.3953 112.495C46.4995 114.126 46.0526 115.531 46.0526 116.71C46.0526 117.305 46.1747 117.735 46.4238 118.004C46.6734 118.279 46.9789 118.411 47.3486 118.411C48.434 118.411 49.4832 117.512 50.4927 115.709C51.4631 114.069 51.9487 112.59 51.9487 111.271C51.9487 110.734 51.8238 110.343 51.5853 110.092ZM51.9356 109.668C52.1012 109.836 52.2301 110.047 52.3287 110.315L52.3846 110.467L52.6253 109.633C52.6576 109.536 52.686 109.474 52.7053 109.441C52.7268 109.406 52.7804 109.386 52.8598 109.38L54.115 109.236C54.1791 109.236 54.2185 109.248 54.2316 109.274C54.2419 109.298 54.2398 109.344 54.2226 109.413C54.1929 109.51 54.1708 109.583 54.1564 109.642C54.1411 109.695 54.1178 109.779 54.0854 109.881L53.0123 113.853C52.7756 114.721 52.5824 115.469 52.4149 116.096C52.1507 117.232 52.0149 117.878 52.0149 118.042C52.0149 118.145 52.0452 118.222 52.0991 118.269C52.1507 118.315 52.217 118.339 52.2991 118.339C52.361 118.339 52.4362 118.319 52.5136 118.273C52.5957 118.229 52.6902 118.165 52.8038 118.072L52.9977 117.92C53.0578 117.867 53.1267 117.809 53.2061 117.737C53.2792 117.669 53.3715 117.581 53.477 117.479L54.1881 116.772L54.4489 117C53.6722 117.984 53.0557 118.652 52.5867 119.003C52.1183 119.355 51.6707 119.532 51.2522 119.532C50.9749 119.532 50.7645 119.432 50.6156 119.245C50.47 119.049 50.3969 118.81 50.3969 118.522C50.3969 118.255 50.4439 117.876 50.5425 117.375C50.6391 116.879 50.7343 116.461 50.8259 116.121C50.6977 116.344 50.4783 116.666 50.1707 117.093C49.8672 117.517 49.4915 117.929 49.0418 118.328C48.5155 118.808 48.0107 119.15 47.5292 119.347C47.1506 119.483 46.7871 119.552 46.4438 119.552C45.8609 119.552 45.3299 119.302 44.8554 118.81C44.3782 118.319 44.1415 117.619 44.1415 116.716C44.1415 115.16 44.8272 113.54 46.1988 111.849C47.6149 110.093 49.081 109.219 50.6012 109.219C51.1743 109.219 51.6219 109.368 51.9356 109.668Z" fill="#231F20"/>
<path d="M59.5641 109.243C59.5924 109.283 59.6057 109.333 59.6057 109.382C59.5967 109.461 59.5883 109.52 59.5773 109.556L58.4744 113.877L58.7091 113.372C59.2291 112.325 59.8352 111.374 60.529 110.511C61.2256 109.649 61.8835 109.218 62.5091 109.218C62.8464 109.218 63.1071 109.333 63.2939 109.561C63.4767 109.792 63.5692 110.054 63.5692 110.352C63.5692 110.685 63.4781 110.962 63.2939 111.178C63.1133 111.399 62.8644 111.507 62.5417 111.507C62.3221 111.507 62.1546 111.463 62.0409 111.373C61.9263 111.28 61.8367 111.178 61.7718 111.058L61.6429 110.81C61.6174 110.766 61.5808 110.731 61.5422 110.707C61.503 110.676 61.4538 110.665 61.396 110.665C61.1118 110.665 60.7034 111.071 60.1726 111.875C59.6393 112.684 59.16 113.557 58.7435 114.501C58.4877 115.071 58.2063 115.828 57.8918 116.769C57.6965 117.362 57.4367 118.202 57.1096 119.289H55.444L57.26 112.57C57.3614 112.188 57.4428 111.849 57.5047 111.544C57.5634 111.247 57.5952 111.002 57.5952 110.81C57.5952 110.59 57.5413 110.422 57.4345 110.304C57.3268 110.189 57.14 110.132 56.8731 110.132C56.7848 110.132 56.6772 110.138 56.5463 110.151C56.4172 110.167 56.2626 110.185 56.082 110.207V109.838L56.5145 109.755C57.0814 109.636 57.7007 109.51 58.371 109.38C59.0395 109.245 59.3945 109.181 59.431 109.181C59.496 109.181 59.5407 109.199 59.5641 109.243Z" fill="#231F20"/>
<path d="M67.5287 106.444C67.3225 106.207 67.2169 105.921 67.2169 105.588C67.2169 105.246 67.3225 104.958 67.5287 104.721C67.739 104.484 67.9929 104.364 68.2893 104.364C68.586 104.364 68.8397 104.484 69.057 104.721C69.2702 104.958 69.3769 105.246 69.3769 105.588C69.3769 105.927 69.2702 106.217 69.057 106.447C68.8397 106.681 68.586 106.801 68.2893 106.801C67.9929 106.801 67.739 106.681 67.5287 106.444ZM68.5515 109.221C68.5907 109.245 68.6081 109.276 68.6012 109.316L66.4169 117.252C66.3162 117.673 66.2645 117.926 66.2645 118.006C66.2645 118.121 66.286 118.218 66.3294 118.297C66.3678 118.387 66.4583 118.431 66.6018 118.431C66.8453 118.431 67.1695 118.211 67.5736 117.774C67.81 117.517 68.1045 117.142 68.4508 116.659L68.7343 116.904L68.6246 117.06C68.0832 117.841 67.6362 118.403 67.281 118.745C66.7267 119.28 66.1851 119.552 65.6611 119.552C65.3492 119.552 65.0885 119.412 64.8872 119.148C64.6782 118.883 64.5775 118.561 64.5775 118.198C64.5775 117.984 64.59 117.797 64.6182 117.635C64.6478 117.475 64.7024 117.239 64.7838 116.928L66.3294 111.207C66.3528 111.119 66.3699 111.037 66.3852 110.965C66.3956 110.89 66.4065 110.817 66.4065 110.74C66.4065 110.475 66.3121 110.31 66.1203 110.246C65.9292 110.185 65.5526 110.151 64.992 110.151V109.785C65.5831 109.71 66.0107 109.658 66.2707 109.616C66.5313 109.576 66.7935 109.532 67.0596 109.49C67.4017 109.431 67.7238 109.364 68.0335 109.291C68.3391 109.218 68.5129 109.194 68.5515 109.221Z" fill="#231F20"/>
<path d="M70.0715 119.289L71.9239 112.44C72.0833 111.862 72.1756 111.509 72.2018 111.386C72.2253 111.267 72.2384 111.132 72.2384 110.989C72.2384 110.772 72.1797 110.603 72.0617 110.482C71.9439 110.358 71.7115 110.297 71.3652 110.297C71.2791 110.297 71.1935 110.304 71.1094 110.315C71.0259 110.325 70.9356 110.338 70.8342 110.352V109.988C71.3032 109.913 71.6322 109.856 71.8295 109.82C72.0273 109.783 72.2426 109.737 72.4722 109.688L74.3985 109.254C74.4413 109.283 74.4688 109.318 74.4826 109.356L73.0612 114.128C73.9467 112.744 74.6881 111.712 75.2861 111.04C76.3309 109.849 77.2641 109.254 78.0939 109.254C78.4117 109.254 78.6869 109.318 78.9193 109.443C79.36 109.688 79.5814 110.125 79.5814 110.764C79.5814 110.943 79.5643 111.128 79.5289 111.32C79.4912 111.514 79.4456 111.721 79.3876 111.941L77.96 117.254C77.9324 117.367 77.9022 117.501 77.8614 117.662C77.827 117.821 77.8096 117.931 77.8096 117.995C77.8096 118.107 77.836 118.208 77.887 118.297C77.9366 118.387 78.0158 118.431 78.1283 118.431C78.3082 118.431 78.5125 118.319 78.751 118.094C78.9876 117.869 79.3683 117.391 79.9036 116.654L80.2153 116.95C79.6387 117.764 79.1794 118.344 78.8372 118.676C78.2545 119.256 77.7 119.552 77.1688 119.552C76.9282 119.552 76.6985 119.465 76.4731 119.3C76.2517 119.13 76.1392 118.826 76.1392 118.392C76.1392 118.262 76.1482 118.129 76.1634 117.988C76.1807 117.845 76.2062 117.726 76.2337 117.62L77.6316 112.23C77.7 111.935 77.7518 111.693 77.7752 111.503C77.8013 111.316 77.8139 111.181 77.8139 111.099C77.8139 110.921 77.771 110.769 77.6877 110.639C77.6056 110.511 77.4594 110.447 77.247 110.447C76.6985 110.447 76.0061 110.943 75.1703 111.95C74.6847 112.548 74.1861 113.257 73.6786 114.084C73.2977 114.726 72.997 115.354 72.7756 115.961C72.5584 116.571 72.2122 117.679 71.737 119.289H70.0715Z" fill="#231F20"/>
<path d="M84.8299 114.726C85.0623 115.18 85.4775 115.409 86.0748 115.409C86.7218 115.409 87.3003 114.984 87.8093 114.135C88.319 113.282 88.5706 112.345 88.5706 111.317C88.5706 110.828 88.4672 110.447 88.259 110.167C88.0478 109.889 87.7362 109.75 87.3176 109.75C86.5112 109.75 85.8575 110.191 85.3679 111.072C84.8733 111.955 84.6265 112.807 84.6265 113.628C84.6265 114.084 84.6947 114.455 84.8299 114.726ZM87.1472 122.906C87.7167 122.481 88.0011 121.981 88.0011 121.392C88.0011 120.949 87.848 120.574 87.5514 120.268C87.3947 120.105 87.1368 119.931 86.7796 119.745C86.483 119.598 85.9802 119.382 85.2727 119.106C84.5636 118.826 84.1555 118.687 84.0477 118.687C83.8589 118.687 83.4952 118.945 82.956 119.463C82.4119 119.977 82.1407 120.559 82.1407 121.212C82.1407 122.201 82.5581 122.88 83.3918 123.253C83.8284 123.447 84.3658 123.544 85.0003 123.544C85.8643 123.544 86.5774 123.327 87.1472 122.906ZM81.567 119.911C81.9844 119.412 82.6374 118.914 83.538 118.423C83.3581 118.301 83.2091 118.178 83.0932 118.05C82.9815 117.92 82.9215 117.751 82.9215 117.532C82.9215 117.232 83.1276 116.881 83.538 116.49C83.7727 116.269 84.1534 115.978 84.6775 115.614C84.2153 115.436 83.8161 115.184 83.4823 114.86C83.0781 114.422 82.8759 113.853 82.8759 113.158C82.8759 112.039 83.3023 111.108 84.1534 110.365C85.0043 109.625 86.0582 109.254 87.3176 109.254C87.9728 109.254 88.5301 109.36 88.9852 109.571C89.4363 109.781 89.7081 109.955 89.7866 110.093H91.2486V110.985H90.1397C90.1824 111.147 90.2171 111.296 90.2363 111.429C90.2597 111.56 90.2687 111.751 90.2687 111.996C90.2687 113.198 89.8177 114.144 88.9142 114.834C88.0094 115.521 87.0355 115.868 85.9884 115.868C85.8817 115.868 85.7803 115.859 85.6858 115.85C85.5912 115.839 85.4775 115.821 85.3396 115.791C85.2319 115.791 85.0857 115.896 84.8968 116.111C84.7008 116.328 84.6044 116.518 84.6044 116.69C84.6044 116.939 85.3982 117.371 86.9866 117.975C88.5687 118.59 89.3597 119.487 89.3597 120.666C89.3597 121.555 88.9596 122.331 88.1679 122.997C87.3706 123.665 86.1714 124 84.5677 124C83.4526 124 82.5712 123.755 81.9215 123.268C81.2705 122.781 80.9435 122.184 80.9435 121.487C80.9435 120.934 81.1525 120.407 81.567 119.911Z" fill="#231F20"/>
<path d="M105.629 111.071C105.419 110.531 105.025 110.264 104.445 110.264C103.946 110.264 103.407 110.517 102.82 111.024C102.235 111.536 101.747 112.373 101.35 113.544C101.033 114.467 100.737 115.436 100.459 116.447C100.184 117.462 100.045 118.054 100.045 118.229C100.045 118.51 100.157 118.718 100.38 118.853C100.608 118.987 100.875 119.053 101.188 119.053C102.446 119.053 103.551 118.229 104.507 116.586C105.365 115.116 105.793 113.654 105.793 112.208C105.793 111.732 105.737 111.348 105.629 111.071ZM95.66 123.612C96.0938 123.612 96.4206 123.528 96.6358 123.363C96.8613 123.196 97.0179 122.911 97.1214 122.51L100.101 111.693C100.174 111.423 100.221 111.227 100.24 111.108C100.256 110.989 100.266 110.892 100.266 110.828C100.266 110.581 100.178 110.398 100.002 110.277C99.8235 110.158 99.5677 110.101 99.2285 110.101C99.1587 110.101 99.0925 110.101 99.0262 110.108C98.9615 110.112 98.8924 110.116 98.8193 110.134L98.798 109.765L102.315 109.245C102.36 109.239 102.392 109.267 102.414 109.333C102.384 109.461 102.355 109.556 102.336 109.625L101.747 111.67C102.218 111.022 102.65 110.526 103.046 110.189C103.761 109.563 104.503 109.254 105.273 109.254C106.057 109.254 106.676 109.499 107.121 109.993C107.569 110.482 107.792 111.232 107.792 112.248C107.792 113.983 107.082 115.634 105.658 117.21C104.247 118.769 102.784 119.552 101.266 119.552C100.965 119.552 100.709 119.516 100.503 119.459C100.294 119.397 100.04 119.296 99.7436 119.15L99.5574 119.834C99.3635 120.586 99.2296 121.125 99.1614 121.451C98.9718 122.312 98.8801 122.79 98.8801 122.902C98.8801 123.206 98.9718 123.402 99.1614 123.482C99.3483 123.566 99.7201 123.621 100.275 123.654V123.98H95.66V123.612Z" fill="#231F20"/>
<path d="M114.855 113.052C115.715 112.263 116.149 111.48 116.149 110.707C116.149 110.424 116.081 110.2 115.952 110.037C115.827 109.867 115.638 109.785 115.384 109.785C114.912 109.785 114.455 109.993 114.004 110.403C113.556 110.81 113.153 111.273 112.788 111.791C112.41 112.4 112.108 112.98 111.885 113.533C111.76 113.831 111.631 114.165 111.494 114.542C112.869 114.34 113.991 113.837 114.855 113.052ZM111.347 111.558C112.779 110.023 114.253 109.254 115.771 109.254C116.339 109.254 116.782 109.386 117.113 109.653C117.448 109.915 117.611 110.315 117.611 110.839C117.611 111.903 117.005 112.814 115.788 113.573C114.576 114.331 113.299 114.794 111.958 114.966L111.343 115.039C111.248 115.345 111.184 115.587 111.149 115.771C111.111 115.951 111.094 116.181 111.094 116.454C111.094 117.106 111.304 117.614 111.713 117.977C112.125 118.341 112.616 118.522 113.183 118.522C113.72 118.522 114.296 118.337 114.898 117.964C115.242 117.748 115.745 117.36 116.399 116.8L116.683 117.058C116.36 117.479 115.896 117.913 115.29 118.354C114.215 119.155 113.14 119.552 112.056 119.552C111.296 119.552 110.625 119.269 110.049 118.713C109.469 118.158 109.18 117.367 109.18 116.331C109.18 114.69 109.907 113.099 111.347 111.558Z" fill="#231F20"/>
<path d="M121.226 118.447C121.528 118.853 121.962 119.053 122.546 119.053C123.72 119.053 124.764 118.141 125.672 116.313C126.446 114.748 126.833 113.308 126.833 111.993C126.833 111.435 126.764 110.985 126.635 110.645C126.381 109.999 125.921 109.675 125.247 109.675C124.146 109.675 123.114 110.526 122.142 112.226C121.231 113.811 120.775 115.378 120.775 116.915C120.775 117.529 120.926 118.042 121.226 118.447ZM127.937 110.213C128.441 110.876 128.685 111.662 128.685 112.563C128.685 114.135 128.015 115.68 126.665 117.19C125.268 118.762 123.784 119.552 122.202 119.552C121.209 119.552 120.418 119.252 119.816 118.658C119.215 118.066 118.913 117.232 118.913 116.154C118.913 114.532 119.589 112.98 120.93 111.496C122.297 109.978 123.78 109.219 125.375 109.219C126.587 109.219 127.443 109.55 127.937 110.213Z" fill="#231F20"/>
<path d="M137.645 111.071C137.435 110.531 137.039 110.264 136.463 110.264C135.965 110.264 135.422 110.517 134.838 111.024C134.252 111.536 133.759 112.373 133.364 113.544C133.049 114.467 132.752 115.436 132.477 116.447C132.202 117.462 132.061 118.054 132.061 118.229C132.061 118.51 132.176 118.718 132.405 118.853C132.628 118.987 132.894 119.053 133.208 119.053C134.459 119.053 135.569 118.229 136.527 116.586C137.382 115.116 137.812 113.654 137.812 112.208C137.812 111.732 137.752 111.348 137.645 111.071ZM127.676 123.612C128.109 123.612 128.436 123.528 128.655 123.363C128.874 123.196 129.038 122.911 129.141 122.51L132.125 111.693C132.198 111.423 132.241 111.227 132.258 111.108C132.275 110.989 132.283 110.892 132.283 110.828C132.283 110.581 132.198 110.398 132.017 110.277C131.845 110.158 131.583 110.101 131.247 110.101C131.174 110.101 131.11 110.101 131.046 110.108C130.977 110.112 130.912 110.116 130.839 110.134L130.818 109.765L134.335 109.245C134.377 109.239 134.411 109.267 134.433 109.333C134.399 109.461 134.369 109.556 134.352 109.625L133.759 111.67C134.235 111.022 134.666 110.526 135.062 110.189C135.774 109.563 136.518 109.254 137.291 109.254C138.07 109.254 138.694 109.499 139.141 109.993C139.588 110.482 139.811 111.232 139.811 112.248C139.811 113.983 139.098 115.634 137.67 117.21C136.265 118.769 134.803 119.552 133.282 119.552C132.98 119.552 132.731 119.516 132.52 119.459C132.314 119.397 132.061 119.296 131.755 119.15L131.574 119.834C131.381 120.586 131.252 121.125 131.174 121.451C130.994 122.312 130.891 122.79 130.891 122.902C130.891 123.206 130.994 123.402 131.174 123.482C131.368 123.566 131.738 123.621 132.297 123.654V123.98H127.676V123.612Z" fill="#231F20"/>
<path d="M144.716 105.809C144.747 105.711 144.769 105.617 144.773 105.52C144.777 105.425 144.786 105.345 144.786 105.286C144.786 105.033 144.682 104.878 144.485 104.821C144.291 104.766 143.895 104.739 143.302 104.748V104.385C143.629 104.336 144.003 104.285 144.425 104.23C144.85 104.17 145.125 104.129 145.258 104.107C145.667 104.032 146.153 103.924 146.733 103.778C146.785 103.778 146.832 103.815 146.888 103.892L143.272 117.252C143.191 117.572 143.143 117.764 143.131 117.829C143.118 117.896 143.109 117.964 143.109 118.028C143.109 118.169 143.131 118.288 143.187 118.394C143.233 118.491 143.328 118.539 143.47 118.539C143.728 118.539 144.063 118.303 144.488 117.829C144.902 117.354 145.258 116.899 145.547 116.447L145.843 116.66C145.223 117.604 144.739 118.259 144.394 118.621C143.797 119.241 143.195 119.552 142.59 119.552C142.326 119.552 142.098 119.481 141.897 119.347C141.587 119.148 141.428 118.806 141.428 118.324C141.428 118.134 141.459 117.885 141.514 117.574C141.553 117.389 141.608 117.175 141.673 116.93L144.716 105.809Z" fill="#231F20"/>
<path d="M153.031 113.052C153.895 112.263 154.326 111.48 154.326 110.707C154.326 110.424 154.261 110.2 154.127 110.037C154.003 109.867 153.813 109.785 153.564 109.785C153.092 109.785 152.632 109.993 152.185 110.403C151.728 110.81 151.329 111.273 150.968 111.791C150.589 112.4 150.284 112.98 150.065 113.533C149.936 113.831 149.806 114.165 149.674 114.542C151.046 114.34 152.171 113.837 153.031 113.052ZM149.523 111.558C150.96 110.023 152.43 109.254 153.956 109.254C154.514 109.254 154.961 109.386 155.292 109.653C155.624 109.915 155.792 110.315 155.792 110.839C155.792 111.903 155.185 112.814 153.974 113.573C152.755 114.331 151.479 114.794 150.137 114.966L149.519 115.039C149.429 115.345 149.364 115.587 149.326 115.771C149.291 115.951 149.274 116.181 149.274 116.454C149.274 117.106 149.481 117.614 149.892 117.977C150.306 118.341 150.796 118.522 151.364 118.522C151.901 118.522 152.477 118.337 153.078 117.964C153.423 117.748 153.922 117.36 154.579 116.8L154.867 117.058C154.544 117.479 154.076 117.913 153.469 118.354C152.395 119.155 151.316 119.552 150.237 119.552C149.475 119.552 148.801 119.269 148.224 118.713C147.649 118.158 147.365 117.367 147.365 116.331C147.365 114.69 148.084 113.099 149.523 111.558Z" fill="#231F20"/>
<path d="M162.889 118.374C162.897 118.293 162.914 118.218 162.936 118.134L165.038 110.37H163.393C163.393 110.171 163.4 110.045 163.435 109.993C163.465 109.938 163.54 109.889 163.655 109.836C164.39 109.514 164.966 109.206 165.37 108.908C165.775 108.61 166.328 108.039 167.029 107.184L167.201 106.972C167.223 106.944 167.249 106.92 167.283 106.899C167.308 106.882 167.348 106.873 167.382 106.873C167.455 106.889 167.501 106.902 167.532 106.92C167.554 106.971 167.566 107.017 167.57 107.056C167.57 107.096 167.57 107.14 167.562 107.181L166.921 109.601H168.714L168.581 110.37H166.703L164.682 117.845C164.643 117.979 164.656 118.105 164.711 118.229C164.772 118.352 164.866 118.412 165.008 118.412C165.193 118.412 165.461 118.222 165.8 117.834C165.993 117.624 166.324 117.215 166.789 116.597L167.068 116.765L166.921 116.997C166.294 117.951 165.748 118.615 165.279 118.992C164.803 119.362 164.355 119.552 163.934 119.552C163.563 119.552 163.293 119.45 163.134 119.25C162.966 119.049 162.88 118.826 162.88 118.577C162.88 118.518 162.88 118.447 162.889 118.374Z" fill="#231F20"/>
<path d="M171.114 118.447C171.406 118.853 171.849 119.053 172.425 119.053C173.598 119.053 174.648 118.141 175.559 116.313C176.328 114.748 176.715 113.308 176.715 111.993C176.715 111.435 176.646 110.985 176.522 110.645C176.264 109.999 175.804 109.675 175.129 109.675C174.028 109.675 172.988 110.526 172.025 112.226C171.114 113.811 170.657 115.378 170.657 116.915C170.657 117.529 170.812 118.042 171.114 118.447ZM177.823 110.213C178.324 110.876 178.568 111.662 178.568 112.563C178.568 114.135 177.898 115.68 176.547 117.19C175.154 118.762 173.671 119.552 172.088 119.552C171.093 119.552 170.297 119.252 169.7 118.658C169.097 118.066 168.8 117.232 168.8 116.154C168.8 114.532 169.471 112.98 170.817 111.496C172.184 109.978 173.667 109.219 175.262 109.219C176.474 109.219 177.326 109.55 177.823 110.213Z" fill="#231F20"/>
<path d="M189.053 105.809C189.083 105.711 189.1 105.617 189.11 105.52C189.119 105.425 189.119 105.345 189.119 105.286C189.119 105.033 189.019 104.878 188.822 104.821C188.628 104.766 188.232 104.739 187.644 104.748V104.385C187.965 104.336 188.345 104.285 188.765 104.23C189.19 104.17 189.466 104.129 189.596 104.107C190.005 104.032 190.493 103.924 191.075 103.778C191.122 103.778 191.177 103.815 191.219 103.892L187.609 117.252C187.531 117.572 187.485 117.764 187.468 117.829C187.456 117.896 187.446 117.964 187.446 118.028C187.446 118.169 187.477 118.288 187.522 118.394C187.57 118.491 187.665 118.539 187.807 118.539C188.065 118.539 188.409 118.303 188.825 117.829C189.242 117.354 189.603 116.899 189.892 116.447L190.179 116.66C189.561 117.604 189.083 118.259 188.732 118.621C188.134 119.241 187.531 119.552 186.926 119.552C186.664 119.552 186.435 119.481 186.233 119.347C185.925 119.148 185.769 118.806 185.769 118.324C185.769 118.134 185.799 117.885 185.856 117.574C185.894 117.389 185.946 117.175 186.01 116.93L189.053 105.809Z" fill="#231F20"/>
<path d="M197.372 113.052C198.236 112.263 198.67 111.48 198.67 110.707C198.67 110.424 198.607 110.2 198.473 110.037C198.343 109.867 198.146 109.785 197.897 109.785C197.429 109.785 196.974 109.993 196.521 110.403C196.075 110.81 195.671 111.273 195.308 111.791C194.925 112.4 194.625 112.98 194.401 113.533C194.281 113.831 194.148 114.165 194.014 114.542C195.39 114.34 196.504 113.837 197.372 113.052ZM193.865 111.558C195.291 110.023 196.77 109.254 198.293 109.254C198.856 109.254 199.299 109.386 199.629 109.653C199.964 109.915 200.128 110.315 200.128 110.839C200.128 111.903 199.522 112.814 198.31 113.573C197.097 114.331 195.821 114.794 194.479 114.966L193.865 115.039C193.769 115.345 193.701 115.587 193.666 115.771C193.628 115.951 193.61 116.181 193.61 116.454C193.61 117.106 193.817 117.614 194.23 117.977C194.643 118.341 195.132 118.522 195.704 118.522C196.243 118.522 196.812 118.337 197.42 117.964C197.764 117.748 198.262 117.36 198.915 116.8L199.204 117.058C198.877 117.479 198.412 117.913 197.807 118.354C196.737 119.155 195.662 119.552 194.577 119.552C193.808 119.552 193.142 119.269 192.57 118.713C191.995 118.158 191.701 117.367 191.701 116.331C191.701 114.69 192.424 113.099 193.865 111.558Z" fill="#231F20"/>
<path d="M208.628 110.092C208.391 109.838 208.098 109.71 207.759 109.71C206.568 109.71 205.464 110.639 204.444 112.495C203.544 114.126 203.098 115.531 203.098 116.71C203.098 117.305 203.219 117.735 203.469 118.004C203.718 118.279 204.024 118.411 204.392 118.411C205.48 118.411 206.529 117.512 207.541 115.709C208.506 114.069 208.993 112.59 208.993 111.271C208.993 110.734 208.872 110.343 208.628 110.092ZM208.979 109.668C209.147 109.836 209.281 110.047 209.375 110.315L209.428 110.467L209.671 109.633C209.702 109.536 209.731 109.474 209.755 109.441C209.776 109.406 209.824 109.386 209.908 109.38L211.16 109.236C211.223 109.236 211.267 109.248 211.276 109.274C211.286 109.298 211.286 109.344 211.271 109.413C211.241 109.51 211.214 109.583 211.198 109.642C211.185 109.695 211.164 109.779 211.133 109.881L210.058 113.853C209.824 114.721 209.625 115.469 209.466 116.096C209.195 117.232 209.062 117.878 209.062 118.042C209.062 118.145 209.087 118.222 209.147 118.269C209.195 118.315 209.264 118.339 209.344 118.339C209.405 118.339 209.479 118.319 209.56 118.273C209.641 118.229 209.736 118.165 209.853 118.072L210.046 117.92C210.106 117.867 210.175 117.809 210.253 117.737C210.33 117.669 210.417 117.581 210.528 117.479L211.238 116.772L211.49 117C210.716 117.984 210.102 118.652 209.634 119.003C209.164 119.355 208.718 119.532 208.296 119.532C208.017 119.532 207.811 119.432 207.664 119.245C207.514 119.049 207.441 118.81 207.441 118.522C207.441 118.255 207.488 117.876 207.586 117.375C207.685 116.879 207.78 116.461 207.874 116.121C207.745 116.344 207.522 116.666 207.218 117.093C206.912 117.517 206.537 117.929 206.087 118.328C205.561 118.808 205.059 119.15 204.572 119.347C204.2 119.483 203.834 119.552 203.49 119.552C202.906 119.552 202.376 119.302 201.902 118.81C201.426 118.319 201.186 117.619 201.186 116.716C201.186 115.16 201.873 113.54 203.245 111.849C204.659 110.093 206.127 109.219 207.648 109.219C208.219 109.219 208.67 109.368 208.979 109.668Z" fill="#231F20"/>
<path d="M214.488 117.887C214.693 118.224 215.037 118.394 215.523 118.394C216.559 118.394 217.553 117.541 218.516 115.839C219.432 114.24 219.888 112.726 219.888 111.296C219.888 110.844 219.819 110.471 219.672 110.176C219.525 109.876 219.228 109.731 218.787 109.731C217.676 109.731 216.606 110.643 215.571 112.464C214.646 114.093 214.186 115.509 214.186 116.705C214.186 117.157 214.285 117.552 214.488 117.887ZM219.896 109.638C220.033 109.799 220.144 110.07 220.227 110.464L221.487 105.941C221.524 105.813 221.547 105.702 221.559 105.601C221.568 105.5 221.572 105.412 221.572 105.341C221.572 105.052 221.52 104.871 221.418 104.794C221.314 104.721 221.16 104.684 220.965 104.684C220.841 104.684 220.726 104.689 220.621 104.695C220.519 104.7 220.376 104.715 220.2 104.731V104.364C221.022 104.252 222.157 104.056 223.614 103.778L223.708 103.892L223.683 104.01L221.551 111.975L220.094 117.261C220.064 117.382 220.041 117.49 220.025 117.594C220.001 117.695 219.995 117.788 219.995 117.872C219.995 118.072 220.041 118.204 220.142 118.269C220.238 118.328 220.325 118.354 220.399 118.354C220.613 118.354 220.91 118.167 221.298 117.783C221.53 117.554 221.838 117.19 222.234 116.705L222.479 116.95L222.332 117.184C222.062 117.587 221.718 118.004 221.293 118.427C220.55 119.173 219.878 119.552 219.285 119.552C219.088 119.552 218.916 119.505 218.751 119.414C218.455 119.241 218.305 118.921 218.305 118.465C218.305 118.31 218.326 118.066 218.369 117.726C218.416 117.389 218.481 117.017 218.571 116.606C218.02 117.462 217.419 118.165 216.762 118.709C216.103 119.256 215.385 119.532 214.612 119.532C213.984 119.532 213.433 119.302 212.961 118.842C212.493 118.381 212.256 117.679 212.256 116.723C212.256 115.116 212.982 113.456 214.44 111.759C215.889 110.063 217.299 109.219 218.675 109.219C219.249 109.219 219.655 109.356 219.896 109.638Z" fill="#231F20"/>
<path d="M234.933 113.052C235.799 112.263 236.228 111.48 236.228 110.707C236.228 110.424 236.164 110.2 236.033 110.037C235.905 109.867 235.712 109.785 235.457 109.785C234.994 109.785 234.534 109.993 234.085 110.403C233.635 110.81 233.231 111.273 232.87 111.791C232.491 112.4 232.187 112.98 231.964 113.533C231.842 113.831 231.713 114.165 231.572 114.542C232.947 114.34 234.064 113.837 234.933 113.052ZM231.431 111.558C232.854 110.023 234.332 109.254 235.853 109.254C236.416 109.254 236.86 109.386 237.195 109.653C237.526 109.915 237.693 110.315 237.693 110.839C237.693 111.903 237.087 112.814 235.874 113.573C234.655 114.331 233.386 114.794 232.036 114.966L231.421 115.039C231.326 115.345 231.262 115.587 231.228 115.771C231.193 115.951 231.171 116.181 231.171 116.454C231.171 117.106 231.378 117.614 231.796 117.977C232.208 118.341 232.698 118.522 233.265 118.522C233.807 118.522 234.37 118.337 234.981 117.964C235.32 117.748 235.823 117.36 236.482 116.8L236.76 117.058C236.437 117.479 235.979 117.913 235.367 118.354C234.297 119.155 233.219 119.552 232.14 119.552C231.374 119.552 230.709 119.269 230.128 118.713C229.551 118.158 229.259 117.367 229.259 116.331C229.259 114.69 229.981 113.099 231.431 111.558Z" fill="#231F20"/>
<path d="M238.042 117.937C238.217 117.814 238.395 117.752 238.58 117.752C238.661 117.752 238.747 117.764 238.834 117.792C238.924 117.821 239.014 117.86 239.116 117.92L239.499 118.129C239.541 118.158 239.598 118.18 239.642 118.189C239.694 118.2 239.74 118.204 239.801 118.204C239.981 118.204 240.119 118.158 240.218 118.068C240.312 117.975 240.561 117.649 240.97 117.1C241.236 116.734 241.843 115.848 242.792 114.443C242.792 114.39 242.706 113.991 242.539 113.249C242.375 112.505 242.22 111.875 242.082 111.357C241.941 110.83 241.822 110.485 241.713 110.317C241.606 110.151 241.404 110.065 241.108 110.065C241.003 110.065 240.806 110.108 240.509 110.18C240.32 110.222 240.119 110.274 239.9 110.332L239.801 109.968L241.008 109.547C241.318 109.437 241.606 109.344 241.872 109.281C242.135 109.214 242.358 109.181 242.547 109.181C242.852 109.181 243.08 109.274 243.232 109.461C243.464 109.757 243.657 110.347 243.82 111.224L244.043 112.499C244.698 111.478 245.203 110.76 245.566 110.341C245.892 109.962 246.198 109.684 246.485 109.494C246.779 109.309 247.052 109.218 247.31 109.218C247.555 109.218 247.759 109.254 247.909 109.331C248.184 109.461 248.322 109.713 248.322 110.087C248.322 110.332 248.253 110.531 248.11 110.672C247.978 110.815 247.802 110.883 247.582 110.883C247.505 110.883 247.427 110.874 247.358 110.857C247.285 110.837 247.208 110.81 247.126 110.772L246.843 110.649C246.765 110.612 246.687 110.581 246.615 110.557C246.546 110.531 246.489 110.517 246.451 110.517C246.124 110.517 245.678 110.947 245.096 111.814C244.518 112.675 244.229 113.176 244.229 113.312C244.229 113.421 244.298 113.782 244.43 114.392C244.568 115.004 244.71 115.652 244.874 116.331C245.015 116.974 245.135 117.42 245.239 117.667C245.41 118.066 245.595 118.264 245.811 118.264C246.003 118.264 246.202 118.154 246.408 117.931C246.611 117.706 246.914 117.305 247.32 116.723L247.624 116.911C247.31 117.486 246.992 117.981 246.657 118.394C246.024 119.161 245.429 119.552 244.853 119.552C244.491 119.552 244.202 119.37 243.996 119.016C243.877 118.806 243.751 118.464 243.636 117.995L242.966 115.255L240.742 118.24C240.308 118.755 239.976 119.104 239.736 119.28C239.503 119.459 239.216 119.552 238.873 119.552C238.402 119.552 238.094 119.402 237.92 119.106C237.83 118.95 237.785 118.764 237.785 118.553C237.785 118.262 237.866 118.059 238.042 117.937Z" fill="#231F20"/>
<path d="M249.09 118.374C249.099 118.293 249.112 118.218 249.134 118.134L251.235 110.37H249.589C249.589 110.171 249.608 110.045 249.631 109.993C249.667 109.938 249.736 109.889 249.851 109.836C250.59 109.514 251.162 109.206 251.567 108.908C251.975 108.61 252.526 108.039 253.227 107.184L253.397 106.972C253.419 106.944 253.45 106.92 253.481 106.899C253.511 106.882 253.548 106.873 253.583 106.873C253.657 106.889 253.703 106.902 253.73 106.92C253.755 106.971 253.768 107.017 253.772 107.056C253.777 107.096 253.772 107.14 253.763 107.181L253.119 109.601H254.907L254.782 110.37H252.903L250.884 117.845C250.844 117.979 250.858 118.105 250.913 118.229C250.974 118.352 251.072 118.412 251.205 118.412C251.395 118.412 251.66 118.222 251.998 117.834C252.194 117.624 252.526 117.215 252.99 116.597L253.269 116.765L253.119 116.997C252.496 117.951 251.954 118.615 251.477 118.992C251.003 119.362 250.557 119.552 250.132 119.552C249.766 119.552 249.494 119.45 249.327 119.25C249.168 119.049 249.083 118.826 249.083 118.577C249.083 118.518 249.086 118.447 249.09 118.374Z" fill="#231F20"/>
<path d="M260.013 109.243C260.038 109.283 260.053 109.333 260.053 109.382C260.038 109.461 260.029 109.52 260.022 109.556L258.917 113.877L259.158 113.372C259.674 112.325 260.283 111.374 260.976 110.511C261.674 109.649 262.33 109.218 262.958 109.218C263.294 109.218 263.555 109.333 263.735 109.561C263.921 109.792 264.016 110.054 264.016 110.352C264.016 110.685 263.921 110.962 263.745 111.178C263.565 111.399 263.312 111.507 262.989 111.507C262.77 111.507 262.597 111.463 262.485 111.373C262.369 111.28 262.284 111.178 262.219 111.058L262.089 110.81C262.063 110.766 262.026 110.731 261.991 110.707C261.952 110.676 261.901 110.665 261.84 110.665C261.56 110.665 261.152 111.071 260.62 111.875C260.086 112.684 259.609 113.557 259.187 114.501C258.935 115.071 258.655 115.828 258.337 116.769C258.143 117.362 257.884 118.202 257.558 119.289H255.891L257.704 112.57C257.808 112.188 257.889 111.849 257.95 111.544C258.01 111.247 258.04 111.002 258.04 110.81C258.04 110.59 257.988 110.422 257.881 110.304C257.773 110.189 257.585 110.132 257.317 110.132C257.231 110.132 257.125 110.138 256.997 110.151C256.867 110.167 256.707 110.185 256.527 110.207V109.838L256.965 109.755C257.529 109.636 258.143 109.51 258.819 109.38C259.489 109.245 259.837 109.181 259.875 109.181C259.939 109.181 259.987 109.199 260.013 109.243Z" fill="#231F20"/>
<path d="M270.826 110.092C270.583 109.838 270.294 109.71 269.95 109.71C268.763 109.71 267.655 110.639 266.637 112.495C265.741 114.126 265.289 115.531 265.289 116.71C265.289 117.305 265.418 117.735 265.663 118.004C265.918 118.279 266.223 118.411 266.589 118.411C267.676 118.411 268.725 117.512 269.735 115.709C270.697 114.069 271.184 112.59 271.184 111.271C271.184 110.734 271.065 110.343 270.826 110.092ZM271.176 109.668C271.343 109.836 271.475 110.047 271.565 110.315L271.627 110.467L271.867 109.633C271.902 109.536 271.924 109.474 271.945 109.441C271.966 109.406 272.021 109.386 272.104 109.38L273.354 109.236C273.423 109.236 273.459 109.248 273.471 109.274C273.48 109.298 273.48 109.344 273.467 109.413C273.438 109.51 273.414 109.583 273.398 109.642C273.375 109.695 273.359 109.779 273.324 109.881L272.254 113.853C272.021 114.721 271.819 115.469 271.658 116.096C271.39 117.232 271.257 117.878 271.257 118.042C271.257 118.145 271.283 118.222 271.337 118.269C271.39 118.315 271.459 118.339 271.541 118.339C271.605 118.339 271.674 118.319 271.756 118.273C271.833 118.229 271.931 118.165 272.047 118.072L272.242 117.92C272.301 117.867 272.365 117.809 272.448 117.737C272.521 117.669 272.617 117.581 272.719 117.479L273.428 116.772L273.687 117C272.916 117.984 272.294 118.652 271.829 119.003C271.359 119.355 270.918 119.532 270.493 119.532C270.217 119.532 270.001 119.432 269.854 119.245C269.714 119.049 269.636 118.81 269.636 118.522C269.636 118.255 269.684 117.876 269.779 117.375C269.876 116.879 269.976 116.461 270.066 116.121C269.938 116.344 269.722 116.666 269.417 117.093C269.112 117.517 268.729 117.929 268.281 118.328C267.757 118.808 267.251 119.15 266.769 119.347C266.394 119.483 266.034 119.552 265.685 119.552C265.097 119.552 264.572 119.302 264.094 118.81C263.623 118.319 263.38 117.619 263.38 116.716C263.38 115.16 264.069 113.54 265.441 111.849C266.855 110.093 268.326 109.219 269.842 109.219C270.418 109.219 270.861 109.368 271.176 109.668Z" fill="#231F20"/>
<path d="M277.026 118.447C277.323 118.853 277.761 119.053 278.342 119.053C279.52 119.053 280.559 118.141 281.473 116.313C282.246 114.748 282.633 113.308 282.633 111.993C282.633 111.435 282.564 110.985 282.434 110.645C282.185 109.999 281.722 109.675 281.05 109.675C279.945 109.675 278.909 110.526 277.937 112.226C277.035 113.811 276.575 115.378 276.575 116.915C276.575 117.529 276.724 118.042 277.026 118.447ZM283.741 110.213C284.24 110.876 284.489 111.662 284.489 112.563C284.489 114.135 283.815 115.68 282.464 117.19C281.071 118.762 279.588 119.552 278.006 119.552C277.013 119.552 276.214 119.252 275.616 118.658C275.019 118.066 274.717 117.232 274.717 116.154C274.717 114.532 275.393 112.98 276.733 111.496C278.105 109.978 279.579 109.219 281.173 109.219C282.392 109.219 283.243 109.55 283.741 110.213Z" fill="#231F20"/>
<path d="M289.895 109.243C289.918 109.283 289.933 109.333 289.933 109.382C289.924 109.461 289.916 109.52 289.906 109.556L288.801 113.877L289.038 113.372C289.553 112.325 290.165 111.374 290.86 110.511C291.554 109.649 292.211 109.218 292.837 109.218C293.178 109.218 293.435 109.333 293.621 109.561C293.806 109.792 293.896 110.054 293.896 110.352C293.896 110.685 293.806 110.962 293.625 111.178C293.441 111.399 293.19 111.507 292.869 111.507C292.65 111.507 292.482 111.463 292.369 111.373C292.253 111.28 292.168 111.178 292.099 111.058L291.973 110.81C291.944 110.766 291.91 110.731 291.872 110.707C291.828 110.676 291.785 110.665 291.725 110.665C291.437 110.665 291.033 111.071 290.5 111.875C289.966 112.684 289.489 113.557 289.068 114.501C288.815 115.071 288.535 115.828 288.221 116.769C288.022 117.362 287.761 118.202 287.438 119.289H285.771L287.59 112.57C287.692 112.188 287.771 111.849 287.83 111.544C287.894 111.247 287.924 111.002 287.924 110.81C287.924 110.59 287.872 110.422 287.761 110.304C287.654 110.189 287.465 110.132 287.198 110.132C287.111 110.132 287.004 110.138 286.875 110.151C286.743 110.167 286.592 110.185 286.411 110.207V109.838L286.845 109.755C287.408 109.636 288.027 109.51 288.699 109.38C289.373 109.245 289.721 109.181 289.757 109.181C289.826 109.181 289.871 109.199 289.895 109.243Z" fill="#231F20"/>
<path d="M295.59 117.887C295.791 118.224 296.136 118.394 296.622 118.394C297.662 118.394 298.658 117.541 299.614 115.839C300.525 114.24 300.989 112.726 300.989 111.296C300.989 110.844 300.917 110.471 300.77 110.176C300.621 109.876 300.327 109.731 299.884 109.731C298.78 109.731 297.709 110.643 296.672 112.464C295.745 114.093 295.284 115.509 295.284 116.705C295.284 117.157 295.387 117.552 295.59 117.887ZM300.998 109.638C301.136 109.799 301.247 110.07 301.325 110.464L302.588 105.941C302.624 105.813 302.649 105.702 302.661 105.601C302.67 105.5 302.676 105.412 302.676 105.341C302.676 105.052 302.619 104.871 302.511 104.794C302.408 104.721 302.263 104.684 302.064 104.684C301.945 104.684 301.824 104.689 301.72 104.695C301.618 104.7 301.476 104.715 301.3 104.731V104.364C302.121 104.252 303.26 104.056 304.712 103.778L304.812 103.892L304.79 104.01L302.652 111.975L301.193 117.261C301.166 117.382 301.145 117.49 301.124 117.594C301.103 117.695 301.097 117.788 301.097 117.872C301.097 118.072 301.145 118.204 301.243 118.269C301.342 118.328 301.423 118.354 301.496 118.354C301.708 118.354 302.014 118.167 302.4 117.783C302.624 117.554 302.933 117.19 303.338 116.705L303.583 116.95L303.428 117.184C303.164 117.587 302.813 118.004 302.395 118.427C301.651 119.173 300.982 119.552 300.383 119.552C300.189 119.552 300.009 119.505 299.854 119.414C299.557 119.241 299.408 118.921 299.408 118.465C299.408 118.31 299.425 118.066 299.472 117.726C299.515 117.389 299.58 117.017 299.67 116.606C299.119 117.462 298.514 118.165 297.864 118.709C297.201 119.256 296.492 119.532 295.716 119.532C295.087 119.532 294.532 119.302 294.065 118.842C293.594 118.381 293.359 117.679 293.359 116.723C293.359 115.116 294.086 113.456 295.538 111.759C296.987 110.063 298.401 109.219 299.778 109.219C300.348 109.219 300.758 109.356 300.998 109.638Z" fill="#231F20"/>
<path d="M308.134 106.444C307.919 106.207 307.816 105.921 307.816 105.588C307.816 105.246 307.919 104.958 308.134 104.721C308.344 104.484 308.595 104.364 308.895 104.364C309.192 104.364 309.45 104.484 309.659 104.721C309.875 104.958 309.98 105.246 309.98 105.588C309.98 105.927 309.875 106.217 309.659 106.447C309.45 106.681 309.192 106.801 308.895 106.801C308.595 106.801 308.344 106.681 308.134 106.444ZM309.159 109.221C309.197 109.245 309.209 109.276 309.204 109.316L307.02 117.252C306.918 117.673 306.871 117.926 306.871 118.006C306.871 118.121 306.892 118.218 306.936 118.297C306.969 118.387 307.059 118.431 307.206 118.431C307.451 118.431 307.774 118.211 308.176 117.774C308.413 117.517 308.703 117.142 309.05 116.659L309.339 116.904L309.23 117.06C308.685 117.841 308.242 118.403 307.885 118.745C307.334 119.28 306.789 119.552 306.264 119.552C305.956 119.552 305.692 119.412 305.486 119.148C305.284 118.883 305.181 118.561 305.181 118.198C305.181 117.984 305.194 117.797 305.225 117.635C305.255 117.475 305.305 117.239 305.384 116.928L306.936 111.207C306.957 111.119 306.974 111.037 306.987 110.965C307.004 110.89 307.008 110.817 307.008 110.74C307.008 110.475 306.914 110.31 306.72 110.246C306.534 110.185 306.157 110.151 305.594 110.151V109.785C306.187 109.71 306.612 109.658 306.876 109.616C307.137 109.576 307.4 109.532 307.661 109.49C308.005 109.431 308.333 109.364 308.637 109.291C308.947 109.218 309.114 109.194 309.159 109.221Z" fill="#231F20"/>
<path d="M310.675 119.289L312.529 112.44C312.688 111.862 312.778 111.509 312.804 111.386C312.829 111.267 312.847 111.132 312.847 110.989C312.847 110.772 312.782 110.603 312.667 110.482C312.545 110.358 312.313 110.297 311.966 110.297C311.883 110.297 311.793 110.304 311.712 110.315C311.634 110.325 311.54 110.338 311.442 110.352V109.988C311.905 109.913 312.241 109.856 312.439 109.82C312.631 109.783 312.847 109.737 313.074 109.688L315.001 109.254C315.043 109.283 315.07 109.318 315.087 109.356L313.668 114.128C314.554 112.744 315.292 111.712 315.886 111.04C316.936 109.849 317.863 109.254 318.693 109.254C319.016 109.254 319.291 109.318 319.522 109.443C319.965 109.688 320.184 110.125 320.184 110.764C320.184 110.943 320.168 111.128 320.134 111.32C320.094 111.514 320.046 111.721 319.987 111.941L318.563 117.254C318.539 117.367 318.509 117.501 318.465 117.662C318.431 117.821 318.414 117.931 318.414 117.995C318.414 118.107 318.44 118.208 318.486 118.297C318.539 118.387 318.62 118.431 318.737 118.431C318.913 118.431 319.123 118.319 319.355 118.094C319.591 117.869 319.971 117.391 320.507 116.654L320.822 116.95C320.241 117.764 319.776 118.344 319.441 118.676C318.86 119.256 318.306 119.552 317.773 119.552C317.536 119.552 317.296 119.465 317.077 119.3C316.852 119.13 316.745 118.826 316.745 118.392C316.745 118.262 316.75 118.129 316.768 117.988C316.783 117.845 316.81 117.726 316.84 117.62L318.233 112.23C318.306 111.935 318.354 111.693 318.38 111.503C318.41 111.316 318.419 111.181 318.419 111.099C318.419 110.921 318.375 110.769 318.29 110.639C318.212 110.511 318.06 110.447 317.851 110.447C317.296 110.447 316.613 110.943 315.78 111.95C315.284 112.548 314.791 113.257 314.282 114.084C313.899 114.726 313.599 115.354 313.38 115.961C313.16 116.571 312.814 117.679 312.343 119.289H310.675Z" fill="#231F20"/>
<path d="M329.157 110.092C328.917 109.838 328.624 109.71 328.276 109.71C327.094 109.71 325.984 110.639 324.966 112.495C324.067 114.126 323.62 115.531 323.62 116.71C323.62 117.305 323.746 117.735 323.995 118.004C324.244 118.279 324.553 118.411 324.918 118.411C326.01 118.411 327.051 117.512 328.06 115.709C329.028 114.069 329.52 112.59 329.52 111.271C329.52 110.734 329.398 110.343 329.157 110.092ZM329.505 109.668C329.669 109.836 329.807 110.047 329.901 110.315L329.954 110.467L330.203 109.633C330.227 109.536 330.253 109.474 330.274 109.441C330.296 109.406 330.348 109.386 330.431 109.38L331.689 109.236C331.749 109.236 331.793 109.248 331.802 109.274C331.809 109.298 331.809 109.344 331.797 109.413C331.763 109.51 331.742 109.583 331.724 109.642C331.71 109.695 331.689 109.779 331.655 109.881L330.586 113.853C330.348 114.721 330.15 115.469 329.987 116.096C329.726 117.232 329.588 117.878 329.588 118.042C329.588 118.145 329.612 118.222 329.664 118.269C329.726 118.315 329.79 118.339 329.866 118.339C329.93 118.339 330.004 118.319 330.086 118.273C330.163 118.229 330.257 118.165 330.379 118.072L330.568 117.92C330.632 117.867 330.701 117.809 330.77 117.737C330.85 117.669 330.942 117.581 331.045 117.479L331.755 116.772L332.016 117C331.242 117.984 330.624 118.652 330.155 119.003C329.69 119.355 329.244 119.532 328.822 119.532C328.546 119.532 328.33 119.432 328.19 119.245C328.039 119.049 327.962 118.81 327.962 118.522C327.962 118.255 328.013 117.876 328.112 117.375C328.207 116.879 328.307 116.461 328.397 116.121C328.267 116.344 328.048 116.666 327.742 117.093C327.438 117.517 327.059 117.929 326.617 118.328C326.089 118.808 325.576 119.15 325.099 119.347C324.726 119.483 324.361 119.552 324.016 119.552C323.431 119.552 322.901 119.302 322.425 118.81C321.948 118.319 321.712 117.619 321.712 116.716C321.712 115.16 322.398 113.54 323.767 111.849C325.182 110.093 326.651 109.219 328.169 109.219C328.744 109.219 329.192 109.368 329.505 109.668Z" fill="#231F20"/>
<path d="M337.136 109.243C337.157 109.283 337.175 109.333 337.175 109.382C337.171 109.461 337.153 109.52 337.144 109.556L336.04 113.877L336.285 113.372C336.797 112.325 337.408 111.374 338.103 110.511C338.795 109.649 339.448 109.218 340.081 109.218C340.416 109.218 340.68 109.333 340.862 109.561C341.045 109.792 341.138 110.054 341.138 110.352C341.138 110.685 341.048 110.962 340.868 111.178C340.688 111.399 340.431 111.507 340.11 111.507C339.892 111.507 339.724 111.463 339.61 111.373C339.493 111.28 339.406 111.178 339.341 111.058L339.213 110.81C339.187 110.766 339.149 110.731 339.109 110.707C339.076 110.676 339.023 110.665 338.969 110.665C338.684 110.665 338.28 111.071 337.737 111.875C337.21 112.684 336.731 113.557 336.311 114.501C336.053 115.071 335.778 115.828 335.46 116.769C335.272 117.362 335.004 118.202 334.681 119.289H333.013L334.832 112.57C334.93 112.188 335.012 111.849 335.073 111.544C335.134 111.247 335.163 111.002 335.163 110.81C335.163 110.59 335.113 110.422 335.004 110.304C334.897 110.189 334.708 110.132 334.441 110.132C334.355 110.132 334.244 110.138 334.114 110.151C333.99 110.167 333.831 110.185 333.651 110.207V109.838L334.088 109.755C334.652 109.636 335.272 109.51 335.936 109.38C336.612 109.245 336.964 109.181 336.998 109.181C337.067 109.181 337.111 109.199 337.136 109.243Z" fill="#231F20"/>
<path d="M340.73 122.351C340.877 122.181 341.088 122.093 341.363 122.093C341.539 122.093 341.702 122.13 341.836 122.199C341.974 122.271 342.12 122.375 342.274 122.507L342.42 122.624C342.467 122.66 342.51 122.686 342.571 122.706C342.621 122.728 342.682 122.735 342.743 122.735C343.1 122.735 343.67 122.254 344.454 121.297C345.231 120.338 345.623 119.641 345.623 119.205C345.623 118.79 345.489 117.977 345.219 116.765C344.952 115.548 344.685 114.467 344.433 113.524C344.08 112.197 343.757 111.291 343.466 110.819C343.172 110.347 342.738 110.112 342.171 110.112C342.123 110.112 342.054 110.116 341.943 110.125C341.84 110.138 341.662 110.158 341.411 110.189V109.82L344.368 109.239L344.595 109.218C344.775 109.194 345.12 110.03 345.635 111.719C346.096 113.236 346.387 114.34 346.501 115.021L346.938 117.671C347.699 116.368 348.254 115.369 348.606 114.678C349.303 113.312 349.655 112.351 349.655 111.8C349.655 111.676 349.629 111.553 349.586 111.429C349.544 111.311 349.441 111.203 349.287 111.117L349.102 111.016C348.985 110.96 348.853 110.844 348.696 110.681C348.537 110.517 348.466 110.301 348.466 110.03C348.466 109.798 348.532 109.603 348.684 109.448C348.826 109.293 349.045 109.218 349.329 109.218C349.686 109.218 349.977 109.325 350.201 109.545C350.42 109.759 350.533 110.134 350.533 110.66C350.533 111.448 350.111 112.718 349.268 114.467C348.616 115.804 347.894 117.102 347.089 118.354C346.088 119.926 345.224 121.138 344.5 121.988C343.352 123.327 342.403 124 341.641 124C341.345 124 341.088 123.905 340.86 123.723C340.628 123.535 340.516 123.283 340.516 122.962C340.516 122.723 340.59 122.521 340.73 122.351Z" fill="#231F20"/>
<path d="M360.687 105.809C360.713 105.711 360.735 105.617 360.739 105.52C360.752 105.425 360.752 105.345 360.752 105.286C360.752 105.033 360.651 104.878 360.455 104.821C360.258 104.766 359.866 104.739 359.277 104.748V104.385C359.6 104.336 359.973 104.285 360.4 104.23C360.825 104.17 361.095 104.129 361.228 104.107C361.636 104.032 362.128 103.924 362.704 103.778C362.754 103.778 362.802 103.815 362.859 103.892L359.242 117.252C359.165 117.572 359.114 117.764 359.102 117.829C359.083 117.896 359.078 117.964 359.078 118.028C359.078 118.169 359.104 118.288 359.156 118.394C359.204 118.491 359.299 118.539 359.437 118.539C359.695 118.539 360.037 118.303 360.455 117.829C360.876 117.354 361.232 116.899 361.52 116.447L361.816 116.66C361.19 117.604 360.708 118.259 360.364 118.621C359.767 119.241 359.165 119.552 358.559 119.552C358.297 119.552 358.069 119.481 357.868 119.347C357.556 119.148 357.398 118.806 357.398 118.324C357.398 118.134 357.433 117.885 357.484 117.574C357.526 117.389 357.579 117.175 357.643 116.93L360.687 105.809Z" fill="#231F20"/>
<path d="M366.646 106.444C366.439 106.207 366.332 105.921 366.332 105.588C366.332 105.246 366.439 104.958 366.646 104.721C366.856 104.484 367.113 104.364 367.407 104.364C367.706 104.364 367.958 104.484 368.171 104.721C368.383 104.958 368.489 105.246 368.489 105.588C368.489 105.927 368.383 106.217 368.171 106.447C367.958 106.681 367.706 106.801 367.407 106.801C367.113 106.801 366.856 106.681 366.646 106.444ZM367.668 109.221C367.706 109.245 367.725 109.276 367.721 109.316L365.537 117.252C365.433 117.673 365.381 117.926 365.381 118.006C365.381 118.121 365.408 118.218 365.447 118.297C365.48 118.387 365.57 118.431 365.72 118.431C365.962 118.431 366.284 118.211 366.684 117.774C366.925 117.517 367.222 117.142 367.562 116.659L367.849 116.904L367.742 117.06C367.203 117.841 366.753 118.403 366.406 118.745C365.842 119.28 365.3 119.552 364.776 119.552C364.465 119.552 364.213 119.412 364.001 119.148C363.796 118.883 363.691 118.561 363.691 118.198C363.691 117.984 363.705 117.797 363.734 117.635C363.766 117.475 363.821 117.239 363.898 116.928L365.447 111.207C365.469 111.119 365.484 111.037 365.498 110.965C365.514 110.89 365.523 110.817 365.523 110.74C365.523 110.475 365.429 110.31 365.235 110.246C365.046 110.185 364.669 110.151 364.109 110.151V109.785C364.698 109.71 365.127 109.658 365.385 109.616C365.649 109.576 365.915 109.532 366.173 109.49C366.52 109.431 366.843 109.364 367.149 109.291C367.455 109.218 367.631 109.194 367.668 109.221Z" fill="#231F20"/>
<path d="M377.917 109.697C378.136 109.997 378.244 110.333 378.244 110.712C378.244 111.712 377.287 113.467 375.36 115.973C373.528 118.354 372.428 119.552 372.063 119.552C371.954 119.552 371.878 119.397 371.847 119.091C371.826 118.921 371.814 118.632 371.814 118.222C371.814 117.726 371.766 116.882 371.671 115.696C371.577 114.51 371.487 113.63 371.401 113.061C371.221 111.805 371.043 110.996 370.871 110.635C370.699 110.268 370.369 110.09 369.882 110.09C369.804 110.09 369.711 110.092 369.608 110.101C369.505 110.11 369.38 110.116 369.242 110.134V109.838C369.462 109.796 369.92 109.695 370.618 109.545C371.314 109.391 371.679 109.305 371.727 109.291L372.084 109.181C372.191 109.151 372.264 109.206 372.329 109.356C372.381 109.497 372.458 109.763 372.545 110.158C372.818 111.448 373.03 112.72 373.167 113.974C373.252 114.753 373.34 115.903 373.426 117.433L373.782 117.045C374.526 116.236 375.262 115.275 376.005 114.163C376.74 113.05 377.111 112.264 377.111 111.8C377.111 111.571 376.947 111.296 376.629 110.974C376.302 110.649 376.138 110.357 376.138 110.09C376.138 109.843 376.221 109.642 376.38 109.49C376.547 109.333 376.745 109.254 376.985 109.254C377.393 109.254 377.704 109.402 377.917 109.697Z" fill="#231F20"/>
<path d="M385.008 113.052C385.872 112.263 386.301 111.48 386.301 110.707C386.301 110.424 386.233 110.2 386.107 110.037C385.979 109.867 385.79 109.785 385.533 109.785C385.068 109.785 384.607 109.993 384.155 110.403C383.708 110.81 383.3 111.273 382.944 111.791C382.557 112.4 382.255 112.98 382.037 113.533C381.911 113.831 381.788 114.165 381.645 114.542C383.022 114.34 384.14 113.837 385.008 113.052ZM381.499 111.558C382.927 110.023 384.406 109.254 385.927 109.254C386.491 109.254 386.934 109.386 387.267 109.653C387.6 109.915 387.768 110.315 387.768 110.839C387.768 111.903 387.16 112.814 385.946 113.573C384.728 114.331 383.451 114.794 382.114 114.966L381.499 115.039C381.404 115.345 381.335 115.587 381.302 115.771C381.263 115.951 381.245 116.181 381.245 116.454C381.245 117.106 381.451 117.614 381.865 117.977C382.282 118.341 382.768 118.522 383.34 118.522C383.881 118.522 384.448 118.337 385.051 117.964C385.398 117.748 385.898 117.36 386.551 116.8L386.833 117.058C386.513 117.479 386.042 117.913 385.443 118.354C384.367 119.155 383.292 119.552 382.213 119.552C381.444 119.552 380.777 119.269 380.2 118.713C379.624 118.158 379.337 117.367 379.337 116.331C379.337 114.69 380.056 113.099 381.499 111.558Z" fill="#231F20"/>
<path d="M389.268 115.958H389.624C389.783 116.857 389.973 117.521 390.188 117.938C390.583 118.707 391.176 119.09 391.963 119.09C392.402 119.09 392.771 118.93 393.073 118.612C393.369 118.297 393.52 117.876 393.52 117.351C393.52 117.025 393.48 116.76 393.404 116.551C393.331 116.348 393.235 116.157 393.119 115.991L392.225 114.627C391.683 113.8 391.344 113.245 391.207 112.964C391 112.543 390.893 112.12 390.893 111.694C390.893 111.053 391.117 110.485 391.572 109.993C392.018 109.499 392.663 109.254 393.499 109.254C393.85 109.254 394.254 109.325 394.707 109.457C395.162 109.595 395.471 109.664 395.635 109.664C395.819 109.664 395.953 109.629 396.033 109.554C396.123 109.479 396.202 109.382 396.28 109.254H396.588L396.145 112.407H395.784C395.689 111.693 395.554 111.154 395.363 110.79C395.02 110.12 394.473 109.785 393.721 109.785C393.404 109.785 393.119 109.889 392.875 110.09C392.621 110.292 392.5 110.588 392.5 110.983C392.5 111.282 392.556 111.553 392.669 111.78C392.776 112.007 393.029 112.413 393.425 113L394.194 114.128C394.59 114.71 394.873 115.187 395.036 115.557C395.2 115.927 395.287 116.326 395.287 116.752C395.287 117.547 394.961 118.222 394.293 118.764C393.627 119.311 392.837 119.582 391.92 119.582C391.629 119.582 391.207 119.52 390.66 119.397C390.11 119.269 389.793 119.207 389.706 119.207C389.565 119.207 389.457 119.24 389.389 119.302C389.314 119.364 389.251 119.459 389.199 119.582H388.838L389.268 115.958Z" fill="#231F20"/>
</svg>
